<svg xmlns="http://www.w3.org/2000/svg" width="81.807" height="77.791" viewBox="0 0 81.807 77.791">
  <g id="ley_2_" data-name="ley (2)" transform="translate(0 -12.565)">
    <g id="Grupo_80277" data-name="Grupo 80277" transform="translate(17.074 62.542)">
      <g id="Grupo_80268" data-name="Grupo 80268" transform="translate(0 4.488)">
        <path id="Trazado_113586" data-name="Trazado 113586" d="M114.195,362.855c0,6.354,3.017,9.409,3.017,9.409h-6.548a1.634,1.634,0,0,1-1.335-.683,16.655,16.655,0,0,1,0-17.453,1.634,1.634,0,0,1,1.335-.683h6.548S114.195,356.5,114.195,362.855Z" transform="translate(-106.86 -353.445)" fill="#ffc631"/>
        <path id="Trazado_113587" data-name="Trazado 113587" d="M117.213,353.445s-2.932,2.968-3.015,9.14l-6.143,6.653a16.522,16.522,0,0,1-1.193-6.383,14.932,14.932,0,0,1,2.469-8.727,1.634,1.634,0,0,1,1.335-.683h6.548Z" transform="translate(-106.861 -353.445)" fill="#cc9e27"/>
        <path id="Trazado_113588" data-name="Trazado 113588" d="M194.543,362.853a14.288,14.288,0,0,0,3.43,9.41H145.481s-3.017-3.055-3.017-9.41,3.017-9.41,3.017-9.41h52.491A14.288,14.288,0,0,0,194.543,362.853Z" transform="translate(-136.775 -353.443)" fill="#e0d3ce"/>
        <g id="Grupo_80267" data-name="Grupo 80267" transform="translate(5.689 0)">
          <path id="Trazado_113589" data-name="Trazado 113589" d="M152.549,353.445,142.518,364.31c-.035-.464-.054-.95-.054-1.455,0-6.355,3.017-9.41,3.017-9.41Z" transform="translate(-142.464 -353.445)" fill="#cdbfbb"/>
          <path id="Trazado_113590" data-name="Trazado 113590" d="M435.7,362.86a14.286,14.286,0,0,0,3.43,9.409h-6.22a14.62,14.62,0,0,1,0-18.818h6.22A14.282,14.282,0,0,0,435.7,362.86Z" transform="translate(-383.622 -353.45)" fill="#cdbfbb"/>
        </g>
      </g>
      <g id="Grupo_80272" data-name="Grupo 80272" transform="translate(7.082)">
        <g id="Grupo_80270" data-name="Grupo 80270" transform="translate(0)">
          <path id="Trazado_113591" data-name="Trazado 113591" d="M208.837,328.084a2.731,2.731,0,0,1-2.731,2.731H153.92a2.732,2.732,0,0,1,0-5.463h52.187A2.732,2.732,0,0,1,208.837,328.084Z" transform="translate(-151.189 -325.352)" fill="#ffc631"/>
          <g id="Grupo_80269" data-name="Grupo 80269">
            <path id="Trazado_113592" data-name="Trazado 113592" d="M164.023,325.352l-5.042,5.463H153.92a2.732,2.732,0,0,1,0-5.463Z" transform="translate(-151.189 -325.352)" fill="#cc9e27"/>
            <path id="Trazado_113593" data-name="Trazado 113593" d="M469.77,328.087a2.734,2.734,0,0,1-2.733,2.733h-5.3a2.732,2.732,0,0,0,0-5.463h5.3A2.732,2.732,0,0,1,469.77,328.087Z" transform="translate(-412.121 -325.355)" fill="#cc9e27"/>
          </g>
        </g>
        <g id="Grupo_80271" data-name="Grupo 80271" transform="translate(0 22.333)">
          <path id="Trazado_113594" data-name="Trazado 113594" d="M206.1,470.588H153.917a2.731,2.731,0,0,1,0-5.463H206.1a2.731,2.731,0,1,1,0,5.463Z" transform="translate(-151.186 -465.125)" fill="#ffc631"/>
          <path id="Trazado_113595" data-name="Trazado 113595" d="M469.77,467.86a2.73,2.73,0,0,1-2.733,2.731h-5.3a2.731,2.731,0,1,0,0-5.461h5.3A2.732,2.732,0,0,1,469.77,467.86Z" transform="translate(-412.12 -465.129)" fill="#99771d"/>
        </g>
      </g>
      <g id="Grupo_80276" data-name="Grupo 80276" transform="translate(5.755 9.84)">
        <g id="Grupo_80273" data-name="Grupo 80273">
          <path id="Trazado_113596" data-name="Trazado 113596" d="M169,388.17a1.234,1.234,0,0,1-1.234,1.234H142.876a17.025,17.025,0,0,1,.383-2.469h24.507A1.234,1.234,0,0,1,169,388.17Z" transform="translate(-142.876 -386.935)" fill="#cdbfbb"/>
        </g>
        <g id="Grupo_80274" data-name="Grupo 80274" transform="translate(33.829 0)">
          <path id="Trazado_113597" data-name="Trazado 113597" d="M373.342,386.936a14.591,14.591,0,0,0-.476,2.469H355.833a1.234,1.234,0,0,1,0-2.469h17.509Z" transform="translate(-354.599 -386.936)" fill="#cdbfbb"/>
        </g>
        <g id="Grupo_80275" data-name="Grupo 80275" transform="translate(9.24 5.608)">
          <path id="Trazado_113598" data-name="Trazado 113598" d="M230.7,424.5h-28.76a1.234,1.234,0,1,1,0-2.469H230.7a1.234,1.234,0,1,1,0,2.469Z" transform="translate(-200.708 -422.034)" fill="#cdbfbb"/>
        </g>
      </g>
    </g>
    <g id="Grupo_80286" data-name="Grupo 80286" transform="translate(0 12.565)">
      <g id="Grupo_80280" data-name="Grupo 80280" transform="translate(0 31.387)">
        <g id="Grupo_80278" data-name="Grupo 80278" transform="translate(0 10.448)">
          <path id="Trazado_113599" data-name="Trazado 113599" d="M35.956,278.809l-4.41-4.41L1.529,302.109a4.753,4.753,0,1,0,6.717,6.717Z" transform="translate(0 -274.399)" fill="#873f30"/>
          <path id="Trazado_113600" data-name="Trazado 113600" d="M9.342,316.1a4.755,4.755,0,0,1-6.72,0A4.706,4.706,0,0,1,1.462,314.2a4.747,4.747,0,0,0,4.824-1.155c.046-.046.091-.094.135-.141l27.711-30.018,3.053,3.053L9.474,315.958c-.044.047-.088.094-.132.138Z" transform="translate(-1.228 -281.531)" fill="#6c3328"/>
        </g>
        <path id="Trazado_113601" data-name="Trazado 113601" d="M198.817,209.008,188.663,221.12l4.148,4.148,12.112-10.154Z" transform="translate(-158.519 -209.008)" fill="#873f30"/>
        <path id="Trazado_113602" data-name="Trazado 113602" d="M207.409,209.008l-3.281,3.914.985.985a1.855,1.855,0,0,1,0,2.624l-6.223,6.223,2.514,2.514,12.112-10.154Z" transform="translate(-167.111 -209.008)" fill="#6c3328"/>
        <g id="Grupo_80279" data-name="Grupo 80279" transform="translate(26.784 9.632)">
          <path id="Trazado_113603" data-name="Trazado 113603" d="M172.533,278.407l-4.026-4.026a2.981,2.981,0,0,1,4.215-4.215l4.026,4.026a2.981,2.981,0,0,1-4.215,4.215Z" transform="translate(-167.633 -269.292)" fill="#ba5d4f"/>
          <path id="Trazado_113604" data-name="Trazado 113604" d="M186.456,288.121a2.981,2.981,0,0,1-4.215,0l-3.052-3.052a2.981,2.981,0,0,0,4.215-4.215l3.052,3.052A2.979,2.979,0,0,1,186.456,288.121Z" transform="translate(-177.343 -279.007)" fill="#a34f41"/>
        </g>
      </g>
      <g id="Grupo_80283" data-name="Grupo 80283" transform="translate(31.523 3.705)">
        <g id="Grupo_80281" data-name="Grupo 80281" transform="translate(0 0)">
          <path id="Trazado_113605" data-name="Trazado 113605" d="M0,0H12.645V19.853H0Z" transform="translate(14.036 0) rotate(45)" fill="#ba5d4f"/>
        </g>
        <g id="Grupo_80282" data-name="Grupo 80282" transform="translate(19.583 19.595)">
          <path id="Trazado_113606" data-name="Trazado 113606" d="M0,0H12.645V19.853H0Z" transform="translate(8.94 22.976) rotate(-135)" fill="#a34f41"/>
        </g>
      </g>
      <g id="Grupo_80285" data-name="Grupo 80285" transform="translate(27.814)">
        <path id="Trazado_113607" data-name="Trazado 113607" d="M175.274,33.387l-.311-.311a3.016,3.016,0,0,1,0-4.265l15.363-15.363a3.016,3.016,0,0,1,4.265,0l.311.311a3.016,3.016,0,0,1,0,4.265L179.539,33.387A3.016,3.016,0,0,1,175.274,33.387Z" transform="translate(-174.081 -12.565)" fill="#873f30"/>
        <path id="Trazado_113608" data-name="Trazado 113608" d="M351.911,210.023l.311.311a3.016,3.016,0,0,0,4.265,0l15.363-15.363a3.016,3.016,0,0,0,0-4.265l-.311-.311a3.016,3.016,0,0,0-4.265,0l-15.363,15.363A3.016,3.016,0,0,0,351.911,210.023Z" transform="translate(-322.755 -161.24)" fill="#6c3328"/>
        <g id="Grupo_80284" data-name="Grupo 80284" transform="translate(7.764 7.764)">
          <path id="Trazado_113609" data-name="Trazado 113609" d="M0,0H14.2V29.984H0Z" transform="translate(22.801 1.596) rotate(45)" fill="#fcc16d"/>
          <path id="Trazado_113610" data-name="Trazado 113610" d="M0,0H29.984V7.187H0Z" transform="translate(6.555 27.765) rotate(-45)" fill="#fca62f"/>
          <path id="Trazado_113611" data-name="Trazado 113611" d="M245.525,62.335l-2.46-1.006a2.262,2.262,0,0,0-2.455.494L223.338,79.1a2.262,2.262,0,0,0-.494,2.455l1.006,2.46a1.508,1.508,0,0,0,2.462.5L246.021,64.8a1.508,1.508,0,0,0-.5-2.462Z" transform="translate(-222.676 -61.161)" fill="#873f30"/>
          <path id="Trazado_113612" data-name="Trazado 113612" d="M312.012,128.823l1.006,2.46a2.262,2.262,0,0,1-.494,2.455L295.251,151.01a2.261,2.261,0,0,1-2.455.494l-2.46-1.006a1.508,1.508,0,0,1-.5-2.462l19.709-19.709a1.508,1.508,0,0,1,2.462.5Z" transform="translate(-278.738 -117.224)" fill="#6c3328"/>
        </g>
      </g>
    </g>
  </g>
</svg>
