<svg id="Grupo_147409" data-name="Grupo 147409" xmlns="http://www.w3.org/2000/svg" xmlns:xlink="http://www.w3.org/1999/xlink" width="85.604" height="86.237" viewBox="0 0 85.604 86.237">
  <defs>
    <clipPath id="clip-path">
      <rect id="Rectángulo_38780" data-name="Rectángulo 38780" width="85.604" height="86.237" fill="none"/>
    </clipPath>
    <clipPath id="clip-path-2">
      <path id="Trazado_208850" data-name="Trazado 208850" d="M15.781,13.4C7.042,22.14,2.424,30.972,2.059,42.8S3.982,64.342,12.536,72.9Q25.64,86,43.526,85.591A41.9,41.9,0,0,0,73.4,72.732a38.709,38.709,0,0,0,10.95-19.494,45.076,45.076,0,0,0-.958-22.8c-2.277-7.553-7.873-13.391-13.334-18.853-8.008-8.008-18.663-9.97-29.5-10.248-.391-.009-.773-.014-1.15-.014-10.048,0-15.036,3.484-23.629,12.076" fill="none"/>
    </clipPath>
  </defs>
  <g id="Grupo_147410" data-name="Grupo 147410">
    <g id="Grupo_147409-2" data-name="Grupo 147409" clip-path="url(#clip-path)">
      <path id="Trazado_208829" data-name="Trazado 208829" d="M0,42.8A42.8,42.8,0,1,0,42.8,0,42.8,42.8,0,0,0,0,42.8" fill="#039d95"/>
    </g>
  </g>
  <g id="Grupo_147412" data-name="Grupo 147412">
    <g id="Grupo_147411" data-name="Grupo 147411" clip-path="url(#clip-path-2)">
      <path id="Trazado_208830" data-name="Trazado 208830" d="M25.435,39.927s-8.6-.956-6.451,5.734c0,0-4.778-.478-1.194,3.584,0,0-5.256-.478-4.54,5.973s6.929,3.344,6.929,3.344-4.539,2.389-3.106,7.168,7.884,6.928,12.185-.239,9.556,2.389,9.556,2.389l2.867-17.2Z" fill="#2b1f25"/>
      <path id="Trazado_208831" data-name="Trazado 208831" d="M59.294,39.927s8.6-.956,6.451,5.734c0,0,4.778-.478,1.194,3.584,0,0,5.256-.478,4.54,5.973s-6.929,3.344-6.929,3.344,4.54,2.389,3.106,7.168-7.884,6.928-12.185-.239-9.556,2.389-9.556,2.389l-2.867-17.2Z" fill="#2b1f25"/>
      <path id="Trazado_208832" data-name="Trazado 208832" d="M34,61.125c2.772-2.271.2-15.278.2-15.278H49.91s-2.575,13.007.2,15.278,20.978,2,19.305,24.873H15.991C13.925,63.062,31.23,63.4,34,61.125" fill="#ffb898"/>
      <path id="Trazado_208833" data-name="Trazado 208833" d="M34.8,59.826c1.371-4-.6-13.979-.6-13.979H49.91a62.166,62.166,0,0,0-1.085,9.8C44.869,58.638,39.9,59.821,34.8,59.826" fill="#ffa083"/>
      <path id="Trazado_208834" data-name="Trazado 208834" d="M37.828,74.211c10.037,0,20.121-.245,30.179-.195a23.461,23.461,0,0,1,1.435,6.835,96.059,96.059,0,0,1-53.605.508A24.993,24.993,0,0,1,17,74.211Z" fill="#ffa083"/>
      <path id="Trazado_208835" data-name="Trazado 208835" d="M23.285,64.954a22.06,22.06,0,0,1,6.05-2.254s2.316,7.167,12.806,7.224c10.49-.057,12.805-7.224,12.805-7.224a22.837,22.837,0,0,1,6.613,2.331c-.9,3.026-2.541,10.4.352,21.056l-19.647.148v0h-.246v0l-19.063-.147c2.918-10.745,1.225-18.165.33-21.134" fill="#63c1e3"/>
      <path id="Trazado_208836" data-name="Trazado 208836" d="M56.233,73.614,54.946,62.7S65.909,61.549,72.24,76.839a26.955,26.955,0,0,1-14.693,5.376Z" fill="#63c1e3"/>
      <path id="Trazado_208837" data-name="Trazado 208837" d="M27.949,73.614,29.236,62.7S18.273,61.549,11.942,76.839a26.955,26.955,0,0,0,14.693,5.376Z" fill="#63c1e3"/>
      <path id="Trazado_208838" data-name="Trazado 208838" d="M59.5,40.708c-.77,2.819-2.939,5.318-4.644,4.852s-2.3-3.721-1.53-6.539,2.615-4.134,4.32-3.668,2.624,2.536,1.854,5.355" fill="#ffa083"/>
      <path id="Trazado_208839" data-name="Trazado 208839" d="M24.78,40.708c.77,2.819,2.939,5.318,4.644,4.852s2.3-3.721,1.53-6.539-2.615-4.134-4.32-3.668-2.624,2.536-1.854,5.355" fill="#ffa083"/>
      <path id="Trazado_208840" data-name="Trazado 208840" d="M56.279,35.654c0,10.319-6.378,20.852-14.246,20.852S27.788,45.973,27.788,35.654s6.378-16.516,14.245-16.516,14.246,6.2,14.246,16.516" fill="#ffb898"/>
      <path id="Trazado_208841" data-name="Trazado 208841" d="M42.638,14.364s1.194,16.724-12.9,20.069c0,0-.478,5.733-1.434,6.21s-1.668-5.29-1.668-5.29a3.477,3.477,0,0,0-1.915,3.38,24.781,24.781,0,0,1,2.39-17.2c4.778-8.839,15.529-7.167,15.529-7.167" fill="#2b1f25"/>
      <path id="Trazado_208842" data-name="Trazado 208842" d="M41.933,14.364s-1.194,16.724,12.9,20.069c0,0,.478,6.211,1.434,6.688s1.668-5.768,1.668-5.768a3.477,3.477,0,0,1,1.915,3.38,24.781,24.781,0,0,0-2.39-17.2c-4.778-8.839-15.529-7.167-15.529-7.167" fill="#2b1f25"/>
      <path id="Trazado_208843" data-name="Trazado 208843" d="M41.2,39.81a5.4,5.4,0,0,1-1.634,4.281l-.06-.625q.669.469,1.3.993a11.731,11.731,0,0,1,1.2,1.143,15.159,15.159,0,0,1-2.944-1.463l-.408-.26A11.832,11.832,0,0,0,41.2,39.81" fill="#ff7c57"/>
      <path id="Trazado_208844" data-name="Trazado 208844" d="M46.137,48.029c-1.905,2.695-5.981,3.718-8.462,1.2a8.024,8.024,0,0,1-.851-1.046c.393.23.723.514,1.1.726,2.677,1.764,5.731.792,8.214-.883" fill="#ff7c57"/>
      <path id="Trazado_208845" data-name="Trazado 208845" d="M47.537,39.665c0,1.121.311,2.03.693,2.03s.694-.909.694-2.03-.311-2.03-.694-2.03-.693.909-.693,2.03" fill="#10090c"/>
      <path id="Trazado_208846" data-name="Trazado 208846" d="M35.435,39.39c0,1.121.31,2.03.693,2.03s.694-.909.694-2.03-.311-2.03-.694-2.03-.693.909-.693,2.03" fill="#10090c"/>
      <path id="Trazado_208847" data-name="Trazado 208847" d="M34.215,45.458a6.546,6.546,0,1,1,6.546-6.546,6.553,6.553,0,0,1-6.546,6.546m0-12.065a5.519,5.519,0,1,0,5.519,5.519,5.525,5.525,0,0,0-5.519-5.519" fill="#0097c3"/>
      <path id="Trazado_208848" data-name="Trazado 208848" d="M50.224,45.458a6.546,6.546,0,1,1,6.546-6.546,6.553,6.553,0,0,1-6.546,6.546m0-12.065a5.519,5.519,0,1,0,5.519,5.519,5.525,5.525,0,0,0-5.519-5.519" fill="#0097c3"/>
      <path id="Trazado_208849" data-name="Trazado 208849" d="M43.688,39.911a2.2,2.2,0,0,0-1.591-.87,2.223,2.223,0,0,0-1.456.739l-.787-.659a3.242,3.242,0,0,1,2.218-1.106,3.087,3.087,0,0,1,2.381,1.212Z" fill="#0097c3"/>
      <rect id="Rectángulo_38781" data-name="Rectángulo 38781" width="1.197" height="1.026" transform="translate(26.962 38.46) rotate(-2.904)" fill="#0097c3"/>
      <rect id="Rectángulo_38782" data-name="Rectángulo 38782" width="1.197" height="1.026" transform="translate(56.269 38.46) rotate(-2.904)" fill="#0097c3"/>
    </g>
  </g>
</svg>
