<svg id="Grupo_147405" data-name="Grupo 147405" xmlns="http://www.w3.org/2000/svg" xmlns:xlink="http://www.w3.org/1999/xlink" width="85.604" height="87.258" viewBox="0 0 85.604 87.258">
  <defs>
    <clipPath id="clip-path">
      <rect id="Rectángulo_38779" data-name="Rectángulo 38779" width="85.604" height="87.258" transform="translate(0 0)" fill="none"/>
    </clipPath>
    <clipPath id="clip-path-2">
      <path id="Trazado_208828" data-name="Trazado 208828" d="M30.579,6.444c-7.662,2.311-11.6,2.2-17.139,7.739C5.314,22.309,2.741,33.058,2.46,44.049S4.6,64.973,13.648,74.018c8.868,8.868,18.238,11.936,30.508,11.545,12.008-.382,21.767-5.437,30.448-14.116,8.864-8.865,6.4-16.956,6.114-29.054S75.246,23.308,66.936,15c-5.542-5.542-7.217-7.839-14.97-9.5a42.977,42.977,0,0,0-9.1-1.051,41.66,41.66,0,0,0-12.283,2" fill="none"/>
    </clipPath>
  </defs>
  <g id="Grupo_147406" data-name="Grupo 147406">
    <g id="Grupo_147405-2" data-name="Grupo 147405" clip-path="url(#clip-path)">
      <path id="Trazado_208807" data-name="Trazado 208807" d="M0,42.8A42.8,42.8,0,1,0,42.8,0,42.8,42.8,0,0,0,0,42.8" fill="#039d95"/>
    </g>
  </g>
  <g id="Grupo_147408" data-name="Grupo 147408">
    <g id="Grupo_147407" data-name="Grupo 147407" clip-path="url(#clip-path-2)">
      <path id="Trazado_208808" data-name="Trazado 208808" d="M34.16,63c2.9-2.275.207-15.3.207-15.3H50.773S48.085,60.722,50.98,63s24.815,2.068,22.747,23.988H11.413C9.345,65.065,31.265,65.272,34.16,63" fill="#ffb898"/>
      <path id="Trazado_208809" data-name="Trazado 208809" d="M35,61.7c1.432-4.011-.629-14-.629-14H50.773a59.906,59.906,0,0,0-1.134,9.819C45.509,60.506,40.319,61.691,35,61.7" fill="#ffa083"/>
      <path id="Trazado_208810" data-name="Trazado 208810" d="M29.743,63.617s2.319,7.178,12.826,7.235C53.077,70.795,55.4,63.617,55.4,63.617c23.776,5.17,18.681,23.368,18.681,23.368l-31.384.205v0h-.247v0l-31.384-.205s-5.1-18.2,18.681-23.368" fill="#99c8f2"/>
      <path id="Trazado_208811" data-name="Trazado 208811" d="M57.95,63.142,53.779,87.258l15.658-.186V69.364A42.922,42.922,0,0,0,57.95,63.142" fill="#015e59"/>
      <path id="Trazado_208812" data-name="Trazado 208812" d="M27.32,63.142l4.157,24.116-15.644-.186V69.364A42.922,42.922,0,0,1,27.32,63.142" fill="#015e59"/>
      <path id="Trazado_208813" data-name="Trazado 208813" d="M38.629,15.6s-11.008-.522-13.4,8.615A19.337,19.337,0,0,0,26.185,36.5l6.063-.957Z" fill="#fa5119"/>
      <path id="Trazado_208814" data-name="Trazado 208814" d="M59.959,41.588c-.772,2.823-2.943,5.327-4.651,4.86S53,42.721,53.775,39.9s2.619-4.14,4.327-3.674,2.629,2.541,1.857,5.364" fill="#ffa083"/>
      <path id="Trazado_208815" data-name="Trazado 208815" d="M25.181,41.588c.772,2.823,2.943,5.327,4.651,4.86s2.3-3.727,1.533-6.55-2.619-4.14-4.327-3.674-2.628,2.541-1.857,5.364" fill="#ffa083"/>
      <path id="Trazado_208816" data-name="Trazado 208816" d="M56.731,36.527c0,10.336-6.388,20.886-14.269,20.886S28.193,46.863,28.193,36.527,33.46,20.865,41.341,20.865s15.39,5.326,15.39,15.662" fill="#ffb898"/>
      <path id="Trazado_208817" data-name="Trazado 208817" d="M55.051,43.351l1.344.1s.414-7.444,2.275-7.031c0,0,4.136-10.339-.31-15.2-4.944-5.4-8.065,1.344-8.065,1.344s1.551,7.445,5.583,9.2Z" fill="#fa5119"/>
      <path id="Trazado_208818" data-name="Trazado 208818" d="M32.026,21.184s-4.245,5.424-3.607,11.008l.99,9.815-.827.207s-1.919-11.367-1.919-15.606,5.363-5.424,5.363-5.424" fill="#fa5119"/>
      <path id="Trazado_208819" data-name="Trazado 208819" d="M36.874,16.4S33.364,28.2,44.532,30.6a5.462,5.462,0,0,1-4.148-5.265s3.19,6.541,13.4,6.7l.319-3.669,5.743,3.031s5.265-13.72-9.413-18.346C36.965,8.8,36.874,16.4,36.874,16.4" fill="#fa5119"/>
      <path id="Trazado_208820" data-name="Trazado 208820" d="M59.635,40.387c-.194-.59-.3-1.394-.791-1.779-.068-.052-.3.107-.437.366a7.615,7.615,0,0,0-.6,1.932c-.228,1.041-.4,2.1-.575,3.155l-.121-.253c.9.729.826,1.668-.375,1.919a4.407,4.407,0,0,1-.751.1c.812-.284,2.028-.8.8-1.559l-.122-.073v-.18a11,11,0,0,1,1.145-5.437c.253-.4.877-.789,1.34-.454a2.661,2.661,0,0,1,.485,2.258" fill="#ff7c57"/>
      <path id="Trazado_208821" data-name="Trazado 208821" d="M25.514,40.387A2.661,2.661,0,0,1,26,38.129c.463-.334,1.087.057,1.34.454a11.014,11.014,0,0,1,1.145,5.437v.18l-.122.073c-1.225.76-.005,1.278.8,1.559a4.407,4.407,0,0,1-.751-.1c-1.2-.245-1.277-1.2-.375-1.919l-.121.253c-.177-1.053-.347-2.114-.575-3.155a7.615,7.615,0,0,0-.6-1.932c-.137-.259-.369-.418-.437-.366-.491.386-.6,1.189-.791,1.779" fill="#ff7c57"/>
      <path id="Trazado_208822" data-name="Trazado 208822" d="M41.713,36.527a50.1,50.1,0,0,1-1.984,9.617l-.249-.38a25.635,25.635,0,0,1,2.659.786,25.848,25.848,0,0,1-2.766-.171l-.309-.033L39.123,46a49.907,49.907,0,0,1,2.59-9.472" fill="#ff7c57"/>
      <path id="Trazado_208823" data-name="Trazado 208823" d="M47.084,48.917c-3,2.008-7.637,2.287-10.305-.414a12.038,12.038,0,0,0,3.786,1.036,20.719,20.719,0,0,0,6.519-.622" fill="#ff7c57"/>
      <path id="Trazado_208824" data-name="Trazado 208824" d="M41.092,35.7c-2.331-1.088-4.728-2.806-7.306-1.8a10.316,10.316,0,0,0-2.31,1.489c1.423-5.277,7.712-3.862,9.616.31" fill="#fa5119"/>
      <path id="Trazado_208825" data-name="Trazado 208825" d="M53.913,35.7c-2.825-2.321-5.07-2.2-8.275-.833a11.706,11.706,0,0,1-1.341.523,6.318,6.318,0,0,1,4.949-3.173A4.6,4.6,0,0,1,53.913,35.7" fill="#fa5119"/>
      <path id="Trazado_208826" data-name="Trazado 208826" d="M47.975,38.63c0,1.123.311,2.034.695,2.034s.694-.911.694-2.034S49.053,36.6,48.67,36.6s-.695.91-.695,2.033" fill="#10090c"/>
      <path id="Trazado_208827" data-name="Trazado 208827" d="M35.854,38.354c0,1.123.31,2.034.695,2.034s.694-.911.694-2.034-.312-2.033-.694-2.033-.695.91-.695,2.033" fill="#10090c"/>
    </g>
  </g>
</svg>
