<svg id="Layer_53" xmlns="http://www.w3.org/2000/svg" width="180.098" height="178" viewBox="0 0 180.098 178">
  <g id="Grupo_147498" data-name="Grupo 147498">
    <g id="Grupo_147423" data-name="Grupo 147423" transform="translate(114.683 26.024)">
      <path id="Trazado_208895" data-name="Trazado 208895" d="M211.766,37.428H168.771a5.739,5.739,0,0,0-5.755,5.688V77.288a5.739,5.739,0,0,0,5.755,5.688h22.376a3.311,3.311,0,0,1,3.33,3.292V94.1a1.5,1.5,0,0,0,2.671.93L205.962,84.2a3.347,3.347,0,0,1,2.595-1.228h3.209a5.739,5.739,0,0,0,5.755-5.688V43.116a5.74,5.74,0,0,0-5.756-5.688Z" transform="translate(-163.016 -37.428)" fill="#dae6f1"/>
    </g>
    <g id="Grupo_147424" data-name="Grupo 147424" transform="translate(123.114 46.122)">
      <ellipse id="Elipse_4760" data-name="Elipse 4760" cx="3.869" cy="3.824" rx="3.869" ry="3.824" fill="#70d6f9"/>
    </g>
    <g id="Grupo_147425" data-name="Grupo 147425" transform="translate(137.36 46.122)">
      <ellipse id="Elipse_4761" data-name="Elipse 4761" cx="3.869" cy="3.824" rx="3.869" ry="3.824" fill="#70d6f9"/>
    </g>
    <g id="Grupo_147426" data-name="Grupo 147426" transform="translate(151.606 46.122)">
      <ellipse id="Elipse_4762" data-name="Elipse 4762" cx="3.869" cy="3.824" rx="3.869" ry="3.824" fill="#70d6f9"/>
    </g>
    <g id="Grupo_147427" data-name="Grupo 147427" transform="translate(1.759 162.284)">
      <path id="Trazado_208896" data-name="Trazado 208896" d="M176.99,233.4H4.591A2.079,2.079,0,0,0,2.5,235.464c0,5.743,4.711,11.911,10.522,11.911H168.558c5.811,0,10.522-6.167,10.522-11.911A2.078,2.078,0,0,0,176.99,233.4Z" transform="translate(-2.5 -233.398)" fill="#edf4fc"/>
    </g>
    <g id="Grupo_147428" data-name="Grupo 147428" transform="translate(63.677 162.284)">
      <path id="Trazado_208897" data-name="Trazado 208897" d="M138.124,239.82H95.647a5.1,5.1,0,0,1-5.134-5.074V233.4h52.745v1.348A5.1,5.1,0,0,1,138.124,239.82Z" transform="translate(-90.513 -233.398)" fill="#c7d7e5"/>
    </g>
    <g id="Grupo_147430" data-name="Grupo 147430" transform="translate(15.518 55.697)">
      <g id="Grupo_147429" data-name="Grupo 147429">
        <path id="Trazado_208898" data-name="Trazado 208898" d="M169.973,95.979h-3.209a3.345,3.345,0,0,0-2.595,1.228l-8.813,10.821a1.5,1.5,0,0,1-2.671-.93V99.271a3.311,3.311,0,0,0-3.33-3.292H126.978a5.739,5.739,0,0,1-5.755-5.688v-.6A24.73,24.73,0,0,1,108.1,111.407c.148,3.331-.431,5.237.845,7.875a8.566,8.566,0,0,0,2.226,2.851c1.389,1.158,2.088,1.22,8.607,4.479l.22.055,19.193,4.775a9.78,9.78,0,0,1,7.442,8.912l1.715,29.235H44.824l1.715-29.235a9.779,9.779,0,0,1,7.442-8.912l19.193-4.775.22-.055c6.46-3.229,7.219-3.322,8.607-4.479a8.566,8.566,0,0,0,2.226-2.851c1.266-2.618.7-4.531.845-7.506h0A24.792,24.792,0,0,1,71.291,91.345a10.532,10.532,0,0,1-1.667.144A10.31,10.31,0,0,1,59.243,80.1H27.882a5.808,5.808,0,0,0-5.824,5.756v95.075a5.808,5.808,0,0,0,5.824,5.757H165.3a5.808,5.808,0,0,0,5.824-5.757V95.865a5.824,5.824,0,0,1-1.147.115Z" transform="translate(-22.058 -80.104)" fill="#3a70bf"/>
      </g>
    </g>
    <g id="Grupo_147432" data-name="Grupo 147432" transform="translate(15.519 64.008)">
      <g id="Grupo_147431" data-name="Grupo 147431">
        <path id="Trazado_208899" data-name="Trazado 208899" d="M169.973,99.621h-3.209a3.345,3.345,0,0,0-2.595,1.228l-8.813,10.821a1.5,1.5,0,0,1-2.671-.93v-7.827a3.311,3.311,0,0,0-3.33-3.292H126.978a5.739,5.739,0,0,1-5.755-5.688v-.6a24.73,24.73,0,0,1-13.118,21.718c.148,3.331-.431,5.237.845,7.875a8.566,8.566,0,0,0,2.226,2.851c1.389,1.158,2.088,1.22,8.607,4.479l.22.055,19.193,4.775A9.78,9.78,0,0,1,146.638,144l1.715,29.235H44.825L46.54,144a9.779,9.779,0,0,1,7.442-8.912l19.193-4.775.22-.055c6.46-3.229,7.219-3.322,8.607-4.479a8.566,8.566,0,0,0,2.226-2.851c1.266-2.618.7-4.531.845-7.506h0A24.792,24.792,0,0,1,71.291,94.987a10.378,10.378,0,0,1-9.1-2.931H26.144a4.073,4.073,0,0,0-4.085,4.037V177.5a4.073,4.073,0,0,0,4.085,4.037H167.035a4.073,4.073,0,0,0,4.085-4.037v-78a5.825,5.825,0,0,1-1.147.115Z" transform="translate(-22.059 -92.056)" fill="#039d95"/>
      </g>
    </g>
    <g id="Grupo_147433" data-name="Grupo 147433" transform="translate(15.519 145.182)">
      <path id="Trazado_208900" data-name="Trazado 208900" d="M22.059,208.8v4.273a4.073,4.073,0,0,0,4.085,4.037H167.035a4.073,4.073,0,0,0,4.085-4.037V208.8Z" transform="translate(-22.059 -208.801)" fill="#5290db"/>
    </g>
    <g id="Grupo_147434" data-name="Grupo 147434" transform="translate(15.519 145.182)">
      <path id="Trazado_208901" data-name="Trazado 208901" d="M35.818,208.8H22.059v4.273a4.073,4.073,0,0,0,4.085,4.037h9.675Z" transform="translate(-22.059 -208.801)" fill="#fcdd86"/>
    </g>
    <g id="Grupo_147435" data-name="Grupo 147435" transform="translate(0 160.546)">
      <path id="Trazado_208902" data-name="Trazado 208902" d="M167.818,248.352H12.281C5.252,248.352,0,241.146,0,234.7a3.831,3.831,0,0,1,3.85-3.8h172.4a3.832,3.832,0,0,1,3.85,3.8C180.1,241.146,174.846,248.352,167.818,248.352ZM3.85,234.375a.331.331,0,0,0-.332.328c0,4.7,3.828,10.172,8.764,10.172H167.818c4.935,0,8.763-5.468,8.763-10.172a.331.331,0,0,0-.333-.328Z" transform="translate(0 -230.898)"/>
    </g>
    <g id="Grupo_147436" data-name="Grupo 147436" transform="translate(61.918 161.168)">
      <path id="Trazado_208903" data-name="Trazado 208903" d="M137.383,241.069H94.905a6.86,6.86,0,0,1-6.892-6.812v-.727a1.759,1.759,0,0,1,3.518,0v.727a3.359,3.359,0,0,0,3.375,3.335h42.478a3.359,3.359,0,0,0,3.375-3.335v-.727a1.759,1.759,0,0,1,3.518,0v.727A6.86,6.86,0,0,1,137.383,241.069Z" transform="translate(-88.013 -231.792)"/>
    </g>
    <g id="Grupo_147437" data-name="Grupo 147437" transform="translate(13.759 53.96)">
      <path id="Trazado_208904" data-name="Trazado 208904" d="M164.555,187.668H27.141a7.548,7.548,0,0,1-7.583-7.495V85.1A7.547,7.547,0,0,1,27.141,77.6H58.093a1.738,1.738,0,1,1,0,3.477H27.141A4.046,4.046,0,0,0,23.076,85.1v95.074a4.046,4.046,0,0,0,4.066,4.018H164.555a4.046,4.046,0,0,0,4.065-4.018v-84.9a1.759,1.759,0,0,1,3.518,0v84.9A7.547,7.547,0,0,1,164.555,187.668Z" transform="translate(-19.558 -77.605)"/>
    </g>
    <g id="Grupo_147438" data-name="Grupo 147438" transform="translate(13.76 62.269)">
      <path id="Trazado_208905" data-name="Trazado 208905" d="M21.318,97.07a1.748,1.748,0,0,1-1.759-1.738A5.816,5.816,0,0,1,25.4,89.556H61.215a1.738,1.738,0,1,1,0,3.477H25.4a2.315,2.315,0,0,0-2.326,2.3A1.749,1.749,0,0,1,21.318,97.07Z" transform="translate(-19.559 -89.556)"/>
    </g>
    <g id="Grupo_147439" data-name="Grupo 147439" transform="translate(27.519 144.19)">
      <path id="Trazado_208906" data-name="Trazado 208906" d="M40.876,217.675a1.748,1.748,0,0,1-1.759-1.738v-6.823a1.759,1.759,0,0,1,3.518,0v6.823A1.749,1.749,0,0,1,40.876,217.675Z" transform="translate(-39.117 -207.375)"/>
    </g>
    <g id="Grupo_147441" data-name="Grupo 147441" transform="translate(75.463 87.001)">
      <g id="Grupo_147440" data-name="Grupo 147440">
        <path id="Trazado_208907" data-name="Trazado 208907" d="M121.4,179.573a9.372,9.372,0,0,1,.243.935c.014.066.027.132.039.2a9.319,9.319,0,0,1,.135.945h0c.023.269.038.539.038.81,0-.27.014-.541.038-.81a9.283,9.283,0,0,1,.135-.945c.013-.066.025-.132.039-.2a9.368,9.368,0,0,1,.243-.935l14.132-43.723a8.493,8.493,0,0,1-3.071-6.521v-4.205a25.086,25.086,0,0,1-23.032.369v3.836a8.493,8.493,0,0,1-3.071,6.521Z" transform="translate(-107.267 -125.125)" fill="#3caadc"/>
      </g>
    </g>
    <g id="Grupo_147443" data-name="Grupo 147443" transform="translate(77.688 87)">
      <g id="Grupo_147442" data-name="Grupo 147442">
        <path id="Trazado_208908" data-name="Trazado 208908" d="M125.617,142.906,135.152,133a8.418,8.418,0,0,1-.845-3.67v-4.205a25.086,25.086,0,0,1-23.032.369v3.836a8.419,8.419,0,0,1-.845,3.67l9.535,9.907a1.39,1.39,0,0,1,.385,1.044c.687.057,1.377.1,2.078.1a25.121,25.121,0,0,0,2.8-.172A1.393,1.393,0,0,1,125.617,142.906Z" transform="translate(-110.43 -125.124)" fill="#f9d0b4"/>
      </g>
    </g>
    <g id="Grupo_147444" data-name="Grupo 147444" transform="translate(92.484 94.875)">
      <path id="Trazado_208909" data-name="Trazado 208909" d="M141.387,136.45l-9.535,9.907a1.4,1.4,0,0,0-.015,1.925l5.479,5.866a1.528,1.528,0,0,0,1.348.462l4.948-15.309a8.58,8.58,0,0,1-2.226-2.851Z" transform="translate(-131.461 -136.45)" fill="#70d6f9"/>
    </g>
    <g id="Grupo_147445" data-name="Grupo 147445" transform="translate(75.462 94.875)">
      <path id="Trazado_208910" data-name="Trazado 208910" d="M109.491,136.45a8.566,8.566,0,0,1-2.226,2.851l4.948,15.309a1.532,1.532,0,0,0,1.348-.462l5.479-5.866a1.4,1.4,0,0,0-.015-1.925Z" transform="translate(-107.265 -136.45)" fill="#70d6f9"/>
    </g>
    <g id="Grupo_147446" data-name="Grupo 147446" transform="translate(84.085 111.258)">
      <path id="Trazado_208911" data-name="Trazado 208911" d="M125.7,191.138a9.369,9.369,0,0,1,.243-.935l5.508-17.042-2.591-13.15a6.562,6.562,0,0,1-6.745,0l-2.591,13.15,5.508,17.042a9.371,9.371,0,0,1,.243.935c.014.066.027.132.039.2a9.315,9.315,0,0,1,.135.945h0c.023.269.038.539.038.81,0-.27.014-.541.038-.81a9.284,9.284,0,0,1,.135-.945c.011-.067.024-.133.038-.2Z" transform="translate(-119.523 -160.011)" fill="#fc657e"/>
    </g>
    <g id="Grupo_147448" data-name="Grupo 147448" transform="translate(84.695 105.749)">
      <g id="Grupo_147447" data-name="Grupo 147447">
        <path id="Trazado_208912" data-name="Trazado 208912" d="M128.556,153.046a1.4,1.4,0,0,1-.377-.958,25.142,25.142,0,0,1-2.8.172c-.7,0-1.392-.038-2.078-.1a1.389,1.389,0,0,1-.37.88l-2.542,2.721a6.571,6.571,0,0,0,10.709,0Z" transform="translate(-120.39 -152.088)" fill="#f98fa6"/>
      </g>
    </g>
    <g id="Grupo_147449" data-name="Grupo 147449" transform="translate(38.284 97.726)">
      <path id="Trazado_208913" data-name="Trazado 208913" d="M106.184,188.006v-.843a9.374,9.374,0,0,0-.456-2.889L91.6,140.55a8.657,8.657,0,0,1-1.745,1.135l-6.861,3.344-19.413,4.83a9.78,9.78,0,0,0-7.442,8.913l-1.715,29.235Z" transform="translate(-54.419 -140.55)" fill="#dae6f1"/>
    </g>
    <g id="Grupo_147450" data-name="Grupo 147450" transform="translate(65.178 97.725)">
      <path id="Trazado_208914" data-name="Trazado 208914" d="M93.426,154.244l4.916,1.943a1.219,1.219,0,0,1,.628,1.723l-3.179,5.76A1.213,1.213,0,0,0,96,165.122L117.48,186.35a9.376,9.376,0,0,0-.418-2.079L102.93,140.548a8.627,8.627,0,0,1-1.745,1.135l-6.861,3.344-.22.055-1.436,7.806A1.222,1.222,0,0,0,93.426,154.244Z" transform="translate(-92.647 -140.548)" fill="#edf4fc"/>
    </g>
    <g id="Grupo_147451" data-name="Grupo 147451" transform="translate(53.667 124.287)">
      <path id="Trazado_208915" data-name="Trazado 208915" d="M78.044,199.34a1.748,1.748,0,0,1-1.759-1.738V180.488a1.759,1.759,0,0,1,3.518,0V197.6A1.748,1.748,0,0,1,78.044,199.34Z" transform="translate(-76.285 -178.75)"/>
    </g>
    <g id="Grupo_147454" data-name="Grupo 147454" transform="translate(73.702 85.918)">
      <g id="Grupo_147452" data-name="Grupo 147452" transform="translate(26.104)">
        <path id="Trazado_208916" data-name="Trazado 208916" d="M146.7,137.114a1.764,1.764,0,0,1-1.133-.41,10.2,10.2,0,0,1-3.7-7.849v-3.549a1.759,1.759,0,0,1,3.518,0v3.549a6.75,6.75,0,0,0,2.447,5.192,1.726,1.726,0,0,1,.21,2.45,1.767,1.767,0,0,1-1.346.617Z" transform="translate(-141.87 -123.568)"/>
      </g>
      <g id="Grupo_147453" data-name="Grupo 147453" transform="translate(0 0.29)">
        <path id="Trazado_208917" data-name="Trazado 208917" d="M106.524,137.241a1.766,1.766,0,0,1-1.346-.617,1.725,1.725,0,0,1,.21-2.45,6.75,6.75,0,0,0,2.447-5.192v-3.259a1.759,1.759,0,0,1,3.518,0v3.259a10.2,10.2,0,0,1-3.7,7.849A1.766,1.766,0,0,1,106.524,137.241Z" transform="translate(-104.764 -123.985)"/>
      </g>
    </g>
    <g id="Grupo_147455" data-name="Grupo 147455" transform="translate(90.728 93.136)">
      <path id="Trazado_208918" data-name="Trazado 208918" d="M137.38,155.572a1.784,1.784,0,0,1-.362-.038,3.253,3.253,0,0,1-1.735-.972l-5.478-5.864a3.128,3.128,0,0,1,.033-4.3l9.535-9.906a1.77,1.77,0,0,1,2.861.448,6.766,6.766,0,0,0,1.774,2.272,1.726,1.726,0,0,1,.21,2.45,1.774,1.774,0,0,1-2.478.208,10.331,10.331,0,0,1-1.365-1.374l-7.771,8.074,5.214,5.582a1.737,1.737,0,0,1,1.282,2.039,1.757,1.757,0,0,1-1.72,1.384Z" transform="translate(-128.965 -133.948)"/>
    </g>
    <g id="Grupo_147456" data-name="Grupo 147456" transform="translate(73.703 93.137)">
      <path id="Trazado_208919" data-name="Trazado 208919" d="M112.1,155.554a1.757,1.757,0,0,1-1.7-1.3,1.736,1.736,0,0,1,1.18-2.1l5.219-5.587-7.771-8.074a10.333,10.333,0,0,1-1.365,1.374,1.774,1.774,0,0,1-2.478-.208,1.724,1.724,0,0,1,.21-2.45,6.782,6.782,0,0,0,1.774-2.272,1.77,1.77,0,0,1,2.861-.448l9.535,9.906a3.127,3.127,0,0,1,.032,4.3l-5.48,5.866a3.262,3.262,0,0,1-1.569.932,1.829,1.829,0,0,1-.447.056Z" transform="translate(-104.764 -133.95)"/>
    </g>
    <g id="Grupo_147457" data-name="Grupo 147457" transform="translate(91.739 109.904)">
      <path id="Trazado_208920" data-name="Trazado 208920" d="M134.615,174a1.754,1.754,0,0,1-1.724-1.406l-2.455-12.461a1.74,1.74,0,0,1,1.391-2.039,1.759,1.759,0,0,1,2.063,1.375l2.455,12.461a1.74,1.74,0,0,1-1.391,2.039A1.819,1.819,0,0,1,134.615,174Z" transform="translate(-130.402 -158.064)"/>
    </g>
    <g id="Grupo_147458" data-name="Grupo 147458" transform="translate(82.366 109.878)">
      <path id="Trazado_208921" data-name="Trazado 208921" d="M118.841,174.092a1.815,1.815,0,0,1-.338-.032,1.74,1.74,0,0,1-1.39-2.039l2.48-12.588a1.758,1.758,0,0,1,2.063-1.375,1.74,1.74,0,0,1,1.39,2.039l-2.48,12.588a1.754,1.754,0,0,1-1.724,1.407Z" transform="translate(-117.079 -158.027)"/>
    </g>
    <g id="Grupo_147461" data-name="Grupo 147461" transform="translate(83.286 104.039)">
      <g id="Grupo_147459" data-name="Grupo 147459" transform="translate(2.866)">
        <path id="Trazado_208922" data-name="Trazado 208922" d="M125.994,153.25c-.591,0-1.214-.025-1.906-.076a1.739,1.739,0,1,1,.263-3.468c.6.045,1.141.067,1.643.067a22.749,22.749,0,0,0,2.339-.133,1.739,1.739,0,1,1,.367,3.458A26.091,26.091,0,0,1,125.994,153.25Z" transform="translate(-122.46 -149.63)"/>
      </g>
      <g id="Grupo_147460" data-name="Grupo 147460" transform="translate(0 4.095)">
        <path id="Trazado_208923" data-name="Trazado 208923" d="M125.15,161.314a8.316,8.316,0,0,1-6.351-2.931,1.724,1.724,0,0,1,.217-2.449,1.774,1.774,0,0,1,2.478.214,4.8,4.8,0,0,0,7.317,0,1.773,1.773,0,0,1,2.477-.218,1.723,1.723,0,0,1,.221,2.448,8.31,8.31,0,0,1-6.358,2.941Z" transform="translate(-118.387 -155.52)"/>
      </g>
    </g>
    <g id="Grupo_147462" data-name="Grupo 147462" transform="translate(36.581 95.987)">
      <path id="Trazado_208924" data-name="Trazado 208924" d="M105.466,188.139a1.748,1.748,0,0,1-1.759-1.738,7.668,7.668,0,0,0-.372-2.361L89.9,142.484l-6.855,3.34a1.813,1.813,0,0,1-.348.127l-19.413,4.83a8,8,0,0,0-6.115,7.322l-1.66,28.3A1.759,1.759,0,0,1,52,186.2l1.66-28.291a11.472,11.472,0,0,1,8.768-10.5l19.232-4.784,6.695-3.262a6.921,6.921,0,0,0,1.389-.9,1.774,1.774,0,0,1,1.621-.342,1.749,1.749,0,0,1,1.189,1.142l14.132,43.723a11.107,11.107,0,0,1,.539,3.418,1.748,1.748,0,0,1-1.759,1.738Z" transform="translate(-51.998 -138.049)"/>
    </g>
    <g id="Grupo_147463" data-name="Grupo 147463" transform="translate(63.42 100.986)">
      <path id="Trazado_208925" data-name="Trazado 208925" d="M116.544,189.326a1.764,1.764,0,0,1-1.244-.509L94.018,167.781a2.952,2.952,0,0,1-.512-3.513l2.9-5.252-4.372-1.729a2.965,2.965,0,0,1-1.835-3.281l1.35-7.34a1.759,1.759,0,0,1,2.045-1.4,1.74,1.74,0,0,1,1.415,2.021l-1.274,6.927L98.255,156a2.98,2.98,0,0,1,1.707,1.748,2.933,2.933,0,0,1-.189,2.422l-2.992,5.422,21.007,20.763a1.724,1.724,0,0,1,0,2.458,1.766,1.766,0,0,1-1.245.511Z" transform="translate(-90.148 -145.238)"/>
    </g>
    <g id="Grupo_147464" data-name="Grupo 147464" transform="translate(90.049 97.726)">
      <path id="Trazado_208926" data-name="Trazado 208926" d="M179.765,188.006l-1.715-29.235a9.779,9.779,0,0,0-7.442-8.912l-19.413-4.83-6.861-3.344a8.637,8.637,0,0,1-1.745-1.135l-14.132,43.723a9.4,9.4,0,0,0-.456,2.889v.843Z" transform="translate(-128 -140.55)" fill="#dae6f1"/>
    </g>
    <g id="Grupo_147465" data-name="Grupo 147465" transform="translate(90.087 97.725)">
      <path id="Trazado_208927" data-name="Trazado 208927" d="M152.108,154.244l-4.916,1.943a1.219,1.219,0,0,0-.628,1.723l3.179,5.76a1.213,1.213,0,0,1-.212,1.452L128.054,186.35a9.377,9.377,0,0,1,.418-2.079L142.6,140.548a8.627,8.627,0,0,0,1.745,1.135l6.861,3.344.22.055,1.436,7.806A1.222,1.222,0,0,1,152.108,154.244Z" transform="translate(-128.054 -140.548)" fill="#edf4fc"/>
    </g>
    <g id="Grupo_147466" data-name="Grupo 147466" transform="translate(122.913 124.287)">
      <path id="Trazado_208928" data-name="Trazado 208928" d="M176.474,199.34a1.748,1.748,0,0,1-1.759-1.738V180.488a1.759,1.759,0,0,1,3.518,0V197.6A1.748,1.748,0,0,1,176.474,199.34Z" transform="translate(-174.715 -178.75)"/>
    </g>
    <g id="Grupo_147467" data-name="Grupo 147467" transform="translate(88.291 95.988)">
      <path id="Trazado_208929" data-name="Trazado 208929" d="M179,188.568a1.751,1.751,0,0,1-1.755-1.637l-1.691-28.821a8,8,0,0,0-6.115-7.327l-19.413-4.83a1.767,1.767,0,0,1-.348-.127l-6.854-3.34-13.431,41.555a7.644,7.644,0,0,0-.372,2.361,1.759,1.759,0,0,1-3.518,0,11.107,11.107,0,0,1,.539-3.418l14.131-43.723a1.75,1.75,0,0,1,1.189-1.142,1.78,1.78,0,0,1,1.621.341,6.855,6.855,0,0,0,1.39.9l6.693,3.262,19.232,4.784a11.474,11.474,0,0,1,8.769,10.5l1.691,28.818a1.746,1.746,0,0,1-1.655,1.836Z" transform="translate(-125.501 -138.051)"/>
    </g>
    <g id="Grupo_147468" data-name="Grupo 147468" transform="translate(88.523 100.987)">
      <path id="Trazado_208930" data-name="Trazado 208930" d="M127.591,189.326a1.764,1.764,0,0,1-1.244-.509,1.723,1.723,0,0,1,0-2.458L147.354,165.6l-2.992-5.423a2.934,2.934,0,0,1-.189-2.422A2.977,2.977,0,0,1,145.88,156l4.522-1.788-1.275-6.927a1.74,1.74,0,0,1,1.416-2.021,1.758,1.758,0,0,1,2.045,1.4l1.351,7.34a2.968,2.968,0,0,1-1.837,3.281l-4.372,1.729,2.9,5.252a2.951,2.951,0,0,1-.513,3.515l-21.281,21.033a1.771,1.771,0,0,1-1.243.508Zm22.887-34.7h.007Z" transform="translate(-125.831 -145.241)"/>
    </g>
    <g id="Grupo_147469" data-name="Grupo 147469" transform="translate(64.688 34.332)">
      <path id="Trazado_208931" data-name="Trazado 208931" d="M138.374,50.776a4.62,4.62,0,0,0-6.156-.4,25.341,25.341,0,0,1-30.544-.017,4.616,4.616,0,0,0-6.145.412l-.008.009a12.7,12.7,0,0,0-3.571,8.816V80.327a25,25,0,0,0,50,0V59.592A12.7,12.7,0,0,0,138.374,50.776Z" transform="translate(-91.95 -49.377)" fill="#f9d0b4"/>
    </g>
    <g id="Grupo_147470" data-name="Grupo 147470" transform="translate(52.648 46.452)">
      <path id="Trazado_208932" data-name="Trazado 208932" d="M86.877,85.638v-18.7a10.6,10.6,0,0,0-1.6-.126,10.316,10.316,0,1,0,0,20.63,10.547,10.547,0,0,0,1.667-.144h0c-.038-.548-.063-1.1-.063-1.656Z" transform="translate(-74.836 -66.808)" fill="#f9d0b4"/>
    </g>
    <g id="Grupo_147471" data-name="Grupo 147471" transform="translate(57.83 9.308)">
      <path id="Trazado_208933" data-name="Trazado 208933" d="M139.056,35.791a5.7,5.7,0,0,1,3.257-5.113,5.145,5.145,0,0,0-3.35-1.222,1.539,1.539,0,0,1-1.574-1.465c-.192-13.767-16.1-16.353-31.939-13.65A27.775,27.775,0,0,0,82.2,41.615V51.944a10.435,10.435,0,0,1,6.858-1.286V48.626a12.7,12.7,0,0,1,3.571-8.815l.008-.009a4.616,4.616,0,0,1,6.145-.412,25.341,25.341,0,0,0,30.544.017,4.62,4.62,0,0,1,6.156.4,12.7,12.7,0,0,1,3.571,8.815V35.791Z" transform="translate(-82.203 -13.387)" fill="#754e34"/>
    </g>
    <g id="Grupo_147472" data-name="Grupo 147472" transform="translate(81.518 70.069)">
      <path id="Trazado_208934" data-name="Trazado 208934" d="M124.4,107.118a10.67,10.67,0,0,1-8.12-3.49,1.724,1.724,0,0,1,.217-2.449,1.774,1.774,0,0,1,2.478.216,7.673,7.673,0,0,0,10.849,0,1.775,1.775,0,0,1,2.478-.216,1.725,1.725,0,0,1,.218,2.449A10.673,10.673,0,0,1,124.4,107.118Z" transform="translate(-115.874 -100.773)"/>
    </g>
    <g id="Grupo_147473" data-name="Grupo 147473" transform="translate(62.929 32.59)">
      <path id="Trazado_208935" data-name="Trazado 208935" d="M116.207,106.007A26.632,26.632,0,0,1,89.45,79.563V58.827a14.361,14.361,0,0,1,4.057-10.015,6.379,6.379,0,0,1,8.51-.59,23.565,23.565,0,0,0,28.374.018,6.38,6.38,0,0,1,8.515.572,14.361,14.361,0,0,1,4.057,10.015V79.562a26.633,26.633,0,0,1-26.757,26.445ZM98.078,50.35a2.788,2.788,0,0,0-2.016.853,10.929,10.929,0,0,0-3.093,7.625V79.563a23.24,23.24,0,0,0,46.477,0V58.827a10.918,10.918,0,0,0-3.086-7.616,2.842,2.842,0,0,0-3.8-.237,27.114,27.114,0,0,1-32.713-.015,2.894,2.894,0,0,0-1.773-.61Z" transform="translate(-89.45 -46.871)"/>
    </g>
    <g id="Grupo_147474" data-name="Grupo 147474" transform="translate(50.888 44.714)">
      <path id="Trazado_208936" data-name="Trazado 208936" d="M84.53,88.415a12.054,12.054,0,1,1,0-24.107c.336,0,.668.015,1,.042a1.738,1.738,0,1,1-.293,3.464c-.231-.019-.466-.03-.7-.03a8.578,8.578,0,1,0,0,17.154,7.58,7.58,0,0,0,.858-.05,1.739,1.739,0,1,1,.395,3.455A11.467,11.467,0,0,1,84.53,88.415Z" transform="translate(-72.335 -64.308)"/>
    </g>
    <g id="Grupo_147475" data-name="Grupo 147475" transform="translate(56.072 7.577)">
      <path id="Trazado_208937" data-name="Trazado 208937" d="M81.462,52.653A1.748,1.748,0,0,1,79.7,50.914V40.856A29.458,29.458,0,0,1,104.409,11.87c12.591-2.148,23.079-.7,28.774,3.974A14.215,14.215,0,0,1,138.4,26.962a6.923,6.923,0,0,1,3.867,1.289,1.727,1.727,0,0,1,.4,2.427,1.775,1.775,0,0,1-2.456.391,3.348,3.348,0,0,0-1.985-.633,3.3,3.3,0,0,1-3.333-3.179,10.948,10.948,0,0,0-3.952-8.739c-4.9-4.023-14.353-5.2-25.929-3.222a25.977,25.977,0,0,0-21.786,25.56V50.914a1.75,1.75,0,0,1-1.76,1.738Z" transform="translate(-79.703 -10.897)"/>
    </g>
    <g id="Grupo_147476" data-name="Grupo 147476" transform="translate(97.176 55.252)">
      <ellipse id="Elipse_4763" data-name="Elipse 4763" cx="3.023" cy="2.988" rx="3.023" ry="2.988"/>
    </g>
    <g id="Grupo_147477" data-name="Grupo 147477" transform="translate(76.877 55.252)">
      <ellipse id="Elipse_4764" data-name="Elipse 4764" cx="3.023" cy="2.988" rx="3.023" ry="2.988"/>
    </g>
    <g id="Grupo_147478" data-name="Grupo 147478" transform="translate(13.76 143.444)">
      <path id="Trazado_208938" data-name="Trazado 208938" d="M166.294,218.088H25.4a5.816,5.816,0,0,1-5.843-5.775v-4.273a1.748,1.748,0,0,1,1.759-1.738H170.379a1.748,1.748,0,0,1,1.759,1.738v4.273a5.817,5.817,0,0,1-5.844,5.775Zm-143.217-8.31v2.535a2.315,2.315,0,0,0,2.326,2.3H166.294a2.316,2.316,0,0,0,2.326-2.3v-2.535Z" transform="translate(-19.559 -206.301)"/>
    </g>
    <g id="Grupo_147479" data-name="Grupo 147479" transform="translate(112.924 24.285)">
      <path id="Trazado_208939" data-name="Trazado 208939" d="M195.256,96.56a3.349,3.349,0,0,1-1.1-.188,3.188,3.188,0,0,1-2.177-3.039V85.506a1.564,1.564,0,0,0-1.571-1.553H168.029a7.479,7.479,0,0,1-7.514-7.427V42.354a7.479,7.479,0,0,1,7.515-7.427h42.993a7.479,7.479,0,0,1,7.515,7.427V76.525a7.479,7.479,0,0,1-7.515,7.427h-3.209a1.575,1.575,0,0,0-1.226.58l-8.811,10.821A3.235,3.235,0,0,1,195.256,96.56ZM168.03,38.4a3.979,3.979,0,0,0-4,3.95V76.526a3.978,3.978,0,0,0,4,3.95h22.377a5.065,5.065,0,0,1,5.088,5.03v7.105l8.355-10.259a5.092,5.092,0,0,1,3.965-1.876h3.209a3.978,3.978,0,0,0,4-3.95V42.354a3.979,3.979,0,0,0-4-3.95H168.03Z" transform="translate(-160.515 -34.927)"/>
    </g>
    <g id="Grupo_147480" data-name="Grupo 147480" transform="translate(121.355 44.384)">
      <path id="Trazado_208940" data-name="Trazado 208940" d="M178.128,74.958a5.563,5.563,0,1,1,5.628-5.562A5.6,5.6,0,0,1,178.128,74.958Zm0-7.648a2.086,2.086,0,1,0,2.111,2.086A2.1,2.1,0,0,0,178.128,67.31Z" transform="translate(-172.5 -63.833)"/>
    </g>
    <g id="Grupo_147481" data-name="Grupo 147481" transform="translate(135.601 44.384)">
      <path id="Trazado_208941" data-name="Trazado 208941" d="M198.378,74.958a5.563,5.563,0,1,1,5.628-5.562A5.6,5.6,0,0,1,198.378,74.958Zm0-7.648a2.086,2.086,0,1,0,2.111,2.086A2.1,2.1,0,0,0,198.378,67.31Z" transform="translate(-192.75 -63.833)"/>
    </g>
    <g id="Grupo_147482" data-name="Grupo 147482" transform="translate(149.847 44.384)">
      <path id="Trazado_208942" data-name="Trazado 208942" d="M218.628,74.958a5.563,5.563,0,1,1,5.628-5.562A5.6,5.6,0,0,1,218.628,74.958Zm0-7.648a2.086,2.086,0,1,0,2.111,2.086A2.1,2.1,0,0,0,218.628,67.31Z" transform="translate(-213 -63.833)"/>
    </g>
    <g id="Grupo_147485" data-name="Grupo 147485" transform="translate(120.616)">
      <g id="Grupo_147484" data-name="Grupo 147484">
        <g id="Grupo_147483" data-name="Grupo 147483">
          <path id="Trazado_208943" data-name="Trazado 208943" d="M184.359,6.154A7.764,7.764,0,0,1,178.1.1c0-.139-.281-.139-.281,0a7.764,7.764,0,0,1-6.261,6.049c-.141,0-.141.209,0,.278a7.764,7.764,0,0,1,6.261,6.049c0,.139.281.139.281,0a7.764,7.764,0,0,1,6.261-6.049c.141-.07.141-.278,0-.278Z" transform="translate(-171.45 0)" fill="#f5c84c"/>
        </g>
      </g>
    </g>
    <g id="Grupo_147488" data-name="Grupo 147488" transform="translate(172.394 97.131)">
      <g id="Grupo_147487" data-name="Grupo 147487">
        <g id="Grupo_147486" data-name="Grupo 147486">
          <path id="Trazado_208944" data-name="Trazado 208944" d="M252.691,143.336a4.6,4.6,0,0,1-3.706-3.58c0-.082-.167-.082-.167,0a4.6,4.6,0,0,1-3.706,3.58c-.083,0-.083.124,0,.165a4.6,4.6,0,0,1,3.706,3.58c0,.082.167.082.167,0a4.6,4.6,0,0,1,3.706-3.58C252.774,143.459,252.774,143.336,252.691,143.336Z" transform="translate(-245.049 -139.695)" fill="#59c447"/>
        </g>
      </g>
    </g>
    <g id="Grupo_147491" data-name="Grupo 147491" transform="translate(32.01 28.508)">
      <g id="Grupo_147490" data-name="Grupo 147490">
        <g id="Grupo_147489" data-name="Grupo 147489">
          <path id="Trazado_208945" data-name="Trazado 208945" d="M55.49,44.824H53.872v-1.6A2.254,2.254,0,0,0,51.621,41a2.21,2.21,0,0,0-2.251,2.225v1.6H47.751A2.254,2.254,0,0,0,45.5,47.049a2.21,2.21,0,0,0,2.251,2.225h1.618v1.6A2.254,2.254,0,0,0,51.621,53.1a2.21,2.21,0,0,0,2.251-2.225v-1.6H55.49a2.254,2.254,0,0,0,2.251-2.225A2.21,2.21,0,0,0,55.49,44.824Z" transform="translate(-45.5 -41)" fill="#039d95"/>
        </g>
      </g>
    </g>
    <g id="Grupo_147494" data-name="Grupo 147494" transform="translate(138.872 14.602)">
      <g id="Grupo_147493" data-name="Grupo 147493">
        <g id="Grupo_147492" data-name="Grupo 147492">
          <ellipse id="Elipse_4765" data-name="Elipse 4765" cx="2.392" cy="2.364" rx="2.392" ry="2.364" fill="#87d147"/>
        </g>
      </g>
    </g>
    <g id="Grupo_147497" data-name="Grupo 147497" transform="translate(19.98 43.805)">
      <g id="Grupo_147496" data-name="Grupo 147496">
        <g id="Grupo_147495" data-name="Grupo 147495">
          <ellipse id="Elipse_4766" data-name="Elipse 4766" cx="2.392" cy="2.364" rx="2.392" ry="2.364" fill="#f5c84c"/>
        </g>
      </g>
    </g>
  </g>
</svg>
