<svg xmlns="http://www.w3.org/2000/svg" xmlns:xlink="http://www.w3.org/1999/xlink" width="504.136" height="569.061" viewBox="0 0 504.136 569.061">
  <defs>
    <clipPath id="clip-path">
      <rect id="Rectángulo_39091" data-name="Rectángulo 39091" width="504.136" height="569.061" fill="none"/>
    </clipPath>
  </defs>
  <g id="Grupo_147922" data-name="Grupo 147922" transform="translate(-180.864 -2888)">
    <path id="Trazado_211457" data-name="Trazado 211457" d="M8.389-3.621a1.459,1.459,0,0,0-.569-1.237,7.46,7.46,0,0,0-2.048-.91,14.515,14.515,0,0,1-2.341-.943,3.826,3.826,0,0,1-2.351-3.422,3.333,3.333,0,0,1,.63-2A4.112,4.112,0,0,1,3.522-13.5a6.815,6.815,0,0,1,2.65-.493,6.2,6.2,0,0,1,2.635.536,4.2,4.2,0,0,1,1.8,1.512,3.956,3.956,0,0,1,.64,2.218H8.4A1.861,1.861,0,0,0,7.8-11.2a2.455,2.455,0,0,0-1.678-.526,2.623,2.623,0,0,0-1.621.441,1.39,1.39,0,0,0-.578,1.161A1.332,1.332,0,0,0,4.6-9a7.658,7.658,0,0,0,2,.853,8.622,8.622,0,0,1,3.536,1.811A3.606,3.606,0,0,1,11.243-3.64,3.322,3.322,0,0,1,9.887-.829,5.934,5.934,0,0,1,6.238.19a7.048,7.048,0,0,1-2.9-.583,4.59,4.59,0,0,1-2-1.6A4.091,4.091,0,0,1,.654-4.342H3.507q0,2.285,2.73,2.285a2.656,2.656,0,0,0,1.583-.412A1.342,1.342,0,0,0,8.389-3.621ZM17.708.19a5.035,5.035,0,0,1-3.673-1.384,4.92,4.92,0,0,1-1.417-3.688v-.265a6.2,6.2,0,0,1,.6-2.763,4.383,4.383,0,0,1,1.692-1.877,4.749,4.749,0,0,1,2.5-.659,4.257,4.257,0,0,1,3.313,1.327,5.393,5.393,0,0,1,1.209,3.763v1.119H15.395a2.545,2.545,0,0,0,.8,1.612,2.421,2.421,0,0,0,1.692.607,2.957,2.957,0,0,0,2.474-1.147l1.346,1.507A4.113,4.113,0,0,1,20.04-.3,5.474,5.474,0,0,1,17.708.19Zm-.313-8.427a1.712,1.712,0,0,0-1.322.552A2.86,2.86,0,0,0,15.423-6.1h3.811v-.219a2.04,2.04,0,0,0-.493-1.414A1.766,1.766,0,0,0,17.395-8.238Zm11.849.55a7.443,7.443,0,0,0-.986-.076A2.007,2.007,0,0,0,26.22-6.712V0h-2.74V-10.257h2.588l.076,1.223a2.538,2.538,0,0,1,2.285-1.412,2.871,2.871,0,0,1,.853.123Zm5.483,4.342,1.905-6.911H39.5L36.035,0H33.419l-3.46-10.257h2.863ZM43.591,0H40.842V-10.257h2.749ZM40.68-12.911a1.349,1.349,0,0,1,.412-1.014,1.549,1.549,0,0,1,1.123-.4,1.553,1.553,0,0,1,1.119.4,1.341,1.341,0,0,1,.417,1.014,1.345,1.345,0,0,1-.422,1.024,1.556,1.556,0,0,1-1.114.4,1.556,1.556,0,0,1-1.114-.4A1.345,1.345,0,0,1,40.68-12.911ZM50.112-2.019a1.8,1.8,0,0,0,1.232-.417,1.461,1.461,0,0,0,.493-1.109h2.569a3.514,3.514,0,0,1-.569,1.91A3.753,3.753,0,0,1,52.307-.289,4.791,4.791,0,0,1,50.16.19a4.453,4.453,0,0,1-3.47-1.4,5.533,5.533,0,0,1-1.27-3.863v-.18a5.47,5.47,0,0,1,1.261-3.782,4.4,4.4,0,0,1,3.46-1.412,4.314,4.314,0,0,1,3.086,1.095,3.877,3.877,0,0,1,1.18,2.915H51.838a1.883,1.883,0,0,0-.493-1.3,1.644,1.644,0,0,0-1.251-.5,1.65,1.65,0,0,0-1.446.7,4.044,4.044,0,0,0-.488,2.264v.285a4.1,4.1,0,0,0,.483,2.279A1.671,1.671,0,0,0,50.112-2.019ZM58.862,0H56.113V-10.257h2.749Zm-2.91-12.911a1.349,1.349,0,0,1,.412-1.014,1.549,1.549,0,0,1,1.123-.4,1.553,1.553,0,0,1,1.119.4,1.341,1.341,0,0,1,.417,1.014,1.345,1.345,0,0,1-.422,1.024,1.556,1.556,0,0,1-1.114.4,1.556,1.556,0,0,1-1.114-.4A1.345,1.345,0,0,1,55.952-12.911Zm4.74,7.688a6.083,6.083,0,0,1,.588-2.721,4.3,4.3,0,0,1,1.692-1.849,4.937,4.937,0,0,1,2.564-.654,4.671,4.671,0,0,1,3.389,1.27,5.1,5.1,0,0,1,1.465,3.451l.019.7a5.361,5.361,0,0,1-1.318,3.787A4.58,4.58,0,0,1,65.555.19a4.6,4.6,0,0,1-3.541-1.422A5.455,5.455,0,0,1,60.692-5.1Zm2.74.194a3.834,3.834,0,0,0,.55,2.236,1.814,1.814,0,0,0,1.574.774,1.818,1.818,0,0,0,1.555-.764,4.2,4.2,0,0,0,.559-2.445,3.8,3.8,0,0,0-.559-2.222,1.818,1.818,0,0,0-1.574-.788,1.788,1.788,0,0,0-1.555.783A4.266,4.266,0,0,0,63.431-5.029ZM82.874,0A3.042,3.042,0,0,1,82.6-.92,3.315,3.315,0,0,1,80.011.19a3.642,3.642,0,0,1-2.5-.872,2.8,2.8,0,0,1-.991-2.2,2.9,2.9,0,0,1,1.209-2.5,5.964,5.964,0,0,1,3.493-.882h1.261v-.588a1.69,1.69,0,0,0-.365-1.138,1.436,1.436,0,0,0-1.152-.427,1.632,1.632,0,0,0-1.085.332,1.127,1.127,0,0,0-.393.91H76.75a2.752,2.752,0,0,1,.55-1.649,3.634,3.634,0,0,1,1.555-1.19,5.666,5.666,0,0,1,2.256-.431,4.476,4.476,0,0,1,3.01.953,3.333,3.333,0,0,1,1.114,2.678V-2.37a4.9,4.9,0,0,0,.408,2.209V0ZM80.608-1.905a2.36,2.36,0,0,0,1.119-.27,1.774,1.774,0,0,0,.758-.725V-4.664H81.461q-2.057,0-2.19,1.422l-.009.161a1.1,1.1,0,0,0,.36.844A1.4,1.4,0,0,0,80.608-1.905ZM90.23,0H87.481V-14.561H90.23Zm11.356-2.019a1.8,1.8,0,0,0,1.232-.417,1.461,1.461,0,0,0,.493-1.109h2.569a3.514,3.514,0,0,1-.569,1.91,3.753,3.753,0,0,1-1.531,1.346,4.791,4.791,0,0,1-2.147.479,4.453,4.453,0,0,1-3.47-1.4,5.533,5.533,0,0,1-1.27-3.863v-.18a5.47,5.47,0,0,1,1.261-3.782,4.4,4.4,0,0,1,3.46-1.412A4.314,4.314,0,0,1,104.7-9.352a3.877,3.877,0,0,1,1.18,2.915h-2.569a1.883,1.883,0,0,0-.493-1.3,1.644,1.644,0,0,0-1.251-.5,1.65,1.65,0,0,0-1.446.7,4.044,4.044,0,0,0-.488,2.264v.285a4.1,4.1,0,0,0,.483,2.279A1.671,1.671,0,0,0,101.586-2.019ZM110.336,0h-2.749V-14.561h2.749Zm5.147,0h-2.749V-10.257h2.749Zm-2.91-12.911a1.349,1.349,0,0,1,.412-1.014,1.549,1.549,0,0,1,1.123-.4,1.553,1.553,0,0,1,1.119.4,1.341,1.341,0,0,1,.417,1.014,1.345,1.345,0,0,1-.422,1.024,1.556,1.556,0,0,1-1.114.4,1.556,1.556,0,0,1-1.114-.4A1.345,1.345,0,0,1,112.573-12.911ZM122.46.19a5.035,5.035,0,0,1-3.673-1.384,4.92,4.92,0,0,1-1.417-3.688v-.265a6.2,6.2,0,0,1,.6-2.763,4.383,4.383,0,0,1,1.692-1.877,4.749,4.749,0,0,1,2.5-.659,4.257,4.257,0,0,1,3.313,1.327,5.393,5.393,0,0,1,1.209,3.763v1.119h-6.531a2.545,2.545,0,0,0,.8,1.612,2.421,2.421,0,0,0,1.692.607,2.957,2.957,0,0,0,2.474-1.147l1.346,1.507A4.113,4.113,0,0,1,124.792-.3,5.474,5.474,0,0,1,122.46.19Zm-.313-8.427a1.712,1.712,0,0,0-1.322.552,2.86,2.86,0,0,0-.649,1.581h3.811v-.219a2.04,2.04,0,0,0-.493-1.414A1.766,1.766,0,0,0,122.148-8.238Zm8.607-2.019.085,1.185a3.581,3.581,0,0,1,2.948-1.375,2.976,2.976,0,0,1,2.427.957,4.467,4.467,0,0,1,.815,2.863V0h-2.74V-6.575a1.784,1.784,0,0,0-.379-1.268,1.7,1.7,0,0,0-1.261-.394,1.884,1.884,0,0,0-1.735.988V0h-2.74V-10.257Zm11.631-2.522v2.522h1.754v2.01h-1.754v5.119a1.222,1.222,0,0,0,.218.815,1.1,1.1,0,0,0,.834.246,4.369,4.369,0,0,0,.806-.066V-.057a5.64,5.64,0,0,1-1.659.246,2.616,2.616,0,0,1-2.939-2.91V-8.247h-1.5v-2.01h1.5v-2.522Zm8,12.968a5.035,5.035,0,0,1-3.673-1.384A4.92,4.92,0,0,1,145.3-4.882v-.265a6.2,6.2,0,0,1,.6-2.763,4.383,4.383,0,0,1,1.692-1.877,4.749,4.749,0,0,1,2.5-.659A4.257,4.257,0,0,1,153.4-9.119a5.393,5.393,0,0,1,1.209,3.763v1.119h-6.531a2.545,2.545,0,0,0,.8,1.612,2.421,2.421,0,0,0,1.692.607,2.957,2.957,0,0,0,2.474-1.147l1.346,1.507A4.113,4.113,0,0,1,152.719-.3,5.474,5.474,0,0,1,150.387.19Zm-.313-8.427a1.712,1.712,0,0,0-1.322.552A2.86,2.86,0,0,0,148.1-6.1h3.811v-.219a2.039,2.039,0,0,0-.493-1.414A1.766,1.766,0,0,0,150.074-8.238ZM164.2,0h-2.844V-13.8H164.2Zm9.792-3.621a1.459,1.459,0,0,0-.569-1.237,7.46,7.46,0,0,0-2.048-.91,14.515,14.515,0,0,1-2.341-.943,3.826,3.826,0,0,1-2.351-3.422,3.333,3.333,0,0,1,.63-2,4.112,4.112,0,0,1,1.811-1.37,6.815,6.815,0,0,1,2.65-.493,6.2,6.2,0,0,1,2.635.536,4.2,4.2,0,0,1,1.8,1.512,3.956,3.956,0,0,1,.64,2.218H174a1.861,1.861,0,0,0-.6-1.474,2.455,2.455,0,0,0-1.678-.526,2.623,2.623,0,0,0-1.621.441,1.39,1.39,0,0,0-.578,1.161A1.332,1.332,0,0,0,170.2-9a7.658,7.658,0,0,0,2,.853,8.622,8.622,0,0,1,3.536,1.811,3.606,3.606,0,0,1,1.109,2.692,3.322,3.322,0,0,1-1.356,2.811A5.934,5.934,0,0,1,171.839.19a7.048,7.048,0,0,1-2.9-.583,4.59,4.59,0,0,1-2-1.6,4.091,4.091,0,0,1-.687-2.351h2.853q0,2.285,2.73,2.285a2.656,2.656,0,0,0,1.583-.412A1.342,1.342,0,0,0,173.991-3.621Zm16.115-2.967a8.332,8.332,0,0,1-.72,3.574,5.426,5.426,0,0,1-2.062,2.37,5.7,5.7,0,0,1-3.076.834,5.742,5.742,0,0,1-3.062-.825A5.479,5.479,0,0,1,179.1-2.991a8.094,8.094,0,0,1-.749-3.522v-.683a8.288,8.288,0,0,1,.735-3.588,5.47,5.47,0,0,1,2.076-2.379,5.71,5.71,0,0,1,3.067-.829,5.71,5.71,0,0,1,3.067.829,5.47,5.47,0,0,1,2.076,2.379,8.265,8.265,0,0,1,.735,3.579Zm-2.882-.626a5.808,5.808,0,0,0-.777-3.3,2.533,2.533,0,0,0-2.218-1.128,2.534,2.534,0,0,0-2.209,1.114,5.742,5.742,0,0,0-.787,3.266v.673a5.881,5.881,0,0,0,.777,3.28,2.527,2.527,0,0,0,2.237,1.166,2.5,2.5,0,0,0,2.2-1.123,5.847,5.847,0,0,0,.777-3.275Z" transform="translate(335.987 3428.504)"/>
    <g id="Grupo_147864" data-name="Grupo 147864" transform="translate(180.864 2888)">
      <g id="Grupo_147863" data-name="Grupo 147863" clip-path="url(#clip-path)">
        <text id="_9001:2015" data-name="9001:2015" transform="translate(202.805 563.8)" font-size="19.414" font-family="Roboto-Bold, Roboto" font-weight="700"><tspan x="0" y="0">9001:2015</tspan></text>
        <path id="Trazado_211224" data-name="Trazado 211224" d="M271.779,295.115v94.471a25.1,25.1,0,0,0,12.82,21.892l85.314,47.856a25.1,25.1,0,0,0,24.56,0l85.313-47.856a25.1,25.1,0,0,0,12.821-21.892V295.115a25.1,25.1,0,0,0-12.821-21.892l-85.313-47.856a25.1,25.1,0,0,0-24.56,0L284.6,273.223a25.1,25.1,0,0,0-12.82,21.892" fill="#039d95"/>
        <path id="Trazado_211225" data-name="Trazado 211225" d="M282.773,301.282v82.137a25.1,25.1,0,0,0,12.821,21.892L369.913,447a25.1,25.1,0,0,0,24.56,0l74.319-41.688a25.1,25.1,0,0,0,12.821-21.892V301.282a25.1,25.1,0,0,0-12.821-21.892L394.473,237.7a25.1,25.1,0,0,0-24.56,0L295.594,279.39a25.1,25.1,0,0,0-12.821,21.892" fill="#fff"/>
        <path id="Trazado_211226" data-name="Trazado 211226" d="M11.528,297.523v94.471a25.1,25.1,0,0,0,12.821,21.892l85.313,47.856a25.1,25.1,0,0,0,24.561,0l85.313-47.856a25.1,25.1,0,0,0,12.821-21.892V297.523a25.1,25.1,0,0,0-12.821-21.892l-85.313-47.856a25.1,25.1,0,0,0-24.561,0L24.349,275.631a25.1,25.1,0,0,0-12.821,21.892" fill="#039d95"/>
        <path id="Trazado_211227" data-name="Trazado 211227" d="M22.523,303.69v82.137a25.1,25.1,0,0,0,12.821,21.892l74.319,41.688a25.1,25.1,0,0,0,24.56,0l74.319-41.688a25.1,25.1,0,0,0,12.821-21.892V303.69A25.1,25.1,0,0,0,208.542,281.8l-74.319-41.689a25.1,25.1,0,0,0-24.56,0L35.344,281.8A25.1,25.1,0,0,0,22.523,303.69" fill="#fff"/>
        <path id="Trazado_211228" data-name="Trazado 211228" d="M278.793,418.826l91.12,52.126a25.1,25.1,0,0,0,24.56,0l95.67-53.664a25.1,25.1,0,0,0,12.821-21.893V289.306a25.1,25.1,0,0,0-12.821-21.892l-95.67-53.665c-.715-.4-1.581-.573-2.411-.965-10.439-4.924-20.068-13.573-19.961-25.752,0-.35,0-.686,0-1.005V79.938a25.1,25.1,0,0,0-12.821-21.893L263.614,4.381a25.1,25.1,0,0,0-24.56,0L143.385,58.045a25.1,25.1,0,0,0-12.821,21.892V185.46c0,13.258-8.157,24.776-20.192,30.335-.242.112-.478.232-.71.362L13.993,269.822A25.1,25.1,0,0,0,1.172,291.714V397.8A25.1,25.1,0,0,0,13.993,419.7l95.669,53.665a25.1,25.1,0,0,0,24.561,0l92.346-51.622" fill="none" stroke="#027d77" stroke-miterlimit="10" stroke-width="2.344" stroke-dasharray="11.719 7.031"/>
        <path id="Trazado_211229" data-name="Trazado 211229" d="M140.92,85.747v94.471a25.1,25.1,0,0,0,12.821,21.892l85.313,47.856a25.1,25.1,0,0,0,24.561,0l85.313-47.856a25.1,25.1,0,0,0,12.821-21.892V85.747a25.1,25.1,0,0,0-12.821-21.892L263.615,16a25.106,25.106,0,0,0-24.561,0L153.741,63.855A25.1,25.1,0,0,0,140.92,85.747" fill="#039d95"/>
        <path id="Trazado_211230" data-name="Trazado 211230" d="M151.914,91.914v82.137a25.1,25.1,0,0,0,12.821,21.892l74.319,41.688a25.1,25.1,0,0,0,24.56,0l74.319-41.688a25.1,25.1,0,0,0,12.821-21.892V91.914a25.1,25.1,0,0,0-12.821-21.892L263.614,28.333a25.1,25.1,0,0,0-24.56,0L164.735,70.022a25.1,25.1,0,0,0-12.821,21.892" fill="#fff"/>
      </g>
    </g>
    <path id="Trazado_211458" data-name="Trazado 211458" d="M10.526-6.623H4.5v4.1h7.073V0H1.36V-15.234H11.551v2.542H4.5v3.631h6.027ZM16-11.321l.094,1.308a3.952,3.952,0,0,1,3.254-1.517,3.285,3.285,0,0,1,2.678,1.057,4.93,4.93,0,0,1,.9,3.16V0H19.9V-7.257a1.969,1.969,0,0,0-.419-1.4,1.871,1.871,0,0,0-1.392-.435A2.079,2.079,0,0,0,16.176-8V0H13.152V-11.321ZM26.042,0V-9.1H24.357v-2.218h1.685v-.963a3.908,3.908,0,0,1,1.093-2.956,4.234,4.234,0,0,1,3.06-1.052,7.127,7.127,0,0,1,1.538.207L31.7-13.759a3.855,3.855,0,0,0-.921-.094q-1.705,0-1.705,1.614v.918h2.25V-9.1h-2.25V0Zm6.382-5.765a6.714,6.714,0,0,1,.649-3,4.749,4.749,0,0,1,1.868-2.04,5.449,5.449,0,0,1,2.83-.722,5.155,5.155,0,0,1,3.74,1.4A5.627,5.627,0,0,1,43.128-6.32l.021.774a5.917,5.917,0,0,1-1.454,4.18,5.055,5.055,0,0,1-3.9,1.575A5.08,5.08,0,0,1,33.884-1.36a6.021,6.021,0,0,1-1.46-4.269Zm3.024.215a4.232,4.232,0,0,0,.607,2.468,2,2,0,0,0,1.737.854,2.007,2.007,0,0,0,1.716-.844,4.63,4.63,0,0,0,.617-2.7,4.189,4.189,0,0,0-.617-2.452,2.007,2.007,0,0,0-1.737-.87,1.974,1.974,0,0,0-1.716.864A4.708,4.708,0,0,0,35.448-5.55Zm9.092-.215a6.767,6.767,0,0,1,1.188-4.217,3.882,3.882,0,0,1,3.259-1.549,3.476,3.476,0,0,1,2.9,1.392l.2-1.182h2.658V4.353H51.707V-.973A3.486,3.486,0,0,1,48.966.209,3.854,3.854,0,0,1,45.744-1.36,7.1,7.1,0,0,1,44.54-5.765Zm3.024.215a4.439,4.439,0,0,0,.57,2.473,1.825,1.825,0,0,0,1.606.849,2.033,2.033,0,0,0,1.967-1.111V-8.023a2.017,2.017,0,0,0-1.946-1.069,1.848,1.848,0,0,0-1.622.849A4.9,4.9,0,0,0,47.564-5.55ZM63.9-1.151A3.792,3.792,0,0,1,60.8.209,3.576,3.576,0,0,1,58.022-.837,4.466,4.466,0,0,1,57.043-3.9v-7.418h3.024V-4q0,1.77,1.611,1.77A2.183,2.183,0,0,0,63.792-3.3v-8.024h3.034V0H63.98ZM74.318.209a5.557,5.557,0,0,1-4.054-1.528A5.43,5.43,0,0,1,68.7-5.388v-.293a6.839,6.839,0,0,1,.659-3.05A4.838,4.838,0,0,1,71.226-10.8a5.242,5.242,0,0,1,2.757-.727,4.7,4.7,0,0,1,3.657,1.465,5.952,5.952,0,0,1,1.334,4.154v1.235H71.765A2.809,2.809,0,0,0,72.649-2.9a2.673,2.673,0,0,0,1.868.67,3.264,3.264,0,0,0,2.731-1.266l1.486,1.664a4.539,4.539,0,0,1-1.841,1.5A6.042,6.042,0,0,1,74.318.209Zm-.345-9.3a1.889,1.889,0,0,0-1.46.61A3.156,3.156,0,0,0,71.8-6.738H76V-6.98a2.251,2.251,0,0,0-.544-1.561A1.949,1.949,0,0,0,73.972-9.092Z" transform="translate(397.302 3052.403)"/>
    <path id="Trazado_211459" data-name="Trazado 211459" d="M7.722,0a3.358,3.358,0,0,1-.3-1.015A3.659,3.659,0,0,1,4.562.209,4.019,4.019,0,0,1,1.8-.753,3.1,3.1,0,0,1,.711-3.181,3.2,3.2,0,0,1,2.045-5.943,6.583,6.583,0,0,1,5.9-6.916H7.293v-.649a1.866,1.866,0,0,0-.4-1.256,1.585,1.585,0,0,0-1.271-.471,1.8,1.8,0,0,0-1.2.366,1.244,1.244,0,0,0-.434,1H.963a3.037,3.037,0,0,1,.607-1.821,4.011,4.011,0,0,1,1.716-1.313,6.254,6.254,0,0,1,2.49-.476A4.941,4.941,0,0,1,9.1-10.479a3.679,3.679,0,0,1,1.229,2.956v4.907a5.412,5.412,0,0,0,.45,2.438V0Zm-2.5-2.1a2.6,2.6,0,0,0,1.235-.3,1.959,1.959,0,0,0,.837-.8V-5.148H6.163q-2.27,0-2.417,1.569l-.01.178a1.211,1.211,0,0,0,.4.931A1.544,1.544,0,0,0,5.221-2.1ZM15.841,0H12.807V-16.071h3.034Zm6.11-14.1v2.783h1.936V-9.1H21.951v5.65a1.349,1.349,0,0,0,.241.9,1.209,1.209,0,0,0,.921.272A4.822,4.822,0,0,0,24-2.354V-.063a6.225,6.225,0,0,1-1.831.272Q18.99.209,18.927-3V-9.1H17.274v-2.218h1.653V-14.1ZM32.131,0a3.358,3.358,0,0,1-.3-1.015A3.659,3.659,0,0,1,28.972.209a4.019,4.019,0,0,1-2.757-.963,3.1,3.1,0,0,1-1.093-2.427,3.2,3.2,0,0,1,1.334-2.762,6.583,6.583,0,0,1,3.856-.973H31.7v-.649a1.866,1.866,0,0,0-.4-1.256,1.585,1.585,0,0,0-1.271-.471,1.8,1.8,0,0,0-1.2.366,1.244,1.244,0,0,0-.434,1H25.372a3.037,3.037,0,0,1,.607-1.821A4.011,4.011,0,0,1,27.7-11.054a6.254,6.254,0,0,1,2.49-.476,4.941,4.941,0,0,1,3.322,1.052,3.679,3.679,0,0,1,1.229,2.956v4.907a5.412,5.412,0,0,0,.45,2.438V0Zm-2.5-2.1a2.6,2.6,0,0,0,1.235-.3,1.959,1.959,0,0,0,.837-.8V-5.148h-1.13q-2.27,0-2.417,1.569l-.01.178a1.211,1.211,0,0,0,.4.931A1.544,1.544,0,0,0,29.631-2.1ZM41.925-5.744a6.822,6.822,0,0,1,1.188-4.217,3.853,3.853,0,0,1,3.249-1.569A3.467,3.467,0,0,1,49.092-10.3v-5.775h3.034V0H49.4l-.146-1.2A3.558,3.558,0,0,1,46.34.209a3.843,3.843,0,0,1-3.207-1.575A7.042,7.042,0,0,1,41.925-5.744Zm3.024.215A4.494,4.494,0,0,0,45.5-3.08a1.8,1.8,0,0,0,1.611.851,2.023,2.023,0,0,0,1.977-1.188V-7.9a1.994,1.994,0,0,0-1.957-1.188Q44.948-9.092,44.948-5.529ZM57.661,0H54.626V-11.321h3.034ZM54.449-14.25a1.489,1.489,0,0,1,.455-1.12,1.71,1.71,0,0,1,1.24-.439,1.714,1.714,0,0,1,1.235.439,1.48,1.48,0,0,1,.46,1.12,1.485,1.485,0,0,1-.466,1.13,1.718,1.718,0,0,1-1.229.439,1.718,1.718,0,0,1-1.229-.439A1.485,1.485,0,0,1,54.449-14.25ZM66.512-8.485a8.215,8.215,0,0,0-1.088-.084,2.215,2.215,0,0,0-2.25,1.161V0H60.151V-11.321h2.856l.084,1.35a2.8,2.8,0,0,1,2.522-1.559,3.168,3.168,0,0,1,.942.136ZM72.785.209a5.557,5.557,0,0,1-4.054-1.528,5.43,5.43,0,0,1-1.564-4.07v-.293a6.839,6.839,0,0,1,.659-3.05A4.838,4.838,0,0,1,69.694-10.8a5.242,5.242,0,0,1,2.757-.727,4.7,4.7,0,0,1,3.657,1.465,5.952,5.952,0,0,1,1.334,4.154v1.235H70.233A2.809,2.809,0,0,0,71.117-2.9a2.673,2.673,0,0,0,1.868.67,3.264,3.264,0,0,0,2.731-1.266L77.2-1.831a4.539,4.539,0,0,1-1.841,1.5A6.042,6.042,0,0,1,72.785.209Zm-.345-9.3a1.889,1.889,0,0,0-1.46.61,3.156,3.156,0,0,0-.717,1.745H74.47V-6.98a2.251,2.251,0,0,0-.544-1.561A1.949,1.949,0,0,0,72.44-9.092ZM83.866-2.229a1.983,1.983,0,0,0,1.36-.46,1.613,1.613,0,0,0,.544-1.224h2.835A3.879,3.879,0,0,1,87.978-1.8a4.142,4.142,0,0,1-1.69,1.486,5.288,5.288,0,0,1-2.37.528,4.915,4.915,0,0,1-3.829-1.543,6.107,6.107,0,0,1-1.4-4.264v-.2a6.037,6.037,0,0,1,1.392-4.175A4.858,4.858,0,0,1,83.9-11.53,4.762,4.762,0,0,1,87.3-10.322a4.279,4.279,0,0,1,1.3,3.217H85.77a2.078,2.078,0,0,0-.544-1.436,1.814,1.814,0,0,0-1.381-.552,1.821,1.821,0,0,0-1.6.77,4.464,4.464,0,0,0-.539,2.5v.314a4.52,4.52,0,0,0,.534,2.515A1.844,1.844,0,0,0,83.866-2.229Zm11.174,0a1.983,1.983,0,0,0,1.36-.46,1.613,1.613,0,0,0,.544-1.224H99.78A3.879,3.879,0,0,1,99.152-1.8a4.142,4.142,0,0,1-1.69,1.486,5.288,5.288,0,0,1-2.37.528,4.915,4.915,0,0,1-3.829-1.543,6.107,6.107,0,0,1-1.4-4.264v-.2a6.037,6.037,0,0,1,1.392-4.175,4.858,4.858,0,0,1,3.819-1.559,4.762,4.762,0,0,1,3.406,1.208A4.279,4.279,0,0,1,99.78-7.1H96.944A2.078,2.078,0,0,0,96.4-8.54a1.814,1.814,0,0,0-1.381-.552,1.821,1.821,0,0,0-1.6.77,4.464,4.464,0,0,0-.539,2.5v.314a4.52,4.52,0,0,0,.534,2.515A1.844,1.844,0,0,0,95.04-2.229ZM104.7,0h-3.034V-11.321H104.7Zm-3.212-14.25a1.489,1.489,0,0,1,.455-1.12,1.71,1.71,0,0,1,1.24-.439,1.714,1.714,0,0,1,1.235.439,1.48,1.48,0,0,1,.46,1.12,1.485,1.485,0,0,1-.466,1.13,1.718,1.718,0,0,1-1.229.439,1.718,1.718,0,0,1-1.229-.439A1.485,1.485,0,0,1,101.485-14.25Zm5.231,8.485a6.714,6.714,0,0,1,.649-3,4.749,4.749,0,0,1,1.868-2.04,5.449,5.449,0,0,1,2.83-.722,5.155,5.155,0,0,1,3.74,1.4A5.627,5.627,0,0,1,117.42-6.32l.021.774a5.917,5.917,0,0,1-1.454,4.18,5.055,5.055,0,0,1-3.9,1.575,5.08,5.08,0,0,1-3.908-1.569,6.021,6.021,0,0,1-1.46-4.269Zm3.024.215a4.232,4.232,0,0,0,.607,2.468,2,2,0,0,0,1.737.854,2.006,2.006,0,0,0,1.716-.844,4.63,4.63,0,0,0,.617-2.7,4.189,4.189,0,0,0-.617-2.452,2.007,2.007,0,0,0-1.737-.87,1.974,1.974,0,0,0-1.716.864A4.708,4.708,0,0,0,109.74-5.55Zm2.919-10.521h3.3l-2.9,3.243H110.6Zm9.427,4.75.094,1.308a3.953,3.953,0,0,1,3.254-1.517,3.285,3.285,0,0,1,2.678,1.057,4.931,4.931,0,0,1,.9,3.16V0h-3.024V-7.257a1.969,1.969,0,0,0-.419-1.4,1.871,1.871,0,0,0-1.392-.435A2.079,2.079,0,0,0,122.264-8V0H119.24V-11.321Z" transform="translate(371.824 3078.117)"/>
    <path id="Trazado_211460" data-name="Trazado 211460" d="M13.874-7.272a9.2,9.2,0,0,1-.8,3.944A5.988,5.988,0,0,1,10.8-.711a6.3,6.3,0,0,1-3.4.921A6.338,6.338,0,0,1,4.028-.7a6.047,6.047,0,0,1-2.3-2.6A8.933,8.933,0,0,1,.9-7.188v-.753a9.148,9.148,0,0,1,.811-3.96A6.037,6.037,0,0,1,4-14.528a6.3,6.3,0,0,1,3.385-.915,6.3,6.3,0,0,1,3.385.915A6.037,6.037,0,0,1,13.063-11.9a9.122,9.122,0,0,1,.811,3.95Zm-3.181-.691A6.411,6.411,0,0,0,9.835-11.6a2.8,2.8,0,0,0-2.448-1.245,2.8,2.8,0,0,0-2.438,1.229,6.337,6.337,0,0,0-.868,3.6v.743a6.491,6.491,0,0,0,.858,3.62A2.789,2.789,0,0,0,7.408-2.365,2.764,2.764,0,0,0,9.835-3.6a6.453,6.453,0,0,0,.858-3.615ZM26.147-5.556a6.79,6.79,0,0,1-1.188,4.19A3.807,3.807,0,0,1,21.752.209,3.527,3.527,0,0,1,18.98-.984V4.353H15.956V-11.321h2.8l.1,1.109a3.554,3.554,0,0,1,2.867-1.318,3.833,3.833,0,0,1,3.254,1.549,6.973,6.973,0,0,1,1.161,4.269Zm-3.024-.231a4.48,4.48,0,0,0-.56-2.445,1.822,1.822,0,0,0-1.627-.861A1.979,1.979,0,0,0,18.98-8v4.649a2.013,2.013,0,0,0,1.977,1.123Q23.123-2.229,23.123-5.786Zm10.107,6a5.557,5.557,0,0,1-4.054-1.528,5.43,5.43,0,0,1-1.564-4.07v-.293a6.839,6.839,0,0,1,.659-3.05A4.838,4.838,0,0,1,30.138-10.8,5.242,5.242,0,0,1,32.9-11.53a4.7,4.7,0,0,1,3.657,1.465,5.952,5.952,0,0,1,1.334,4.154v1.235H30.677A2.809,2.809,0,0,0,31.561-2.9a2.673,2.673,0,0,0,1.868.67A3.264,3.264,0,0,0,36.16-3.495l1.486,1.664A4.539,4.539,0,0,1,35.8-.33,6.042,6.042,0,0,1,33.23.209Zm-.345-9.3a1.889,1.889,0,0,0-1.46.61,3.156,3.156,0,0,0-.717,1.745h4.206V-6.98A2.251,2.251,0,0,0,34.37-8.54,1.949,1.949,0,0,0,32.885-9.092Zm13.079.607a8.215,8.215,0,0,0-1.088-.084,2.215,2.215,0,0,0-2.25,1.161V0H39.6V-11.321h2.856l.084,1.35a2.8,2.8,0,0,1,2.522-1.559,3.168,3.168,0,0,1,.942.136ZM53.664,0a3.358,3.358,0,0,1-.3-1.015A3.659,3.659,0,0,1,50.5.209a4.019,4.019,0,0,1-2.757-.963,3.1,3.1,0,0,1-1.093-2.427,3.2,3.2,0,0,1,1.334-2.762,6.583,6.583,0,0,1,3.856-.973h1.392v-.649a1.866,1.866,0,0,0-.4-1.256,1.585,1.585,0,0,0-1.271-.471,1.8,1.8,0,0,0-1.2.366,1.244,1.244,0,0,0-.434,1H46.9a3.037,3.037,0,0,1,.607-1.821,4.011,4.011,0,0,1,1.716-1.313,6.254,6.254,0,0,1,2.49-.476,4.941,4.941,0,0,1,3.322,1.052,3.679,3.679,0,0,1,1.229,2.956v4.907a5.412,5.412,0,0,0,.45,2.438V0Zm-2.5-2.1A2.6,2.6,0,0,0,52.4-2.4a1.959,1.959,0,0,0,.837-.8V-5.148H52.1q-2.27,0-2.417,1.569l-.01.178a1.211,1.211,0,0,0,.4.931A1.544,1.544,0,0,0,51.163-2.1ZM63.3-2.229a1.983,1.983,0,0,0,1.36-.46A1.613,1.613,0,0,0,65.2-3.913H68.04A3.879,3.879,0,0,1,67.412-1.8a4.142,4.142,0,0,1-1.69,1.486,5.288,5.288,0,0,1-2.37.528,4.915,4.915,0,0,1-3.829-1.543,6.107,6.107,0,0,1-1.4-4.264v-.2a6.037,6.037,0,0,1,1.392-4.175,4.858,4.858,0,0,1,3.819-1.559,4.762,4.762,0,0,1,3.406,1.208A4.279,4.279,0,0,1,68.04-7.1H65.2A2.078,2.078,0,0,0,64.66-8.54a1.814,1.814,0,0,0-1.381-.552,1.821,1.821,0,0,0-1.6.77,4.464,4.464,0,0,0-.539,2.5v.314a4.52,4.52,0,0,0,.534,2.515A1.844,1.844,0,0,0,63.3-2.229ZM72.957,0H69.923V-11.321h3.034ZM69.745-14.25a1.489,1.489,0,0,1,.455-1.12,1.71,1.71,0,0,1,1.24-.439,1.714,1.714,0,0,1,1.235.439,1.48,1.48,0,0,1,.46,1.12,1.485,1.485,0,0,1-.466,1.13,1.718,1.718,0,0,1-1.229.439,1.718,1.718,0,0,1-1.229-.439A1.485,1.485,0,0,1,69.745-14.25Zm5.231,8.485a6.714,6.714,0,0,1,.649-3,4.749,4.749,0,0,1,1.868-2.04,5.449,5.449,0,0,1,2.83-.722,5.155,5.155,0,0,1,3.74,1.4A5.627,5.627,0,0,1,85.68-6.32l.021.774a5.917,5.917,0,0,1-1.454,4.18,5.055,5.055,0,0,1-3.9,1.575A5.08,5.08,0,0,1,76.436-1.36a6.021,6.021,0,0,1-1.46-4.269ZM78-5.55a4.232,4.232,0,0,0,.607,2.468,2,2,0,0,0,1.737.854,2.007,2.007,0,0,0,1.716-.844,4.63,4.63,0,0,0,.617-2.7,4.189,4.189,0,0,0-.617-2.452,2.007,2.007,0,0,0-1.737-.87,1.974,1.974,0,0,0-1.716.864A4.708,4.708,0,0,0,78-5.55ZM80.92-16.071h3.3l-2.9,3.243H78.858Zm9.427,4.75.094,1.308a3.953,3.953,0,0,1,3.254-1.517,3.285,3.285,0,0,1,2.678,1.057,4.93,4.93,0,0,1,.9,3.16V0H94.249V-7.257a1.969,1.969,0,0,0-.419-1.4,1.871,1.871,0,0,0-1.392-.435A2.079,2.079,0,0,0,90.525-8V0H87.5V-11.321Z" transform="translate(251.313 3293.467)"/>
    <path id="Trazado_211461" data-name="Trazado 211461" d="M10.518-6.618H4.5v4.1h7.068V0H1.359V-15.223H11.543v2.541H4.5v3.628h6.022Zm6.393,2.927,2.1-7.622H22.17L18.354,0H15.468L11.652-11.313h3.158ZM29.746,0a3.355,3.355,0,0,1-.3-1.014A3.656,3.656,0,0,1,26.589.209a4.017,4.017,0,0,1-2.755-.962,3.094,3.094,0,0,1-1.093-2.426,3.2,3.2,0,0,1,1.333-2.76,6.578,6.578,0,0,1,3.853-.972h1.391v-.648a1.864,1.864,0,0,0-.4-1.255,1.584,1.584,0,0,0-1.27-.47,1.8,1.8,0,0,0-1.2.366,1.243,1.243,0,0,0-.434,1H22.992A3.035,3.035,0,0,1,23.6-9.734a4.008,4.008,0,0,1,1.715-1.312,6.249,6.249,0,0,1,2.488-.476,4.937,4.937,0,0,1,3.32,1.051A3.676,3.676,0,0,1,32.35-7.517v4.9A5.408,5.408,0,0,0,32.8-.178V0Zm-2.5-2.1a2.6,2.6,0,0,0,1.234-.3,1.957,1.957,0,0,0,.836-.8V-5.144H28.188q-2.269,0-2.415,1.568l-.01.178a1.21,1.21,0,0,0,.4.931A1.543,1.543,0,0,0,27.247-2.1ZM37.86,0H34.828V-16.059H37.86Zm9.263-1.15A3.789,3.789,0,0,1,44.028.209,3.574,3.574,0,0,1,41.252-.836,4.463,4.463,0,0,1,40.275-3.9v-7.413H43.3V-4q0,1.769,1.61,1.769a2.182,2.182,0,0,0,2.112-1.068v-8.018h3.032V0H47.207ZM58.885,0a3.355,3.355,0,0,1-.3-1.014A3.656,3.656,0,0,1,55.728.209a4.017,4.017,0,0,1-2.755-.962A3.094,3.094,0,0,1,51.88-3.178a3.2,3.2,0,0,1,1.333-2.76,6.578,6.578,0,0,1,3.853-.972h1.391v-.648a1.864,1.864,0,0,0-.4-1.255,1.584,1.584,0,0,0-1.27-.47,1.8,1.8,0,0,0-1.2.366,1.243,1.243,0,0,0-.434,1H52.131a3.035,3.035,0,0,1,.606-1.819,4.008,4.008,0,0,1,1.715-1.312,6.249,6.249,0,0,1,2.488-.476,4.937,4.937,0,0,1,3.32,1.051,3.676,3.676,0,0,1,1.229,2.954v4.9a5.408,5.408,0,0,0,.45,2.436V0Zm-2.5-2.1a2.6,2.6,0,0,0,1.234-.3,1.957,1.957,0,0,0,.836-.8V-5.144H57.327q-2.269,0-2.415,1.568L54.9-3.4a1.21,1.21,0,0,0,.4.931A1.543,1.543,0,0,0,56.386-2.1Zm12.128-.125a1.982,1.982,0,0,0,1.359-.46,1.612,1.612,0,0,0,.544-1.223h2.833A3.876,3.876,0,0,1,72.624-1.8,4.139,4.139,0,0,1,70.935-.319a5.285,5.285,0,0,1-2.368.528A4.911,4.911,0,0,1,64.74-1.333a6.1,6.1,0,0,1-1.4-4.261v-.2A6.033,6.033,0,0,1,64.73-9.964a4.854,4.854,0,0,1,3.816-1.558,4.758,4.758,0,0,1,3.4,1.208,4.276,4.276,0,0,1,1.3,3.215H70.418a2.076,2.076,0,0,0-.544-1.435,1.813,1.813,0,0,0-1.38-.552,1.82,1.82,0,0,0-1.594.77,4.46,4.46,0,0,0-.538,2.5V-5.5a4.517,4.517,0,0,0,.533,2.513A1.843,1.843,0,0,0,68.515-2.227ZM78.165,0H75.133V-11.313h3.032Zm-3.21-14.24a1.488,1.488,0,0,1,.455-1.119,1.709,1.709,0,0,1,1.239-.439,1.713,1.713,0,0,1,1.234.439,1.479,1.479,0,0,1,.46,1.119,1.483,1.483,0,0,1-.465,1.129,1.717,1.717,0,0,1-1.229.439,1.717,1.717,0,0,1-1.229-.439A1.483,1.483,0,0,1,74.955-14.24Zm5.228,8.479a6.709,6.709,0,0,1,.648-3A4.745,4.745,0,0,1,82.7-10.8a5.445,5.445,0,0,1,2.828-.721,5.151,5.151,0,0,1,3.738,1.4,5.623,5.623,0,0,1,1.615,3.806l.021.774a5.913,5.913,0,0,1-1.453,4.177,5.052,5.052,0,0,1-3.9,1.574,5.077,5.077,0,0,1-3.905-1.568,6.017,6.017,0,0,1-1.459-4.266Zm3.022.214a4.229,4.229,0,0,0,.606,2.466,2,2,0,0,0,1.736.853,2.005,2.005,0,0,0,1.715-.843,4.627,4.627,0,0,0,.617-2.7,4.186,4.186,0,0,0-.617-2.45,2.005,2.005,0,0,0-1.736-.869,1.972,1.972,0,0,0-1.715.864A4.705,4.705,0,0,0,83.2-5.546Zm2.917-10.513h3.293l-2.9,3.241H84.062Zm9.42,4.747.094,1.307a3.95,3.95,0,0,1,3.252-1.516,3.282,3.282,0,0,1,2.677,1.056,4.927,4.927,0,0,1,.9,3.158V0H99.441V-7.252a1.968,1.968,0,0,0-.418-1.4,1.869,1.869,0,0,0-1.391-.435A2.078,2.078,0,0,0,95.719-8V0H92.7V-11.313ZM109.615-5.74A6.817,6.817,0,0,1,110.8-9.953a3.85,3.85,0,0,1,3.246-1.568,3.465,3.465,0,0,1,2.729,1.234v-5.771h3.032V0H117.08l-.146-1.2A3.556,3.556,0,0,1,114.027.209a3.84,3.84,0,0,1-3.2-1.574A7.037,7.037,0,0,1,109.615-5.74Zm3.022.215a4.49,4.49,0,0,0,.554,2.447,1.8,1.8,0,0,0,1.61.851,2.021,2.021,0,0,0,1.976-1.187V-7.9a1.992,1.992,0,0,0-1.955-1.187Q112.636-9.086,112.636-5.525ZM127.357.209a5.553,5.553,0,0,1-4.051-1.526,5.426,5.426,0,0,1-1.563-4.067v-.293a6.834,6.834,0,0,1,.659-3.048,4.834,4.834,0,0,1,1.866-2.07,5.238,5.238,0,0,1,2.755-.727,4.7,4.7,0,0,1,3.654,1.464,5.948,5.948,0,0,1,1.333,4.151v1.234h-7.2A2.807,2.807,0,0,0,125.69-2.9a2.671,2.671,0,0,0,1.866.669,3.261,3.261,0,0,0,2.729-1.265l1.485,1.662a4.536,4.536,0,0,1-1.84,1.5A6.037,6.037,0,0,1,127.357.209Zm-.345-9.295a1.888,1.888,0,0,0-1.459.609,3.154,3.154,0,0,0-.716,1.743h4.2v-.242a2.249,2.249,0,0,0-.544-1.559A1.948,1.948,0,0,0,127.012-9.086Z" transform="translate(500.831 3275.527)"/>
    <path id="Trazado_211462" data-name="Trazado 211462" d="M.69-5.74A6.817,6.817,0,0,1,1.877-9.953a3.85,3.85,0,0,1,3.246-1.568,3.465,3.465,0,0,1,2.729,1.234v-5.771h3.032V0H8.155L8.009-1.2A3.556,3.556,0,0,1,5.1.209,3.84,3.84,0,0,1,1.9-1.364,7.037,7.037,0,0,1,.69-5.74Zm3.022.215a4.49,4.49,0,0,0,.554,2.447,1.8,1.8,0,0,0,1.61.851A2.021,2.021,0,0,0,7.852-3.414V-7.9A1.992,1.992,0,0,0,5.9-9.086Q3.712-9.086,3.712-5.525ZM18.433.209a5.553,5.553,0,0,1-4.051-1.526,5.426,5.426,0,0,1-1.563-4.067v-.293a6.834,6.834,0,0,1,.659-3.048,4.834,4.834,0,0,1,1.866-2.07,5.238,5.238,0,0,1,2.755-.727,4.7,4.7,0,0,1,3.654,1.464,5.948,5.948,0,0,1,1.333,4.151v1.234h-7.2A2.807,2.807,0,0,0,16.765-2.9a2.671,2.671,0,0,0,1.866.669A3.261,3.261,0,0,0,21.36-3.492L22.845-1.83A4.536,4.536,0,0,1,21-.329,6.037,6.037,0,0,1,18.433.209Zm-.345-9.295a1.888,1.888,0,0,0-1.459.609,3.154,3.154,0,0,0-.716,1.743h4.2v-.242a2.25,2.25,0,0,0-.544-1.559A1.948,1.948,0,0,0,18.088-9.086Zm12.839,5.96A.974.974,0,0,0,30.378-4a6.235,6.235,0,0,0-1.762-.57Q24.58-5.416,24.58-8a3.108,3.108,0,0,1,1.249-2.515A5.04,5.04,0,0,1,29.1-11.522a5.425,5.425,0,0,1,3.445,1.014,3.2,3.2,0,0,1,1.291,2.635H30.812a1.462,1.462,0,0,0-.418-1.072,1.77,1.77,0,0,0-1.307-.423,1.808,1.808,0,0,0-1.181.345,1.089,1.089,0,0,0-.418.878.931.931,0,0,0,.476.81,4.894,4.894,0,0,0,1.6.533,13.108,13.108,0,0,1,1.9.507,3.126,3.126,0,0,1,2.394,3.042,2.951,2.951,0,0,1-1.328,2.5,5.728,5.728,0,0,1-3.429.957A5.983,5.983,0,0,1,26.583-.3a4.236,4.236,0,0,1-1.73-1.391A3.231,3.231,0,0,1,24.225-3.6H27.09a1.577,1.577,0,0,0,.6,1.234,2.364,2.364,0,0,0,1.485.429,2.188,2.188,0,0,0,1.312-.329A1.025,1.025,0,0,0,30.927-3.126ZM41.016.209a5.553,5.553,0,0,1-4.051-1.526A5.426,5.426,0,0,1,35.4-5.384v-.293a6.834,6.834,0,0,1,.659-3.048,4.834,4.834,0,0,1,1.866-2.07,5.238,5.238,0,0,1,2.755-.727,4.7,4.7,0,0,1,3.654,1.464,5.948,5.948,0,0,1,1.333,4.151v1.234h-7.2A2.807,2.807,0,0,0,39.349-2.9a2.671,2.671,0,0,0,1.866.669,3.261,3.261,0,0,0,2.729-1.265L45.428-1.83a4.536,4.536,0,0,1-1.84,1.5A6.037,6.037,0,0,1,41.016.209Zm-.345-9.295a1.888,1.888,0,0,0-1.459.609A3.154,3.154,0,0,0,38.5-6.733h4.2v-.242a2.25,2.25,0,0,0-.544-1.559A1.948,1.948,0,0,0,40.671-9.086Zm9.546-2.227.094,1.265a3.976,3.976,0,0,1,3.252-1.474,3.017,3.017,0,0,1,3,1.725,3.884,3.884,0,0,1,3.4-1.725A3.374,3.374,0,0,1,62.7-10.45a4.926,4.926,0,0,1,.9,3.225V0H60.568V-7.231a2.163,2.163,0,0,0-.376-1.409,1.666,1.666,0,0,0-1.328-.445,1.886,1.886,0,0,0-1.882,1.3L56.992,0H53.97V-7.22a2.136,2.136,0,0,0-.387-1.425,1.682,1.682,0,0,0-1.317-.44,1.957,1.957,0,0,0-1.861,1.069V0H47.384V-11.313ZM76.1-5.552a6.785,6.785,0,0,1-1.187,4.187,3.8,3.8,0,0,1-3.2,1.574A3.524,3.524,0,0,1,68.942-.983V4.349H65.921V-11.313h2.8l.1,1.108a3.551,3.551,0,0,1,2.865-1.317,3.831,3.831,0,0,1,3.252,1.547A6.968,6.968,0,0,1,76.1-5.709Zm-3.022-.23a4.477,4.477,0,0,0-.559-2.444,1.82,1.82,0,0,0-1.626-.86A1.978,1.978,0,0,0,68.942-8v4.646a2.011,2.011,0,0,0,1.976,1.122Q73.083-2.227,73.083-5.782ZM83.183.209a5.553,5.553,0,0,1-4.051-1.526,5.426,5.426,0,0,1-1.563-4.067v-.293a6.834,6.834,0,0,1,.659-3.048,4.834,4.834,0,0,1,1.866-2.07,5.238,5.238,0,0,1,2.755-.727A4.7,4.7,0,0,1,86.5-10.058a5.948,5.948,0,0,1,1.333,4.151v1.234h-7.2A2.807,2.807,0,0,0,81.515-2.9a2.671,2.671,0,0,0,1.866.669A3.261,3.261,0,0,0,86.11-3.492L87.595-1.83a4.536,4.536,0,0,1-1.84,1.5A6.037,6.037,0,0,1,83.183.209Zm-.345-9.295a1.888,1.888,0,0,0-1.459.609,3.154,3.154,0,0,0-.716,1.743h4.2v-.242a2.249,2.249,0,0,0-.544-1.559A1.948,1.948,0,0,0,82.838-9.086Zm9.493-2.227.094,1.307a3.95,3.95,0,0,1,3.252-1.516,3.282,3.282,0,0,1,2.677,1.056,4.927,4.927,0,0,1,.9,3.158V0H96.231V-7.252a1.968,1.968,0,0,0-.418-1.4,1.869,1.869,0,0,0-1.391-.435A2.078,2.078,0,0,0,92.509-8V0H89.487V-11.313Zm6-4.611a2.926,2.926,0,0,1-.69,1.981,2.143,2.143,0,0,1-1.683.8,2.553,2.553,0,0,1-.706-.089,4.736,4.736,0,0,1-.852-.382,4.6,4.6,0,0,0-.784-.361,1.916,1.916,0,0,0-.523-.068.838.838,0,0,0-.622.261,1.016,1.016,0,0,0-.256.742l-1.756-.1a2.971,2.971,0,0,1,.685-1.976,2.112,2.112,0,0,1,1.678-.816,2.16,2.16,0,0,1,.591.078,6.5,6.5,0,0,1,.9.382,5.878,5.878,0,0,0,.868.366,1.98,1.98,0,0,0,.5.063.882.882,0,0,0,.633-.256.975.975,0,0,0,.267-.737Zm2.739,10.163a6.709,6.709,0,0,1,.648-3,4.745,4.745,0,0,1,1.866-2.039,5.445,5.445,0,0,1,2.828-.721,5.151,5.151,0,0,1,3.738,1.4,5.623,5.623,0,0,1,1.615,3.806l.021.774a5.913,5.913,0,0,1-1.453,4.177,5.052,5.052,0,0,1-3.9,1.574,5.077,5.077,0,0,1-3.905-1.568,6.017,6.017,0,0,1-1.459-4.266Zm3.022.214A4.229,4.229,0,0,0,104.7-3.08a2,2,0,0,0,1.736.853,2.005,2.005,0,0,0,1.715-.843,4.627,4.627,0,0,0,.617-2.7,4.186,4.186,0,0,0-.617-2.45,2.005,2.005,0,0,0-1.736-.869,1.972,1.972,0,0,0-1.715.864A4.705,4.705,0,0,0,104.093-5.546Z" transform="translate(514.128 3301.24)"/>
    <g id="Grupo_147866" data-name="Grupo 147866" transform="translate(180.864 2888)">
      <g id="Grupo_147865" data-name="Grupo 147865" clip-path="url(#clip-path)">
        <path id="Trazado_211231" data-name="Trazado 211231" d="M410.067,331.972a14.384,14.384,0,0,0-14.3,13.064H374.12a16.788,16.788,0,0,0-1.651-3.82l2.934-3.667a9.183,9.183,0,0,0,2-5.713V321.52H382.7a14.371,14.371,0,1,0,0-2.613h-5.292v-.572a3.913,3.913,0,0,0-2.968-3.8l-2.258-.565h0l-5.225-1.306-2.613-.654-2.613-.653v-8.124H376.1a3.925,3.925,0,0,0,3.919-3.92v-3.919h15.743a14.371,14.371,0,1,0,0-2.613H380.02V288.86a3.924,3.924,0,0,0-3.919-3.919H347.359a3.924,3.924,0,0,0-3.919,3.919v10.451a3.925,3.925,0,0,0,3.919,3.92h6.533V316.6a6.961,6.961,0,0,0-4.419-1.607,3.421,3.421,0,0,0-3.059,4.95l1.562,3.125a6.568,6.568,0,0,1,.69,2.92v5.851a9.174,9.174,0,0,0,2,5.713l2.934,3.667a16.813,16.813,0,0,0-2.325,8.531v10.968h23.515V349.745a16.793,16.793,0,0,0-.14-2.1h21.109a14.367,14.367,0,1,0,14.3-15.677m-20.422-2.6a7.787,7.787,0,0,1,14.716,0,11.708,11.708,0,0,1-14.716,0m3.439-11.77A3.919,3.919,0,1,1,397,321.52a3.923,3.923,0,0,1-3.919-3.919M397,308.456a11.736,11.736,0,0,1,9.345,18.865,10.408,10.408,0,0,0-5.018-4.864,6.532,6.532,0,1,0-8.654,0,10.412,10.412,0,0,0-5.018,4.864A11.736,11.736,0,0,1,397,308.456m5.707-5.214a7.787,7.787,0,0,1,14.715,0,11.707,11.707,0,0,1-14.715,0m3.438-11.769a3.919,3.919,0,1,1,3.919,3.919,3.923,3.923,0,0,1-3.919-3.919m3.919-9.145a11.736,11.736,0,0,1,9.345,18.865,10.407,10.407,0,0,0-5.018-4.864,6.532,6.532,0,1,0-8.654,0,10.412,10.412,0,0,0-5.018,4.864,11.737,11.737,0,0,1,9.345-18.865m-62.708,18.29a1.309,1.309,0,0,1-1.306-1.307V288.86a1.308,1.308,0,0,1,1.306-1.306H376.1a1.308,1.308,0,0,1,1.306,1.306v10.451a1.309,1.309,0,0,1-1.306,1.307H361.73v-1.307a3.919,3.919,0,0,0-7.838,0v1.307Zm3.92,31.218v-5.852a9.173,9.173,0,0,0-.966-4.089l-1.562-3.125a.808.808,0,0,1,.722-1.169,4.424,4.424,0,0,1,4.419,4.418v6.033H356.5V299.311a1.307,1.307,0,0,1,2.613,0v28.741h2.613v-14l2.613.653v13.35h2.613v-12.7l2.612.654v12.043h2.613V316.66l1.623.407a1.305,1.305,0,0,1,.99,1.268v13.5a6.551,6.551,0,0,1-1.432,4.08l-3.115,3.894H355.826l-3.115-3.894A6.553,6.553,0,0,1,351.279,331.836Zm20.9,26.264H353.892v-8.355a14.2,14.2,0,0,1,2.024-7.322h14.24a14.187,14.187,0,0,1,2.025,7.322Zm30.529-2.6a7.786,7.786,0,0,1,14.715,0,11.707,11.707,0,0,1-14.715,0m3.438-11.77a3.919,3.919,0,1,1,3.919,3.92,3.923,3.923,0,0,1-3.919-3.92m13.264,9.72a10.407,10.407,0,0,0-5.018-4.864,6.532,6.532,0,1,0-8.654,0,10.412,10.412,0,0,0-5.018,4.864,11.758,11.758,0,1,1,18.69,0"/>
        <path id="Trazado_211232" data-name="Trazado 211232" d="M127.66,362.963H116.3a3.344,3.344,0,0,1-3.339-3.34v-4.986a35.262,35.262,0,0,1-8.945-3.709l-3.528,3.529a3.344,3.344,0,0,1-4.723,0l-8.03-8.03a3.344,3.344,0,0,1,0-4.723l3.528-3.529a35.274,35.274,0,0,1-3.708-8.944H82.573a3.344,3.344,0,0,1-3.34-3.34V314.536a3.345,3.345,0,0,1,3.34-3.34h4.974a35.294,35.294,0,0,1,3.705-8.959l-3.513-3.514a3.342,3.342,0,0,1,0-4.722l8.03-8.03a3.344,3.344,0,0,1,4.723,0l3.5,3.5a35.248,35.248,0,0,1,8.972-3.725V280.8a3.343,3.343,0,0,1,3.339-3.34H127.66A3.343,3.343,0,0,1,131,280.8v4.932a35.276,35.276,0,0,1,8.987,3.72l3.486-3.486a3.344,3.344,0,0,1,4.723,0l8.03,8.03a3.344,3.344,0,0,1,0,4.723l-3.486,3.486a35.269,35.269,0,0,1,3.72,8.986h4.932a3.345,3.345,0,0,1,3.34,3.34v11.355a3.344,3.344,0,0,1-3.34,3.34h-4.943a35.3,35.3,0,0,1-3.725,8.972l3.5,3.5a3.344,3.344,0,0,1,0,4.723l-8.029,8.03a3.344,3.344,0,0,1-4.723,0l-3.513-3.514a35.243,35.243,0,0,1-8.96,3.705v4.975a3.344,3.344,0,0,1-3.339,3.34m-23.89-15.816a1.667,1.667,0,0,1,.9.262A31.963,31.963,0,0,0,115,351.692a1.671,1.671,0,0,1,1.309,1.631v6.3H127.66v-6.291a1.67,1.67,0,0,1,1.311-1.631,32,32,0,0,0,10.342-4.276,1.67,1.67,0,0,1,2.079.228l4.442,4.442,8.029-8.029-4.432-4.433a1.669,1.669,0,0,1-.226-2.081,31.987,31.987,0,0,0,4.3-10.351,1.67,1.67,0,0,1,1.631-1.31h6.257V314.536h-6.248a1.669,1.669,0,0,1-1.631-1.311,31.96,31.96,0,0,0-4.292-10.367,1.671,1.671,0,0,1,.227-2.08l4.416-4.416-8.029-8.029-4.416,4.416a1.672,1.672,0,0,1-2.08.227,31.992,31.992,0,0,0-10.367-4.292,1.669,1.669,0,0,1-1.311-1.631V280.8H116.3v6.257A1.67,1.67,0,0,1,115,288.693a32,32,0,0,0-10.353,4.3,1.668,1.668,0,0,1-2.08-.226l-4.433-4.432L90.1,296.362l4.442,4.443a1.668,1.668,0,0,1,.228,2.077A32.009,32.009,0,0,0,90.5,313.225a1.67,1.67,0,0,1-1.631,1.311H82.573v11.355h6.3A1.672,1.672,0,0,1,90.5,327.2a31.985,31.985,0,0,0,4.283,10.327,1.67,1.67,0,0,1-.227,2.079L90.1,344.066,98.13,352.1l4.459-4.459a1.671,1.671,0,0,1,1.181-.489"/>
        <path id="Trazado_211233" data-name="Trazado 211233" d="M121.982,344.583a24.375,24.375,0,0,1-3.181-48.542,24.551,24.551,0,0,1,15.1,2.9,1.669,1.669,0,1,1-1.633,2.912,21.04,21.04,0,1,0,8.546,8.961,1.67,1.67,0,1,1,2.987-1.493,24.372,24.372,0,0,1-21.817,35.264"/>
        <path id="Trazado_211234" data-name="Trazado 211234" d="M138.406,306.189a1.671,1.671,0,1,1,1.181-.49,1.68,1.68,0,0,1-1.181.49"/>
        <path id="Trazado_211235" data-name="Trazado 211235" d="M119.626,332.515a1.671,1.671,0,0,1-1.181-.489l-10.56-10.56a1.671,1.671,0,0,1,0-2.362l5.989-5.99a1.673,1.673,0,0,1,2.362,0l3.39,3.39,8.1-8.1a1.668,1.668,0,0,1,2.361,0l5.99,5.99a1.669,1.669,0,0,1,0,2.361l-15.273,15.273a1.672,1.672,0,0,1-1.181.489m-8.2-12.23,8.2,8.2,12.912-12.912-3.628-3.628-8.1,8.1a1.671,1.671,0,0,1-2.362,0l-3.39-3.39Z"/>
        <path id="Trazado_211236" data-name="Trazado 211236" d="M284.439,110.569h-3.888v-2.342a7.78,7.78,0,0,0,3.888-6.73v-6.48c0-.037,0-.073-.005-.11a7.964,7.964,0,0,0-2.257-5.291,7.622,7.622,0,0,0-5.514-2.375V60.024a1.3,1.3,0,0,0-1.3-1.3H254.354a18.084,18.084,0,0,0-12.685-5.185,1.3,1.3,0,0,0-1.3,1.3v3.889h-1.3a1.3,1.3,0,0,0-1.3-1.3,18.02,18.02,0,0,0-6.733,1.3h-4.931a1.3,1.3,0,0,0-1.3,1.3v2.867a18.112,18.112,0,0,0,0,25.37V132.6a1.3,1.3,0,0,0,1.3,1.3h64.8a1.3,1.3,0,0,0,1.3-1.3V118.346a7.785,7.785,0,0,0-7.776-7.777m-2.592-9.072a5.184,5.184,0,0,1-10.369,0V97.622c.3.019.647.032,1.029.032a24.1,24.1,0,0,0,9.34-2.072Zm-3.888,7.666v2.7a1.3,1.3,0,0,1-2.593,0v-2.7a7.679,7.679,0,0,0,2.593,0m-1.3-19.33a5.25,5.25,0,0,1,4.7,3.133A23.3,23.3,0,0,1,273.8,95.01a14.692,14.692,0,0,1-2.317.012v-.005a5.191,5.191,0,0,1,5.185-5.184m-33.7-33.644a15.578,15.578,0,0,1,14.2,14.2h-14.2ZM222.229,75.576a15.573,15.573,0,0,1,14.256-15.5v15.5a1.3,1.3,0,0,0,1.3,1.3h15.5a15.552,15.552,0,0,1-31.051-1.3m38.881,42.77v12.96h-33.7V90.458a18.136,18.136,0,0,0,28.513-14.882,1.3,1.3,0,0,0-1.3-1.3H239.077V61.32h1.3V71.688a1.3,1.3,0,0,0,1.3,1.3h16.849a1.3,1.3,0,0,0,1.3-1.3,18.038,18.038,0,0,0-3.263-10.368H274.07V87.686a7.791,7.791,0,0,0-5.184,7.331v6.48a7.78,7.78,0,0,0,3.888,6.73v2.342h-3.888a7.785,7.785,0,0,0-7.776,7.777m28.513,12.96h-2.592V119.642a1.3,1.3,0,0,0-2.592,0v11.664H268.886V119.642a1.3,1.3,0,1,0-2.592,0v11.664H263.7v-12.96a5.192,5.192,0,0,1,5.184-5.185H273a3.886,3.886,0,0,0,7.329,0h4.112a5.192,5.192,0,0,1,5.184,5.185Z"/>
        <path id="Trazado_211237" data-name="Trazado 211237" d="M237.782,114.458H232.6a1.3,1.3,0,0,0-1.3,1.3v11.664a1.3,1.3,0,0,0,1.3,1.3h5.185a1.3,1.3,0,0,0,1.3-1.3V115.754a1.3,1.3,0,0,0-1.3-1.3m-1.3,11.664h-2.592V117.05h2.592Z"/>
        <path id="Trazado_211238" data-name="Trazado 211238" d="M246.854,110.569H241.67a1.3,1.3,0,0,0-1.3,1.3v15.553a1.3,1.3,0,0,0,1.3,1.3h5.184a1.3,1.3,0,0,0,1.3-1.3V111.865a1.3,1.3,0,0,0-1.3-1.3m-1.3,15.553h-2.592v-12.96h2.592Z"/>
        <path id="Trazado_211239" data-name="Trazado 211239" d="M255.926,106.681h-5.184a1.3,1.3,0,0,0-1.3,1.3v19.441a1.3,1.3,0,0,0,1.3,1.3h5.184a1.3,1.3,0,0,0,1.3-1.3V107.977a1.3,1.3,0,0,0-1.3-1.3m-1.3,19.441h-2.592V109.273h2.592Z"/>
        <path id="Trazado_211240" data-name="Trazado 211240" d="M262.172,92.977a1.3,1.3,0,0,0-1.8-.318L249.446,100.3v-3.99a1.3,1.3,0,0,0-1.3-1.3,1.284,1.284,0,0,0-.679.194l-16.849,10.367a1.3,1.3,0,0,0,1.331,2.225l.027-.018,14.874-9.151v4.16a1.294,1.294,0,0,0,2.039,1.061l12.96-9.071a1.3,1.3,0,0,0,.319-1.806"/>
        <path id="Trazado_211241" data-name="Trazado 211241" d="M226.2,421.932v53.773h-14.15l40.52,33.9,39.555-33.9H278.939v-56.72" fill="none" stroke="#027d77" stroke-linecap="round" stroke-linejoin="round" stroke-width="2.344" stroke-dasharray="11.719 7.031"/>
      </g>
    </g>
  </g>
</svg>
