<svg xmlns="http://www.w3.org/2000/svg" width="108.741" height="108.993" viewBox="0 0 108.741 108.993">
  <g id="servicio-al-cliente_1_" data-name="servicio-al-cliente (1)" transform="translate(-0.572)">
    <path id="Trazado_210695" data-name="Trazado 210695" d="M151.428,121.4V109.1a21.1,21.1,0,0,1,21.1-21.1h0a21.1,21.1,0,0,1,21.1,21.1V121.4Z" transform="translate(-117.706 -68.663)" fill="#d3a06c"/>
    <path id="Trazado_210696" data-name="Trazado 210696" d="M241.186,88c-.594,0-1.176.04-1.758.088A21.088,21.088,0,0,1,258.765,109.1V121.4h3.516V109.1A21.1,21.1,0,0,0,241.186,88Z" transform="translate(-186.369 -68.663)" fill="#b27946"/>
    <path id="Trazado_210697" data-name="Trazado 210697" d="M134.281,355.337h38.675l-3.3-9.9a10.549,10.549,0,0,0-8.12-7.042L148.345,336H134.281l-13.193,2.4a10.549,10.549,0,0,0-8.12,7.042l-1.54,7v2.9Z" transform="translate(-86.496 -262.166)" fill="#92e0c0"/>
    <g id="Grupo_147845" data-name="Grupo 147845" transform="translate(33.722 38.675)">
      <path id="Trazado_210698" data-name="Trazado 210698" d="M215.428,312v5.274l7.032,7.032,7.032-7.032V312Z" transform="translate(-201.364 -282.115)" fill="#f9e0a6"/>
      <path id="Trazado_210699" data-name="Trazado 210699" d="M311.428,216h1.758a5.274,5.274,0,0,1,5.274,5.274h0a5.274,5.274,0,0,1-5.274,5.274h-1.758Z" transform="translate(-276.269 -207.21)" fill="#f9e0a6"/>
      <path id="Trazado_210700" data-name="Trazado 210700" d="M158.46,216H156.7a5.274,5.274,0,0,0-5.274,5.274h0a5.274,5.274,0,0,0,5.274,5.274h1.758Z" transform="translate(-151.428 -207.21)" fill="#f9e0a6"/>
      <path id="Trazado_210701" data-name="Trazado 210701" d="M175.428,183.032V193.58A15.821,15.821,0,0,0,191.25,209.4h0a15.821,15.821,0,0,0,15.822-15.822V183.032h0a21.223,21.223,0,0,1-15.006-6.216L191.25,176l-.816.816a21.223,21.223,0,0,1-15.006,6.216Z" transform="translate(-170.154 -176)" fill="#f9e0a6"/>
    </g>
    <path id="Trazado_210702" data-name="Trazado 210702" d="M253.492,217.43a15.82,15.82,0,0,1-14.064,15.718,15.773,15.773,0,0,0,17.579-15.718V206.883a21.29,21.29,0,0,1-3.516-.315Z" transform="translate(-186.369 -161.176)" fill="#eabd8c"/>
    <path id="Trazado_210703" data-name="Trazado 210703" d="M346.944,8h24.611a3.515,3.515,0,0,1,3.516,3.516V25.579a3.515,3.515,0,0,1-3.516,3.516h-5.274l-14.064,8.79,1.507-8.79h-6.78a3.515,3.515,0,0,1-3.516-3.516V11.516A3.515,3.515,0,0,1,346.944,8Z" transform="translate(-267.516 -6.242)" fill="#ececec"/>
    <path id="Trazado_210704" data-name="Trazado 210704" d="M296.422,355.337h7.617l-3.3-9.9a10.549,10.549,0,0,0-8.12-7.042L279.428,336l12.648,7.027a7.031,7.031,0,0,1,3.574,5.371Z" transform="translate(-217.579 -262.166)" fill="#48c397"/>
    <path id="Trazado_210705" data-name="Trazado 210705" d="M46.994,296.007l-6.3,5.7a3.515,3.515,0,0,1-4.971,0L23.11,289.1a3.515,3.515,0,0,1,0-4.971l5.7-5.7L18.264,267.88l-6.6,6.6a10.548,10.548,0,0,0,0,14.916l23.759,23.759a10.548,10.548,0,0,0,14.916,0l7.208-6.6Z" transform="translate(-6.24 -209.015)" fill="#fb5968"/>
    <path id="Trazado_210706" data-name="Trazado 210706" d="M84.835,145.139a12.306,12.306,0,0,0-9.474-8.215l-11.748-2.138v-.911a17.692,17.692,0,0,0,5.24-4.653H72.4a5.28,5.28,0,0,0,5.274-5.274v-21.1a22.853,22.853,0,1,0-45.707,0v12.306a7.043,7.043,0,0,0,5.606,6.886,17.612,17.612,0,0,0,8.457,11.831v.911l-11.75,2.138a12.3,12.3,0,0,0-9.472,8.215l-.7,2.111-5.988-5.988a1.761,1.761,0,0,1,0-2.487l6.944-6.942L12.031,118.8l-7.847,7.847a12.306,12.306,0,0,0,0,17.4l23.759,23.759a12.3,12.3,0,0,0,17.347.053l8.563-7.846-2.67-2.665H88.9ZM54.823,140.8l-5.274-5.274v-.083a17.566,17.566,0,0,0,10.548,0v.083ZM72.4,125.707H70.924a17.462,17.462,0,0,0,1.146-3.662,6.964,6.964,0,0,0,2.09-.832v2.735A1.76,1.76,0,0,1,72.4,125.707Zm0-13.575a3.485,3.485,0,0,1,0,6.054Zm-36.917,3.027a3.5,3.5,0,0,1,1.758-3.027v6.054A3.5,3.5,0,0,1,35.486,115.159Zm1.758-8.79v2.008a6.973,6.973,0,0,0-1.758.728v-6.251a19.337,19.337,0,1,1,38.675,0V109.1a6.909,6.909,0,0,0-1.758-.728v-2.008H70.645a19.342,19.342,0,0,1-13.763-5.7L54.823,98.61l-2.059,2.059A19.342,19.342,0,0,1,39,106.369Zm3.516,12.306v-8.857a22.792,22.792,0,0,0,14.064-6.248,22.782,22.782,0,0,0,14.064,6.248v8.857a13.958,13.958,0,0,1-1.9,7.032H54.823v3.516h9.271A14.041,14.041,0,0,1,40.76,118.675ZM20.091,131.833l-1.909,1.909L10.12,125.68l1.909-1.909ZM36.641,167.9a8.741,8.741,0,0,1-6.216-2.575L6.666,141.565a8.792,8.792,0,0,1,0-12.43l.967-.967,8.062,8.062-.063.063a5.283,5.283,0,0,0,0,7.459l12.606,12.606a5.246,5.246,0,0,0,3.73,1.545,5.176,5.176,0,0,0,3.665-1.484l.132-.118,8.1,8.1-1.009.925A8.745,8.745,0,0,1,36.641,167.9Zm9.818-5.877-8.081-8.081,2.322-2.1,8.067,8.067Zm1.208-8.187-6.847-6.847-7.608,6.882a1.8,1.8,0,0,1-2.486,0l-3.839-3.839,1.259-3.78a8.793,8.793,0,0,1,6.766-5.87L47.2,138.148l7.624,7.624,7.622-7.622,12.286,2.233a8.79,8.79,0,0,1,6.766,5.87l2.53,7.582Z" transform="translate(-0.006 -62.421)"/>
    <path id="Trazado_210707" data-name="Trazado 210707" d="M365.313,0H340.7a5.28,5.28,0,0,0-5.274,5.274V19.337a5.28,5.28,0,0,0,5.274,5.274h4.7l-1.818,10.6,16.964-10.6h4.769a5.28,5.28,0,0,0,5.274-5.274V5.274A5.28,5.28,0,0,0,365.313,0Zm1.758,19.337a1.761,1.761,0,0,1-1.758,1.758h-5.778L348.37,28.073l1.2-6.977H340.7a1.761,1.761,0,0,1-1.758-1.758V5.274A1.761,1.761,0,0,1,340.7,3.516h24.611a1.761,1.761,0,0,1,1.758,1.758Z" transform="translate(-261.274)"/>
    <rect id="Rectángulo_39077" data-name="Rectángulo 39077" width="21.095" height="3.516" transform="translate(81.186 7.032)"/>
    <rect id="Rectángulo_39078" data-name="Rectángulo 39078" width="14.064" height="3.516" transform="translate(81.186 14.064)"/>
    <rect id="Rectángulo_39079" data-name="Rectángulo 39079" width="3.516" height="3.516" transform="translate(98.766 14.064)"/>
    <path id="Trazado_210708" data-name="Trazado 210708" d="M17.047,62.423l-1.809-3.015-4.764,2.858A45.719,45.719,0,0,1,68.36,29.555L69.4,26.2A49.224,49.224,0,0,0,6.918,62.051L3.587,56.5.572,58.306,6.751,68.6Z" transform="translate(0 -18.726)"/>
    <path id="Trazado_210709" data-name="Trazado 210709" d="M410.692,159.314l3.015,1.809L416.783,156a45.746,45.746,0,0,1-7.747,43.55l2.73,2.215a49.229,49.229,0,0,0,8.424-46.649l5.167,3.1,1.809-3.015-10.3-6.179Z" transform="translate(-318.707 -116.271)"/>
  </g>
</svg>
