<svg xmlns="http://www.w3.org/2000/svg" width="96.286" height="96.293" viewBox="0 0 96.286 96.293">
  <g id="Page-1" transform="translate(0 0.004)">
    <g id="_015---Email" data-name="015---Email" transform="translate(0 -0.004)">
      <g id="Icons" transform="translate(1.605 1.608)">
        <path id="Shape" d="M93.077,31.492,55.413,62.785,53.7,64.214a11.239,11.239,0,0,1-14.315,0l-1.717-1.428L0,31.492,14.443,21.254,31.71,9.025l5.328-3.787c.016,0,.032-.016.048-.016l2.295-1.637a11.192,11.192,0,0,1,14.315,0l7.671,5.44L78.634,21.254Z" transform="translate(0 -0.998)" fill="#fec108"/>
        <path id="Shape-2" data-name="Shape" d="M89.263,33.492,51.6,64.785l-.08.064A11.153,11.153,0,0,1,40.381,63l-1.717-1.428L1,30.282,15.443,20.044,32.71,7.815l5.328-3.787c.016,0,.032-.016.048-.016a11.169,11.169,0,0,1,11.8,1.573l7.671,5.44L74.82,23.253Z" transform="translate(0.605 0.213)" fill="#ffdc00"/>
        <path id="Shape-3" data-name="Shape" d="M73.191,7.605V73.4H9V7.605A1.706,1.706,0,0,1,10.781,6H71.41A1.706,1.706,0,0,1,73.191,7.605Z" transform="translate(5.443 2.027)" fill="#cfd8dc"/>
        <path id="Shape-4" data-name="Shape" d="M68.377,7.605V73.4H9V7.605A1.706,1.706,0,0,1,10.781,6H66.6A1.706,1.706,0,0,1,68.377,7.605Z" transform="translate(5.443 2.027)" fill="#f5f5f5"/>
        <path id="Shape-5" data-name="Shape" d="M93.077,20V79.377a3.139,3.139,0,0,1-1.043,2.343,3.1,3.1,0,0,1-2.166.867H3.21a3.1,3.1,0,0,1-2.166-.867A3.139,3.139,0,0,1,0,79.377V20L37.664,51.293l1.717,1.428a11.246,11.246,0,0,0,14.315,0l1.717-1.428L88.263,24Z" transform="translate(0 10.495)" fill="#f57c00"/>
        <path id="Shape-6" data-name="Shape" d="M88.263,24.6V79.981a3.139,3.139,0,0,1-1.043,2.343,3.1,3.1,0,0,1-2.166.867H3.21a3.1,3.1,0,0,1-2.166-.867A3.139,3.139,0,0,1,0,79.981V19L32.85,48.062l1.717,1.428c2.744,2.279,6.291,5.282,9.564,4.543,3.274.738,6.82,1.571,9.564-.708L55.413,51.9Z" transform="translate(0 9.89)" fill="#ff9801"/>
        <path id="Shape-7" data-name="Shape" d="M91.641,69.927a3.1,3.1,0,0,1-2.166.867H2.816A3.1,3.1,0,0,1,.65,69.927L34.9,41.474,37.271,39.5l1.717,1.428a11.242,11.242,0,0,0,13.592.546c.241-.177.481-.353.722-.546L55.02,39.5Z" transform="translate(0.393 22.288)" fill="#d84315"/>
        <path id="Shape-8" data-name="Shape" d="M86.826,69.183a3.1,3.1,0,0,1-2.166.867H2.816A3.1,3.1,0,0,1,.65,69.183L34.9,40.73A11.121,11.121,0,0,0,43.738,42.5a11.121,11.121,0,0,0,8.842-1.765Z" transform="translate(0.393 23.032)" fill="#ff5722"/>
      </g>
      <g id="Layer_10">
        <path id="Shape-9" data-name="Shape" d="M39.368,48.925a35.485,35.485,0,0,1-10.6-1.671A16.031,16.031,0,0,1,18.12,35.116c-1.208-5.82.994-11.973,6.04-16.882q.812-.791,1.688-1.515A20.454,20.454,0,0,1,44.471,12.7,15.593,15.593,0,0,1,55.315,27.041a14.774,14.774,0,0,1-3.453,10.441A8.117,8.117,0,0,1,43.924,40.4a4.584,4.584,0,0,1-2.948-2.046,4.356,4.356,0,0,1-.423-3.386c1.4-5.3,2.83-13.366,2.844-13.448a1.605,1.605,0,0,1,3.161.558c-.06.335-1.465,8.276-2.9,13.71a1.158,1.158,0,0,0,.071.913,1.428,1.428,0,0,0,.931.574,4.984,4.984,0,0,0,4.79-1.9A11.552,11.552,0,0,0,52.112,27.2a12.413,12.413,0,0,0-8.594-11.442A17.174,17.174,0,0,0,27.9,19.189c-.516.428-1.017.876-1.5,1.345C23.9,22.96,19.92,28,21.262,34.463A13,13,0,0,0,29.743,44.2c7.526,2.4,18.341,2.69,24.04-4.4a1.6,1.6,0,0,1,2.5,2.011c-4.214,5.24-10.626,7.115-16.916,7.115Z" transform="translate(10.763 5.628)"/>
        <path id="Shape-10" data-name="Shape" d="M30.626,37.574A7.379,7.379,0,0,1,25.941,36c-3.08-2.465-3.165-6.747-2.3-9.664a14.7,14.7,0,0,1,1.165-2.8,13.156,13.156,0,0,1,5.513-5.721,7.588,7.588,0,0,1,8.928,1.438A12.011,12.011,0,0,1,41.8,23.658a1.6,1.6,0,0,1-3.023,1.077,8.953,8.953,0,0,0-1.855-3.267,4.344,4.344,0,0,0-5.19-.775,10.06,10.06,0,0,0-4.116,4.386,11.491,11.491,0,0,0-.9,2.175c-.624,2.109-.487,4.862,1.234,6.24C29.83,35,33,34.366,34.789,32.826A17.9,17.9,0,0,0,38.181,28.7a1.6,1.6,0,1,1,2.727,1.692,21.067,21.067,0,0,1-4.015,4.858,9.86,9.86,0,0,1-6.267,2.324Z" transform="translate(14.011 8.659)"/>
        <path id="Shape-11" data-name="Shape" d="M91.472,85.8H4.814A4.82,4.82,0,0,1,0,80.982V21.605a1.6,1.6,0,0,1,2.631-1.234L42.007,53.1a9.636,9.636,0,0,0,12.275,0L93.655,20.371a1.6,1.6,0,0,1,2.632,1.234V80.982A4.82,4.82,0,0,1,91.472,85.8ZM3.21,25.025V80.982a1.607,1.607,0,0,0,1.6,1.6H91.472a1.606,1.606,0,0,0,1.6-1.6V25.025L56.331,55.564a12.853,12.853,0,0,1-16.373,0Z" transform="translate(0 10.497)"/>
        <path id="Shape-12" data-name="Shape" d="M1.606,27.064A1.6,1.6,0,0,1,.677,24.15L15.12,13.912a1.6,1.6,0,0,1,1.855,2.619L2.532,26.769a1.6,1.6,0,0,1-.926.3Z" transform="translate(0 6.643)"/>
        <path id="Shape-13" data-name="Shape" d="M65.041,27.064a1.6,1.6,0,0,1-.926-.3L49.672,16.531a1.6,1.6,0,0,1,1.855-2.619L65.97,24.15a1.6,1.6,0,0,1-.929,2.914Z" transform="translate(29.639 6.643)"/>
        <path id="Shape-14" data-name="Shape" d="M51.02,12.236a1.6,1.6,0,0,1-.927-.3L42.422,6.5a9.645,9.645,0,0,0-12.361-.074l-7.767,5.515a1.605,1.605,0,1,1-1.857-2.619l7.671-5.44a12.779,12.779,0,0,1,16.267.073l7.575,5.366a1.6,1.6,0,0,1-.93,2.915Z" transform="translate(11.95 -0.996)"/>
        <path id="Shape-15" data-name="Shape" d="M2.255,73.14A1.6,1.6,0,0,1,1.228,70.3L37.849,39.875A1.6,1.6,0,1,1,39.9,42.343L3.28,72.77a1.6,1.6,0,0,1-1.024.371Z" transform="translate(0.393 22.286)"/>
        <path id="Shape-16" data-name="Shape" d="M72.759,73.14a1.6,1.6,0,0,1-1.023-.371L35.114,42.343a1.6,1.6,0,1,1,2.051-2.468L73.786,70.3a1.6,1.6,0,0,1-1.027,2.839Z" transform="translate(20.878 22.286)"/>
        <path id="Shape-17" data-name="Shape" d="M74.8,43.681a1.6,1.6,0,0,1-1.6-1.6V9.222c0,.034-.069-.012-.177-.013H12.386a.259.259,0,0,0-.193.069l.016,32.8a1.6,1.6,0,0,1-3.21,0V9.21A3.3,3.3,0,0,1,12.386,6H73.014A3.3,3.3,0,0,1,76.4,9.21V42.076A1.6,1.6,0,0,1,74.8,43.681Z" transform="translate(5.443 2.03)"/>
      </g>
    </g>
  </g>
</svg>
