<svg xmlns="http://www.w3.org/2000/svg" width="83.807" height="60.854" viewBox="0 0 83.807 60.854">
  <g id="Grupo_147922" data-name="Grupo 147922" transform="translate(-303.193 -1939.923)">
    <g id="video" transform="translate(303.194 1939.423)">
      <path id="Trazado_211202" data-name="Trazado 211202" d="M60.329,10.981A10.481,10.481,0,1,1,49.848.5,10.48,10.48,0,0,1,60.329,10.981Zm0,0" transform="translate(-32.924 0)" fill="#bebfc0"/>
      <path id="Trazado_211203" data-name="Trazado 211203" d="M55.234,18.531A9.929,9.929,0,0,1,46.385,4.094,10.481,10.481,0,1,0,59.74,17.449a9.884,9.884,0,0,1-4.506,1.082Zm0,0" transform="translate(-32.924 -3.005)" fill="#a9aaab"/>
      <path id="Trazado_211204" data-name="Trazado 211204" d="M86.419,43.421a4.131,4.131,0,1,1-4.132-4.132A4.132,4.132,0,0,1,86.419,43.421Zm0,0" transform="translate(-65.364 -32.44)" fill="#495059"/>
      <path id="Trazado_211205" data-name="Trazado 211205" d="M78.485,54.656A4.133,4.133,0,0,0,83.9,60.075,9.962,9.962,0,0,1,78.485,54.656Zm0,0" transform="translate(-65.364 -45.292)" fill="#41464f"/>
      <path id="Trazado_211206" data-name="Trazado 211206" d="M239.114,10.981A10.481,10.481,0,1,1,228.633.5a10.48,10.48,0,0,1,10.481,10.481Zm0,0" transform="translate(-182.445 0)" fill="#bebfc0"/>
      <path id="Trazado_211207" data-name="Trazado 211207" d="M234.02,18.531A9.93,9.93,0,0,1,225.17,4.094a10.481,10.481,0,1,0,13.356,13.355,9.884,9.884,0,0,1-4.506,1.082Zm0,0" transform="translate(-182.445 -3.005)" fill="#a9aaab"/>
      <path id="Trazado_211208" data-name="Trazado 211208" d="M265.208,43.421a4.131,4.131,0,1,1-4.131-4.132A4.131,4.131,0,0,1,265.208,43.421Zm0,0" transform="translate(-214.888 -32.44)" fill="#495059"/>
      <path id="Trazado_211209" data-name="Trazado 211209" d="M257.274,54.656a4.133,4.133,0,0,0,5.419,5.419A9.962,9.962,0,0,1,257.274,54.656Zm0,0" transform="translate(-214.888 -45.292)" fill="#41464f"/>
      <path id="Trazado_211210" data-name="Trazado 211210" d="M400.28,154.207l-14.7,6.079v15.763l14.7,6.079a4.335,4.335,0,0,0,5.991-4.006V158.213a4.335,4.335,0,0,0-5.991-4.006Zm0,0" transform="translate(-322.465 -128.269)" fill="#495059"/>
      <path id="Trazado_211211" data-name="Trazado 211211" d="M390.394,180.891l-4.812,1.99v15.763l10.273,4.247c-4.4-5.559-5.284-13.9-5.46-22Zm0,0" transform="translate(-322.468 -150.864)" fill="#41464f"/>
      <path id="Trazado_211212" data-name="Trazado 211212" d="M464.947,154.207l-2.045.846v26.229l2.045.846a4.335,4.335,0,0,0,5.991-4.006V158.213a4.335,4.335,0,0,0-5.991-4.006Zm0,0" transform="translate(-387.132 -128.269)" fill="#bebfc0"/>
      <path id="Trazado_211213" data-name="Trazado 211213" d="M54.582,153.127a115,115,0,0,1-46.05,0A10.668,10.668,0,0,1,0,142.676V125.8a10.667,10.667,0,0,1,8.531-10.452,115,115,0,0,1,46.05,0A10.667,10.667,0,0,1,63.113,125.8v16.876A10.667,10.667,0,0,1,54.582,153.127Zm0,0" transform="translate(0 -94.102)" fill="#eeeeed"/>
      <path id="Trazado_211214" data-name="Trazado 211214" d="M54.581,153.958a10.636,10.636,0,0,0,4.791-2.34c-29.477.11-34.922-24.012-33.9-37.605a115.006,115.006,0,0,0-16.937,2.166A10.667,10.667,0,0,0,0,126.63v16.876a10.667,10.667,0,0,0,8.531,10.452,115,115,0,0,0,46.05,0Zm0,0" transform="translate(0 -94.932)" fill="#dfdfdd"/>
      <path id="Trazado_211215" data-name="Trazado 211215" d="M147.828,195.875v9.992a3.176,3.176,0,0,0,4.6,2.841l9.492-4.746a3.456,3.456,0,0,0,0-6.182l-9.492-4.746a3.176,3.176,0,0,0-4.6,2.841Zm0,0" transform="translate(-123.631 -160.736)" fill="#eb8d9a"/>
      <path id="Trazado_211216" data-name="Trazado 211216" d="M152.425,209.365l4.241-2.121a33.718,33.718,0,0,1-6.544-13.764,3.169,3.169,0,0,0-2.294,3.052v9.992A3.176,3.176,0,0,0,152.425,209.365Zm0,0" transform="translate(-123.631 -161.392)" fill="#d67c88"/>
    </g>
  </g>
</svg>
