<svg xmlns="http://www.w3.org/2000/svg" xmlns:xlink="http://www.w3.org/1999/xlink" width="85.604" height="86.229" viewBox="0 0 85.604 86.229">
  <defs>
    <clipPath id="clip-path">
      <rect id="Rectángulo_38784" data-name="Rectángulo 38784" width="85.604" height="86.229" transform="translate(0 0)" fill="none"/>
    </clipPath>
    <clipPath id="clip-path-2">
      <path id="Trazado_208894" data-name="Trazado 208894" d="M15.242,14.059C6.557,22.745,2.043,31.79,2.321,43.643s2.172,21.238,10.314,29.38a40.474,40.474,0,0,0,19.8,11.316A46.061,46.061,0,0,0,55.43,83.71c7.509-2.264,13.819-6.915,19.248-12.344,7.961-7.961,8.278-17.8,8.554-28.565S79.44,23.9,70.579,15.039C61.891,6.351,54.983,3.193,43.223,2.831Q42.3,2.8,41.412,2.8C30.651,2.8,23.3,6,15.242,14.059" fill="none"/>
    </clipPath>
  </defs>
  <g id="Grupo_147417" data-name="Grupo 147417" transform="translate(0 0)">
    <g id="Grupo_147418" data-name="Grupo 147418">
      <g id="Grupo_147417-2" data-name="Grupo 147417" clip-path="url(#clip-path)">
        <path id="Trazado_208875" data-name="Trazado 208875" d="M0,42.8A42.8,42.8,0,1,0,42.8,0,42.8,42.8,0,0,0,0,42.8" fill="#039d95"/>
      </g>
    </g>
    <g id="Grupo_147420" data-name="Grupo 147420">
      <g id="Grupo_147419" data-name="Grupo 147419" clip-path="url(#clip-path-2)">
        <path id="Trazado_208876" data-name="Trazado 208876" d="M34.86,60.619c2.926-2.408.209-16.2.209-16.2H51.653s-2.716,13.79.209,16.2,25.088,2.189,23,25.391H11.864c-2.09-23.2,20.069-22.983,23-25.391" fill="#822c1a"/>
        <path id="Trazado_208877" data-name="Trazado 208877" d="M40.436,64.2l1.84,4.939.526-.253,1.972-5.066,2.76,4.559L46.089,69.9l-8.151-.126Z" fill="#e7edd5"/>
        <path id="Trazado_208878" data-name="Trazado 208878" d="M30.4,61.276s2.345,7.6,12.966,7.658c10.622-.06,12.967-7.658,12.967-7.658,24.036,5.472,18.885,24.735,18.885,24.735l-31.727.217v0h-.249v0L11.51,86.011S6.359,66.748,30.4,61.276" fill="#b6db3b"/>
        <path id="Trazado_208879" data-name="Trazado 208879" d="M42.572,71.071C55.449,71,58.3,61.8,58.308,61.777c-.638-.177-1.3-.345-1.981-.5,0,0-2.345,7.6-12.966,7.658-10.622-.06-12.967-7.658-12.967-7.658-1.206.274-2.335.585-3.4.925.745,1.808,4.352,8.806,15.577,8.87" fill="#a5c114"/>
        <path id="Trazado_208880" data-name="Trazado 208880" d="M27.027,60.778,36.1,71.67l4.338-6.079,1.841,3.546-1.315-5.319-10.253-6.84Z" fill="#fff"/>
        <path id="Trazado_208881" data-name="Trazado 208881" d="M58.051,60.525l-9.07,11.019-4.47-6.206L42.8,68.884l1.315-5.319L54.37,56.726Z" fill="#fff"/>
        <path id="Trazado_208882" data-name="Trazado 208882" d="M61.208,39.528c-.792,2.9-3.021,5.467-4.774,4.988s-2.365-3.825-1.573-6.723,2.688-4.249,4.441-3.77,2.7,2.607,1.906,5.505" fill="#822c1a"/>
        <path id="Trazado_208883" data-name="Trazado 208883" d="M25.514,39.528c.792,2.9,3.021,5.467,4.774,4.988s2.365-3.825,1.573-6.723-2.688-4.249-4.441-3.77-2.7,2.607-1.906,5.505" fill="#822c1a"/>
        <path id="Trazado_208884" data-name="Trazado 208884" d="M58.048,34.065c-1.168,11.312-6.127,23.087-14.8,23.087S29.645,46.078,29.085,34.72c-.669-13.552,5.5-18.748,14.166-18.748s16.1,5.432,14.8,18.093" fill="#a23c2b"/>
        <path id="Trazado_208885" data-name="Trazado 208885" d="M56.359,33.714c-.473,4.991-1.8,15.421-3.7,15.96-3.341.949.6-5.794-4.745-5.866-6.058-.082-10.974-2.239-11.281,3.471-.271,5.044-5.481-3.811-6.245-13.532-.568.029-1.135.056-1.7.076.1,1.518.716,9.52.947,13.272.491,7.983,3.623,11.851,14.675,11.912,9.9.055,14.386-4.274,13.739-24.942-.826-.237-1.373-.215-1.689-.351M47.134,52.867c-1.52-.282-1.842-2.517-1.842-2.517l-2.64-.185s-.111,2.607-2.211,2.518c-2.886-.123-2.088-6.632-2.088-6.632a10.284,10.284,0,0,0,5.711-.368,8.216,8.216,0,0,0,5.526.737c.369,4.728-.8,6.754-2.456,6.447" fill="#2b1f25"/>
        <path id="Trazado_208886" data-name="Trazado 208886" d="M60.872,38.295c-.208-.6-.326-1.419-.826-1.8-.043-.039-.269.108-.406.372a12.416,12.416,0,0,0-.823,3.04c-.135.715-.265,1.443-.388,2.164l-.136-.284a1.424,1.424,0,0,1,.627,1.223c-.228.764-1.149.819-1.8.877.811-.3,2.059-.818.81-1.579l-.135-.079a11.327,11.327,0,0,1,1.174-5.8c.266-.419.931-.827,1.418-.472a2.7,2.7,0,0,1,.483,2.341" fill="#6d1709"/>
        <path id="Trazado_208887" data-name="Trazado 208887" d="M25.851,38.295a2.7,2.7,0,0,1,.483-2.341c.487-.353,1.151.053,1.418.472a11.329,11.329,0,0,1,1.174,5.8c-1.407.774-.28,1.313.675,1.658-.648-.057-1.571-.114-1.8-.877a1.424,1.424,0,0,1,.627-1.223l-.136.284c-.259-1.426-.47-2.877-.856-4.27-.713-2.412-1.157-.95-1.587.5" fill="#6d1709"/>
        <path id="Trazado_208888" data-name="Trazado 208888" d="M42.466,34.571a66.13,66.13,0,0,1-2.223,8.248l-.261-.424c1.237.4,2.468.821,3.675,1.331-1.408-.157-2.789-.416-4.166-.7a22.214,22.214,0,0,1,2.975-8.457" fill="#6d1709"/>
        <path id="Trazado_208889" data-name="Trazado 208889" d="M49.552,47s-5.4,5.076-10.645-.038" fill="#fff"/>
        <path id="Trazado_208890" data-name="Trazado 208890" d="M40.535,32.916a7.344,7.344,0,0,0-2.13-1.551,3.973,3.973,0,0,0-4.242,0,24.6,24.6,0,0,0-2.213,1.556c.653-3.52,4.558-5.269,7.267-2.655a3.758,3.758,0,0,1,1.318,2.652" fill="#10090c"/>
        <path id="Trazado_208891" data-name="Trazado 208891" d="M54.471,33.179c-2.12-1.5-4.418-3.261-6.987-1.9a21.393,21.393,0,0,0-2.435,1.477c1.694-5.3,7.955-4.641,9.422.424" fill="#10090c"/>
        <path id="Trazado_208892" data-name="Trazado 208892" d="M49.071,36.789c0,1.184.328,2.145.733,2.145s.732-.961.732-2.145-.328-2.145-.732-2.145-.733.961-.733,2.145" fill="#10090c"/>
        <path id="Trazado_208893" data-name="Trazado 208893" d="M36.287,36.5c0,1.184.328,2.145.733,2.145s.732-.961.732-2.145-.328-2.145-.732-2.145-.733.961-.733,2.145" fill="#10090c"/>
      </g>
    </g>
  </g>
</svg>
