<svg xmlns="http://www.w3.org/2000/svg" xmlns:xlink="http://www.w3.org/1999/xlink" width="85.604" height="86.358" viewBox="0 0 85.604 86.358">
  <defs>
    <clipPath id="clip-path">
      <rect id="Rectángulo_38783" data-name="Rectángulo 38783" width="85.604" height="86.358" transform="translate(0 0)" fill="none"/>
    </clipPath>
    <clipPath id="clip-path-2">
      <path id="Trazado_208874" data-name="Trazado 208874" d="M30.014,2.264c-7.536,2.272-10.887,8.571-16.337,14.02-7.99,7.99-10.088,16.142-10.365,26.95s-.051,20.879,8.843,29.773c8.72,8.72,18.4,12.619,30.116,12.6,11.814-.023,21.57-4.109,30.1-12.644q13.077-13.076,12.666-30.92a42.35,42.35,0,0,0-12.668-30.1A38.626,38.626,0,0,0,52.762,1.309a44.957,44.957,0,0,0-22.748.955" fill="none"/>
    </clipPath>
  </defs>
  <g id="Grupo_147413" data-name="Grupo 147413" transform="translate(0 0)">
    <g id="Grupo_147414" data-name="Grupo 147414">
      <g id="Grupo_147413-2" data-name="Grupo 147413" clip-path="url(#clip-path)">
        <path id="Trazado_208851" data-name="Trazado 208851" d="M0,42.8A42.8,42.8,0,1,0,42.8,0,42.8,42.8,0,0,0,0,42.8" fill="#039d95"/>
      </g>
    </g>
    <g id="Grupo_147416" data-name="Grupo 147416">
      <g id="Grupo_147415" data-name="Grupo 147415" clip-path="url(#clip-path-2)">
        <path id="Trazado_208852" data-name="Trazado 208852" d="M37.943,61.056s-2.364,4.012-9.949-.051c-6.484-3.474-2.246-8.131-2.246-8.131s-4.442,2.851-6.247.723,4.032-3.876,4.032-3.876S12.248,51.514,11.812,44.8s8.618-5.477,8.618-5.477S8.924,36.563,11.845,28.142,22.2,22.561,22.2,22.561s-7.293-1.591-6.558-4.5,7.805,1.386,7.805,1.386S17.3,13,23.275,6.562s14.446,4.419,14.446,4.419-1.039-6.7,3.568-8.552,3.148,8.32,3.148,8.32-.609-9.1,6.459-7.775,2.675,12.594,2.675,12.594,3.6-10.593,11.137-6.012,1.755,14.747-1.6,16.45,3.046-6.926,7.106-2.137-6.672,5.885-6.672,5.885,9.87-2.651,11.189,5.377-10.152,9.063-10.152,9.063,4.732-.353,4.9,3.621-7.189.15-7.189.15,5.76,5.177,1.914,9.81S54,55.449,54,55.449s3.077,4.709-1.018,6.351-6.744-5.258-6.744-5.258Z" fill="#10090c"/>
        <path id="Trazado_208853" data-name="Trazado 208853" d="M35.588,62.943c2.578-2.2.184-14.81.184-14.81h14.61s-2.394,12.609.184,14.81,22.1,2,20.256,23.215H15.332C13.49,64.944,33.01,65.144,35.588,62.943" fill="#a23c2b"/>
        <path id="Trazado_208854" data-name="Trazado 208854" d="M36.332,61.684c1.275-3.882-.56-13.551-.56-13.551H50.381a62.816,62.816,0,0,0-1.009,9.5,20.78,20.78,0,0,1-13.04,4.048" fill="#822c1a"/>
        <path id="Trazado_208855" data-name="Trazado 208855" d="M31.655,63.544s2.065,6.947,11.422,7c9.356-.055,11.422-7,11.422-7,21.172,5,16.635,22.615,16.635,22.615l-27.947.2v0h-.22v0l-27.948-.2S10.482,68.547,31.655,63.544" fill="#63c1e3"/>
        <path id="Trazado_208856" data-name="Trazado 208856" d="M35.637,86.325l-7.1-22.387s-14.352,1.97-15.588,22.239Z" fill="#ffc631"/>
        <path id="Trazado_208857" data-name="Trazado 208857" d="M50.767,86.325l7.1-22.387s13.439,1.97,14.674,22.239Z" fill="#ffc631"/>
        <path id="Trazado_208858" data-name="Trazado 208858" d="M59.9,42.225c-.747,2.732-2.849,5.155-4.5,4.7s-2.23-3.606-1.484-6.339,2.535-4.007,4.188-3.555,2.544,2.459,1.8,5.191" fill="#822c1a"/>
        <path id="Trazado_208859" data-name="Trazado 208859" d="M59.588,41.062c-.2-.562-.308-1.338-.779-1.7-.041-.037-.253.1-.383.351a7.488,7.488,0,0,0-.574,1.859c-.221,1.006-.388,2.031-.567,3.047l-.128-.267c.449.338.895,1.112.341,1.562a2.48,2.48,0,0,1-1.445.418c.9-.329,1.96-.833.636-1.563a10.683,10.683,0,0,1,1.106-5.47c.252-.394.879-.778,1.337-.444a2.547,2.547,0,0,1,.456,2.207" fill="#6d1709"/>
        <path id="Trazado_208860" data-name="Trazado 208860" d="M56.479,54.6a4.637,4.637,0,0,1-4.632-4.632.232.232,0,0,1,.463,0A4.169,4.169,0,1,0,56.479,45.8a.231.231,0,1,1,0-.462,4.632,4.632,0,1,1,0,9.263" fill="#fff"/>
        <path id="Trazado_208861" data-name="Trazado 208861" d="M26.248,42.225c.747,2.732,2.848,5.155,4.5,4.7s2.23-3.606,1.484-6.339-2.535-4.007-4.188-3.555-2.544,2.459-1.8,5.191" fill="#822c1a"/>
        <path id="Trazado_208862" data-name="Trazado 208862" d="M26.566,41.062a2.547,2.547,0,0,1,.456-2.207c.459-.334,1.085.049,1.337.444a10.681,10.681,0,0,1,1.106,5.47l-.127.075c-1.178.714,0,1.209.764,1.488-.611-.054-1.481-.107-1.695-.827A1.341,1.341,0,0,1,29,44.352l-.129.267c-.243-1.344-.443-2.712-.806-4.026-.672-2.273-1.091-.9-1.5.469" fill="#6d1709"/>
        <path id="Trazado_208863" data-name="Trazado 208863" d="M29.615,54.6a4.632,4.632,0,1,1,0-9.263.231.231,0,1,1,0,.462,4.169,4.169,0,1,0,4.169,4.169.232.232,0,0,1,.463,0A4.637,4.637,0,0,1,29.615,54.6" fill="#fff"/>
        <path id="Trazado_208864" data-name="Trazado 208864" d="M56.782,37.327c0,10-6.182,20.213-13.809,20.213S29.164,47.33,29.164,37.327s6.183-16.01,13.809-16.01,13.809,6.007,13.809,16.01" fill="#a23c2b"/>
        <path id="Trazado_208865" data-name="Trazado 208865" d="M29.268,41.964s-1-15.391,13.162-16.006c14.2-.618,13.9,16.52,13.9,16.52s6.639-24.086-12.2-24.7c-19.6-.643-14.86,24.189-14.86,24.189" fill="#ffc631"/>
        <path id="Trazado_208866" data-name="Trazado 208866" d="M31.821,31.644a20.609,20.609,0,0,1-2.1-3.557c-1.847,6.58-.456,13.877-.456,13.877a19.357,19.357,0,0,1,2.553-10.32" fill="#cc9e27"/>
        <path id="Trazado_208867" data-name="Trazado 208867" d="M55.785,24.713a35.112,35.112,0,0,1-1.937,7.472,23.375,23.375,0,0,1,2.477,10.292s2.881-10.454-.54-17.764" fill="#cc9e27"/>
        <path id="Trazado_208868" data-name="Trazado 208868" d="M42.243,38.717c1.088,2.4.858,5.8-1.454,7.4l-.046-.545a29.636,29.636,0,0,1,2.5,1.773,32.812,32.812,0,0,1-3.22-1.384c2.093-1.786,2.281-4.666,2.216-7.245" fill="#6d1709"/>
        <path id="Trazado_208869" data-name="Trazado 208869" d="M47.238,50.076s-5.048,3.912-9.013-.439" fill="#fff"/>
        <path id="Trazado_208870" data-name="Trazado 208870" d="M40.471,37.2c-1.936-1.238-3.94-2.138-6.044-.856-.67.346-1.329.817-2.09,1.275,1.193-4.342,6.692-4.8,8.134-.419" fill="#10090c"/>
        <path id="Trazado_208871" data-name="Trazado 208871" d="M52.883,37.815c-1.771-1.469-3.677-2.687-5.983-1.891-.728.2-1.472.53-2.309.841a4.336,4.336,0,0,1,8.292,1.05" fill="#10090c"/>
        <path id="Trazado_208872" data-name="Trazado 208872" d="M46.753,42.942a3.452,3.452,0,0,1,.69-3.362,1.991,1.991,0,0,1,3.175,1,4.649,4.649,0,0,1,.226,2.28,8.741,8.741,0,0,0-.719-2.054,1.5,1.5,0,0,0-2.269-.722,4.431,4.431,0,0,0-1.1,2.853" fill="#10090c"/>
        <path id="Trazado_208873" data-name="Trazado 208873" d="M34.479,42.942a3.449,3.449,0,0,1,.689-3.362,1.99,1.99,0,0,1,3.175,1,4.649,4.649,0,0,1,.226,2.28,8.741,8.741,0,0,0-.719-2.054,1.5,1.5,0,0,0-2.269-.722,4.425,4.425,0,0,0-1.1,2.853" fill="#10090c"/>
      </g>
    </g>
  </g>
</svg>
