<svg xmlns="http://www.w3.org/2000/svg" xmlns:xlink="http://www.w3.org/1999/xlink" width="1192.096" height="371" viewBox="0 0 1192.096 371">
  <defs>
    <clipPath id="clip-path">
      <rect id="Rectángulo_38816" data-name="Rectángulo 38816" width="1185.096" height="260.835" fill="none"/>
    </clipPath>
  </defs>
  <g id="Grupo_147922" data-name="Grupo 147922" transform="translate(-200 -4054)">
    <g id="Grupo_147515" data-name="Grupo 147515" transform="translate(207 4105)">
      <g id="Grupo_147514" data-name="Grupo 147514" clip-path="url(#clip-path)">
        <path id="Trazado_209030" data-name="Trazado 209030" d="M1184.819,168.894c-3.3-41.375-36.968-74.8-78.364-77.832a84.688,84.688,0,0,0-62.076,20.629,37.534,37.534,0,0,1-39.947,5.72h0a38.244,38.244,0,0,1-22.379-34.326q-.052-2.365-.236-4.756C978.606,36.541,944.425,2.839,902.6.177a85.1,85.1,0,0,0-90.535,84.83v.219a34.16,34.16,0,0,1-20.209,31.224l-4.515,2.019c-12.022,5.378-26.282,3.518-36-5.368a85.29,85.29,0,0,0-21.47-14.327c-.084-.038-.165-.08-.249-.118-.874-.406-1.76-.789-2.65-1.165-.337-.143-.672-.289-1.011-.428-.7-.283-1.4-.549-2.1-.814-.548-.207-1.1-.415-1.648-.61s-1.1-.374-1.649-.556c-.724-.239-1.449-.473-2.181-.693-.426-.127-.855-.248-1.283-.369q-1.293-.366-2.6-.7c-.342-.084-.685-.164-1.028-.245q-1.43-.336-2.876-.625c-.3-.061-.612-.118-.918-.176q-1.479-.276-2.972-.5c-.326-.049-.653-.1-.979-.141q-1.427-.195-2.865-.343-.621-.064-1.243-.12c-.393-.035-.781-.085-1.175-.114s-.807-.033-1.211-.057q-1.074-.066-2.153-.1c-.673-.023-1.345-.041-2.014-.048-.341,0-.677-.025-1.018-.025-.457,0-.907.025-1.363.032-.585.009-1.17.019-1.753.041-.865.031-1.724.082-2.583.139-.509.034-1.019.063-1.526.106-.966.082-1.924.188-2.88.3-.4.047-.791.085-1.184.138-1.176.157-2.342.343-3.5.547-.168.03-.339.052-.507.083a84.162,84.162,0,0,0-12.094,3.153l-.043.016q-1.909.652-3.775,1.395l-.3.122q-1.743.7-3.447,1.471c-.128.058-.255.119-.383.178q-1.672.768-3.3,1.6l-.347.18q-1.664.864-3.283,1.8c-.08.046-.161.092-.24.139q-1.7.987-3.352,2.049l-.051.032a85.384,85.384,0,0,0-10.061,7.568c-.432.378-.882.726-1.327,1.081a37.582,37.582,0,0,1-38.325,4.41,38.244,38.244,0,0,1-22.379-34.326q-.054-2.365-.236-4.756A84.6,84.6,0,0,0,551.333,25.26l-.039-.041q-1.191-1.2-2.43-2.348c-.1-.1-.206-.2-.311-.294-.742-.684-1.5-1.35-2.265-2.008-.2-.17-.39-.342-.589-.51-.687-.58-1.388-1.143-2.092-1.7-.29-.23-.577-.463-.87-.689-.632-.488-1.276-.96-1.922-1.43-.379-.276-.756-.556-1.139-.826-.581-.408-1.173-.8-1.764-1.2-.462-.307-.922-.618-1.39-.918-.538-.343-1.084-.673-1.629-1.005s-1.068-.65-1.61-.964c-.5-.29-1.013-.569-1.522-.849-.6-.329-1.191-.657-1.794-.972-.48-.249-.965-.486-1.449-.726-.645-.321-1.291-.641-1.946-.945-.462-.215-.93-.419-1.4-.625-.686-.3-1.372-.606-2.067-.892-.459-.189-.922-.367-1.385-.548-.709-.277-1.419-.552-2.137-.811-.472-.169-.947-.327-1.422-.489-.718-.244-1.437-.485-2.163-.71-.491-.153-.988-.293-1.483-.437-.716-.207-1.433-.413-2.157-.6-.526-.138-1.056-.262-1.585-.389-.7-.168-1.4-.334-2.1-.484-.568-.121-1.142-.229-1.715-.339-.674-.128-1.347-.256-2.026-.369-.62-.1-1.243-.19-1.867-.279S501.79.682,501.149.606c-.677-.08-1.357-.144-2.038-.209-.4-.037-.8-.091-1.2-.123-.174-.014-.345-.014-.519-.027-.27-.019-.535-.053-.8-.07-.693-.044-1.376-.049-2.065-.077-.662-.027-1.326-.062-1.984-.074-.892-.015-1.776,0-2.66.013-.69.009-1.382.006-2.067.032-.822.031-1.636.094-2.451.148-.738.049-1.48.084-2.213.152-.7.065-1.393.161-2.089.243-.833.1-1.669.182-2.495.3-.337.049-.667.119-1,.173A84.214,84.214,0,0,0,466.1,3.747c-.14.043-.282.078-.421.121-1.142.358-2.266.753-3.387,1.156-.259.094-.522.177-.78.272-1.078.4-2.14.836-3.2,1.278-.286.121-.577.231-.862.354-1.045.452-2.074.934-3.1,1.425-.281.135-.566.263-.845.4-1.018.5-2.02,1.034-3.015,1.576-.271.148-.545.291-.814.442-.995.556-1.974,1.138-2.944,1.732-.252.155-.506.306-.756.463-.977.613-1.938,1.249-2.888,1.9-.226.156-.454.31-.679.467q-1.441,1.01-2.837,2.076c-.2.15-.392.3-.587.452q-1.422,1.1-2.795,2.266l-.479.41q-1.407,1.208-2.761,2.475c-.118.11-.234.222-.351.333q-1.4,1.328-2.739,2.712c-.068.07-.133.141-.2.211q-1.4,1.461-2.73,2.984l-.025.03a84.616,84.616,0,0,0-20.864,55.983A34.157,34.157,0,0,1,385.84,116.45l-4.516,2.019c-12.021,5.378-26.281,3.518-36-5.368a84.829,84.829,0,0,0-113.271-1.181,36.461,36.461,0,0,1-38.935,5.827l-.628-.281a38.289,38.289,0,0,1-22.5-34.378q-.047-2.11-.2-4.243c-2.942-41.5-36.426-75.288-77.9-78.571A85.1,85.1,0,0,0,.277,91.937c3.3,41.374,36.96,74.8,78.355,77.839a84.689,84.689,0,0,0,62.088-20.629,37.535,37.535,0,0,1,39.947-5.719,38.245,38.245,0,0,1,22.38,34.325,87.741,87.741,0,0,0,.656,8.931,85.012,85.012,0,0,0,169.33-10.852v-.219a34.154,34.154,0,0,1,20.209-31.223l4.515-2.021c12.022-5.377,26.282-3.517,36,5.369a85.3,85.3,0,0,0,21.458,14.321c.085.039.168.082.254.121.879.407,1.769.793,2.664,1.17.33.14.658.284.99.42.7.286,1.412.555,2.123.822.543.206,1.087.412,1.636.606s1.1.375,1.658.558c.719.238,1.44.471,2.167.69.432.129.866.251,1.3.374q1.285.364,2.585.691c.345.085.693.166,1.04.248q1.424.334,2.862.623c.31.061.62.119.931.177q1.476.276,2.968.5c.324.049.648.1.974.14q1.425.2,2.865.343.622.064,1.249.121c.389.034.773.084,1.164.113s.806.034,1.21.058q1.078.064,2.165.1,1,.035,2,.048c.343.005.683.025,1.027.025.464,0,.922-.024,1.384-.032.565-.009,1.13-.018,1.692-.039.884-.031,1.763-.083,2.64-.142.486-.032.974-.059,1.457-.1,1.008-.085,2.008-.2,3-.315.347-.041.7-.073,1.042-.119a84.347,84.347,0,0,0,12.161-2.534c.064-.018.128-.039.192-.058q1.862-.539,3.687-1.16c.159-.054.315-.112.472-.167q1.692-.586,3.352-1.239c.178-.07.354-.144.531-.215q1.639-.66,3.245-1.384c.16-.072.319-.145.479-.219q1.654-.761,3.272-1.588l.32-.164q1.752-.908,3.456-1.89l.021-.012a85.451,85.451,0,0,0,12.948-9.175,37.8,37.8,0,0,1,62.653,28.3,87.741,87.741,0,0,0,.656,8.931c.09.728.255,1.434.364,2.157q.192,1.24.418,2.47.546,2.991,1.306,5.9c.052.2.1.4.156.6a85.389,85.389,0,0,0,49.221,56.374c.116.049.229.1.345.15q1.924.8,3.891,1.507c1.11.4,2.229.783,3.359,1.138q1.381.431,2.779.815,2.31.639,4.669,1.15c.668.142,1.34.27,2.014.4,1.849.351,3.714.649,5.6.875.147.018.289.052.436.069.437.049.868.068,1.3.11.532.053,1.06.121,1.6.164.287.023.57.024.857.044.882.061,1.761.1,2.638.136.742.029,1.483.057,2.222.067.826.011,1.648,0,2.469-.011.777-.012,1.552-.024,2.323-.056s1.529-.085,2.29-.138c.816-.056,1.63-.112,2.44-.192.7-.068,1.387-.156,2.079-.242.86-.105,1.721-.211,2.573-.342.624-.1,1.241-.212,1.86-.322.9-.16,1.81-.321,2.705-.51.543-.115,1.079-.247,1.619-.373.958-.221,1.913-.445,2.858-.7.452-.121.9-.259,1.346-.388,1.017-.292,2.032-.587,3.032-.915.348-.114.689-.243,1.035-.361,1.089-.373,2.173-.753,3.241-1.168.222-.086.438-.183.659-.271,1.18-.47,2.352-.955,3.505-1.476.065-.029.127-.061.191-.091a85.087,85.087,0,0,0,49.931-77.686,34.156,34.156,0,0,1,20.208-31.177l4.515-2.021c12.022-5.377,26.282-3.517,36,5.369a84.83,84.83,0,0,0,112.652,1.72,37.986,37.986,0,0,1,40.3-6.03h0a38.248,38.248,0,0,1,22.38,34.327q.052,2.376.237,4.778c3.181,41.271,36.578,74.753,77.842,78.028a85.1,85.1,0,0,0,91.628-91.667" fill="#59c447"/>
        <path id="Trazado_209031" data-name="Trazado 209031" d="M85,22.189A62.816,62.816,0,1,1,22.188,85,62.816,62.816,0,0,1,85,22.189" fill="#fff"/>
        <line id="Línea_156" data-name="Línea 156" transform="translate(288.029 71.23)" fill="none" stroke="#2c2c2c" stroke-linecap="round" stroke-miterlimit="10" stroke-width="3"/>
        <line id="Línea_157" data-name="Línea 157" y1="18.249" transform="translate(288.029 48.926)" fill="none" stroke="#2c2c2c" stroke-linecap="round" stroke-miterlimit="10" stroke-width="3" stroke-dasharray="0 4.055"/>
        <line id="Línea_158" data-name="Línea 158" transform="translate(288.029 46.897)" fill="none" stroke="#2c2c2c" stroke-linecap="round" stroke-miterlimit="10" stroke-width="3"/>
        <line id="Línea_159" data-name="Línea 159" transform="translate(694.078 71.23)" fill="none" stroke="#2c2c2c" stroke-linecap="round" stroke-miterlimit="10" stroke-width="3"/>
        <line id="Línea_160" data-name="Línea 160" y1="18.249" transform="translate(694.078 48.926)" fill="none" stroke="#2c2c2c" stroke-linecap="round" stroke-miterlimit="10" stroke-width="3" stroke-dasharray="0 4.055"/>
        <line id="Línea_161" data-name="Línea 161" transform="translate(694.078 46.897)" fill="none" stroke="#2c2c2c" stroke-linecap="round" stroke-miterlimit="10" stroke-width="3"/>
        <line id="Línea_162" data-name="Línea 162" transform="translate(1100.126 71.23)" fill="none" stroke="#2c2c2c" stroke-linecap="round" stroke-miterlimit="10" stroke-width="3"/>
        <line id="Línea_163" data-name="Línea 163" y1="18.249" transform="translate(1100.126 48.926)" fill="none" stroke="#2c2c2c" stroke-linecap="round" stroke-miterlimit="10" stroke-width="3" stroke-dasharray="0 4.055"/>
        <line id="Línea_164" data-name="Línea 164" transform="translate(1100.126 46.897)" fill="none" stroke="#2c2c2c" stroke-linecap="round" stroke-miterlimit="10" stroke-width="3"/>
        <line id="Línea_165" data-name="Línea 165" transform="translate(85.004 189.605)" fill="none" stroke="#2c2c2c" stroke-linecap="round" stroke-miterlimit="10" stroke-width="3"/>
        <line id="Línea_166" data-name="Línea 166" y2="18.249" transform="translate(85.004 193.66)" fill="none" stroke="#2c2c2c" stroke-linecap="round" stroke-miterlimit="10" stroke-width="3" stroke-dasharray="0 4.055"/>
        <line id="Línea_167" data-name="Línea 167" transform="translate(85.004 213.938)" fill="none" stroke="#2c2c2c" stroke-linecap="round" stroke-miterlimit="10" stroke-width="3"/>
        <line id="Línea_168" data-name="Línea 168" transform="translate(491.053 189.605)" fill="none" stroke="#2c2c2c" stroke-linecap="round" stroke-miterlimit="10" stroke-width="3"/>
        <line id="Línea_169" data-name="Línea 169" y2="18.249" transform="translate(491.053 193.66)" fill="none" stroke="#2c2c2c" stroke-linecap="round" stroke-miterlimit="10" stroke-width="3" stroke-dasharray="0 4.055"/>
        <line id="Línea_170" data-name="Línea 170" transform="translate(491.053 213.938)" fill="none" stroke="#2c2c2c" stroke-linecap="round" stroke-miterlimit="10" stroke-width="3"/>
        <line id="Línea_171" data-name="Línea 171" transform="translate(897.102 189.605)" fill="none" stroke="#2c2c2c" stroke-linecap="round" stroke-miterlimit="10" stroke-width="3"/>
        <line id="Línea_172" data-name="Línea 172" y2="18.249" transform="translate(897.102 193.66)" fill="none" stroke="#2c2c2c" stroke-linecap="round" stroke-miterlimit="10" stroke-width="3" stroke-dasharray="0 4.055"/>
        <line id="Línea_173" data-name="Línea 173" transform="translate(897.102 213.938)" fill="none" stroke="#2c2c2c" stroke-linecap="round" stroke-miterlimit="10" stroke-width="3"/>
        <path id="Trazado_209032" data-name="Trazado 209032" d="M350.845,175.831a62.816,62.816,0,1,1-62.816-62.816,62.816,62.816,0,0,1,62.816,62.816" fill="#fff"/>
        <path id="Trazado_209033" data-name="Trazado 209033" d="M553.869,85a62.817,62.817,0,1,1-62.816-62.816A62.816,62.816,0,0,1,553.869,85" fill="#fff"/>
        <path id="Trazado_209034" data-name="Trazado 209034" d="M959.9,85a62.816,62.816,0,1,1-62.816-62.816A62.816,62.816,0,0,1,959.9,85" fill="#fff"/>
        <path id="Trazado_209035" data-name="Trazado 209035" d="M756.894,175.831a62.816,62.816,0,1,1-62.816-62.816,62.816,62.816,0,0,1,62.816,62.816" fill="#fff"/>
        <path id="Trazado_209036" data-name="Trazado 209036" d="M1162.925,175.831a62.816,62.816,0,1,1-62.816-62.816,62.816,62.816,0,0,1,62.816,62.816" fill="#fff"/>
        <path id="Trazado_209037" data-name="Trazado 209037" d="M112.751,57.247A26.946,26.946,0,0,0,70.935,90.712L51.089,110.589a5.89,5.89,0,0,0,8.329,8.331L79.285,99.058a26.942,26.942,0,0,0,33.466-41.811ZM56.465,115.966a1.713,1.713,0,1,1-2.422-2.424L73.471,94.084q.57.648,1.186,1.264t1.254,1.177ZM109.8,92.394a22.768,22.768,0,1,1,6.666-16.1,22.783,22.783,0,0,1-6.666,16.1"/>
        <path id="Trazado_209038" data-name="Trazado 209038" d="M107.854,62.145A20.017,20.017,0,1,0,113.715,76.3a19.879,19.879,0,0,0-5.861-14.152M104.9,87.5a15.84,15.84,0,1,1,4.638-11.2A15.851,15.851,0,0,1,104.9,87.5"/>
        <path id="Trazado_209039" data-name="Trazado 209039" d="M301.539,187.969h-4.214l-2.189-.974v-2.658a14.859,14.859,0,0,0,6.72-7.739h1.878a8.105,8.105,0,0,0,4.312-14.971V160.7a20.018,20.018,0,1,0-40.036,0v.924a8.106,8.106,0,0,0,4.312,14.972H274.2a14.859,14.859,0,0,0,6.72,7.739v2.647l-2.213.985h-4.189a21.662,21.662,0,0,0-21.637,21.637,1.373,1.373,0,0,0,1.373,1.373h27.6a1.373,1.373,0,0,0,0-2.746H255.676a18.918,18.918,0,0,1,17.96-17.5c0,.011-.008.022-.012.034a1.374,1.374,0,0,0,.186,1.148l6.495,9.548a1.376,1.376,0,0,0,1.006.6q.064.006.129.006a1.377,1.377,0,0,0,.971-.4l5.6-5.606,5.605,5.606a1.377,1.377,0,0,0,.971.4q.064,0,.129-.006a1.376,1.376,0,0,0,1.006-.6l6.495-9.548a1.373,1.373,0,0,0,.186-1.148c0-.012-.009-.023-.012-.035a18.918,18.918,0,0,1,17.985,17.5H294.207a1.373,1.373,0,0,0,0,2.746h27.6a1.373,1.373,0,0,0,1.373-1.373,21.662,21.662,0,0,0-21.637-21.637m-1.506-25.92a15.871,15.871,0,0,1-7.717-3.29,1.374,1.374,0,0,0-1.687-.013,16.623,16.623,0,0,1-10.2,3.459,16.794,16.794,0,0,1-4.4-.586v-.7a12,12,0,0,1,24,0s0,1.092.006,1.128m3.7,11.8h-.928V163.126h.928a5.363,5.363,0,0,1,0,10.726M288.028,143.43a17.292,17.292,0,0,1,17.271,17.1,8.159,8.159,0,0,0-1.565-.153h-.972a14.744,14.744,0,0,0-29.469,0h-.971a8.14,8.14,0,0,0-1.564.153A17.291,17.291,0,0,1,288.028,143.43Zm-14.779,30.422h-.927a5.363,5.363,0,0,1,0-10.726h.927Zm2.746-2.468v-6.939a19.566,19.566,0,0,0,4.431.506,19.327,19.327,0,0,0,11.027-3.411,18.594,18.594,0,0,0,8.607,3.28v6.638a11.969,11.969,0,0,1-.6,3.688H292.9a4.138,4.138,0,0,0-3.9-2.757h-1.838a4.13,4.13,0,0,0,0,8.26h1.838a4.137,4.137,0,0,0,3.9-2.757h5.243a12.03,12.03,0,0,1-22.15-6.508Zm14.4,5.135a1.385,1.385,0,0,1-1.384,1.384H287.17a1.384,1.384,0,1,1,0-2.768h1.838a1.386,1.386,0,0,1,1.384,1.384m-2.364,9.644a14.736,14.736,0,0,0,4.363-.658v2.3l-4.375,4.375-4.35-4.35v-2.321a14.725,14.725,0,0,0,4.362.658m-6.386,12.387L277,191.732l4.626-2.058,4.444,4.444Zm12.748,0-4.432-4.432,4.444-4.444,4.626,2.058Z"/>
        <path id="Trazado_209040" data-name="Trazado 209040" d="M288.029,208.233a1.373,1.373,0,1,0,.97.4,1.387,1.387,0,0,0-.97-.4"/>
        <rect id="Rectángulo_38802" data-name="Rectángulo 38802" width="12.515" height="2.503" transform="translate(484.796 59.975)"/>
        <rect id="Rectángulo_38803" data-name="Rectángulo 38803" width="12.515" height="2.503" transform="translate(484.796 64.981)"/>
        <path id="Trazado_209041" data-name="Trazado 209041" d="M522.34,112.538V102.526a1.251,1.251,0,0,0-.9-1.2l-29.134-8.5V77.5h8.759a1.25,1.25,0,0,0,1.252-1.251V56.221a1.25,1.25,0,0,0-.367-.885l-7.509-7.509a1.247,1.247,0,0,0-.885-.366H481.042a1.251,1.251,0,0,0-1.253,1.251V76.245a1.251,1.251,0,0,0,1.253,1.251H489.8V92.827l-29.134,8.5a1.25,1.25,0,0,0-.9,1.2v10.012a1.251,1.251,0,0,0,.9,1.2L490.7,122.5a1.257,1.257,0,0,0,.7,0l30.035-8.761a1.252,1.252,0,0,0,.9-1.2M494.807,51.733l3.236,3.237h-3.236Zm-12.515-1.769H492.3v6.257a1.249,1.249,0,0,0,1.25,1.251h6.258V74.993H482.292Zm7.509,45.47v6.574l-2.87-2.87-1.769,1.77,5.006,5.006a1.253,1.253,0,0,0,1.77,0l5.005-5.006-1.769-1.77-2.869,2.87V95.434l24.314,7.092-25.566,7.456-25.567-7.456Zm-27.533,8.76,27.533,8.031v7.4L462.268,111.6ZM492.3,119.63v-7.4l27.532-8.031v7.4Z"/>
        <rect id="Rectángulo_38804" data-name="Rectángulo 38804" width="5.006" height="2.503" transform="translate(484.796 54.97)"/>
        <path id="Trazado_209042" data-name="Trazado 209042" d="M454.76,77.5h8.76a6.264,6.264,0,0,0,6.257,6.257h3.755a3.759,3.759,0,0,1,3.754,3.755v1.984l-2.869-2.869-1.77,1.769,5.006,5.006a1.251,1.251,0,0,0,1.77,0l5.005-5.006-1.769-1.769-2.87,2.869V87.509a6.264,6.264,0,0,0-6.257-6.258h-3.755a3.758,3.758,0,0,1-3.754-3.754h8.76a1.252,1.252,0,0,0,1.252-1.252V56.221a1.249,1.249,0,0,0-.367-.884l-7.509-7.509a1.244,1.244,0,0,0-.885-.367H454.76a1.251,1.251,0,0,0-1.252,1.252V76.245A1.251,1.251,0,0,0,454.76,77.5m13.766-25.763,3.236,3.236h-3.236Zm-12.515-1.77h10.012v6.257a1.251,1.251,0,0,0,1.251,1.252h6.258V74.994H456.011Z"/>
        <rect id="Rectángulo_38805" data-name="Rectángulo 38805" width="12.515" height="2.503" transform="translate(458.514 59.975)"/>
        <rect id="Rectángulo_38806" data-name="Rectángulo 38806" width="12.515" height="2.503" transform="translate(458.514 64.981)"/>
        <rect id="Rectángulo_38807" data-name="Rectángulo 38807" width="12.515" height="2.503" transform="translate(458.514 69.987)"/>
        <rect id="Rectángulo_38808" data-name="Rectángulo 38808" width="5.006" height="2.503" transform="translate(458.514 54.97)"/>
        <path id="Trazado_209043" data-name="Trazado 209043" d="M528.6,76.244V56.221a1.25,1.25,0,0,0-.367-.885l-7.509-7.509a1.248,1.248,0,0,0-.885-.367H507.323a1.251,1.251,0,0,0-1.252,1.252V76.244a1.251,1.251,0,0,0,1.252,1.252h8.76a3.759,3.759,0,0,1-3.755,3.754h-3.754a6.265,6.265,0,0,0-6.257,6.258v1.985l-2.87-2.87-1.77,1.77,5.006,5.006a1.253,1.253,0,0,0,1.77,0l5.006-5.006-1.77-1.77-2.869,2.87V87.508a3.759,3.759,0,0,1,3.754-3.755h3.754a6.264,6.264,0,0,0,6.258-6.257h8.76a1.252,1.252,0,0,0,1.252-1.252m-7.509-24.511,3.236,3.236h-3.236Zm-12.515,23.26V49.963h10.012v6.258a1.25,1.25,0,0,0,1.251,1.251h6.258V74.993Z"/>
        <rect id="Rectángulo_38809" data-name="Rectángulo 38809" width="12.515" height="2.503" transform="translate(511.077 59.975)"/>
        <rect id="Rectángulo_38810" data-name="Rectángulo 38810" width="12.515" height="2.503" transform="translate(511.077 64.981)"/>
        <rect id="Rectángulo_38811" data-name="Rectángulo 38811" width="12.515" height="2.503" transform="translate(511.077 69.987)"/>
        <rect id="Rectángulo_38812" data-name="Rectángulo 38812" width="5.006" height="2.503" transform="translate(511.077 54.97)"/>
        <rect id="Rectángulo_38813" data-name="Rectángulo 38813" width="2.503" height="2.503" transform="translate(484.796 69.987)"/>
        <rect id="Rectángulo_38814" data-name="Rectángulo 38814" width="2.503" height="2.503" transform="translate(489.802 69.987)"/>
        <rect id="Rectángulo_38815" data-name="Rectángulo 38815" width="2.503" height="2.503" transform="translate(494.807 69.987)"/>
        <path id="Trazado_209044" data-name="Trazado 209044" d="M1133.272,183.073a36.057,36.057,0,0,0-9.259-7.111V148.709a5.046,5.046,0,0,0-5.04-5.041h-2.506v-.543a6.727,6.727,0,0,0-6.719-6.72h-37.357a6.727,6.727,0,0,0-6.72,6.72v56.4a6.727,6.727,0,0,0,6.72,6.719h3.4c.133.145.254.267.373.382l0,0,0,0,6.2,5.952c.087.084.178.167.28.258l.145.124,0,0h0c.025.021.051.041.077.06s.029.029.045.042q.176.144.357.28h0c.018.014.037.026.056.038s.03.027.047.039c.156.113.314.222.473.323.015.01.032.017.048.026l.032.023c.135.084.277.168.422.249.021.011.043.02.064.03s.038.026.058.036c.179.1.342.179.5.251l.005,0,.006,0c.172.079.35.155.545.23l.057.019.039.018h0c.094.035.187.069.28.1l.2.065.044.012.045.016.008,0c.2.06.385.112.57.157l.048.01a9.591,9.591,0,0,0,2.193.255h29.958a5.046,5.046,0,0,0,5.04-5.041V196.893a36.085,36.085,0,0,0,9.259-7.111,4.951,4.951,0,0,0,0-6.709m-47.678,28.13-.03-.017c-.012-.008-.025-.014-.038-.021l-.015-.012c-.107-.068-.216-.142-.322-.219l-.03-.019c-.013-.011-.025-.023-.038-.032-.083-.063-.165-.127-.246-.193l-.047-.035c-.012-.011-.022-.023-.035-.033l-.122-.1c-.062-.055-.119-.107-.17-.156h0l-6.2-5.954h0c-.085-.081-.176-.175-.279-.287l-.034-.032c-.014-.018-.027-.036-.042-.053-.068-.077-.135-.155-.2-.234l-.028-.032-.033-.044h0l-.005-.006c-.087-.112-.169-.228-.248-.345h7.225a.938.938,0,0,1,.937.937Zm35.339-.987a1.963,1.963,0,0,1-1.96,1.961h-29.958c-.114,0-.228,0-.341-.009v-7.859a4.022,4.022,0,0,0-4.017-4.017h-8.332l0-.021c-.006-.064-.01-.126-.013-.189,0-.032-.005-.063-.006-.094,0-.094-.007-.188-.007-.282v-8.782a1.54,1.54,0,1,0-3.08,0v8.782c0,.123,0,.246.008.369,0,.039,0,.079.006.118,0,.084.01.169.016.253,0,.045.007.09.012.134.007.081.015.161.025.241,0,.045.01.088.016.133.011.084.024.168.037.253l.018.114c.02.114.042.229.065.342l.005.021c.026.122.054.243.084.364.009.034.019.068.028.1.016.062.033.125.051.188.005.02.012.041.018.061.017.058.035.115.053.173s.027.089.042.135v0h0l.033.1a.234.234,0,0,1,.01.028h0l.009.023c.02.06.042.119.065.178.015.041.029.082.045.123h-1.473a3.644,3.644,0,0,1-3.64-3.64v-56.4a3.644,3.644,0,0,1,3.64-3.64h37.357a3.643,3.643,0,0,1,3.639,3.64v.543h-35.129a5.047,5.047,0,0,0-5.041,5.041V178.6a1.54,1.54,0,1,0,3.08,0V148.709a1.964,1.964,0,0,1,1.961-1.961h40.715a1.963,1.963,0,0,1,1.96,1.961v25.807q-1.3-.531-2.635-.948l-.156-.048c-.142-.044-.284-.087-.427-.129l-.378-.107-.383-.106c-.2-.052-.393-.1-.591-.151l-.184-.045a32.005,32.005,0,0,0-10.035-.789l-.16.014q-.273.022-.546.051l-.306.031-.333.04q-.4.048-.793.106l-.083.012a32.579,32.579,0,0,0-8.09,2.306l-.118.05c-.172.076-.345.152-.517.23l-.157.074q-.749.344-1.48.727c-.1.052-.2.1-.3.156l-.354.192-.346.193c-.107.06-.213.121-.319.182q-.222.129-.442.261c-.074.045-.148.087-.221.132-.216.131-.429.265-.642.4l-.219.142q-.229.148-.456.3l-.231.156q-.235.162-.468.327l-.188.132c-.217.157-.434.315-.648.477l-.041.032q-.3.227-.6.461l-.183.146c-.154.124-.309.249-.462.375l-.189.157c-.17.142-.339.287-.507.433-.038.033-.077.065-.115.1q-.308.27-.611.548c-.047.042-.092.085-.138.128-.155.143-.31.288-.463.435l-.192.185c-.142.138-.282.276-.421.416l-.177.176c-.193.2-.385.394-.575.6a4.948,4.948,0,0,0,0,6.708c.19.2.382.4.575.6l.177.177q.209.21.421.415c.063.062.127.124.192.185q.229.221.464.437l.136.127q.3.277.612.548l.114.1c.168.146.338.291.508.434l.188.156q.231.19.465.378c.06.047.119.1.18.143q.3.237.6.466l.035.027c.216.163.433.321.651.478l.183.13c.158.111.315.221.474.33l.226.153q.231.156.463.305c.07.047.141.094.212.139.215.137.429.272.646.4.07.044.141.085.212.127.149.09.3.179.451.267l.313.178.354.2c.116.064.231.127.348.189s.206.109.31.163q.723.378,1.462.719l.169.078c.17.077.339.152.51.227l.127.054a32.524,32.524,0,0,0,8.085,2.3l.083.013q.391.057.786.1c.113.014.227.029.34.041l.3.032c.184.018.367.035.551.051l.156.013a31.96,31.96,0,0,0,10.046-.792l.165-.039q.315-.078.628-.162c.107-.028.213-.058.319-.087l.423-.121c.136-.039.272-.08.407-.122l.19-.059q1.323-.416,2.613-.941ZM1090.07,191.11c-.132-.1-.263-.209-.394-.315l-.177-.143c-.116-.095-.231-.19-.346-.287l-.24-.205c-.1-.086-.2-.172-.3-.26-.166-.146-.332-.295-.5-.445l-.211-.2c-.115-.107-.23-.214-.344-.323l-.206-.2c-.121-.117-.241-.236-.36-.355-.058-.058-.117-.116-.174-.174-.175-.178-.35-.358-.523-.541a1.336,1.336,0,0,1-.107-.128,1.851,1.851,0,0,1-.352-1.111,1.809,1.809,0,0,1,.459-1.239q.261-.276.528-.545c.052-.054.106-.107.159-.16.125-.125.25-.248.376-.371l.2-.188q.178-.171.359-.338c.066-.061.131-.123.2-.183.169-.155.339-.307.51-.458l.277-.239c.086-.074.172-.148.259-.22.111-.094.224-.186.336-.279l.189-.153c.128-.1.256-.207.385-.308l.06-.046a31.515,31.515,0,0,1,7.435-4.327,14.3,14.3,0,0,0,0,18.108,31.483,31.483,0,0,1-7.447-4.336l-.045-.035m18.6,6.57a11.252,11.252,0,1,1,11.253-11.253,11.266,11.266,0,0,1-11.253,11.253m22.367-10.014a32.789,32.789,0,0,1-9.323,6.944q-.964.476-1.945.875a14.3,14.3,0,0,0,0-18.116c.484.2.966.409,1.445.634l.02.009c.157.074.313.151.47.228a32.774,32.774,0,0,1,9.333,6.949,1.9,1.9,0,0,1,0,2.477"/>
        <path id="Trazado_209045" data-name="Trazado 209045" d="M1108.665,178.625a7.8,7.8,0,1,0,7.8,7.8,7.811,7.811,0,0,0-7.8-7.8m0,12.525a4.722,4.722,0,1,1,4.723-4.723,4.729,4.729,0,0,1-4.723,4.723"/>
        <path id="Trazado_209046" data-name="Trazado 209046" d="M1083.86,155.5h27.1a1.54,1.54,0,1,0,0-3.08h-27.1a1.54,1.54,0,1,0,0,3.08"/>
        <path id="Trazado_209047" data-name="Trazado 209047" d="M1083.86,163.972h19.6a1.54,1.54,0,1,0,0-3.08h-19.6a1.54,1.54,0,1,0,0,3.08"/>
        <path id="Trazado_209048" data-name="Trazado 209048" d="M1083.86,172.443h8.383a1.54,1.54,0,0,0,0-3.08h-8.383a1.54,1.54,0,1,0,0,3.08"/>
        <path id="Trazado_209049" data-name="Trazado 209049" d="M1076.179,184.174a1.522,1.522,0,0,0-.141-.265,1.5,1.5,0,0,0-.193-.234,1.609,1.609,0,0,0-.234-.193,1.634,1.634,0,0,0-.265-.14,1.469,1.469,0,0,0-.288-.088,1.552,1.552,0,0,0-1.391.421,1.436,1.436,0,0,0-.191.234,1.539,1.539,0,0,0-.141.265,1.573,1.573,0,0,0-.088.288,1.53,1.53,0,0,0,.088.89,1.511,1.511,0,0,0,.141.266,1.436,1.436,0,0,0,.191.234,1.466,1.466,0,0,0,.5.333,1.5,1.5,0,0,0,.89.088,1.517,1.517,0,0,0,.288-.088,1.715,1.715,0,0,0,.265-.14,1.608,1.608,0,0,0,.234-.193,1.5,1.5,0,0,0,.334-.5,1.617,1.617,0,0,0,.088-.288,1.476,1.476,0,0,0,0-.6,1.642,1.642,0,0,0-.088-.288"/>
        <path id="Trazado_209050" data-name="Trazado 209050" d="M683.936,167.4c-4.41-4.41-13.638-3.567-17.4-3a2.394,2.394,0,0,0-2.045,2.385v2.686a1.166,1.166,0,0,0,2.332,0v-2.686a.077.077,0,0,1,.061-.079,36.811,36.811,0,0,1,7.576-.37c3.636.242,6.27,1.155,7.828,2.713a1.166,1.166,0,0,0,1.649-1.649"/>
        <path id="Trazado_209051" data-name="Trazado 209051" d="M692.7,195.862l-7.175-2.609a1.163,1.163,0,0,0-.318-.893l-2.172-2.282v-3.831c.23-.189.456-.383.676-.589a13.686,13.686,0,0,0,4.311-9.949V172.65a13.477,13.477,0,0,0,1.247-5.669V154.513a1.166,1.166,0,0,0-1.166-1.166H670.643a11.153,11.153,0,0,0-11.14,11.141v2.493a13.49,13.49,0,0,0,1.246,5.669v2.632a14.249,14.249,0,0,0,4.988,10.875v3.921l-2.173,2.282a1.162,1.162,0,0,0-.317.893l-7.175,2.609a6.171,6.171,0,0,0-4.05,5.783v8.975a1.166,1.166,0,0,0,2.332,0v-8.975a3.833,3.833,0,0,1,2.515-3.591l7.564-2.751,3.15,4.724a2.4,2.4,0,0,0,1.769,1.062c.081.008.161.012.241.012a2.4,2.4,0,0,0,1.7-.707l1.922-1.921V210.62a1.166,1.166,0,1,0,2.332,0V198.473l1.921,1.921a2.4,2.4,0,0,0,1.7.707c.08,0,.161,0,.241-.012a2.4,2.4,0,0,0,1.77-1.063l3.149-4.723,7.564,2.751a3.831,3.831,0,0,1,2.515,3.591v8.975a1.166,1.166,0,0,0,2.333,0v-8.975a6.175,6.175,0,0,0-4.051-5.783m-29.614-20.58v-2.893a1.156,1.156,0,0,0-.116-.507,11.191,11.191,0,0,1-1.13-4.9v-2.494a8.818,8.818,0,0,1,8.808-8.808h16.289v11.3a11.178,11.178,0,0,1-1.131,4.9,1.168,1.168,0,0,0-.116.507v3.32a11.3,11.3,0,0,1-12.056,11.278,11.55,11.55,0,0,1-10.548-11.705m6.566,23.463a.074.074,0,0,1-.065.023.072.072,0,0,1-.059-.035l-3.627-5.44,1.167-1.226,5.5,3.76Zm4.736-4.5-6.314-4.316v-2.177a13.118,13.118,0,0,0,5.409,1.562q.46.03.917.03a13.5,13.5,0,0,0,6.3-1.545v2.13Zm4.861,4.488a.073.073,0,0,1-.059.036.076.076,0,0,1-.065-.024l-2.918-2.917,5.5-3.761,1.168,1.226Z"/>
        <path id="Trazado_209052" data-name="Trazado 209052" d="M660.669,204.466a1.166,1.166,0,0,0-1.166,1.166v4.987a1.166,1.166,0,0,0,2.332,0v-4.987a1.166,1.166,0,0,0-1.166-1.166"/>
        <path id="Trazado_209053" data-name="Trazado 209053" d="M688.1,204.466a1.166,1.166,0,0,0-1.166,1.166v4.987a1.166,1.166,0,1,0,2.332,0v-4.987a1.166,1.166,0,0,0-1.166-1.166"/>
        <path id="Trazado_209054" data-name="Trazado 209054" d="M726.719,144.62h-6.234a1.166,1.166,0,1,0,0,2.332h6.234a2.577,2.577,0,0,1,2.574,2.575v19.948a2.577,2.577,0,0,1-2.574,2.575H714.251a1.169,1.169,0,0,0-.686.223l-11.119,8.086,1.715-6.86a1.166,1.166,0,0,0-1.131-1.449h-3.741a2.577,2.577,0,0,1-2.574-2.575V149.526a2.577,2.577,0,0,1,2.574-2.574h6.234a1.166,1.166,0,1,0,0-2.332h-6.234a4.912,4.912,0,0,0-4.906,4.906v19.949a4.913,4.913,0,0,0,4.906,4.907h2.247l-1.715,6.861a1.787,1.787,0,0,0,2.789,1.881l12.02-8.742h12.089a4.912,4.912,0,0,0,4.906-4.907V149.526a4.911,4.911,0,0,0-4.906-4.906"/>
        <path id="Trazado_209055" data-name="Trazado 209055" d="M716.348,137.507a1.164,1.164,0,0,0-.85-.368h-4.987a1.167,1.167,0,0,0-1.164,1.239l1.247,19.949a1.167,1.167,0,0,0,1.164,1.093h2.494a1.166,1.166,0,0,0,1.163-1.093l1.247-19.949a1.169,1.169,0,0,0-.314-.871m-3.192,19.581h-.3l-1.1-17.617h2.505Z"/>
        <path id="Trazado_209056" data-name="Trazado 209056" d="M713.005,160.829a3.66,3.66,0,1,0,3.66,3.659,3.663,3.663,0,0,0-3.66-3.659m0,4.987a1.327,1.327,0,1,1,1.327-1.327,1.329,1.329,0,0,1-1.327,1.327"/>
        <path id="Trazado_209057" data-name="Trazado 209057" d="M939.813,64.479a1.793,1.793,0,0,0-1.651-.217l-14.711,5.35a7.162,7.162,0,0,0-4.088,3.761,7.368,7.368,0,0,0-.353,1.016,66.649,66.649,0,0,1-11.885-4.622c-7.05-3.632-12.436-1.838-17.055,1.685-2.341.046-5.567.323-8.738.6-2.023.178-3.935.342-5.485.437A7.221,7.221,0,0,0,871.1,66l-14.711-5.35a1.8,1.8,0,0,0-2.421,1.695V98.437a1.8,1.8,0,0,0,1.8,1.805h5.271a7.254,7.254,0,0,0,5.675-2.765c.718.547,1.569,1.186,2.461,1.856,2.106,1.584,4.411,3.313,5.422,4.16,6.719,5.625,14.8,11.7,16.406,12.757a13.253,13.253,0,0,0,6.268,2.037,6.622,6.622,0,0,0,4.257-1.2,5.8,5.8,0,0,0,4.522-.1,6.764,6.764,0,0,0,3.346-3.349,7.021,7.021,0,0,0,4.5-.659,6.149,6.149,0,0,0,2.932-2.951,5.671,5.671,0,0,0,3.942-1.259,5.848,5.848,0,0,0,2.365-5.352l4.577-2.532a7.23,7.23,0,0,0,5.794,2.97h5.27a1.8,1.8,0,0,0,1.8-1.805V65.957a1.8,1.8,0,0,0-.77-1.478M864.424,94.291a3.626,3.626,0,0,1-3.38,2.342h-3.466V64.925l12.289,4.469a3.61,3.61,0,0,1,2.146,4.657ZM918.582,105.9c-.611.468-1.468.729-1.848.349-.02-.02-.05-.018-.07-.037s-.051-.075-.089-.1c-1.29-1.019-7.07-6.933-10.642-10.658a1.8,1.8,0,1,0-2.6,2.5c.838.875,7.569,7.885,10.262,10.336a2.489,2.489,0,0,1-1.308,1.469,2.779,2.779,0,0,1-2.813.063c-.013-.012-.033-.011-.047-.024s-.032-.047-.055-.065c-2.164-1.729-7.593-7.5-8.822-8.834a1.8,1.8,0,1,0-2.657,2.442c.059.064,5.38,5.8,8.368,8.47a3.172,3.172,0,0,1-1.659,1.881,2.357,2.357,0,0,1-2.466-.367c-2.591-2.2-7.791-7.733-8.814-8.828a1.8,1.8,0,1,0-2.636,2.464c1.212,1.3,4.8,5.1,7.521,7.669a7.809,7.809,0,0,1-.927.058,9.921,9.921,0,0,1-4.286-1.445c-1.265-.832-9.209-6.76-16.069-12.505-1.038-.87-3.406-2.652-5.574-4.28-1.161-.872-2.232-1.676-3.021-2.283l6.757-18.019c1.753-.077,4.092-.279,6.566-.5,1.4-.123,2.8-.244,4.139-.348-2.057,2.113-5.117,5.9-4.714,9.442a5.2,5.2,0,0,0,2.557,3.89c2.949,1.845,8.406.3,11.035-2.936a12.529,12.529,0,0,0,4.095-1.3c2.115,1.988,4.95,4.325,7.928,6.779,5.185,4.272,11.061,9.114,12.616,11.83a2.175,2.175,0,0,1-.723,2.892m3.1-5.8c-2.4-3.217-7.616-7.52-12.694-11.705-3.385-2.789-6.582-5.424-8.628-7.469a1.812,1.812,0,0,0-2.127-.316,10.43,10.43,0,0,1-4.742,1.6,1.8,1.8,0,0,0-1.346.834c-1.415,2.245-5.348,3.312-6.6,2.534a1.606,1.606,0,0,1-.885-1.239c-.174-1.535,1.38-4.192,3.958-6.772,6.385-6.385,10.949-7.634,16.854-4.589a70,70,0,0,0,13.471,5.146,7.542,7.542,0,0,0,.215.809l7.007,18.684Zm15.3.146h-3.466a3.626,3.626,0,0,1-3.38-2.342l-7.59-20.238A3.611,3.611,0,0,1,924.684,73l12.29-4.469Z"/>
      </g>
    </g>
    <path id="Trazado_211461" data-name="Trazado 211461" d="M10,0H160a10,10,0,0,1,10,10V81a10,10,0,0,1-10,10H10A10,10,0,0,1,0,81V10A10,10,0,0,1,10,0Z" transform="translate(200 4334)" fill="#e6f6e3"/>
    <path id="Trazado_211458" data-name="Trazado 211458" d="M10,0H160a10,10,0,0,1,10,10V81a10,10,0,0,1-10,10H10A10,10,0,0,1,0,81V10A10,10,0,0,1,10,0Z" transform="translate(614 4334)" fill="#e6f6e3"/>
    <path id="Trazado_211457" data-name="Trazado 211457" d="M10,0H160a10,10,0,0,1,10,10V81a10,10,0,0,1-10,10H10A10,10,0,0,1,0,81V10A10,10,0,0,1,10,0Z" transform="translate(1020 4334)" fill="#e6f6e3"/>
    <path id="Trazado_211463" data-name="Trazado 211463" d="M10,0H160a10,10,0,0,1,10,10V81a10,10,0,0,1-10,10H10A10,10,0,0,1,0,81V10A10,10,0,0,1,10,0Z" transform="translate(410 4054)" fill="#e6f6e3"/>
    <path id="Trazado_211464" data-name="Trazado 211464" d="M10,0H160a10,10,0,0,1,10,10V81a10,10,0,0,1-10,10H10A10,10,0,0,1,0,81V10A10,10,0,0,1,10,0Z" transform="translate(817 4054)" fill="#e6f6e3"/>
    <path id="Trazado_211465" data-name="Trazado 211465" d="M10,0H160a10,10,0,0,1,10,10V81a10,10,0,0,1-10,10H10A10,10,0,0,1,0,81V10A10,10,0,0,1,10,0Z" transform="translate(1222 4054)" fill="#e6f6e3"/>
    <path id="Trazado_211462" data-name="Trazado 211462" d="M11.445,15H9.1V3.625h2.344Zm4.1-8.453.07.977a2.951,2.951,0,0,1,2.43-1.133,2.453,2.453,0,0,1,2,.789,3.682,3.682,0,0,1,.672,2.359V15H18.461V9.581a1.47,1.47,0,0,0-.312-1.045,1.4,1.4,0,0,0-1.039-.325,1.553,1.553,0,0,0-1.43.814V15H13.422V6.547Zm6.531,4.164a5.094,5.094,0,0,1,.887-3.148,2.877,2.877,0,0,1,2.426-1.172,2.589,2.589,0,0,1,2.039.922V3H29.7V15H27.656l-.109-.9a2.657,2.657,0,0,1-2.172,1.055A2.869,2.869,0,0,1,22.98,13.98,5.258,5.258,0,0,1,22.078,10.711Zm2.258.161A3.355,3.355,0,0,0,24.75,12.7a1.348,1.348,0,0,0,1.2.636,1.51,1.51,0,0,0,1.477-.887V9.1a1.489,1.489,0,0,0-1.461-.887Q24.336,8.211,24.336,10.872ZM36.344,15a2.507,2.507,0,0,1-.227-.758,2.732,2.732,0,0,1-2.133.914,3,3,0,0,1-2.059-.719,2.312,2.312,0,0,1-.816-1.812,2.389,2.389,0,0,1,1-2.062,4.915,4.915,0,0,1,2.879-.727h1.039V9.352a1.393,1.393,0,0,0-.3-.937,1.183,1.183,0,0,0-.949-.352,1.345,1.345,0,0,0-.895.273.929.929,0,0,0-.324.75H31.3a2.268,2.268,0,0,1,.453-1.359,3,3,0,0,1,1.281-.98,4.669,4.669,0,0,1,1.859-.355,3.689,3.689,0,0,1,2.48.785,2.747,2.747,0,0,1,.918,2.207v3.664a4.041,4.041,0,0,0,.336,1.82V15Zm-1.867-1.57a1.945,1.945,0,0,0,.922-.223,1.462,1.462,0,0,0,.625-.6V11.156H35.18q-1.7,0-1.8,1.172l-.008.133a.9.9,0,0,0,.3.7A1.153,1.153,0,0,0,34.477,13.43ZM39.7,10.711a4.954,4.954,0,0,1,.926-3.133,3,3,0,0,1,2.5-1.187,2.631,2.631,0,0,1,2.164.953l.094-.8h2.047v8.172a3.613,3.613,0,0,1-.5,1.93A3.236,3.236,0,0,1,45.5,17.9a4.985,4.985,0,0,1-2.141.43,4.635,4.635,0,0,1-1.812-.371A3.217,3.217,0,0,1,40.211,17l1-1.375a2.645,2.645,0,0,0,2.047.945,1.936,1.936,0,0,0,1.4-.48,1.8,1.8,0,0,0,.5-1.363v-.453a2.612,2.612,0,0,1-2.055.883,2.992,2.992,0,0,1-2.465-1.191A4.953,4.953,0,0,1,39.7,10.8Zm2.258.161a3.1,3.1,0,0,0,.461,1.809,1.465,1.465,0,0,0,1.266.655,1.567,1.567,0,0,0,1.477-.777V8.988A1.563,1.563,0,0,0,43.7,8.211a1.474,1.474,0,0,0-1.277.667A3.5,3.5,0,0,0,41.953,10.872ZM54.055,15a2.507,2.507,0,0,1-.227-.758,2.732,2.732,0,0,1-2.133.914,3,3,0,0,1-2.059-.719,2.312,2.312,0,0,1-.816-1.812,2.389,2.389,0,0,1,1-2.062A4.915,4.915,0,0,1,52.7,9.836h1.039V9.352a1.393,1.393,0,0,0-.3-.937,1.183,1.183,0,0,0-.949-.352,1.345,1.345,0,0,0-.895.273.929.929,0,0,0-.324.75H49.008a2.268,2.268,0,0,1,.453-1.359,3,3,0,0,1,1.281-.98A4.669,4.669,0,0,1,52.6,6.391a3.689,3.689,0,0,1,2.48.785A2.747,2.747,0,0,1,56,9.383v3.664a4.041,4.041,0,0,0,.336,1.82V15Zm-1.867-1.57a1.945,1.945,0,0,0,.922-.223,1.462,1.462,0,0,0,.625-.6V11.156h-.844q-1.7,0-1.8,1.172l-.008.133a.9.9,0,0,0,.3.7A1.153,1.153,0,0,0,52.188,13.43Zm9.063-.094a1.481,1.481,0,0,0,1.016-.344,1.2,1.2,0,0,0,.406-.914h2.117a2.9,2.9,0,0,1-.469,1.574,3.093,3.093,0,0,1-1.262,1.109,3.949,3.949,0,0,1-1.77.395A3.67,3.67,0,0,1,58.43,14a4.56,4.56,0,0,1-1.047-3.184v-.148a4.508,4.508,0,0,1,1.039-3.117,3.627,3.627,0,0,1,2.852-1.164,3.555,3.555,0,0,1,2.543.9,3.2,3.2,0,0,1,.973,2.4H62.672a1.551,1.551,0,0,0-.406-1.072,1.51,1.51,0,0,0-2.223.163,3.333,3.333,0,0,0-.4,1.866v.235a3.375,3.375,0,0,0,.4,1.878A1.377,1.377,0,0,0,61.25,13.336ZM68.461,15H66.2V6.547h2.266Zm-2.4-10.641a1.112,1.112,0,0,1,.34-.836,1.465,1.465,0,0,1,1.848,0,1.105,1.105,0,0,1,.344.836,1.108,1.108,0,0,1-.348.844,1.448,1.448,0,0,1-1.836,0A1.108,1.108,0,0,1,66.063,4.359ZM69.969,10.7a5.013,5.013,0,0,1,.484-2.242A3.546,3.546,0,0,1,71.848,6.93a4.069,4.069,0,0,1,2.113-.539,3.849,3.849,0,0,1,2.793,1.047,4.2,4.2,0,0,1,1.207,2.844l.016.578a4.418,4.418,0,0,1-1.086,3.121,4.209,4.209,0,0,1-5.832,0,4.5,4.5,0,0,1-1.09-3.187Zm2.258.16A3.16,3.16,0,0,0,72.68,12.7a1.628,1.628,0,0,0,2.578.008,3.457,3.457,0,0,0,.461-2.015,3.128,3.128,0,0,0-.461-1.831,1.5,1.5,0,0,0-1.3-.649,1.474,1.474,0,0,0-1.281.646A3.516,3.516,0,0,0,72.227,10.856ZM74.406,3h2.461L74.7,5.422H72.867Zm7.039,3.547.07.977a2.951,2.951,0,0,1,2.43-1.133,2.453,2.453,0,0,1,2,.789,3.682,3.682,0,0,1,.672,2.359V15H84.359V9.581a1.47,1.47,0,0,0-.312-1.045,1.4,1.4,0,0,0-1.039-.325,1.553,1.553,0,0,0-1.43.814V15H79.32V6.547Zm15.445,6.117a.727.727,0,0,0-.41-.652,4.659,4.659,0,0,0-1.316-.426q-3.016-.633-3.016-2.562a2.323,2.323,0,0,1,.934-1.879,3.766,3.766,0,0,1,2.441-.754,4.053,4.053,0,0,1,2.574.758,2.388,2.388,0,0,1,.965,1.969H96.8a1.092,1.092,0,0,0-.312-.8A1.322,1.322,0,0,0,95.516,8a1.351,1.351,0,0,0-.883.258.814.814,0,0,0-.312.656.7.7,0,0,0,.355.605,3.657,3.657,0,0,0,1.2.4A9.8,9.8,0,0,1,97.3,10.3a2.336,2.336,0,0,1,1.789,2.273,2.2,2.2,0,0,1-.992,1.871,4.28,4.28,0,0,1-2.562.715,4.47,4.47,0,0,1-1.887-.379,3.166,3.166,0,0,1-1.293-1.039,2.414,2.414,0,0,1-.469-1.426h2.141a1.179,1.179,0,0,0,.445.922,1.766,1.766,0,0,0,1.109.32,1.635,1.635,0,0,0,.98-.246A.766.766,0,0,0,96.891,12.664Zm3.3-1.969a5.013,5.013,0,0,1,.484-2.242,3.546,3.546,0,0,1,1.395-1.523,4.069,4.069,0,0,1,2.113-.539,3.849,3.849,0,0,1,2.793,1.047,4.2,4.2,0,0,1,1.207,2.844l.016.578a4.418,4.418,0,0,1-1.086,3.121,4.209,4.209,0,0,1-5.832,0,4.5,4.5,0,0,1-1.09-3.187Zm2.258.16A3.16,3.16,0,0,0,102.9,12.7a1.628,1.628,0,0,0,2.578.008,3.457,3.457,0,0,0,.461-2.015,3.128,3.128,0,0,0-.461-1.831,1.5,1.5,0,0,0-1.3-.649,1.474,1.474,0,0,0-1.281.646A3.516,3.516,0,0,0,102.445,10.856Zm14.758,0a5.119,5.119,0,0,1-.867,3.168,2.872,2.872,0,0,1-2.422,1.137,2.639,2.639,0,0,1-2.2-1.055l-.1.9h-2.031V3h2.258V7.3a2.571,2.571,0,0,1,2.055-.914,2.9,2.9,0,0,1,2.426,1.137,5.126,5.126,0,0,1,.879,3.2Zm-2.258-.172a3.381,3.381,0,0,0-.406-1.877,1.372,1.372,0,0,0-1.211-.592,1.489,1.489,0,0,0-1.484.885v3.346a1.509,1.509,0,0,0,1.5.893,1.4,1.4,0,0,0,1.438-1.081A5.6,5.6,0,0,0,114.945,10.679Zm8.4-2.015a6.134,6.134,0,0,0-.812-.062,1.654,1.654,0,0,0-1.68.867V15h-2.258V6.547h2.133l.063,1.008a2.092,2.092,0,0,1,1.883-1.164,2.366,2.366,0,0,1,.7.1Zm4.828,6.492a4.15,4.15,0,0,1-3.027-1.141,4.054,4.054,0,0,1-1.168-3.039v-.219a5.106,5.106,0,0,1,.492-2.277,3.612,3.612,0,0,1,1.395-1.547,3.914,3.914,0,0,1,2.059-.543,3.508,3.508,0,0,1,2.73,1.094,4.444,4.444,0,0,1,1,3.1v.922h-5.383a2.1,2.1,0,0,0,.66,1.328,2,2,0,0,0,1.395.5,2.437,2.437,0,0,0,2.039-.945l1.109,1.242a3.389,3.389,0,0,1-1.375,1.121A4.511,4.511,0,0,1,128.172,15.156Zm-.258-6.945a1.411,1.411,0,0,0-1.09.455,2.357,2.357,0,0,0-.535,1.3h3.141V9.788a1.681,1.681,0,0,0-.406-1.165A1.456,1.456,0,0,0,127.914,8.211ZM42.074,39.156a4.15,4.15,0,0,1-3.027-1.141,4.054,4.054,0,0,1-1.168-3.039v-.219a5.106,5.106,0,0,1,.492-2.277,3.612,3.612,0,0,1,1.395-1.547,3.914,3.914,0,0,1,2.059-.543,3.508,3.508,0,0,1,2.73,1.094,4.444,4.444,0,0,1,1,3.1v.922H40.168a2.1,2.1,0,0,0,.66,1.328,2,2,0,0,0,1.395.5,2.437,2.437,0,0,0,2.039-.945l1.109,1.242A3.389,3.389,0,0,1,44,38.754,4.511,4.511,0,0,1,42.074,39.156Zm-.258-6.945a1.411,1.411,0,0,0-1.09.455,2.357,2.357,0,0,0-.535,1.3h3.141v-.181a1.681,1.681,0,0,0-.406-1.165A1.456,1.456,0,0,0,41.816,32.211ZM49.215,39H46.949V27h2.266Zm9.359-1.664a1.481,1.481,0,0,0,1.016-.344A1.2,1.2,0,0,0,60,36.078h2.117a2.9,2.9,0,0,1-.469,1.574,3.093,3.093,0,0,1-1.262,1.109,3.949,3.949,0,0,1-1.77.395A3.67,3.67,0,0,1,55.754,38a4.56,4.56,0,0,1-1.047-3.184v-.148a4.508,4.508,0,0,1,1.039-3.117A3.627,3.627,0,0,1,58.6,30.391a3.555,3.555,0,0,1,2.543.9,3.2,3.2,0,0,1,.973,2.4H60a1.551,1.551,0,0,0-.406-1.072,1.51,1.51,0,0,0-2.223.163,3.333,3.333,0,0,0-.4,1.866v.235a3.375,3.375,0,0,0,.4,1.878A1.377,1.377,0,0,0,58.574,37.336ZM65.785,39H63.52V27h2.266Zm4.242,0H67.762V30.547h2.266Zm-2.4-10.641a1.112,1.112,0,0,1,.34-.836,1.465,1.465,0,0,1,1.848,0,1.193,1.193,0,0,1,0,1.68,1.448,1.448,0,0,1-1.836,0A1.108,1.108,0,0,1,67.629,28.359Zm8.148,10.8a4.15,4.15,0,0,1-3.027-1.141,4.054,4.054,0,0,1-1.168-3.039v-.219a5.106,5.106,0,0,1,.492-2.277,3.612,3.612,0,0,1,1.395-1.547,3.914,3.914,0,0,1,2.059-.543,3.508,3.508,0,0,1,2.73,1.094,4.444,4.444,0,0,1,1,3.1v.922H73.871a2.1,2.1,0,0,0,.66,1.328,2,2,0,0,0,1.395.5,2.437,2.437,0,0,0,2.039-.945l1.109,1.242A3.389,3.389,0,0,1,77.7,38.754,4.511,4.511,0,0,1,75.777,39.156Zm-.258-6.945a1.411,1.411,0,0,0-1.09.455,2.357,2.357,0,0,0-.535,1.3h3.141v-.181a1.681,1.681,0,0,0-.406-1.165A1.456,1.456,0,0,0,75.52,32.211Zm7.094-1.664.07.977a2.951,2.951,0,0,1,2.43-1.133,2.453,2.453,0,0,1,2,.789,3.682,3.682,0,0,1,.672,2.359V39H85.527V33.581a1.47,1.47,0,0,0-.312-1.045,1.4,1.4,0,0,0-1.039-.325,1.553,1.553,0,0,0-1.43.814V39H80.488V30.547ZM92.2,28.469v2.078h1.445V32.2H92.2v4.219a1.007,1.007,0,0,0,.18.672.9.9,0,0,0,.688.2,3.6,3.6,0,0,0,.664-.055v1.711a4.648,4.648,0,0,1-1.367.2,2.156,2.156,0,0,1-2.422-2.4V32.2H88.707V30.547h1.234V28.469Zm6.594,10.688a4.15,4.15,0,0,1-3.027-1.141A4.054,4.054,0,0,1,94.6,34.977v-.219a5.106,5.106,0,0,1,.492-2.277,3.612,3.612,0,0,1,1.395-1.547,3.914,3.914,0,0,1,2.059-.543,3.508,3.508,0,0,1,2.73,1.094,4.444,4.444,0,0,1,1,3.1v.922H96.887a2.1,2.1,0,0,0,.66,1.328,2,2,0,0,0,1.395.5,2.437,2.437,0,0,0,2.039-.945l1.109,1.242a3.389,3.389,0,0,1-1.375,1.121A4.511,4.511,0,0,1,98.793,39.156Zm-.258-6.945a1.411,1.411,0,0,0-1.09.455,2.357,2.357,0,0,0-.535,1.3h3.141v-.181a1.681,1.681,0,0,0-.406-1.165A1.456,1.456,0,0,0,98.535,32.211Z" transform="translate(218 4355)" fill="#12263f"/>
    <path id="Trazado_211459" data-name="Trazado 211459" d="M17.945,10.836H16.078V15H13.734V3.625h4.227a4.778,4.778,0,0,1,3.109.9,3.1,3.1,0,0,1,1.094,2.539A3.5,3.5,0,0,1,21.66,9a3.437,3.437,0,0,1-1.527,1.238l2.461,4.648V15H20.078Zm-1.867-1.9h1.891a1.936,1.936,0,0,0,1.367-.449A1.606,1.606,0,0,0,19.82,7.25a1.719,1.719,0,0,0-.457-1.266,1.9,1.9,0,0,0-1.4-.461H16.078Zm11.609,6.219a4.15,4.15,0,0,1-3.027-1.141,4.054,4.054,0,0,1-1.168-3.039v-.219a5.106,5.106,0,0,1,.492-2.277,3.612,3.612,0,0,1,1.395-1.547,3.914,3.914,0,0,1,2.059-.543,3.508,3.508,0,0,1,2.73,1.094,4.444,4.444,0,0,1,1,3.1v.922H25.781a2.1,2.1,0,0,0,.66,1.328,2,2,0,0,0,1.395.5,2.437,2.437,0,0,0,2.039-.945l1.109,1.242a3.389,3.389,0,0,1-1.375,1.121A4.511,4.511,0,0,1,27.688,15.156ZM27.43,8.211a1.411,1.411,0,0,0-1.09.455,2.357,2.357,0,0,0-.535,1.3h3.141V9.788a1.681,1.681,0,0,0-.406-1.165A1.456,1.456,0,0,0,27.43,8.211Zm8.531,5.125a1.481,1.481,0,0,0,1.016-.344,1.2,1.2,0,0,0,.406-.914H39.5a2.9,2.9,0,0,1-.469,1.574,3.093,3.093,0,0,1-1.262,1.109,3.949,3.949,0,0,1-1.77.395A3.67,3.67,0,0,1,33.141,14a4.56,4.56,0,0,1-1.047-3.184v-.148a4.508,4.508,0,0,1,1.039-3.117,3.627,3.627,0,0,1,2.852-1.164,3.555,3.555,0,0,1,2.543.9A3.2,3.2,0,0,1,39.5,9.7H37.383a1.551,1.551,0,0,0-.406-1.072,1.51,1.51,0,0,0-2.223.163,3.333,3.333,0,0,0-.4,1.866v.235a3.375,3.375,0,0,0,.4,1.878A1.377,1.377,0,0,0,35.961,13.336ZM40.438,10.7a5.013,5.013,0,0,1,.484-2.242A3.546,3.546,0,0,1,42.316,6.93a4.069,4.069,0,0,1,2.113-.539,3.849,3.849,0,0,1,2.793,1.047,4.2,4.2,0,0,1,1.207,2.844l.016.578a4.418,4.418,0,0,1-1.086,3.121,4.209,4.209,0,0,1-5.832,0,4.5,4.5,0,0,1-1.09-3.187Zm2.258.16a3.16,3.16,0,0,0,.453,1.843,1.628,1.628,0,0,0,2.578.008,3.457,3.457,0,0,0,.461-2.015,3.128,3.128,0,0,0-.461-1.831,1.5,1.5,0,0,0-1.3-.649,1.474,1.474,0,0,0-1.281.646A3.516,3.516,0,0,0,42.7,10.856Zm14.75,0a5.07,5.07,0,0,1-.887,3.129,2.843,2.843,0,0,1-2.395,1.176,2.633,2.633,0,0,1-2.07-.891V18.25H49.836V6.547H51.93l.078.828a2.654,2.654,0,0,1,2.141-.984,2.862,2.862,0,0,1,2.43,1.156,5.207,5.207,0,0,1,.867,3.188Zm-2.258-.172a3.345,3.345,0,0,0-.418-1.826,1.36,1.36,0,0,0-1.215-.643,1.478,1.478,0,0,0-1.461.815V12.5a1.5,1.5,0,0,0,1.477.839Q55.188,13.336,55.188,10.679ZM61.227,15H58.961V6.547h2.266Zm-2.4-10.641a1.112,1.112,0,0,1,.34-.836,1.465,1.465,0,0,1,1.848,0,1.105,1.105,0,0,1,.344.836,1.108,1.108,0,0,1-.348.844,1.448,1.448,0,0,1-1.836,0A1.108,1.108,0,0,1,58.828,4.359ZM65.469,15H63.2V3h2.266Zm6.758,0A2.507,2.507,0,0,1,72,14.242a2.732,2.732,0,0,1-2.133.914,3,3,0,0,1-2.059-.719,2.312,2.312,0,0,1-.816-1.812,2.389,2.389,0,0,1,1-2.062,4.915,4.915,0,0,1,2.879-.727h1.039V9.352a1.393,1.393,0,0,0-.3-.937,1.183,1.183,0,0,0-.949-.352,1.345,1.345,0,0,0-.895.273.929.929,0,0,0-.324.75H67.18a2.268,2.268,0,0,1,.453-1.359,3,3,0,0,1,1.281-.98,4.669,4.669,0,0,1,1.859-.355,3.689,3.689,0,0,1,2.48.785,2.747,2.747,0,0,1,.918,2.207v3.664a4.041,4.041,0,0,0,.336,1.82V15Zm-1.867-1.57a1.945,1.945,0,0,0,.922-.223,1.462,1.462,0,0,0,.625-.6V11.156h-.844q-1.7,0-1.8,1.172l-.008.133a.9.9,0,0,0,.3.7A1.153,1.153,0,0,0,70.359,13.43Zm9.063-.094a1.481,1.481,0,0,0,1.016-.344,1.2,1.2,0,0,0,.406-.914h2.117a2.9,2.9,0,0,1-.469,1.574,3.093,3.093,0,0,1-1.262,1.109,3.949,3.949,0,0,1-1.77.395A3.67,3.67,0,0,1,76.6,14a4.56,4.56,0,0,1-1.047-3.184v-.148a4.508,4.508,0,0,1,1.039-3.117,3.627,3.627,0,0,1,2.852-1.164,3.555,3.555,0,0,1,2.543.9,3.2,3.2,0,0,1,.973,2.4H80.844a1.551,1.551,0,0,0-.406-1.072,1.51,1.51,0,0,0-2.223.163,3.333,3.333,0,0,0-.4,1.866v.235a3.375,3.375,0,0,0,.4,1.878A1.377,1.377,0,0,0,79.422,13.336ZM86.633,15H84.367V6.547h2.266Zm-2.4-10.641a1.112,1.112,0,0,1,.34-.836,1.465,1.465,0,0,1,1.848,0,1.105,1.105,0,0,1,.344.836,1.108,1.108,0,0,1-.348.844,1.448,1.448,0,0,1-1.836,0A1.108,1.108,0,0,1,84.234,4.359ZM88.141,10.7a5.013,5.013,0,0,1,.484-2.242A3.546,3.546,0,0,1,90.02,6.93a4.069,4.069,0,0,1,2.113-.539,3.849,3.849,0,0,1,2.793,1.047,4.2,4.2,0,0,1,1.207,2.844l.016.578a4.418,4.418,0,0,1-1.086,3.121,4.209,4.209,0,0,1-5.832,0,4.5,4.5,0,0,1-1.09-3.187Zm2.258.16a3.16,3.16,0,0,0,.453,1.843,1.628,1.628,0,0,0,2.578.008,3.457,3.457,0,0,0,.461-2.015A3.128,3.128,0,0,0,93.43,8.86a1.5,1.5,0,0,0-1.3-.649,1.474,1.474,0,0,0-1.281.646A3.516,3.516,0,0,0,90.4,10.856ZM92.578,3h2.461L92.875,5.422H91.039Zm7.039,3.547.07.977a2.951,2.951,0,0,1,2.43-1.133,2.453,2.453,0,0,1,2,.789,3.682,3.682,0,0,1,.672,2.359V15h-2.258V9.581a1.47,1.47,0,0,0-.312-1.045,1.4,1.4,0,0,0-1.039-.325,1.553,1.553,0,0,0-1.43.814V15H97.492V6.547Zm10.516,4.164a5.094,5.094,0,0,1,.887-3.148,2.877,2.877,0,0,1,2.426-1.172,2.589,2.589,0,0,1,2.039.922V3h2.266V15h-2.039l-.109-.9a2.657,2.657,0,0,1-2.172,1.055,2.869,2.869,0,0,1-2.395-1.176A5.258,5.258,0,0,1,110.133,10.711Zm2.258.161A3.355,3.355,0,0,0,112.8,12.7a1.348,1.348,0,0,0,1.2.636,1.51,1.51,0,0,0,1.477-.887V9.1a1.489,1.489,0,0,0-1.461-.887Q112.391,8.211,112.391,10.872Zm11,4.285a4.15,4.15,0,0,1-3.027-1.141,4.054,4.054,0,0,1-1.168-3.039v-.219a5.106,5.106,0,0,1,.492-2.277,3.612,3.612,0,0,1,1.395-1.547,3.914,3.914,0,0,1,2.059-.543,3.508,3.508,0,0,1,2.73,1.094,4.444,4.444,0,0,1,1,3.1v.922h-5.383a2.1,2.1,0,0,0,.66,1.328,2,2,0,0,0,1.395.5,2.437,2.437,0,0,0,2.039-.945l1.109,1.242a3.389,3.389,0,0,1-1.375,1.121A4.511,4.511,0,0,1,123.391,15.156Zm-.258-6.945a1.411,1.411,0,0,0-1.09.455,2.357,2.357,0,0,0-.535,1.3h3.141V9.788a1.681,1.681,0,0,0-.406-1.165A1.456,1.456,0,0,0,123.133,8.211ZM29.828,39H27.563V30.547h2.266Zm-2.4-10.641a1.112,1.112,0,0,1,.34-.836,1.465,1.465,0,0,1,1.848,0,1.193,1.193,0,0,1,0,1.68,1.448,1.448,0,0,1-1.836,0A1.108,1.108,0,0,1,27.43,28.359Zm6.336,2.188.07.977a2.951,2.951,0,0,1,2.43-1.133,2.453,2.453,0,0,1,2,.789,3.682,3.682,0,0,1,.672,2.359V39H36.68V33.581a1.47,1.47,0,0,0-.312-1.045,1.4,1.4,0,0,0-1.039-.325,1.553,1.553,0,0,0-1.43.814V39H31.641V30.547ZM41.266,39V32.2H40.008V30.547h1.258v-.719a2.918,2.918,0,0,1,.816-2.207,3.162,3.162,0,0,1,2.285-.785,5.321,5.321,0,0,1,1.148.155l-.023,1.736a2.878,2.878,0,0,0-.687-.07q-1.273,0-1.273,1.205v.685h1.68V32.2h-1.68V39Zm4.766-4.3a5.013,5.013,0,0,1,.484-2.242A3.546,3.546,0,0,1,47.91,30.93a4.069,4.069,0,0,1,2.113-.539,3.849,3.849,0,0,1,2.793,1.047,4.2,4.2,0,0,1,1.207,2.844l.016.578a4.418,4.418,0,0,1-1.086,3.121,4.209,4.209,0,0,1-5.832,0,4.5,4.5,0,0,1-1.09-3.187Zm2.258.16a3.16,3.16,0,0,0,.453,1.843,1.628,1.628,0,0,0,2.578.008,3.457,3.457,0,0,0,.461-2.015,3.128,3.128,0,0,0-.461-1.831,1.5,1.5,0,0,0-1.3-.649,1.474,1.474,0,0,0-1.281.646A3.516,3.516,0,0,0,48.289,34.856ZM60.18,32.664a6.134,6.134,0,0,0-.812-.062,1.654,1.654,0,0,0-1.68.867V39H55.43V30.547h2.133l.063,1.008a2.092,2.092,0,0,1,1.883-1.164,2.366,2.366,0,0,1,.7.1Zm3.2-2.117.07.945a2.971,2.971,0,0,1,2.43-1.1,2.255,2.255,0,0,1,2.242,1.289,2.9,2.9,0,0,1,2.539-1.289,2.521,2.521,0,0,1,2.047.8,3.681,3.681,0,0,1,.672,2.41V39H71.117V33.6a1.616,1.616,0,0,0-.281-1.053,1.245,1.245,0,0,0-.992-.333,1.409,1.409,0,0,0-1.406.971L68.445,39H66.188V33.6A1.6,1.6,0,0,0,65.9,32.54a1.257,1.257,0,0,0-.984-.329,1.463,1.463,0,0,0-1.391.8V39H61.266V30.547ZM80.016,39a2.507,2.507,0,0,1-.227-.758,2.732,2.732,0,0,1-2.133.914,3,3,0,0,1-2.059-.719,2.312,2.312,0,0,1-.816-1.812,2.389,2.389,0,0,1,1-2.062,4.915,4.915,0,0,1,2.879-.727H79.7v-.484a1.393,1.393,0,0,0-.3-.937,1.183,1.183,0,0,0-.949-.352,1.345,1.345,0,0,0-.895.273.929.929,0,0,0-.324.75H74.969a2.268,2.268,0,0,1,.453-1.359,3,3,0,0,1,1.281-.98,4.669,4.669,0,0,1,1.859-.355,3.689,3.689,0,0,1,2.48.785,2.747,2.747,0,0,1,.918,2.207v3.664a4.041,4.041,0,0,0,.336,1.82V39Zm-1.867-1.57a1.945,1.945,0,0,0,.922-.223,1.462,1.462,0,0,0,.625-.6V35.156h-.844q-1.7,0-1.8,1.172l-.008.133a.9.9,0,0,0,.3.7A1.153,1.153,0,0,0,78.148,37.43Zm9.063-.094a1.481,1.481,0,0,0,1.016-.344,1.2,1.2,0,0,0,.406-.914H90.75a2.9,2.9,0,0,1-.469,1.574,3.093,3.093,0,0,1-1.262,1.109,3.949,3.949,0,0,1-1.77.395A3.67,3.67,0,0,1,84.391,38a4.56,4.56,0,0,1-1.047-3.184v-.148a4.508,4.508,0,0,1,1.039-3.117,3.627,3.627,0,0,1,2.852-1.164,3.555,3.555,0,0,1,2.543.9,3.2,3.2,0,0,1,.973,2.4H88.633a1.551,1.551,0,0,0-.406-1.072A1.51,1.51,0,0,0,86,32.786a3.333,3.333,0,0,0-.4,1.866v.235a3.375,3.375,0,0,0,.4,1.878A1.377,1.377,0,0,0,87.211,37.336ZM94.422,39H92.156V30.547h2.266Zm-2.4-10.641a1.112,1.112,0,0,1,.34-.836,1.465,1.465,0,0,1,1.848,0,1.193,1.193,0,0,1,0,1.68,1.448,1.448,0,0,1-1.836,0A1.108,1.108,0,0,1,92.023,28.359ZM95.93,34.7a5.013,5.013,0,0,1,.484-2.242,3.546,3.546,0,0,1,1.395-1.523,4.069,4.069,0,0,1,2.113-.539,3.849,3.849,0,0,1,2.793,1.047,4.2,4.2,0,0,1,1.207,2.844l.016.578a4.418,4.418,0,0,1-1.086,3.121,4.209,4.209,0,0,1-5.832,0A4.5,4.5,0,0,1,95.93,34.8Zm2.258.16a3.16,3.16,0,0,0,.453,1.843,1.628,1.628,0,0,0,2.578.008,3.457,3.457,0,0,0,.461-2.015,3.128,3.128,0,0,0-.461-1.831,1.5,1.5,0,0,0-1.3-.649,1.474,1.474,0,0,0-1.281.646A3.516,3.516,0,0,0,98.188,34.856ZM100.367,27h2.461l-2.164,2.422H98.828Zm7.039,3.547.07.977a2.951,2.951,0,0,1,2.43-1.133,2.453,2.453,0,0,1,2,.789,3.682,3.682,0,0,1,.672,2.359V39H110.32V33.581a1.47,1.47,0,0,0-.312-1.045,1.4,1.4,0,0,0-1.039-.325,1.553,1.553,0,0,0-1.43.814V39h-2.258V30.547Z" transform="translate(632 4355)" fill="#12263f"/>
    <path id="Trazado_211460" data-name="Trazado 211460" d="M34.688,10.352h-4.5V15H27.844V3.625H35.25v1.9H30.188V8.461h4.5ZM38.844,15H36.578V6.547h2.266Zm-2.4-10.641a1.112,1.112,0,0,1,.34-.836,1.465,1.465,0,0,1,1.848,0,1.105,1.105,0,0,1,.344.836,1.108,1.108,0,0,1-.348.844,1.448,1.448,0,0,1-1.836,0A1.108,1.108,0,0,1,36.445,4.359Zm6.336,2.188.07.977a2.951,2.951,0,0,1,2.43-1.133,2.453,2.453,0,0,1,2,.789,3.682,3.682,0,0,1,.672,2.359V15H45.7V9.581a1.47,1.47,0,0,0-.312-1.045,1.4,1.4,0,0,0-1.039-.325,1.553,1.553,0,0,0-1.43.814V15H40.656V6.547ZM54.563,15a2.507,2.507,0,0,1-.227-.758,2.732,2.732,0,0,1-2.133.914,3,3,0,0,1-2.059-.719,2.312,2.312,0,0,1-.816-1.812,2.389,2.389,0,0,1,1-2.062A4.915,4.915,0,0,1,53.2,9.836h1.039V9.352a1.393,1.393,0,0,0-.3-.937,1.183,1.183,0,0,0-.949-.352,1.345,1.345,0,0,0-.895.273.929.929,0,0,0-.324.75H49.516a2.268,2.268,0,0,1,.453-1.359,3,3,0,0,1,1.281-.98,4.669,4.669,0,0,1,1.859-.355,3.689,3.689,0,0,1,2.48.785,2.747,2.747,0,0,1,.918,2.207v3.664a4.041,4.041,0,0,0,.336,1.82V15ZM52.7,13.43a1.945,1.945,0,0,0,.922-.223,1.462,1.462,0,0,0,.625-.6V11.156H53.4q-1.7,0-1.8,1.172l-.008.133a.9.9,0,0,0,.3.7A1.153,1.153,0,0,0,52.7,13.43ZM60.625,15H58.359V3h2.266Zm4.242,0H62.6V6.547h2.266Zm-2.4-10.641a1.112,1.112,0,0,1,.34-.836,1.465,1.465,0,0,1,1.848,0A1.105,1.105,0,0,1,65,4.359a1.108,1.108,0,0,1-.348.844,1.448,1.448,0,0,1-1.836,0A1.108,1.108,0,0,1,62.469,4.359Zm6.852,8.82h4.133V15H66.438V13.625l3.977-5.258H66.555V6.547h6.773v1.33ZM79.766,15a2.507,2.507,0,0,1-.227-.758,2.732,2.732,0,0,1-2.133.914,3,3,0,0,1-2.059-.719,2.312,2.312,0,0,1-.816-1.812,2.389,2.389,0,0,1,1-2.062,4.915,4.915,0,0,1,2.879-.727h1.039V9.352a1.393,1.393,0,0,0-.3-.937,1.183,1.183,0,0,0-.949-.352,1.345,1.345,0,0,0-.895.273.929.929,0,0,0-.324.75H74.719a2.268,2.268,0,0,1,.453-1.359,3,3,0,0,1,1.281-.98,4.669,4.669,0,0,1,1.859-.355,3.689,3.689,0,0,1,2.48.785,2.747,2.747,0,0,1,.918,2.207v3.664a4.041,4.041,0,0,0,.336,1.82V15ZM77.9,13.43a1.945,1.945,0,0,0,.922-.223,1.462,1.462,0,0,0,.625-.6V11.156H78.6q-1.7,0-1.8,1.172l-.008.133a.9.9,0,0,0,.3.7A1.153,1.153,0,0,0,77.9,13.43Zm9.063-.094a1.481,1.481,0,0,0,1.016-.344,1.2,1.2,0,0,0,.406-.914H90.5a2.9,2.9,0,0,1-.469,1.574,3.093,3.093,0,0,1-1.262,1.109,3.949,3.949,0,0,1-1.77.395A3.67,3.67,0,0,1,84.141,14a4.56,4.56,0,0,1-1.047-3.184v-.148a4.508,4.508,0,0,1,1.039-3.117,3.627,3.627,0,0,1,2.852-1.164,3.555,3.555,0,0,1,2.543.9A3.2,3.2,0,0,1,90.5,9.7H88.383a1.551,1.551,0,0,0-.406-1.072,1.51,1.51,0,0,0-2.223.163,3.333,3.333,0,0,0-.4,1.866v.235a3.375,3.375,0,0,0,.4,1.878A1.377,1.377,0,0,0,86.961,13.336ZM94.172,15H91.906V6.547h2.266Zm-2.4-10.641a1.112,1.112,0,0,1,.34-.836,1.465,1.465,0,0,1,1.848,0,1.105,1.105,0,0,1,.344.836,1.108,1.108,0,0,1-.348.844,1.448,1.448,0,0,1-1.836,0A1.108,1.108,0,0,1,91.773,4.359ZM95.68,10.7a5.013,5.013,0,0,1,.484-2.242A3.546,3.546,0,0,1,97.559,6.93a4.069,4.069,0,0,1,2.113-.539,3.849,3.849,0,0,1,2.793,1.047,4.2,4.2,0,0,1,1.207,2.844l.016.578A4.418,4.418,0,0,1,102.6,13.98a4.209,4.209,0,0,1-5.832,0A4.5,4.5,0,0,1,95.68,10.8Zm2.258.16a3.16,3.16,0,0,0,.453,1.843,1.628,1.628,0,0,0,2.578.008,3.457,3.457,0,0,0,.461-2.015,3.128,3.128,0,0,0-.461-1.831,1.5,1.5,0,0,0-1.3-.649,1.474,1.474,0,0,0-1.281.646A3.516,3.516,0,0,0,97.938,10.856ZM100.117,3h2.461l-2.164,2.422H98.578Zm7.039,3.547.07.977a2.951,2.951,0,0,1,2.43-1.133,2.453,2.453,0,0,1,2,.789,3.682,3.682,0,0,1,.672,2.359V15H110.07V9.581a1.47,1.47,0,0,0-.312-1.045,1.4,1.4,0,0,0-1.039-.325,1.553,1.553,0,0,0-1.43.814V15h-2.258V6.547Z" transform="translate(1038 4355)" fill="#12263f"/>
    <path id="Trazado_211466" data-name="Trazado 211466" d="M23.828,11.211A4.025,4.025,0,0,1,22.473,14.1a4.76,4.76,0,0,1-3.223,1.055,4.28,4.28,0,0,1-3.441-1.473,6.038,6.038,0,0,1-1.254-4.043v-.7a6.819,6.819,0,0,1,.578-2.891,4.332,4.332,0,0,1,1.652-1.918,4.629,4.629,0,0,1,2.5-.668,4.637,4.637,0,0,1,3.172,1.055,4.326,4.326,0,0,1,1.391,2.961H21.5a2.376,2.376,0,0,0-.613-1.6,2.271,2.271,0,0,0-1.605-.5,1.991,1.991,0,0,0-1.754.84,4.707,4.707,0,0,0-.6,2.605V9.7a5.038,5.038,0,0,0,.559,2.7,1.954,1.954,0,0,0,1.762.852,2.314,2.314,0,0,0,1.621-.5,2.241,2.241,0,0,0,.613-1.535Zm1.039-.516a5.013,5.013,0,0,1,.484-2.242A3.546,3.546,0,0,1,26.746,6.93a4.069,4.069,0,0,1,2.113-.539,3.849,3.849,0,0,1,2.793,1.047,4.2,4.2,0,0,1,1.207,2.844l.016.578a4.418,4.418,0,0,1-1.086,3.121,3.775,3.775,0,0,1-2.914,1.176,3.793,3.793,0,0,1-2.918-1.172,4.5,4.5,0,0,1-1.09-3.187Zm2.258.16a3.16,3.16,0,0,0,.453,1.843,1.628,1.628,0,0,0,2.578.008,3.457,3.457,0,0,0,.461-2.015,3.128,3.128,0,0,0-.461-1.831,1.5,1.5,0,0,0-1.3-.649,1.474,1.474,0,0,0-1.281.646A3.516,3.516,0,0,0,27.125,10.856Zm9.219-4.309.07.977a2.951,2.951,0,0,1,2.43-1.133,2.453,2.453,0,0,1,2,.789,3.682,3.682,0,0,1,.672,2.359V15H39.258V9.581a1.47,1.47,0,0,0-.312-1.045,1.4,1.4,0,0,0-1.039-.325,1.553,1.553,0,0,0-1.43.814V15H34.219V6.547ZM45.93,4.469V6.547h1.445V8.2H45.93v4.219a1.007,1.007,0,0,0,.18.672.9.9,0,0,0,.688.2,3.6,3.6,0,0,0,.664-.055v1.711a4.648,4.648,0,0,1-1.367.2,2.156,2.156,0,0,1-2.422-2.4V8.2H42.438V6.547h1.234V4.469ZM53.531,15a2.507,2.507,0,0,1-.227-.758,2.732,2.732,0,0,1-2.133.914,3,3,0,0,1-2.059-.719,2.312,2.312,0,0,1-.816-1.812,2.389,2.389,0,0,1,1-2.062,4.915,4.915,0,0,1,2.879-.727h1.039V9.352a1.393,1.393,0,0,0-.3-.937,1.183,1.183,0,0,0-.949-.352,1.345,1.345,0,0,0-.895.273.929.929,0,0,0-.324.75H48.484a2.268,2.268,0,0,1,.453-1.359,3,3,0,0,1,1.281-.98,4.669,4.669,0,0,1,1.859-.355,3.689,3.689,0,0,1,2.48.785,2.747,2.747,0,0,1,.918,2.207v3.664a4.041,4.041,0,0,0,.336,1.82V15Zm-1.867-1.57a1.945,1.945,0,0,0,.922-.223,1.462,1.462,0,0,0,.625-.6V11.156h-.844q-1.7,0-1.8,1.172l-.008.133a.9.9,0,0,0,.3.7A1.153,1.153,0,0,0,51.664,13.43Zm9.063-.094a1.481,1.481,0,0,0,1.016-.344,1.2,1.2,0,0,0,.406-.914h2.117a2.9,2.9,0,0,1-.469,1.574,3.093,3.093,0,0,1-1.262,1.109,3.949,3.949,0,0,1-1.77.395A3.67,3.67,0,0,1,57.906,14a4.56,4.56,0,0,1-1.047-3.184v-.148A4.508,4.508,0,0,1,57.9,7.555,3.627,3.627,0,0,1,60.75,6.391a3.555,3.555,0,0,1,2.543.9,3.2,3.2,0,0,1,.973,2.4H62.148a1.551,1.551,0,0,0-.406-1.072,1.51,1.51,0,0,0-2.223.163,3.333,3.333,0,0,0-.4,1.866v.235a3.375,3.375,0,0,0,.4,1.878A1.377,1.377,0,0,0,60.727,13.336Zm7.531-8.867V6.547H69.7V8.2H68.258v4.219a1.007,1.007,0,0,0,.18.672.9.9,0,0,0,.688.2,3.6,3.6,0,0,0,.664-.055v1.711a4.648,4.648,0,0,1-1.367.2A2.156,2.156,0,0,1,66,12.758V8.2H64.766V6.547H66V4.469ZM70.375,10.7a5.013,5.013,0,0,1,.484-2.242A3.546,3.546,0,0,1,72.254,6.93a4.069,4.069,0,0,1,2.113-.539A3.849,3.849,0,0,1,77.16,7.438a4.2,4.2,0,0,1,1.207,2.844l.016.578A4.418,4.418,0,0,1,77.3,13.98a4.209,4.209,0,0,1-5.832,0,4.5,4.5,0,0,1-1.09-3.187Zm2.258.16a3.16,3.16,0,0,0,.453,1.843,1.628,1.628,0,0,0,2.578.008,3.457,3.457,0,0,0,.461-2.015,3.128,3.128,0,0,0-.461-1.831,1.5,1.5,0,0,0-1.3-.649,1.474,1.474,0,0,0-1.281.646A3.516,3.516,0,0,0,72.633,10.856Zm14.641,2.48a1.481,1.481,0,0,0,1.016-.344,1.2,1.2,0,0,0,.406-.914h2.117a2.9,2.9,0,0,1-.469,1.574,3.093,3.093,0,0,1-1.262,1.109,3.949,3.949,0,0,1-1.77.395A3.67,3.67,0,0,1,84.453,14a4.56,4.56,0,0,1-1.047-3.184v-.148a4.508,4.508,0,0,1,1.039-3.117A3.627,3.627,0,0,1,87.3,6.391a3.555,3.555,0,0,1,2.543.9,3.2,3.2,0,0,1,.973,2.4H88.7a1.551,1.551,0,0,0-.406-1.072,1.51,1.51,0,0,0-2.223.163,3.333,3.333,0,0,0-.4,1.866v.235a3.375,3.375,0,0,0,.4,1.878A1.377,1.377,0,0,0,87.273,13.336ZM91.75,10.7a5.013,5.013,0,0,1,.484-2.242A3.546,3.546,0,0,1,93.629,6.93a4.069,4.069,0,0,1,2.113-.539,3.849,3.849,0,0,1,2.793,1.047,4.2,4.2,0,0,1,1.207,2.844l.016.578a4.418,4.418,0,0,1-1.086,3.121,4.209,4.209,0,0,1-5.832,0A4.5,4.5,0,0,1,91.75,10.8Zm2.258.16a3.16,3.16,0,0,0,.453,1.843,1.628,1.628,0,0,0,2.578.008,3.457,3.457,0,0,0,.461-2.015,3.128,3.128,0,0,0-.461-1.831,1.5,1.5,0,0,0-1.3-.649,1.474,1.474,0,0,0-1.281.646A3.516,3.516,0,0,0,94.008,10.856Zm9.219-4.309.07.977a2.951,2.951,0,0,1,2.43-1.133,2.453,2.453,0,0,1,2,.789,3.682,3.682,0,0,1,.672,2.359V15h-2.258V9.581a1.47,1.47,0,0,0-.312-1.045,1.4,1.4,0,0,0-1.039-.325,1.553,1.553,0,0,0-1.43.814V15H101.1V6.547Zm14.758,8.609a4.15,4.15,0,0,1-3.027-1.141,4.054,4.054,0,0,1-1.168-3.039v-.219a5.106,5.106,0,0,1,.492-2.277,3.612,3.612,0,0,1,1.395-1.547,3.914,3.914,0,0,1,2.059-.543,3.508,3.508,0,0,1,2.73,1.094,4.444,4.444,0,0,1,1,3.1v.922h-5.383a2.1,2.1,0,0,0,.66,1.328,2,2,0,0,0,1.395.5,2.437,2.437,0,0,0,2.039-.945l1.109,1.242a3.389,3.389,0,0,1-1.375,1.121A4.511,4.511,0,0,1,117.984,15.156Zm-.258-6.945a1.411,1.411,0,0,0-1.09.455,2.357,2.357,0,0,0-.535,1.3h3.141V9.788a1.681,1.681,0,0,0-.406-1.165A1.456,1.456,0,0,0,117.727,8.211Zm7.4,6.789h-2.266V3h2.266ZM50.137,37.336a1.481,1.481,0,0,0,1.016-.344,1.2,1.2,0,0,0,.406-.914h2.117a2.9,2.9,0,0,1-.469,1.574,3.093,3.093,0,0,1-1.262,1.109,3.949,3.949,0,0,1-1.77.395A3.67,3.67,0,0,1,47.316,38,4.56,4.56,0,0,1,46.27,34.82v-.148a4.508,4.508,0,0,1,1.039-3.117,3.627,3.627,0,0,1,2.852-1.164,3.555,3.555,0,0,1,2.543.9,3.2,3.2,0,0,1,.973,2.4H51.559a1.551,1.551,0,0,0-.406-1.072,1.51,1.51,0,0,0-2.223.163,3.333,3.333,0,0,0-.4,1.866v.235a3.375,3.375,0,0,0,.4,1.878A1.377,1.377,0,0,0,50.137,37.336ZM57.348,39H55.082V27h2.266Zm4.242,0H59.324V30.547H61.59Zm-2.4-10.641a1.112,1.112,0,0,1,.34-.836,1.465,1.465,0,0,1,1.848,0,1.193,1.193,0,0,1,0,1.68,1.448,1.448,0,0,1-1.836,0A1.108,1.108,0,0,1,59.191,28.359Zm8.148,10.8a4.15,4.15,0,0,1-3.027-1.141,4.054,4.054,0,0,1-1.168-3.039v-.219a5.106,5.106,0,0,1,.492-2.277,3.612,3.612,0,0,1,1.395-1.547,3.914,3.914,0,0,1,2.059-.543,3.508,3.508,0,0,1,2.73,1.094,4.444,4.444,0,0,1,1,3.1v.922H65.434a2.1,2.1,0,0,0,.66,1.328,2,2,0,0,0,1.395.5,2.437,2.437,0,0,0,2.039-.945l1.109,1.242a3.389,3.389,0,0,1-1.375,1.121A4.511,4.511,0,0,1,67.34,39.156Zm-.258-6.945a1.411,1.411,0,0,0-1.09.455,2.357,2.357,0,0,0-.535,1.3H68.6v-.181a1.681,1.681,0,0,0-.406-1.165A1.456,1.456,0,0,0,67.082,32.211Zm7.094-1.664.07.977a2.951,2.951,0,0,1,2.43-1.133,2.453,2.453,0,0,1,2,.789,3.682,3.682,0,0,1,.672,2.359V39H77.09V33.581a1.47,1.47,0,0,0-.312-1.045,1.4,1.4,0,0,0-1.039-.325,1.553,1.553,0,0,0-1.43.814V39H72.051V30.547Zm9.586-2.078v2.078h1.445V32.2H83.762v4.219a1.007,1.007,0,0,0,.18.672.9.9,0,0,0,.688.2,3.6,3.6,0,0,0,.664-.055v1.711a4.648,4.648,0,0,1-1.367.2,2.156,2.156,0,0,1-2.422-2.4V32.2H80.27V30.547H81.5V28.469Zm6.594,10.688a4.15,4.15,0,0,1-3.027-1.141,4.054,4.054,0,0,1-1.168-3.039v-.219a5.106,5.106,0,0,1,.492-2.277,3.612,3.612,0,0,1,1.395-1.547,3.914,3.914,0,0,1,2.059-.543,3.508,3.508,0,0,1,2.73,1.094,4.444,4.444,0,0,1,1,3.1v.922H88.449a2.1,2.1,0,0,0,.66,1.328,2,2,0,0,0,1.395.5,2.437,2.437,0,0,0,2.039-.945l1.109,1.242a3.389,3.389,0,0,1-1.375,1.121A4.511,4.511,0,0,1,90.355,39.156ZM90.1,32.211a1.411,1.411,0,0,0-1.09.455,2.357,2.357,0,0,0-.535,1.3h3.141v-.181a1.681,1.681,0,0,0-.406-1.165A1.456,1.456,0,0,0,90.1,32.211Z" transform="translate(428 4075)" fill="#12263f"/>
    <path id="Trazado_211467" data-name="Trazado 211467" d="M24.441,10.836H22.574V15H20.23V3.625h4.227a4.778,4.778,0,0,1,3.109.9A3.1,3.1,0,0,1,28.66,7.063,3.5,3.5,0,0,1,28.156,9a3.437,3.437,0,0,1-1.527,1.238l2.461,4.648V15H26.574Zm-1.867-1.9h1.891a1.936,1.936,0,0,0,1.367-.449,1.606,1.606,0,0,0,.484-1.238,1.719,1.719,0,0,0-.457-1.266,1.9,1.9,0,0,0-1.4-.461H22.574Zm11.609,6.219a4.15,4.15,0,0,1-3.027-1.141,4.054,4.054,0,0,1-1.168-3.039v-.219A5.106,5.106,0,0,1,30.48,8.48a3.612,3.612,0,0,1,1.395-1.547,3.914,3.914,0,0,1,2.059-.543,3.508,3.508,0,0,1,2.73,1.094,4.444,4.444,0,0,1,1,3.1v.922H32.277a2.1,2.1,0,0,0,.66,1.328,2,2,0,0,0,1.395.5,2.437,2.437,0,0,0,2.039-.945l1.109,1.242a3.389,3.389,0,0,1-1.375,1.121A4.511,4.511,0,0,1,34.184,15.156Zm-.258-6.945a1.411,1.411,0,0,0-1.09.455,2.357,2.357,0,0,0-.535,1.3h3.141V9.788a1.681,1.681,0,0,0-.406-1.165A1.456,1.456,0,0,0,33.926,8.211Zm9.594,4.453a.727.727,0,0,0-.41-.652,4.659,4.659,0,0,0-1.316-.426q-3.016-.633-3.016-2.562a2.323,2.323,0,0,1,.934-1.879,3.766,3.766,0,0,1,2.441-.754,4.053,4.053,0,0,1,2.574.758,2.388,2.388,0,0,1,.965,1.969H43.434a1.092,1.092,0,0,0-.312-.8A1.322,1.322,0,0,0,42.145,8a1.351,1.351,0,0,0-.883.258.814.814,0,0,0-.312.656.7.7,0,0,0,.355.605,3.657,3.657,0,0,0,1.2.4,9.8,9.8,0,0,1,1.422.379,2.336,2.336,0,0,1,1.789,2.273,2.2,2.2,0,0,1-.992,1.871,4.28,4.28,0,0,1-2.562.715,4.47,4.47,0,0,1-1.887-.379,3.166,3.166,0,0,1-1.293-1.039,2.414,2.414,0,0,1-.469-1.426h2.141a1.179,1.179,0,0,0,.445.922,1.766,1.766,0,0,0,1.109.32,1.635,1.635,0,0,0,.98-.246A.766.766,0,0,0,43.52,12.664Zm3.3-1.969A5.013,5.013,0,0,1,47.3,8.453,3.546,3.546,0,0,1,48.7,6.93a4.069,4.069,0,0,1,2.113-.539A3.849,3.849,0,0,1,53.6,7.438a4.2,4.2,0,0,1,1.207,2.844l.016.578a4.418,4.418,0,0,1-1.086,3.121,4.209,4.209,0,0,1-5.832,0,4.5,4.5,0,0,1-1.09-3.187Zm2.258.16a3.16,3.16,0,0,0,.453,1.843,1.628,1.628,0,0,0,2.578.008,3.457,3.457,0,0,0,.461-2.015,3.128,3.128,0,0,0-.461-1.831,1.5,1.5,0,0,0-1.3-.649,1.474,1.474,0,0,0-1.281.646A3.516,3.516,0,0,0,49.074,10.856ZM58.6,15H56.332V3H58.6Zm6.922-.859a2.831,2.831,0,0,1-2.312,1.016,2.67,2.67,0,0,1-2.074-.781,3.335,3.335,0,0,1-.73-2.289V6.547H62.66v5.467q0,1.322,1.2,1.322a1.63,1.63,0,0,0,1.578-.8V6.547h2.266V15H65.582Zm7.406-.8a1.481,1.481,0,0,0,1.016-.344,1.2,1.2,0,0,0,.406-.914h2.117A2.9,2.9,0,0,1,76,13.652a3.093,3.093,0,0,1-1.262,1.109,3.949,3.949,0,0,1-1.77.395A3.67,3.67,0,0,1,70.105,14a4.56,4.56,0,0,1-1.047-3.184v-.148A4.508,4.508,0,0,1,70.1,7.555a3.627,3.627,0,0,1,2.852-1.164,3.555,3.555,0,0,1,2.543.9,3.2,3.2,0,0,1,.973,2.4H74.348a1.551,1.551,0,0,0-.406-1.072,1.51,1.51,0,0,0-2.223.163,3.333,3.333,0,0,0-.4,1.866v.235a3.375,3.375,0,0,0,.4,1.878A1.377,1.377,0,0,0,72.926,13.336ZM80.137,15H77.871V6.547h2.266Zm-2.4-10.641a1.112,1.112,0,0,1,.34-.836,1.465,1.465,0,0,1,1.848,0,1.105,1.105,0,0,1,.344.836,1.108,1.108,0,0,1-.348.844,1.448,1.448,0,0,1-1.836,0A1.108,1.108,0,0,1,77.738,4.359ZM81.645,10.7a5.013,5.013,0,0,1,.484-2.242A3.546,3.546,0,0,1,83.523,6.93a4.069,4.069,0,0,1,2.113-.539A3.849,3.849,0,0,1,88.43,7.438a4.2,4.2,0,0,1,1.207,2.844l.016.578a4.418,4.418,0,0,1-1.086,3.121,4.209,4.209,0,0,1-5.832,0,4.5,4.5,0,0,1-1.09-3.187Zm2.258.16a3.16,3.16,0,0,0,.453,1.843,1.628,1.628,0,0,0,2.578.008,3.457,3.457,0,0,0,.461-2.015,3.128,3.128,0,0,0-.461-1.831,1.5,1.5,0,0,0-1.3-.649,1.474,1.474,0,0,0-1.281.646A3.516,3.516,0,0,0,83.9,10.856ZM86.082,3h2.461L86.379,5.422H84.543Zm7.039,3.547.07.977a2.951,2.951,0,0,1,2.43-1.133,2.453,2.453,0,0,1,2,.789,3.682,3.682,0,0,1,.672,2.359V15H96.035V9.581a1.47,1.47,0,0,0-.312-1.045,1.4,1.4,0,0,0-1.039-.325,1.553,1.553,0,0,0-1.43.814V15H91V6.547Zm10.516,4.164a5.094,5.094,0,0,1,.887-3.148,2.877,2.877,0,0,1,2.426-1.172,2.589,2.589,0,0,1,2.039.922V3h2.266V15h-2.039l-.109-.9a2.657,2.657,0,0,1-2.172,1.055,2.869,2.869,0,0,1-2.395-1.176A5.258,5.258,0,0,1,103.637,10.711Zm2.258.161a3.355,3.355,0,0,0,.414,1.829,1.348,1.348,0,0,0,1.2.636,1.51,1.51,0,0,0,1.477-.887V9.1a1.489,1.489,0,0,0-1.461-.887Q105.895,8.211,105.895,10.872Zm11,4.285a4.15,4.15,0,0,1-3.027-1.141,4.054,4.054,0,0,1-1.168-3.039v-.219a5.106,5.106,0,0,1,.492-2.277,3.612,3.612,0,0,1,1.395-1.547,3.914,3.914,0,0,1,2.059-.543,3.508,3.508,0,0,1,2.73,1.094,4.444,4.444,0,0,1,1,3.1v.922h-5.383a2.1,2.1,0,0,0,.66,1.328,2,2,0,0,0,1.395.5,2.437,2.437,0,0,0,2.039-.945l1.109,1.242a3.389,3.389,0,0,1-1.375,1.121A4.511,4.511,0,0,1,116.895,15.156Zm-.258-6.945a1.411,1.411,0,0,0-1.09.455,2.357,2.357,0,0,0-.535,1.3h3.141V9.788a1.681,1.681,0,0,0-.406-1.165A1.456,1.456,0,0,0,116.637,8.211ZM11.043,37.336a1.481,1.481,0,0,0,1.016-.344,1.2,1.2,0,0,0,.406-.914h2.117a2.9,2.9,0,0,1-.469,1.574,3.093,3.093,0,0,1-1.262,1.109,3.949,3.949,0,0,1-1.77.395A3.67,3.67,0,0,1,8.223,38,4.56,4.56,0,0,1,7.176,34.82v-.148a4.508,4.508,0,0,1,1.039-3.117,3.627,3.627,0,0,1,2.852-1.164,3.555,3.555,0,0,1,2.543.9,3.2,3.2,0,0,1,.973,2.4H12.465a1.551,1.551,0,0,0-.406-1.072,1.354,1.354,0,0,0-1.031-.412,1.36,1.36,0,0,0-1.191.575,3.333,3.333,0,0,0-.4,1.866v.235a3.375,3.375,0,0,0,.4,1.878A1.377,1.377,0,0,0,11.043,37.336ZM15.52,34.7A5.013,5.013,0,0,1,16,32.453,3.546,3.546,0,0,1,17.4,30.93a4.069,4.069,0,0,1,2.113-.539A3.849,3.849,0,0,1,22.3,31.438a4.2,4.2,0,0,1,1.207,2.844l.016.578a4.418,4.418,0,0,1-1.086,3.121,3.775,3.775,0,0,1-2.914,1.176,3.793,3.793,0,0,1-2.918-1.172A4.5,4.5,0,0,1,15.52,34.8Zm2.258.16A3.16,3.16,0,0,0,18.23,36.7a1.628,1.628,0,0,0,2.578.008,3.457,3.457,0,0,0,.461-2.015,3.128,3.128,0,0,0-.461-1.831,1.5,1.5,0,0,0-1.3-.649,1.474,1.474,0,0,0-1.281.646A3.516,3.516,0,0,0,17.777,34.856ZM27,30.547l.07.977a2.951,2.951,0,0,1,2.43-1.133,2.453,2.453,0,0,1,2,.789,3.682,3.682,0,0,1,.672,2.359V39H29.91V33.581a1.47,1.47,0,0,0-.312-1.045,1.4,1.4,0,0,0-1.039-.325,1.553,1.553,0,0,0-1.43.814V39H24.871V30.547Zm12.547-1.812a10.85,10.85,0,0,0-1.25-.078q-1.531,0-1.531,1.316v.575h1.68V32.2h-1.68V39H34.5V32.2H33.238V30.547H34.5v-.656a2.888,2.888,0,0,1,.922-2.262,3.769,3.769,0,0,1,2.563-.793q1.18,0,3.828.25V39H39.543ZM46.066,39H43.8V30.547h2.266Zm-2.4-10.641a1.112,1.112,0,0,1,.34-.836,1.465,1.465,0,0,1,1.848,0,1.193,1.193,0,0,1,0,1.68,1.448,1.448,0,0,1-1.836,0A1.108,1.108,0,0,1,43.668,28.359Zm7.773,8.977a1.481,1.481,0,0,0,1.016-.344,1.2,1.2,0,0,0,.406-.914H54.98a2.9,2.9,0,0,1-.469,1.574,3.093,3.093,0,0,1-1.262,1.109,3.949,3.949,0,0,1-1.77.395A3.67,3.67,0,0,1,48.621,38a4.56,4.56,0,0,1-1.047-3.184v-.148a4.508,4.508,0,0,1,1.039-3.117,3.627,3.627,0,0,1,2.852-1.164,3.555,3.555,0,0,1,2.543.9,3.2,3.2,0,0,1,.973,2.4H52.863a1.551,1.551,0,0,0-.406-1.072,1.51,1.51,0,0,0-2.223.163,3.333,3.333,0,0,0-.4,1.866v.235a3.375,3.375,0,0,0,.4,1.878A1.377,1.377,0,0,0,51.441,37.336Zm7.531-8.867v2.078h1.445V32.2H58.973v4.219a1.007,1.007,0,0,0,.18.672.9.9,0,0,0,.688.2,3.6,3.6,0,0,0,.664-.055v1.711a4.648,4.648,0,0,1-1.367.2,2.156,2.156,0,0,1-2.422-2.4V32.2H55.48V30.547h1.234V28.469ZM61.09,34.7a5.013,5.013,0,0,1,.484-2.242,3.546,3.546,0,0,1,1.395-1.523,4.069,4.069,0,0,1,2.113-.539,3.849,3.849,0,0,1,2.793,1.047,4.2,4.2,0,0,1,1.207,2.844l.016.578a4.418,4.418,0,0,1-1.086,3.121,4.209,4.209,0,0,1-5.832,0A4.5,4.5,0,0,1,61.09,34.8Zm2.258.16A3.16,3.16,0,0,0,63.8,36.7a1.628,1.628,0,0,0,2.578.008,3.457,3.457,0,0,0,.461-2.015,3.128,3.128,0,0,0-.461-1.831,1.5,1.5,0,0,0-1.3-.649,1.474,1.474,0,0,0-1.281.646A3.516,3.516,0,0,0,63.348,34.856Zm11.719,1.808a.727.727,0,0,0-.41-.652,4.659,4.659,0,0,0-1.316-.426q-3.016-.633-3.016-2.562a2.323,2.323,0,0,1,.934-1.879,3.766,3.766,0,0,1,2.441-.754,4.053,4.053,0,0,1,2.574.758,2.388,2.388,0,0,1,.965,1.969H74.98a1.092,1.092,0,0,0-.312-.8A1.322,1.322,0,0,0,73.691,32a1.351,1.351,0,0,0-.883.258.814.814,0,0,0-.312.656.7.7,0,0,0,.355.605,3.657,3.657,0,0,0,1.2.4,9.8,9.8,0,0,1,1.422.379,2.336,2.336,0,0,1,1.789,2.273,2.2,2.2,0,0,1-.992,1.871,4.28,4.28,0,0,1-2.562.715,4.47,4.47,0,0,1-1.887-.379,3.166,3.166,0,0,1-1.293-1.039,2.414,2.414,0,0,1-.469-1.426H72.2a1.179,1.179,0,0,0,.445.922,1.766,1.766,0,0,0,1.109.32,1.635,1.635,0,0,0,.98-.246A.766.766,0,0,0,75.066,36.664ZM79.3,41.852l-1.18-.617.281-.508a4.059,4.059,0,0,0,.539-1.9v-1.75h1.906l-.008,1.563a4.059,4.059,0,0,1-.437,1.75A4.486,4.486,0,0,1,79.3,41.852ZM86.254,34.7a5.053,5.053,0,0,1,.887-3.148,2.9,2.9,0,0,1,2.434-1.156,2.6,2.6,0,0,1,2.164,1.039l.148-.883h1.984v11.7H91.605V38.273a2.6,2.6,0,0,1-2.047.883,2.878,2.878,0,0,1-2.406-1.172A5.3,5.3,0,0,1,86.254,34.7Zm2.258.16a3.315,3.315,0,0,0,.426,1.847,1.363,1.363,0,0,0,1.2.634,1.518,1.518,0,0,0,1.469-.829v-3.5a1.506,1.506,0,0,0-1.453-.8,1.38,1.38,0,0,0-1.211.634A3.661,3.661,0,0,0,88.512,34.856Zm12.2,3.285a2.831,2.831,0,0,1-2.312,1.016,2.67,2.67,0,0,1-2.074-.781,3.335,3.335,0,0,1-.73-2.289V30.547h2.258v5.467q0,1.322,1.2,1.322a1.63,1.63,0,0,0,1.578-.8V30.547h2.266V39H100.77Zm7.781,1.016a4.15,4.15,0,0,1-3.027-1.141,4.054,4.054,0,0,1-1.168-3.039v-.219a5.106,5.106,0,0,1,.492-2.277,3.612,3.612,0,0,1,1.395-1.547,3.914,3.914,0,0,1,2.059-.543,3.508,3.508,0,0,1,2.73,1.094,4.444,4.444,0,0,1,1,3.1v.922h-5.383a2.1,2.1,0,0,0,.66,1.328,2,2,0,0,0,1.395.5,2.437,2.437,0,0,0,2.039-.945l1.109,1.242a3.389,3.389,0,0,1-1.375,1.121A4.511,4.511,0,0,1,108.488,39.156Zm-.258-6.945a1.411,1.411,0,0,0-1.09.455,2.357,2.357,0,0,0-.535,1.3h3.141v-.181a1.681,1.681,0,0,0-.406-1.165A1.456,1.456,0,0,0,108.23,32.211Zm7.406-1.664v8.914a3.024,3.024,0,0,1-.742,2.176,2.821,2.821,0,0,1-2.141.777,4.591,4.591,0,0,1-1.117-.133V40.492a4.238,4.238,0,0,0,.711.07q1.023,0,1.023-1.086v-8.93Zm-2.445-2.187a1.112,1.112,0,0,1,.34-.836,1.47,1.47,0,0,1,1.852,0,1.2,1.2,0,0,1-.008,1.68,1.448,1.448,0,0,1-1.836,0A1.108,1.108,0,0,1,113.191,28.359ZM122.3,39a2.507,2.507,0,0,1-.227-.758,2.732,2.732,0,0,1-2.133.914,3,3,0,0,1-2.059-.719,2.312,2.312,0,0,1-.816-1.812,2.389,2.389,0,0,1,1-2.062,4.915,4.915,0,0,1,2.879-.727h1.039v-.484a1.393,1.393,0,0,0-.3-.937,1.183,1.183,0,0,0-.949-.352,1.345,1.345,0,0,0-.895.273.929.929,0,0,0-.324.75h-2.258a2.268,2.268,0,0,1,.453-1.359,3,3,0,0,1,1.281-.98,4.669,4.669,0,0,1,1.859-.355,3.689,3.689,0,0,1,2.48.785,2.747,2.747,0,0,1,.918,2.207v3.664a4.041,4.041,0,0,0,.336,1.82V39Zm-1.867-1.57a1.945,1.945,0,0,0,.922-.223,1.462,1.462,0,0,0,.625-.6V35.156h-.844q-1.7,0-1.8,1.172l-.008.133a.9.9,0,0,0,.3.7A1.153,1.153,0,0,0,120.434,37.43Zm10.125-.766a.727.727,0,0,0-.41-.652,4.659,4.659,0,0,0-1.316-.426q-3.016-.633-3.016-2.562a2.323,2.323,0,0,1,.934-1.879,3.766,3.766,0,0,1,2.441-.754,4.053,4.053,0,0,1,2.574.758,2.388,2.388,0,0,1,.965,1.969h-2.258a1.092,1.092,0,0,0-.312-.8,1.322,1.322,0,0,0-.977-.316,1.351,1.351,0,0,0-.883.258.814.814,0,0,0-.312.656.7.7,0,0,0,.355.605,3.657,3.657,0,0,0,1.2.4,9.8,9.8,0,0,1,1.422.379,2.336,2.336,0,0,1,1.789,2.273,2.205,2.205,0,0,1-.992,1.871,4.28,4.28,0,0,1-2.562.715,4.47,4.47,0,0,1-1.887-.379,3.166,3.166,0,0,1-1.293-1.039,2.414,2.414,0,0,1-.469-1.426h2.141a1.179,1.179,0,0,0,.445.922,1.766,1.766,0,0,0,1.109.32,1.635,1.635,0,0,0,.98-.246A.766.766,0,0,0,130.559,36.664Z" transform="translate(835 4075)" fill="#12263f"/>
    <path id="Trazado_211468" data-name="Trazado 211468" d="M31.547,12.016A1.2,1.2,0,0,0,31.078,11a6.148,6.148,0,0,0-1.687-.75,11.963,11.963,0,0,1-1.93-.777,3.153,3.153,0,0,1-1.937-2.82A2.747,2.747,0,0,1,26.043,5a3.389,3.389,0,0,1,1.492-1.129,5.616,5.616,0,0,1,2.184-.406,5.112,5.112,0,0,1,2.172.441,3.458,3.458,0,0,1,1.48,1.246A3.261,3.261,0,0,1,33.9,6.984H31.555a1.534,1.534,0,0,0-.492-1.215,2.023,2.023,0,0,0-1.383-.434,2.162,2.162,0,0,0-1.336.363,1.146,1.146,0,0,0-.477.957,1.1,1.1,0,0,0,.559.93,6.311,6.311,0,0,0,1.645.7,7.106,7.106,0,0,1,2.914,1.492A2.972,2.972,0,0,1,33.9,12a2.737,2.737,0,0,1-1.117,2.316,4.891,4.891,0,0,1-3.008.84,5.808,5.808,0,0,1-2.391-.48,3.783,3.783,0,0,1-1.645-1.316,3.371,3.371,0,0,1-.566-1.937h2.352q0,1.883,2.25,1.883a2.189,2.189,0,0,0,1.3-.34A1.106,1.106,0,0,0,31.547,12.016Zm7.68,3.141A4.15,4.15,0,0,1,36.2,14.016a4.054,4.054,0,0,1-1.168-3.039v-.219a5.106,5.106,0,0,1,.492-2.277,3.612,3.612,0,0,1,1.395-1.547,3.914,3.914,0,0,1,2.059-.543,3.508,3.508,0,0,1,2.73,1.094,4.444,4.444,0,0,1,1,3.1v.922H37.32a2.1,2.1,0,0,0,.66,1.328,2,2,0,0,0,1.395.5,2.437,2.437,0,0,0,2.039-.945l1.109,1.242a3.389,3.389,0,0,1-1.375,1.121A4.511,4.511,0,0,1,39.227,15.156Zm-.258-6.945a1.411,1.411,0,0,0-1.09.455,2.357,2.357,0,0,0-.535,1.3h3.141V9.788a1.681,1.681,0,0,0-.406-1.165A1.456,1.456,0,0,0,38.969,8.211Zm4.688,2.5a4.954,4.954,0,0,1,.926-3.133,3,3,0,0,1,2.5-1.187,2.631,2.631,0,0,1,2.164.953l.094-.8h2.047v8.172a3.613,3.613,0,0,1-.5,1.93,3.236,3.236,0,0,1-1.418,1.25,4.985,4.985,0,0,1-2.141.43,4.635,4.635,0,0,1-1.812-.371A3.217,3.217,0,0,1,44.172,17l1-1.375a2.645,2.645,0,0,0,2.047.945,1.936,1.936,0,0,0,1.4-.48,1.8,1.8,0,0,0,.5-1.363v-.453a2.612,2.612,0,0,1-2.055.883A2.992,2.992,0,0,1,44.6,13.965a4.953,4.953,0,0,1-.941-3.16Zm2.258.161a3.1,3.1,0,0,0,.461,1.809,1.465,1.465,0,0,0,1.266.655,1.567,1.567,0,0,0,1.477-.777V8.988a1.563,1.563,0,0,0-1.461-.777,1.474,1.474,0,0,0-1.277.667A3.5,3.5,0,0,0,45.914,10.872ZM58.18,14.141a2.831,2.831,0,0,1-2.312,1.016,2.67,2.67,0,0,1-2.074-.781,3.335,3.335,0,0,1-.73-2.289V6.547H55.32v5.467q0,1.322,1.2,1.322a1.63,1.63,0,0,0,1.578-.8V6.547h2.266V15H58.242ZM64.453,15H62.188V6.547h2.266Zm-2.4-10.641a1.112,1.112,0,0,1,.34-.836,1.465,1.465,0,0,1,1.848,0,1.105,1.105,0,0,1,.344.836,1.108,1.108,0,0,1-.348.844,1.448,1.448,0,0,1-1.836,0A1.108,1.108,0,0,1,62.055,4.359ZM68.43,6.547l.07.945a2.971,2.971,0,0,1,2.43-1.1A2.255,2.255,0,0,1,73.172,7.68a2.9,2.9,0,0,1,2.539-1.289,2.521,2.521,0,0,1,2.047.8A3.681,3.681,0,0,1,78.43,9.6V15H76.164V9.6a1.616,1.616,0,0,0-.281-1.053,1.245,1.245,0,0,0-.992-.333,1.409,1.409,0,0,0-1.406.971L73.492,15H71.234V9.6a1.6,1.6,0,0,0-.289-1.065,1.257,1.257,0,0,0-.984-.329,1.463,1.463,0,0,0-1.391.8V15H66.313V6.547ZM82.547,15H80.281V6.547h2.266Zm-2.4-10.641a1.112,1.112,0,0,1,.34-.836,1.465,1.465,0,0,1,1.848,0,1.105,1.105,0,0,1,.344.836,1.108,1.108,0,0,1-.348.844,1.448,1.448,0,0,1-1.836,0A1.108,1.108,0,0,1,80.148,4.359Zm8.148,10.8a4.15,4.15,0,0,1-3.027-1.141A4.054,4.054,0,0,1,84.1,10.977v-.219a5.106,5.106,0,0,1,.492-2.277,3.612,3.612,0,0,1,1.395-1.547,3.914,3.914,0,0,1,2.059-.543,3.508,3.508,0,0,1,2.73,1.094,4.444,4.444,0,0,1,1,3.1v.922H86.391a2.1,2.1,0,0,0,.66,1.328,2,2,0,0,0,1.395.5,2.437,2.437,0,0,0,2.039-.945l1.109,1.242a3.389,3.389,0,0,1-1.375,1.121A4.511,4.511,0,0,1,88.3,15.156Zm-.258-6.945a1.411,1.411,0,0,0-1.09.455,2.357,2.357,0,0,0-.535,1.3h3.141V9.788a1.681,1.681,0,0,0-.406-1.165A1.456,1.456,0,0,0,88.039,8.211Zm7.094-1.664.07.977a2.951,2.951,0,0,1,2.43-1.133,2.453,2.453,0,0,1,2,.789,3.682,3.682,0,0,1,.672,2.359V15H98.047V9.581a1.47,1.47,0,0,0-.312-1.045A1.4,1.4,0,0,0,96.7,8.211a1.553,1.553,0,0,0-1.43.814V15H93.008V6.547Zm9.586-2.078V6.547h1.445V8.2h-1.445v4.219a1.007,1.007,0,0,0,.18.672.9.9,0,0,0,.688.2,3.6,3.6,0,0,0,.664-.055v1.711a4.648,4.648,0,0,1-1.367.2,2.156,2.156,0,0,1-2.422-2.4V8.2h-1.234V6.547h1.234V4.469Zm2.117,6.227a5.013,5.013,0,0,1,.484-2.242,3.546,3.546,0,0,1,1.395-1.523,4.069,4.069,0,0,1,2.113-.539,3.849,3.849,0,0,1,2.793,1.047,4.2,4.2,0,0,1,1.207,2.844l.016.578a4.418,4.418,0,0,1-1.086,3.121,4.209,4.209,0,0,1-5.832,0,4.5,4.5,0,0,1-1.09-3.187Zm2.258.16a3.16,3.16,0,0,0,.453,1.843,1.628,1.628,0,0,0,2.578.008,3.457,3.457,0,0,0,.461-2.015,3.128,3.128,0,0,0-.461-1.831,1.5,1.5,0,0,0-1.3-.649,1.474,1.474,0,0,0-1.281.646A3.516,3.516,0,0,0,109.094,10.856Zm-63.547,24a5.07,5.07,0,0,1-.887,3.129,2.843,2.843,0,0,1-2.395,1.176,2.633,2.633,0,0,1-2.07-.891V42.25H37.938v-11.7h2.094l.078.828a2.654,2.654,0,0,1,2.141-.984,2.862,2.862,0,0,1,2.43,1.156,5.207,5.207,0,0,1,.867,3.188Zm-2.258-.172a3.345,3.345,0,0,0-.418-1.826,1.36,1.36,0,0,0-1.215-.643,1.478,1.478,0,0,0-1.461.815V36.5a1.5,1.5,0,0,0,1.477.839Q43.289,37.336,43.289,34.679Zm3.3.016a5.013,5.013,0,0,1,.484-2.242,3.546,3.546,0,0,1,1.395-1.523,4.069,4.069,0,0,1,2.113-.539,3.849,3.849,0,0,1,2.793,1.047,4.2,4.2,0,0,1,1.207,2.844l.016.578a4.418,4.418,0,0,1-1.086,3.121,4.209,4.209,0,0,1-5.832,0,4.5,4.5,0,0,1-1.09-3.187Zm2.258.16A3.16,3.16,0,0,0,49.3,36.7a1.628,1.628,0,0,0,2.578.008,3.457,3.457,0,0,0,.461-2.015,3.128,3.128,0,0,0-.461-1.831,1.5,1.5,0,0,0-1.3-.649,1.474,1.474,0,0,0-1.281.646A3.516,3.516,0,0,0,48.852,34.856ZM60.57,36.664a.727.727,0,0,0-.41-.652,4.659,4.659,0,0,0-1.316-.426q-3.016-.633-3.016-2.562a2.323,2.323,0,0,1,.934-1.879,3.766,3.766,0,0,1,2.441-.754,4.053,4.053,0,0,1,2.574.758,2.388,2.388,0,0,1,.965,1.969H60.484a1.092,1.092,0,0,0-.312-.8A1.322,1.322,0,0,0,59.2,32a1.351,1.351,0,0,0-.883.258.814.814,0,0,0-.312.656.7.7,0,0,0,.355.605,3.657,3.657,0,0,0,1.2.4,9.8,9.8,0,0,1,1.422.379,2.336,2.336,0,0,1,1.789,2.273,2.205,2.205,0,0,1-.992,1.871,4.28,4.28,0,0,1-2.562.715,4.47,4.47,0,0,1-1.887-.379,3.166,3.166,0,0,1-1.293-1.039,2.414,2.414,0,0,1-.469-1.426H57.7a1.179,1.179,0,0,0,.445.922,1.766,1.766,0,0,0,1.109.32,1.635,1.635,0,0,0,.98-.246A.766.766,0,0,0,60.57,36.664Zm6.813-.422,1.57-5.7h2.359L68.461,39H66.3l-2.852-8.453h2.359Zm8.711,2.914a4.15,4.15,0,0,1-3.027-1.141A4.054,4.054,0,0,1,71.9,34.977v-.219a5.106,5.106,0,0,1,.492-2.277,3.612,3.612,0,0,1,1.395-1.547,3.914,3.914,0,0,1,2.059-.543,3.508,3.508,0,0,1,2.73,1.094,4.444,4.444,0,0,1,1,3.1v.922H74.188a2.1,2.1,0,0,0,.66,1.328,2,2,0,0,0,1.395.5,2.437,2.437,0,0,0,2.039-.945l1.109,1.242a3.389,3.389,0,0,1-1.375,1.121A4.511,4.511,0,0,1,76.094,39.156Zm-.258-6.945a1.411,1.411,0,0,0-1.09.455,2.357,2.357,0,0,0-.535,1.3h3.141v-.181a1.681,1.681,0,0,0-.406-1.165A1.456,1.456,0,0,0,75.836,32.211Zm7.094-1.664.07.977a2.951,2.951,0,0,1,2.43-1.133,2.453,2.453,0,0,1,2,.789,3.682,3.682,0,0,1,.672,2.359V39H85.844V33.581a1.47,1.47,0,0,0-.312-1.045,1.4,1.4,0,0,0-1.039-.325,1.553,1.553,0,0,0-1.43.814V39H80.8V30.547Zm9.586-2.078v2.078h1.445V32.2H92.516v4.219a1.007,1.007,0,0,0,.18.672.9.9,0,0,0,.688.2,3.6,3.6,0,0,0,.664-.055v1.711a4.648,4.648,0,0,1-1.367.2,2.156,2.156,0,0,1-2.422-2.4V32.2H89.023V30.547h1.234V28.469ZM100.117,39a2.507,2.507,0,0,1-.227-.758,2.732,2.732,0,0,1-2.133.914,3,3,0,0,1-2.059-.719,2.312,2.312,0,0,1-.816-1.812,2.389,2.389,0,0,1,1-2.062,4.915,4.915,0,0,1,2.879-.727H99.8v-.484a1.393,1.393,0,0,0-.3-.937,1.183,1.183,0,0,0-.949-.352,1.345,1.345,0,0,0-.895.273.929.929,0,0,0-.324.75H95.07a2.268,2.268,0,0,1,.453-1.359,3,3,0,0,1,1.281-.98,4.669,4.669,0,0,1,1.859-.355,3.689,3.689,0,0,1,2.48.785,2.747,2.747,0,0,1,.918,2.207v3.664a4.041,4.041,0,0,0,.336,1.82V39ZM98.25,37.43a1.945,1.945,0,0,0,.922-.223,1.462,1.462,0,0,0,.625-.6V35.156h-.844q-1.7,0-1.8,1.172l-.008.133a.9.9,0,0,0,.3.7A1.153,1.153,0,0,0,98.25,37.43Z" transform="translate(1240 4075)" fill="#12263f"/>
  </g>
</svg>
