<svg id="Grupo_147562" data-name="Grupo 147562" xmlns="http://www.w3.org/2000/svg" xmlns:xlink="http://www.w3.org/1999/xlink" width="400" height="253.876" viewBox="0 0 400 253.876">
  <defs>
    <clipPath id="clip-path">
      <rect id="Rectángulo_38853" data-name="Rectángulo 38853" width="400" height="253.877" fill="none"/>
    </clipPath>
    <clipPath id="clip-path-3">
      <rect id="Rectángulo_38829" data-name="Rectángulo 38829" width="400" height="71.111" fill="none"/>
    </clipPath>
    <clipPath id="clip-path-4">
      <rect id="Rectángulo_38842" data-name="Rectángulo 38842" width="5.361" height="9.23" fill="none"/>
    </clipPath>
    <clipPath id="clip-path-5">
      <path id="Trazado_209117" data-name="Trazado 209117" d="M234.119,188.012a11.711,11.711,0,0,1-5.571,3.513c-1.26.358-2.394.676-2.394.676l-.382-2.617-1.906,1.871-.344,3.164-.786-3.132-2.924-1.994-.364,2.476-.542-.118a12.084,12.084,0,0,1-6.513-3.842c-1.811-2.067-3.906-4.447-3.906-4.447l-4.762,3.526s7.5,10.45,8.8,12.274l1.773,18.826h18.805l.695-18.55c.034-.052,9-12.551,9-12.551l-4.762-3.526Z" transform="translate(-203.726 -183.562)" fill="none"/>
    </clipPath>
    <linearGradient id="linear-gradient" x1="-3.451" y1="3.751" x2="-3.434" y2="3.751" gradientUnits="objectBoundingBox">
      <stop offset="0" stop-color="#edde5d"/>
      <stop offset="0.011" stop-color="#edde5d"/>
      <stop offset="1" stop-color="#f09819"/>
    </linearGradient>
    <clipPath id="clip-path-7">
      <rect id="Rectángulo_38845" data-name="Rectángulo 38845" width="1.163" height="3.04" fill="none"/>
    </clipPath>
    <clipPath id="clip-path-8">
      <rect id="Rectángulo_38846" data-name="Rectángulo 38846" width="4.803" height="6.138" fill="none"/>
    </clipPath>
    <clipPath id="clip-path-9">
      <rect id="Rectángulo_38847" data-name="Rectángulo 38847" width="5.11" height="6.138" fill="none"/>
    </clipPath>
    <clipPath id="clip-path-11">
      <rect id="Rectángulo_38849" data-name="Rectángulo 38849" width="10.846" height="26.331" fill="none"/>
    </clipPath>
  </defs>
  <g id="Grupo_147561" data-name="Grupo 147561" clip-path="url(#clip-path)">
    <g id="Grupo_147538" data-name="Grupo 147538">
      <g id="Grupo_147537" data-name="Grupo 147537" clip-path="url(#clip-path)">
        <g id="Grupo_147533" data-name="Grupo 147533" transform="translate(0 182.765)" opacity="0.2">
          <g id="Grupo_147532" data-name="Grupo 147532">
            <g id="Grupo_147531" data-name="Grupo 147531" clip-path="url(#clip-path-3)">
              <path id="Trazado_209076" data-name="Trazado 209076" d="M400,308.921c0,19.637-89.543,35.556-200,35.556S0,328.557,0,308.921s89.543-35.556,200-35.556,200,15.919,200,35.556" transform="translate(0 -273.365)" fill="#6fc6d2"/>
            </g>
          </g>
        </g>
        <path id="Trazado_209077" data-name="Trazado 209077" d="M516.1,228.723a48.1,48.1,0,1,1-48.1-48.1,48.1,48.1,0,0,1,48.1,48.1" transform="translate(-139.167 -59.864)" fill="#f8ce73"/>
        <path id="Trazado_209078" data-name="Trazado 209078" d="M512.728,232.04a41.406,41.406,0,1,1-41.406-41.406,41.406,41.406,0,0,1,41.406,41.406" transform="translate(-142.484 -63.181)" fill="#f3ad16"/>
        <path id="Trazado_209079" data-name="Trazado 209079" d="M498.038,234.6q-3.617-3.009-12.745-5.082c-.392-.089-.745-.173-1.117-.26v-8.308A7.182,7.182,0,0,1,486.757,222a6.261,6.261,0,0,1,1.423,1.361,4.623,4.623,0,0,0,4.5,1.889l1.589-.294a4.486,4.486,0,0,0,2.477-7.439,13.66,13.66,0,0,0-2.533-2.186c-2.337-1.565-5.7-2.482-10.041-2.775V202.311a2.725,2.725,0,0,0-5.45,0v10.2q-7.561.429-11.423,3.756a11.976,11.976,0,0,0-4.431,9.432,11.122,11.122,0,0,0,5.123,9.716c1.79,1.22,5.384,2.535,10.732,3.94v9.595a7.914,7.914,0,0,1-3.008-1.359,7.375,7.375,0,0,1-1.862-2.133,4.624,4.624,0,0,0-4.654-2.387l-2.006.306a4.473,4.473,0,0,0-2.892,7.138,16.938,16.938,0,0,0,3.71,3.479,21.708,21.708,0,0,0,10.712,3.43V267.7a2.725,2.725,0,1,0,5.45,0V257.508q8.093-.439,12.48-4.206a13.042,13.042,0,0,0,4.96-10.2,10.561,10.561,0,0,0-3.578-8.5m-23.417-8.294a2.524,2.524,0,0,1-1.138-2.073,2.707,2.707,0,0,1,1.3-2.317,9.2,9.2,0,0,1,3.943-1.125v7.079a15.943,15.943,0,0,1-4.106-1.563m14.026,21.384a9.3,9.3,0,0,1-4.471,1.5v-8.52c.451.1.872.2,1.34.307a9.1,9.1,0,0,1,3.822,1.5,3,3,0,0,1,.813,2.154,3.63,3.63,0,0,1-1.5,3.049" transform="translate(-153.407 -66.148)" fill="#f8ce73"/>
        <rect id="Rectángulo_38830" data-name="Rectángulo 38830" width="101.64" height="105.096" transform="translate(82.209 79.716)" fill="#25566a"/>
        <rect id="Rectángulo_38831" data-name="Rectángulo 38831" width="108.923" height="105.096" transform="translate(183.849 79.716)" fill="#31728d"/>
        <path id="Trazado_209080" data-name="Trazado 209080" d="M396.815,62.314H383.535L314.95,10.108,246.365,62.314H233.086L314.95,0Z" transform="translate(-77.25 0)" fill="#6fc6d2"/>
        <path id="Trazado_209081" data-name="Trazado 209081" d="M390.118,67.325h-4.784l-63.8-48.563-63.8,48.563h-4.784l68.585-52.206Z" transform="translate(-83.833 -5.011)" fill="#31728d"/>
        <path id="Trazado_209082" data-name="Trazado 209082" d="M387.706,69.131H260.1l63.8-48.563Z" transform="translate(-86.204 -6.817)" fill="#6fc6d2"/>
        <rect id="Rectángulo_38832" data-name="Rectángulo 38832" width="163.729" height="10.106" transform="translate(155.837 62.315)" fill="#6fc6d2"/>
        <rect id="Rectángulo_38833" data-name="Rectángulo 38833" width="149.269" height="7.288" transform="translate(163.067 72.422)" fill="#379ead"/>
        <rect id="Rectángulo_38834" data-name="Rectángulo 38834" width="127.508" height="10.812" transform="translate(184.829 184.812)" fill="#379ead"/>
        <rect id="Rectángulo_38835" data-name="Rectángulo 38835" width="127.508" height="10.812" transform="translate(196.829 195.623)" fill="#a9dde4"/>
        <rect id="Rectángulo_38836" data-name="Rectángulo 38836" width="127.508" height="10.812" transform="translate(208.829 206.434)" fill="#6fc6d2"/>
        <rect id="Rectángulo_38837" data-name="Rectángulo 38837" width="127.508" height="10.812" transform="translate(57.318 184.812)" fill="#25566a"/>
        <rect id="Rectángulo_38838" data-name="Rectángulo 38838" width="151.515" height="10.812" transform="translate(45.313 195.616)" fill="#193947"/>
        <rect id="Rectángulo_38839" data-name="Rectángulo 38839" width="175.514" height="10.812" transform="translate(33.314 206.42)" fill="#25566a"/>
        <path id="Trazado_209083" data-name="Trazado 209083" d="M78.179,62.315H181.748L263.61,0H160.042Z" transform="translate(-25.91 0)" fill="#31728d"/>
        <rect id="Rectángulo_38840" data-name="Rectángulo 38840" width="103.571" height="10.106" transform="translate(52.267 62.315)" fill="#25566a"/>
        <rect id="Rectángulo_38841" data-name="Rectángulo 38841" width="103.569" height="7.288" transform="translate(59.499 72.422)" fill="#1c404f"/>
        <path id="Trazado_209084" data-name="Trazado 209084" d="M106.668,119.233h-3.4v4.923h3.4v95.257h-3.4v4.923h13.166v-105.1Z" transform="translate(-34.225 -39.517)" fill="#53959e"/>
        <path id="Trazado_209085" data-name="Trazado 209085" d="M136.127,124.156v-4.923H122.96v105.1h13.167v-4.923h-3.4V124.156Z" transform="translate(-40.752 -39.517)" fill="#8cd1db"/>
        <path id="Trazado_209086" data-name="Trazado 209086" d="M184.489,119.233h-3.4v4.923h3.4v95.257h-3.4v4.923h13.166v-105.1Z" transform="translate(-60.017 -39.517)" fill="#53959e"/>
        <path id="Trazado_209087" data-name="Trazado 209087" d="M213.948,124.156v-4.923H200.781v105.1h13.167v-4.923h-3.4V124.156Z" transform="translate(-66.544 -39.517)" fill="#8cd1db"/>
        <path id="Trazado_209088" data-name="Trazado 209088" d="M261.419,119.233h-3.4v4.923h3.4v95.257h-3.4v4.923h11.344v-105.1Z" transform="translate(-85.513 -39.517)" fill="#8cd1db"/>
        <path id="Trazado_209089" data-name="Trazado 209089" d="M289.975,124.156v-4.923h-14.99v105.1h14.99v-4.923h-3.4V124.156Z" transform="translate(-91.137 -39.517)" fill="#c5e8ed"/>
        <path id="Trazado_209090" data-name="Trazado 209090" d="M339.24,119.233h-3.4v4.923h3.4v95.257h-3.4v4.923h11.2v-105.1Z" transform="translate(-111.305 -39.517)" fill="#8cd1db"/>
        <path id="Trazado_209091" data-name="Trazado 209091" d="M367.726,124.156v-4.923H352.595v105.1h15.131v-4.923h-3.4V124.156Z" transform="translate(-116.858 -39.517)" fill="#c5e8ed"/>
        <path id="Trazado_209092" data-name="Trazado 209092" d="M445.391,124.156v-4.923H429.945v105.1h15.445v-4.923h-3.4V124.156Z" transform="translate(-142.494 -39.517)" fill="#c5e8ed"/>
        <path id="Trazado_209093" data-name="Trazado 209093" d="M417.061,119.233h-3.4v4.923h3.4v95.257h-3.4v4.923h10.888v-105.1Z" transform="translate(-137.097 -39.517)" fill="#8cd1db"/>
        <path id="Trazado_209094" data-name="Trazado 209094" d="M305.885,279.621l8.378-7.616c1.309-1.19-.172-2.8-2.47-2.684l-5.466.849a4.183,4.183,0,0,1-1.409-.166l-3.644-1.8a4.229,4.229,0,0,0-2.331-.013l-3.937,1.829a4.2,4.2,0,0,1-1.369.151l-5.189-.84c-2.3-.12-3.785,1.492-2.475,2.684l8.37,7.61c-13.765,3.458-24.154,18.586-24.154,29.548,0,12.449,13.4,18.593,29.925,18.593s29.924-6.144,29.924-18.593c0-10.963-10.389-26.091-24.155-29.549" transform="translate(-89.548 -88.832)" fill="#f5bd45"/>
        <path id="Trazado_209095" data-name="Trazado 209095" d="M318.1,285.134H302.216a1.491,1.491,0,1,1,0-2.943H318.1a1.491,1.491,0,1,1,0,2.943" transform="translate(-99.588 -93.525)" fill="#f26b1d"/>
        <path id="Trazado_209096" data-name="Trazado 209096" d="M317.6,313.749a13.957,13.957,0,0,0-5.462-2.084c-.168-.036-.319-.071-.479-.106v-3.407a3.155,3.155,0,0,1,1.106.429,2.649,2.649,0,0,1,.61.558,2.021,2.021,0,0,0,1.93.775l.681-.12a1.818,1.818,0,0,0,1.061-3.051,5.773,5.773,0,0,0-1.085-.9,9.124,9.124,0,0,0-4.3-1.138v-4.2a1.168,1.168,0,0,0-2.335,0v4.182a8.283,8.283,0,0,0-4.9,1.54,4.831,4.831,0,0,0-1.9,3.868,4.511,4.511,0,0,0,2.195,3.985,17.464,17.464,0,0,0,4.6,1.616v3.935a3.468,3.468,0,0,1-1.289-.557,3.073,3.073,0,0,1-.8-.875,2.007,2.007,0,0,0-1.994-.979l-.86.125a1.818,1.818,0,0,0-1.239,2.928,7.144,7.144,0,0,0,1.59,1.427,9.591,9.591,0,0,0,4.59,1.407v4.215a1.168,1.168,0,0,0,2.335,0v-4.181a8.972,8.972,0,0,0,5.348-1.725,5.266,5.266,0,0,0,2.125-4.185,4.246,4.246,0,0,0-1.533-3.485m-10.035-3.4a1.024,1.024,0,0,1-.487-.85,1.1,1.1,0,0,1,.558-.951,4.084,4.084,0,0,1,1.69-.461v2.9a7,7,0,0,1-1.76-.641m6.01,8.77a4.105,4.105,0,0,1-1.916.617v-3.494c.193.042.374.084.575.126a4,4,0,0,1,1.637.617,1.2,1.2,0,0,1,.348.884,1.468,1.468,0,0,1-.645,1.25" transform="translate(-100.267 -99.225)" fill="#fae0ae"/>
        <path id="Trazado_209097" data-name="Trazado 209097" d="M245.133,118.22a23.889,23.889,0,1,1-23.889-23.888,23.889,23.889,0,0,1,23.889,23.888" transform="translate(-65.408 -31.264)" fill="#ffe071"/>
        <path id="Trazado_209098" data-name="Trazado 209098" d="M243.456,119.867A20.566,20.566,0,1,1,222.89,99.3a20.566,20.566,0,0,1,20.566,20.565" transform="translate(-67.055 -32.911)" fill="#f5c02b"/>
        <path id="Trazado_209099" data-name="Trazado 209099" d="M236.162,121.14q-1.8-1.494-6.331-2.524c-.195-.044-.37-.086-.555-.129v-4.126a3.561,3.561,0,0,1,1.282.519,3.107,3.107,0,0,1,.707.677,2.3,2.3,0,0,0,2.237.939l.789-.146a2.228,2.228,0,0,0,1.23-3.695,6.77,6.77,0,0,0-1.258-1.086,10.238,10.238,0,0,0-4.988-1.378V105.1a1.353,1.353,0,1,0-2.706,0v5.066a9.318,9.318,0,0,0-5.674,1.865,5.947,5.947,0,0,0-2.2,4.685,5.525,5.525,0,0,0,2.544,4.826,19.668,19.668,0,0,0,5.331,1.957v4.766a3.923,3.923,0,0,1-1.494-.675,3.642,3.642,0,0,1-.925-1.059,2.3,2.3,0,0,0-2.312-1.186l-1,.152a2.222,2.222,0,0,0-1.436,3.545,8.439,8.439,0,0,0,1.843,1.728,10.786,10.786,0,0,0,5.321,1.7v5.105a1.353,1.353,0,1,0,2.706,0v-5.063a10.112,10.112,0,0,0,6.2-2.089,6.478,6.478,0,0,0,2.463-5.068,5.247,5.247,0,0,0-1.776-4.22m-11.631-4.119a1.255,1.255,0,0,1-.565-1.03,1.345,1.345,0,0,1,.646-1.151,4.57,4.57,0,0,1,1.958-.559V117.8a7.939,7.939,0,0,1-2.039-.776m6.967,10.621a4.626,4.626,0,0,1-2.221.747v-4.231c.224.051.434.1.666.152a4.517,4.517,0,0,1,1.9.747,1.49,1.49,0,0,1,.4,1.07,1.8,1.8,0,0,1-.747,1.514" transform="translate(-72.481 -34.385)" fill="#ffe071"/>
        <path id="Trazado_209100" data-name="Trazado 209100" d="M228.259,194.8H233.7l-.109-10.091h-5.28Z" transform="translate(-75.65 -61.217)" fill="#eabbab"/>
        <g id="Grupo_147536" data-name="Grupo 147536" transform="translate(152.609 124.353)" opacity="0.1">
          <g id="Grupo_147535" data-name="Grupo 147535">
            <g id="Grupo_147534" data-name="Grupo 147534" clip-path="url(#clip-path-4)">
              <path id="Trazado_209101" data-name="Trazado 209101" d="M228.259,195.227l5.361-7.8L228.266,186Z" transform="translate(-228.259 -185.997)"/>
            </g>
          </g>
        </g>
        <path id="Trazado_209102" data-name="Trazado 209102" d="M239.3,183.664a.118.118,0,0,0,.034,0c.548.026,1.106-1.363,1.259-1.873a3.634,3.634,0,0,0,.084-.85,1.538,1.538,0,0,0-.245-1.027c-.16-.137-.287-.152-.378-.111,0,0-.008,0-.011.007-.187.1-.241.44-.241.44l-.1.647-.007.051v0Z" transform="translate(-79.309 -59.585)" fill="#e3ac9a"/>
        <path id="Trazado_209103" data-name="Trazado 209103" d="M224.884,180.252s-.118-.764-.63-.334c-.35.295-.249,1.579-.161,1.877.155.52.735,1.958,1.292,1.869Z" transform="translate(-74.242 -59.586)" fill="#e3ac9a"/>
        <path id="Trazado_209104" data-name="Trazado 209104" d="M224.4,174.481c.061.578.134,1.147.223,1.7v.014h0c.088.61.2,1.2.3,1.758v0c.134.718.28,1.389.415,1.992.078.339.146.657.216.953a1.712,1.712,0,0,0,.2.5,11.672,11.672,0,0,0,2.878,3.276,4.418,4.418,0,0,0,2.5,0,11.677,11.677,0,0,0,2.876-3.276,1.842,1.842,0,0,0,.2-.5c.07-.292.138-.61.212-.949.138-.61.281-1.284.42-2.009.011-.051.019-.1.031-.159l.092-.519c.065-.354.122-.715.181-1.082.027-.166.049-.332.073-.5.057-.394.108-.794.15-1.2a5.558,5.558,0,0,0-.385-1.826,4.8,4.8,0,0,0-4.544-3.092c-.192-.011-.921-.011-1.113,0a5.454,5.454,0,0,0-2.592.769,4.313,4.313,0,0,0-.9.739,4.18,4.18,0,0,0-.277.321,5.874,5.874,0,0,0-1.155,3.089" transform="translate(-74.373 -56.194)" fill="#eabbab"/>
        <path id="Trazado_209105" data-name="Trazado 209105" d="M225.314,170.286h0a2.131,2.131,0,0,1,1.021-2.006.745.745,0,0,1,.1-.06,4.3,4.3,0,0,1,.849-.4,6.8,6.8,0,0,1,5.864.761,7.559,7.559,0,0,1,2.788,3.625c0,.029-1.292,5.329-1.292,5.321-.008-.067-.153-1.822-.153-1.822-.069-.155-.157-.347-.245-.543-.184-.414-.367-.82-.367-.82l-.375-2.107c-1.1.17-2.318.455-3.592.628-.066.011-.126.018-.191.025l-2-.291c-.073-.015-.142-.026-.2-.033a2.727,2.727,0,0,1-1.232-.525h0l-.657,2.371s-.5.814-.718,1.294c0,0-.12,1.82-.118,1.839l-.9-5.359a2.337,2.337,0,0,1,1.413-1.9" transform="translate(-74.206 -55.504)" fill="#112f41"/>
        <path id="Trazado_209106" data-name="Trazado 209106" d="M228.315,181.492a.552.552,0,1,0,.544-.646.6.6,0,0,0-.544.646" transform="translate(-75.669 -59.937)" fill="#112f41"/>
        <path id="Trazado_209107" data-name="Trazado 209107" d="M229.3,179.3a2.451,2.451,0,0,0-2.216.547c.641-.186,1.544-.389,2.216-.547" transform="translate(-75.261 -59.396)" fill="#112f41"/>
        <path id="Trazado_209108" data-name="Trazado 209108" d="M236.088,181.492a.552.552,0,1,1-.544-.646.6.6,0,0,1,.544.646" transform="translate(-77.885 -59.937)" fill="#112f41"/>
        <path id="Trazado_209109" data-name="Trazado 209109" d="M234.546,179.3a2.451,2.451,0,0,1,2.216.547c-.641-.186-1.544-.389-2.216-.547" transform="translate(-77.734 -59.396)" fill="#112f41"/>
        <path id="Trazado_209110" data-name="Trazado 209110" d="M230.466,187.53a1.407,1.407,0,0,0,1.247,1.387,1.425,1.425,0,0,0,1.281-1.377,7.429,7.429,0,0,0-2.528-.011" transform="translate(-76.382 -62.118)" fill="#f17762"/>
        <path id="Trazado_209111" data-name="Trazado 209111" d="M245.582,181.682l7.184-7.768-.533-15.946c-.047-1.041-.083-1.527,1.054-1.708,1.176-.187,1.818.858,1.932,1.939l2.453,14.717a5.951,5.951,0,0,1-.788,4.071c-2.656,4.37-9.114,13.493-9.17,13.52-1.486.743-2.6-8.123-2.132-8.826" transform="translate(-81.356 -51.781)" fill="#eabbab"/>
        <path id="Trazado_209112" data-name="Trazado 209112" d="M266.595,155.762a5.4,5.4,0,0,1-.535.089c-.182.028-.36.06-.536.1-.154.032-.749.243-.9.287a16.746,16.746,0,0,0,1.023-1.67,1.561,1.561,0,0,1,1.09.425,1.007,1.007,0,0,1,.171.243.425.425,0,0,1,.031.246.467.467,0,0,1-.348.283" transform="translate(-87.704 -51.227)" fill="#eabbab"/>
        <path id="Trazado_209113" data-name="Trazado 209113" d="M258.307,155.635l4.866-3.166,2.193-5.174-.779-.966-2.605.607L259.513,150a31.386,31.386,0,0,0-3.848,3.481c-.373.469,2.642,2.152,2.642,2.152" transform="translate(-84.723 -48.497)" fill="#eabbab"/>
        <path id="Trazado_209114" data-name="Trazado 209114" d="M214.47,181.682l-7.184-7.768.533-15.946c.047-1.041.083-1.527-1.054-1.708-1.176-.187-1.818.858-1.932,1.939l-2.421,14.524a6.445,6.445,0,0,0,.858,4.431c2.716,4.432,9.013,13.327,9.067,13.353,1.486.743,2.6-8.123,2.132-8.826" transform="translate(-67.055 -51.781)" fill="#eabbab"/>
        <path id="Trazado_209115" data-name="Trazado 209115" d="M198.221,155.515c.163.047.351.068.532.1s.358.069.533.111c.154.035.743.261.89.309a16.79,16.79,0,0,1-.983-1.695,1.564,1.564,0,0,0-1.1.4,1.009,1.009,0,0,0-.177.239.433.433,0,0,0-.037.245.468.468,0,0,0,.342.291" transform="translate(-65.58 -51.152)" fill="#eabbab"/>
        <path id="Trazado_209116" data-name="Trazado 209116" d="M202.836,155.492l-4.788-3.282-2.067-5.226.8-.947,2.589.67,2.394,3.124a30.589,30.589,0,0,1,3.711,3.521c.361.477-2.642,2.139-2.642,2.139" transform="translate(-64.952 -48.4)" fill="#eabbab"/>
      </g>
    </g>
    <g id="Grupo_147540" data-name="Grupo 147540" transform="translate(136.206 122.725)">
      <g id="Grupo_147539" data-name="Grupo 147539" clip-path="url(#clip-path-5)">
        <rect id="Rectángulo_38844" data-name="Rectángulo 38844" width="39.423" height="35.015" transform="matrix(1, -0.01, 0.01, 1, -0.346, 0.003)" fill="url(#linear-gradient)"/>
      </g>
    </g>
    <g id="Grupo_147560" data-name="Grupo 147560">
      <g id="Grupo_147559" data-name="Grupo 147559" clip-path="url(#clip-path)">
        <path id="Trazado_209118" data-name="Trazado 209118" d="M230.529,194.426l-1.022,1.9-2.266-1.421.365-2.476Z" transform="translate(-75.313 -63.777)" fill="#eaeff5"/>
        <path id="Trazado_209119" data-name="Trazado 209119" d="M235.757,192.569l.382,2.617-1.145,1.34-1.145-2.086Z" transform="translate(-77.503 -63.822)" fill="#eaeff5"/>
        <path id="Trazado_209120" data-name="Trazado 209120" d="M254.35,182.281l5.462,3.743-1.406,2.5-5.91-4.049Z" transform="translate(-83.683 -60.412)" fill="#eaeff5"/>
        <path id="Trazado_209121" data-name="Trazado 209121" d="M207.927,182.281l-5.462,3.743,1.406,2.5,5.91-4.049Z" transform="translate(-67.101 -60.412)" fill="#eaeff5"/>
        <path id="Trazado_209122" data-name="Trazado 209122" d="M219.642,303.2s.712,18.292.895,23.619a26.634,26.634,0,0,1-.339,4.9,3.081,3.081,0,0,1-.658.941l4.617.717.165-6.394,1.373-17.1V303.2Z" transform="translate(-72.761 -100.486)" fill="#eec9bc"/>
        <path id="Trazado_209123" data-name="Trazado 209123" d="M243.668,303.2s-.712,18.292-.895,23.619a26.575,26.575,0,0,0,.339,4.9,3.081,3.081,0,0,0,.658.941l-4.617.717-.165-6.394-1.373-17.1V303.2Z" transform="translate(-78.751 -100.486)" fill="#eec9bc"/>
        <path id="Trazado_209124" data-name="Trazado 209124" d="M236.876,307.211l-2.432.643-2.781-.643-2.5-56.76h-.623L224.1,307.022l-2.567.832-2.509-.643c-.17-6.963-1.133-48.923-1.085-62.735a18.985,18.985,0,0,1,.179-2.539l.9-6.585h18.805l1.027,6.063a19.119,19.119,0,0,1,.265,3.58c-.288,14.315-1.726,55.376-2.235,62.216" transform="translate(-72.23 -78.001)" fill="#112f41"/>
        <path id="Trazado_209125" data-name="Trazado 209125" d="M239.6,343.419l-.193.168-.076,2.633,2.488.77.186-.384.562.493a2.353,2.353,0,0,0,.766.576l3.571,1.538a1.4,1.4,0,0,0,.328.087,5.638,5.638,0,0,0,3.037-.172.821.821,0,0,0,.263-1.292,29.84,29.84,0,0,0-3.149-2.369c-1-.608-1.829-1.161-2.22-1.426a1.893,1.893,0,0,1-.41-.375c-.155-.191-.437-.535-.915-1.11a.709.709,0,0,0-.771-.2l-.619.211a1.191,1.191,0,0,0-.8.809,2.6,2.6,0,0,0,.024.9c-.812.007-1.975-.372-2.076-.85" transform="translate(-79.32 -113.451)" fill="#23384d"/>
        <path id="Trazado_209126" data-name="Trazado 209126" d="M221.1,343.419l.193.168.076,2.633-2.488.77-.186-.384-.562.493a2.354,2.354,0,0,1-.766.576l-3.571,1.538a1.4,1.4,0,0,1-.328.087,5.638,5.638,0,0,1-3.037-.172.821.821,0,0,1-.263-1.292,29.894,29.894,0,0,1,3.148-2.369c1-.608,1.83-1.161,2.22-1.426a1.892,1.892,0,0,0,.41-.375c.155-.191.437-.535.914-1.11a.71.71,0,0,1,.772-.2l.619.211a1.191,1.191,0,0,1,.8.809,2.6,2.6,0,0,1-.024.9c.812.007,1.975-.372,2.076-.85" transform="translate(-69.586 -113.451)" fill="#23384d"/>
        <path id="Trazado_209127" data-name="Trazado 209127" d="M38.311,318.378c0,3.441,11.478,6.231,25.638,6.231s25.639-2.79,25.639-6.231V312.2H38.311Z" transform="translate(-12.697 -103.47)" fill="#f5bd45"/>
        <path id="Trazado_209128" data-name="Trazado 209128" d="M38.311,309.11c0,3.441,11.478,6.231,25.638,6.231s25.639-2.79,25.639-6.231-11.479-6.231-25.639-6.231-25.638,2.79-25.638,6.231" transform="translate(-12.697 -100.381)" fill="#f3ad16"/>
        <path id="Trazado_209129" data-name="Trazado 209129" d="M38.311,306.76c0,3.441,11.478,6.231,25.638,6.231s25.639-2.79,25.639-6.231v-6.179H38.311Z" transform="translate(-12.697 -99.62)" fill="#f5bd45"/>
        <path id="Trazado_209130" data-name="Trazado 209130" d="M38.311,297.492c0,3.441,11.478,6.231,25.638,6.231s25.639-2.79,25.639-6.231-11.479-6.231-25.639-6.231-25.638,2.79-25.638,6.231" transform="translate(-12.697 -96.531)" fill="#f3ad16"/>
        <path id="Trazado_209131" data-name="Trazado 209131" d="M38.311,295.143c0,3.441,11.478,6.231,25.638,6.231s25.639-2.79,25.639-6.231v-6.179H38.311Z" transform="translate(-12.697 -95.769)" fill="#f5bd45"/>
        <path id="Trazado_209132" data-name="Trazado 209132" d="M38.311,285.875c0,3.441,11.478,6.231,25.638,6.231s25.639-2.79,25.639-6.231-11.479-6.231-25.639-6.231-25.638,2.79-25.638,6.231" transform="translate(-12.697 -92.681)" fill="#f3ad16"/>
        <path id="Trazado_209133" data-name="Trazado 209133" d="M38.311,283.526c0,3.441,11.478,6.231,25.638,6.231s25.639-2.79,25.639-6.231v-6.179H38.311Z" transform="translate(-12.697 -91.919)" fill="#f5bd45"/>
        <path id="Trazado_209134" data-name="Trazado 209134" d="M38.311,274.258c0,3.441,11.478,6.231,25.638,6.231s25.639-2.79,25.639-6.231-11.479-6.231-25.639-6.231-25.638,2.79-25.638,6.231" transform="translate(-12.697 -88.83)" fill="#f3ad16"/>
        <path id="Trazado_209135" data-name="Trazado 209135" d="M38.311,271.909c0,3.441,11.478,6.231,25.638,6.231s25.639-2.79,25.639-6.231V265.73H38.311Z" transform="translate(-12.697 -88.069)" fill="#f5bd45"/>
        <path id="Trazado_209136" data-name="Trazado 209136" d="M38.311,262.64c0,3.441,11.478,6.231,25.638,6.231s25.639-2.79,25.639-6.231-11.479-6.231-25.639-6.231-25.638,2.79-25.638,6.231" transform="translate(-12.697 -84.98)" fill="#f3ad16"/>
        <path id="Trazado_209137" data-name="Trazado 209137" d="M38.311,260.291c0,3.441,11.478,6.231,25.638,6.231s25.639-2.79,25.639-6.231v-6.179H38.311Z" transform="translate(-12.697 -84.219)" fill="#f5bd45"/>
        <path id="Trazado_209138" data-name="Trazado 209138" d="M38.311,251.023c0,3.441,11.478,6.231,25.638,6.231s25.639-2.79,25.639-6.231-11.479-6.231-25.639-6.231-25.638,2.79-25.638,6.231" transform="translate(-12.697 -81.13)" fill="#f3ad16"/>
        <path id="Trazado_209139" data-name="Trazado 209139" d="M38.311,248.674c0,3.441,11.478,6.231,25.638,6.231s25.639-2.79,25.639-6.231v-6.179H38.311Z" transform="translate(-12.697 -80.369)" fill="#f5bd45"/>
        <path id="Trazado_209140" data-name="Trazado 209140" d="M38.311,239.406c0,3.441,11.478,6.231,25.638,6.231s25.639-2.79,25.639-6.231-11.479-6.231-25.639-6.231-25.638,2.79-25.638,6.231" transform="translate(-12.697 -77.28)" fill="#f3ad16"/>
        <path id="Trazado_209141" data-name="Trazado 209141" d="M38.311,237.057c0,3.441,11.478,6.231,25.638,6.231s25.639-2.79,25.639-6.231v-6.179H38.311Z" transform="translate(-12.697 -76.518)" fill="#f5bd45"/>
        <path id="Trazado_209142" data-name="Trazado 209142" d="M38.311,227.789c0,3.441,11.478,6.231,25.638,6.231s25.639-2.79,25.639-6.231-11.479-6.231-25.639-6.231-25.638,2.79-25.638,6.231" transform="translate(-12.697 -73.429)" fill="#f3ad16"/>
        <path id="Trazado_209143" data-name="Trazado 209143" d="M38.311,225.439c0,3.441,11.478,6.231,25.638,6.231s25.639-2.79,25.639-6.231V219.26H38.311Z" transform="translate(-12.697 -72.668)" fill="#f5bd45"/>
        <path id="Trazado_209144" data-name="Trazado 209144" d="M38.311,216.171c0,3.441,11.478,6.231,25.638,6.231s25.639-2.79,25.639-6.231-11.479-6.231-25.639-6.231-25.638,2.79-25.638,6.231" transform="translate(-12.697 -69.579)" fill="#f8ce73"/>
        <path id="Trazado_209145" data-name="Trazado 209145" d="M45.98,217.38c0,2.095,9.183,3.793,20.511,3.793S87,219.474,87,217.38s-9.183-3.793-20.511-3.793-20.511,1.7-20.511,3.793" transform="translate(-15.239 -70.788)" fill="#f5bd45"/>
        <path id="Trazado_209146" data-name="Trazado 209146" d="M82.065,333.48c0,3.441,11.479,6.231,25.638,6.231s25.639-2.79,25.639-6.231V327.3H82.065Z" transform="translate(-27.198 -108.475)" fill="#f5bd45"/>
        <path id="Trazado_209147" data-name="Trazado 209147" d="M82.065,324.212c0,3.441,11.479,6.231,25.638,6.231s25.639-2.79,25.639-6.231-11.479-6.231-25.639-6.231-25.638,2.79-25.638,6.231" transform="translate(-27.198 -105.386)" fill="#f3ad16"/>
        <path id="Trazado_209148" data-name="Trazado 209148" d="M82.065,321.863c0,3.441,11.479,6.231,25.638,6.231s25.639-2.79,25.639-6.231v-6.179H82.065Z" transform="translate(-27.198 -104.625)" fill="#f5bd45"/>
        <path id="Trazado_209149" data-name="Trazado 209149" d="M82.065,312.6c0,3.441,11.479,6.231,25.638,6.231s25.639-2.79,25.639-6.231-11.479-6.231-25.639-6.231-25.638,2.79-25.638,6.231" transform="translate(-27.198 -101.536)" fill="#f3ad16"/>
        <path id="Trazado_209150" data-name="Trazado 209150" d="M82.065,310.246c0,3.441,11.479,6.231,25.638,6.231s25.639-2.79,25.639-6.231v-6.179H82.065Z" transform="translate(-27.198 -100.775)" fill="#f5bd45"/>
        <path id="Trazado_209151" data-name="Trazado 209151" d="M82.065,300.978c0,3.441,11.479,6.231,25.638,6.231s25.639-2.79,25.639-6.231-11.479-6.231-25.639-6.231-25.638,2.79-25.638,6.231" transform="translate(-27.198 -97.686)" fill="#f3ad16"/>
        <path id="Trazado_209152" data-name="Trazado 209152" d="M82.065,298.628c0,3.441,11.479,6.231,25.638,6.231s25.639-2.79,25.639-6.231v-6.179H82.065Z" transform="translate(-27.198 -96.924)" fill="#f5bd45"/>
        <path id="Trazado_209153" data-name="Trazado 209153" d="M82.065,289.36c0,3.441,11.479,6.231,25.638,6.231s25.639-2.79,25.639-6.231-11.479-6.231-25.639-6.231-25.638,2.79-25.638,6.231" transform="translate(-27.198 -93.836)" fill="#f3ad16"/>
        <path id="Trazado_209154" data-name="Trazado 209154" d="M82.065,287.011c0,3.441,11.479,6.231,25.638,6.231s25.639-2.79,25.639-6.231v-6.179H82.065Z" transform="translate(-27.198 -93.074)" fill="#f5bd45"/>
        <path id="Trazado_209155" data-name="Trazado 209155" d="M82.065,277.743c0,3.441,11.479,6.231,25.638,6.231s25.639-2.79,25.639-6.231-11.479-6.231-25.639-6.231-25.638,2.79-25.638,6.231" transform="translate(-27.198 -89.985)" fill="#f3ad16"/>
        <path id="Trazado_209156" data-name="Trazado 209156" d="M82.065,275.394c0,3.441,11.479,6.231,25.638,6.231s25.639-2.79,25.639-6.231v-6.179H82.065Z" transform="translate(-27.198 -89.224)" fill="#f5bd45"/>
        <path id="Trazado_209157" data-name="Trazado 209157" d="M82.065,266.126c0,3.441,11.479,6.231,25.638,6.231s25.639-2.79,25.639-6.231-11.479-6.231-25.639-6.231-25.638,2.79-25.638,6.231" transform="translate(-27.198 -86.135)" fill="#f8ce73"/>
        <path id="Trazado_209158" data-name="Trazado 209158" d="M89.735,267.335c0,2.095,9.183,3.792,20.511,3.792s20.511-1.7,20.511-3.792-9.183-3.793-20.511-3.793-20.511,1.7-20.511,3.793" transform="translate(-29.74 -87.344)" fill="#f5bd45"/>
        <path id="Trazado_209159" data-name="Trazado 209159" d="M64.538,165.377l4.374,2.018,3.67-7.318-3.92-1.573Z" transform="translate(-21.39 -52.532)" fill="#f7c8b3"/>
        <g id="Grupo_147543" data-name="Grupo 147543" transform="translate(48.774 109.302)" opacity="0.25">
          <g id="Grupo_147542" data-name="Grupo 147542">
            <g id="Grupo_147541" data-name="Grupo 147541" clip-path="url(#clip-path-7)">
              <path id="Trazado_209160" data-name="Trazado 209160" d="M74.115,164.232a9.334,9.334,0,0,1-.928-.748,11.385,11.385,0,0,0-.221,3.041Z" transform="translate(-72.952 -163.484)" fill="#ef5a29"/>
            </g>
          </g>
        </g>
        <path id="Trazado_209161" data-name="Trazado 209161" d="M78.413,156.887a11,11,0,0,1-1.56,2.052c-.479.449-1.437.273-2.249-.1a9.076,9.076,0,0,1-3.779-2.915,15.264,15.264,0,0,1-1.569-2.821,8.4,8.4,0,0,1,.965-7.289c2.4-3.65,9.621-1.033,10.821,3a5.132,5.132,0,0,1-.234,2.249c-.009.031-.019.062-.029.094a7.3,7.3,0,0,1-1.557,2.726.678.678,0,0,0-.17.681,6.737,6.737,0,0,0,.8,1.472c.355.473-1.443.852-1.443.852" transform="translate(-22.81 -47.75)" fill="#f7c8b3"/>
        <path id="Trazado_209162" data-name="Trazado 209162" d="M79.118,149.194a2.19,2.19,0,0,0,1.794-1.726A1.574,1.574,0,0,0,79.9,145.7c.81-1.389-.609-2.637-1.8-2.593a1.868,1.868,0,0,0-1.527-1.439,2.407,2.407,0,0,0-2.133.415,1.156,1.156,0,0,0-1.193-.81,1.239,1.239,0,0,1-.367.023c-.232-.043-.373-.269-.532-.445a1.749,1.749,0,0,0-2.3-.193,2.039,2.039,0,0,0-2.708.086,2.066,2.066,0,0,0-2.3,1.573,2.5,2.5,0,0,0-1.935.518,2.2,2.2,0,0,0-.8,1.817,1.084,1.084,0,0,0-.827.612c-.168.317-.356.921-.038,1.286a2.044,2.044,0,0,0-.86,2.947,1.971,1.971,0,0,0,1.88,3.38,2.187,2.187,0,0,0,2.527.558,1.487,1.487,0,0,0,1.447.16c.64-.13,1.474-.476,1.682-.995a1.87,1.87,0,0,1,.065-3.276c1.106-.487,1.72,1.024,1.594,1.508l.78-.106a2.554,2.554,0,0,1,.327-.709c.444-.331,1.093-.431,1.316-.625-.9-.826.843-.624.995-.8a.957.957,0,0,1,1.02-.292c1.4.436,3.142.164,3.493-.355a4.256,4.256,0,0,1-.562,3.448.762.762,0,0,0,1.336-.719c.515.237,1.358-.862.633-1.475" transform="translate(-19.853 -46.459)" fill="#112f41"/>
        <path id="Trazado_209163" data-name="Trazado 209163" d="M84.45,155.3a1.96,1.96,0,0,0-1.1-.375,2.288,2.288,0,0,0-.574.054,2.126,2.126,0,0,0-.525.209l.013.029a2.02,2.02,0,0,1,.534-.08,2.124,2.124,0,0,1,.525.041c.172.033.85.2,1.05.213Z" transform="translate(-27.259 -51.344)" fill="#2c1c28"/>
        <path id="Trazado_209164" data-name="Trazado 209164" d="M81.112,162.866l-.215-.1-1.018-.494s-.687,1.165-.169,1.5,1.4-.9,1.4-.9" transform="translate(-26.354 -53.779)" fill="#bb7871"/>
        <path id="Trazado_209165" data-name="Trazado 209165" d="M83.2,157.9c-.191.274-.493.392-.677.265s-.178-.453.013-.726.493-.393.677-.266.178.453-.013.727" transform="translate(-27.305 -52.075)" fill="#2c1c28"/>
        <path id="Trazado_209166" data-name="Trazado 209166" d="M101.195,244.379l5.258.705s-2.293,13.561-.6,14.978c.149.443,5.152,3.72,4.647,4.069S99.8,261.38,99.714,261.02c-.02-.082,1.542-5.813,1.556-5.893Z" transform="translate(-33.047 -80.993)" fill="#eabbab"/>
        <path id="Trazado_209167" data-name="Trazado 209167" d="M105.057,264.782s1.919,2.325,2.16,2.7a14.517,14.517,0,0,0,3.118,1.689c1.76.817,1.957,1.756,2.059,2.113a.167.167,0,0,1,.12.2l-.067.344s-5.338-.664-7.439-1.259c0,0-1.532-1.553-1.851-.354l-4.332-.727.257-1.328.223,0a10.562,10.562,0,0,1,.644-3.3l.22-.027s-.247.609,1.3,1.017,2.4.372,2.585.1.122-.154.122-.154a1.136,1.136,0,0,1,.884-1.026" transform="translate(-32.754 -87.755)" fill="#0d2331"/>
        <path id="Trazado_209168" data-name="Trazado 209168" d="M86.225,216.035,61.3,217.213l-2.037-11.34,31.059,2.387c2.981.16,4.713,1.628,4.55,3.612,0,0-2.7,31.211-2.749,32.438l-1.333.634-3.658-.689-1.521-18.421a36.672,36.672,0,0,1,.617-9.8" transform="translate(-19.64 -68.231)" fill="#091821"/>
        <path id="Trazado_209169" data-name="Trazado 209169" d="M124.555,248.4l1.075,2.879c.814,2.185,2.385,8.321,3.844,9.756.4.234-2.694,3.525-3,3.315-.069-.048-2.556-6.339-2.593-6.41l-1.794-3.786q-.772-1.634-1.665-3.2l-1.127-2.076Z" transform="translate(-39.538 -82.326)" fill="#eabbab"/>
        <path id="Trazado_209170" data-name="Trazado 209170" d="M131.145,266.243s1.411,2.657,1.572,3.072a14.422,14.422,0,0,0,2.716,2.272c1.56,1.149,1.563,2.108,1.591,2.477a.167.167,0,0,1,.077.222l-.135.324s-5.1-1.708-7.038-2.707c0,0-1.189-1.825-1.743-.713l-4.1-1.571.521-1.25.218.046a10.578,10.578,0,0,1,1.3-3.1l.06,0a2.59,2.59,0,0,0,1.227,1.266c1.365.825,2.273.84,2.513.614s.15-.128.15-.128a1.141,1.141,0,0,1,1.074-.829" transform="translate(-41.125 -87.932)" fill="#0d2331"/>
        <path id="Trazado_209171" data-name="Trazado 209171" d="M52.6,211.963a49.888,49.888,0,0,1,.555-9.763l12.383.336.07,2.826,25.3,3.284c.268.022,2.543.368,3.045,1.7,0,0,11.876,31.59,12.535,33.2l-1.738.85-3.087-.539-9.684-16.843a27.4,27.4,0,0,1-3.036-7.9l-.586-2.724s-23.726,1.528-30.275.8a5.826,5.826,0,0,1-5.486-5.226" transform="translate(-17.426 -67.014)" fill="#112f41"/>
        <path id="Trazado_209172" data-name="Trazado 209172" d="M65.677,202.418l.039,1.645-12.7.014.278-1.877Z" transform="translate(-17.571 -67.014)" fill="#202a46"/>
        <path id="Trazado_209173" data-name="Trazado 209173" d="M77.471,191.746l8.607,7.22a.456.456,0,0,1,.127.12h0l4.78.7,4.195,2.563-.508.314-4.581-.629-3.677.249a3.721,3.721,0,0,1-2.01-1.67l-9.759-6.007Z" transform="translate(-24.74 -63.549)" fill="#e6a38c"/>
        <g id="Grupo_147546" data-name="Grupo 147546" transform="translate(51.313 128.744)" opacity="0.05">
          <g id="Grupo_147545" data-name="Grupo 147545">
            <g id="Grupo_147544" data-name="Grupo 147544" clip-path="url(#clip-path-8)">
              <path id="Trazado_209174" data-name="Trazado 209174" d="M80.731,194.166l-1.911-1.6-2.071,3.182,4.8,2.956Z" transform="translate(-76.75 -192.564)"/>
            </g>
          </g>
        </g>
        <path id="Trazado_209175" data-name="Trazado 209175" d="M67.908,167.983c2.377-.312,3.842,2.044,3.847,4.223.01,4.517.651,9.831.651,9.831l3.065,2.318-2.487,3.481-4.693-2.964S66.442,176.156,66,173.29c-.358-2.324.5-5.121,1.907-5.307" transform="translate(-21.848 -55.664)" fill="#f6c95a"/>
        <path id="Trazado_209176" data-name="Trazado 209176" d="M76.963,196.349l-1.994-1.155,2.8-4.734,1.792,1.5Z" transform="translate(-24.847 -63.123)" fill="#eef2fe"/>
        <path id="Trazado_209177" data-name="Trazado 209177" d="M65.92,163.415l5.566,4.211.4-2.543-5.227-2.8Z" transform="translate(-21.847 -53.783)" fill="#eef2fe"/>
        <path id="Trazado_209178" data-name="Trazado 209178" d="M72.118,191.746l9.157,7.22a.493.493,0,0,1,.135.12h0l5.086.7,4.461,2.563-.54.314-4.873-.629-3.912.249a3.925,3.925,0,0,1-2.139-1.67L69.113,194.61Z" transform="translate(-22.906 -63.549)" fill="#eabbab"/>
        <g id="Grupo_147549" data-name="Grupo 147549" transform="translate(47.703 128.744)" opacity="0.05">
          <g id="Grupo_147548" data-name="Grupo 147548">
            <g id="Grupo_147547" data-name="Grupo 147547" clip-path="url(#clip-path-9)">
              <path id="Trazado_209179" data-name="Trazado 209179" d="M75.586,194.166l-2.033-1.6-2.2,3.182,5.11,2.956Z" transform="translate(-71.35 -192.564)"/>
            </g>
          </g>
        </g>
        <path id="Trazado_209180" data-name="Trazado 209180" d="M61.944,167.983c2.529-.312,4.088,2.044,4.093,4.223a54.661,54.661,0,0,0,1.111,9.644l2.842,2.505-2.646,3.481-2-1.186a8.048,8.048,0,0,1-3.754-5.2c-.608-2.77-1.4-6.477-1.677-8.163-.38-2.324.53-5.121,2.028-5.307" transform="translate(-19.829 -55.664)" fill="#f6c95a"/>
        <path id="Trazado_209181" data-name="Trazado 209181" d="M71.577,196.349l-2.121-1.155,2.977-4.734,1.906,1.5Z" transform="translate(-23.019 -63.123)" fill="#eef2fe"/>
        <path id="Trazado_209182" data-name="Trazado 209182" d="M65.92,163.511l5.566,4.211.933-2.319-5.758-3.219Z" transform="translate(-21.847 -53.752)" fill="#0ac2a5"/>
        <path id="Trazado_209183" data-name="Trazado 209183" d="M77.471,191.651l8.607,7.219a.458.458,0,0,1,.127.12h0l4.78.7,4.195,2.563-.508.314-4.581-.629-3.677.249a3.72,3.72,0,0,1-2.01-1.671l-9.759-6.007Z" transform="translate(-24.74 -63.518)" fill="#e6a38c"/>
        <g id="Grupo_147552" data-name="Grupo 147552" transform="translate(51.313 128.68)" opacity="0.05">
          <g id="Grupo_147551" data-name="Grupo 147551">
            <g id="Grupo_147550" data-name="Grupo 147550" clip-path="url(#clip-path-8)">
              <path id="Trazado_209184" data-name="Trazado 209184" d="M80.731,194.072l-1.911-1.6-2.071,3.182,4.8,2.956Z" transform="translate(-76.75 -192.469)"/>
            </g>
          </g>
        </g>
        <path id="Trazado_209185" data-name="Trazado 209185" d="M67.908,167.889c2.377-.313,3.842,2.044,3.847,4.223.01,4.517.651,9.831.651,9.831l3.065,2.319-2.487,3.481-4.693-2.964S66.442,176.062,66,173.2c-.358-2.324.5-5.121,1.907-5.306" transform="translate(-21.848 -55.633)" fill="#0ac2a5"/>
        <path id="Trazado_209186" data-name="Trazado 209186" d="M76.963,196.254,74.969,195.1l2.8-4.734,1.792,1.5Z" transform="translate(-24.847 -63.092)" fill="#eef2fe"/>
        <path id="Trazado_209187" data-name="Trazado 209187" d="M67.937,177.023c-.4,2.132-1.16,6.9-1.711,10.441l-.584,3.713a1.7,1.7,0,0,1-.661,1.082,9.609,9.609,0,0,1-6.805,1.614,34.209,34.209,0,0,1-5.575-1.028,1.107,1.107,0,0,1-.827-1.066,24.4,24.4,0,0,1,1.752-7.919l1.455-10.739a11.832,11.832,0,0,1,3.8-7.661,7.491,7.491,0,0,1,2.444-1.6c.965-.37,3.8,1.938,5.567,4.213.719.92,1.73,5.755,1.141,8.95" transform="translate(-17.159 -54.294)" fill="#3bceb7"/>
        <g id="Grupo_147555" data-name="Grupo 147555" transform="translate(39.041 113.301)" opacity="0.3">
          <g id="Grupo_147554" data-name="Grupo 147554">
            <g id="Grupo_147553" data-name="Grupo 147553" clip-path="url(#clip-path-11)">
              <path id="Trazado_209188" data-name="Trazado 209188" d="M69.239,184.127c-.013.175-.807,5.04-.82,5.209-.253,1.607-.466,2.968-.583,3.714a1.709,1.709,0,0,1-.661,1.082,9.61,9.61,0,0,1-6.8,1.614c1.568-1.219,4.569-3.811,5.01-4.278.3-.318.959-1.549.584-1.756l-4.3-1.374c-1.115-.422-1.342-1.342-1.581-2.508l-1.685-8.322c.285-2.975-.013-5.878,2.2-7.881.516-.467,5.368-.189,5.595,4.576.218,4.6.711,7.921,3.048,9.923" transform="translate(-58.393 -169.466)" fill="#056153"/>
            </g>
          </g>
        </g>
        <path id="Trazado_209189" data-name="Trazado 209189" d="M65.92,163.321l5.566,4.211.4-2.543-5.227-2.8Z" transform="translate(-21.847 -53.752)" fill="#eef2fe"/>
        <path id="Trazado_209190" data-name="Trazado 209190" d="M72.118,191.651l9.157,7.219a.5.5,0,0,1,.135.12h0l5.086.7,4.461,2.563-.54.314-4.873-.629-3.912.249a3.924,3.924,0,0,1-2.139-1.671l-10.382-6.007Z" transform="translate(-22.906 -63.518)" fill="#eabbab"/>
        <g id="Grupo_147558" data-name="Grupo 147558" transform="translate(47.703 128.68)" opacity="0.05">
          <g id="Grupo_147557" data-name="Grupo 147557">
            <g id="Grupo_147556" data-name="Grupo 147556" clip-path="url(#clip-path-9)">
              <path id="Trazado_209191" data-name="Trazado 209191" d="M75.586,194.072l-2.033-1.6-2.2,3.182,5.11,2.956Z" transform="translate(-71.35 -192.469)"/>
            </g>
          </g>
        </g>
        <path id="Trazado_209192" data-name="Trazado 209192" d="M61.944,167.889c2.529-.313,4.088,2.044,4.093,4.223a54.649,54.649,0,0,0,1.111,9.644l2.842,2.506-2.646,3.481-2-1.186a8.048,8.048,0,0,1-3.754-5.2c-.608-2.769-1.4-6.477-1.677-8.162-.38-2.324.53-5.121,2.028-5.306" transform="translate(-19.829 -55.633)" fill="#3bceb7"/>
        <path id="Trazado_209193" data-name="Trazado 209193" d="M71.577,196.254,69.456,195.1l2.977-4.734,1.906,1.5Z" transform="translate(-23.019 -63.092)" fill="#eef2fe"/>
        <path id="Trazado_209194" data-name="Trazado 209194" d="M103.869,199.321l9.031.047,7.929-17.541-9.355,1.982Z" transform="translate(-34.425 -60.262)" fill="#dee5fe"/>
        <path id="Trazado_209195" data-name="Trazado 209195" d="M88.136,208.974h18.245a.982.982,0,0,0,.981-.981H87.155a.981.981,0,0,0,.981.981" transform="translate(-28.885 -68.934)" fill="#31728d"/>
        <path id="Trazado_209196" data-name="Trazado 209196" d="M118.529,199.28l7.507-16.563a.507.507,0,0,0-.251-.671l-7.927,17.486a.507.507,0,0,0,.671-.251" transform="translate(-39.061 -60.334)" fill="#31728d"/>
        <rect id="Rectángulo_38851" data-name="Rectángulo 38851" width="19.199" height="0.351" transform="matrix(0.413, -0.911, 0.911, 0.413, 78.477, 139.052)" fill="#112f41"/>
        <path id="Trazado_209197" data-name="Trazado 209197" d="M103.895,199.4l9.068-.043,7.849-17.44-9.328,1.923Z" transform="translate(-34.433 -60.291)" fill="#fff"/>
        <path id="Trazado_209198" data-name="Trazado 209198" d="M114.324,185.239,122,183.77l.657-1.437-7.716,1.633Z" transform="translate(-37.89 -60.429)" fill="#6fc6d2"/>
        <path id="Trazado_209199" data-name="Trazado 209199" d="M113.772,186.712l7.67-1.4.38-.832-7.679,1.469Z" transform="translate(-37.707 -61.142)" fill="#d7dadb"/>
        <path id="Trazado_209200" data-name="Trazado 209200" d="M123.752,183.992l1.274-.251c.072-.015.1.053.063.165l-.106.33-1.67.32.2-.343a.462.462,0,0,1,.236-.221" transform="translate(-40.869 -60.895)" fill="#fff"/>
        <path id="Trazado_209201" data-name="Trazado 209201" d="M112.078,189.8l7.64-1.177.83-1.819-7.661,1.335Z" transform="translate(-37.145 -61.913)" fill="#f2b134"/>
        <path id="Trazado_209202" data-name="Trazado 209202" d="M114.97,189.294l5.651-.907.33-.72-5.657.953Z" transform="translate(-38.104 -62.197)" fill="#fff"/>
        <path id="Trazado_209203" data-name="Trazado 209203" d="M113.51,189.963l.491-.079.323-.669-.491.083Z" transform="translate(-37.62 -62.71)" fill="#fff"/>
        <path id="Trazado_209204" data-name="Trazado 209204" d="M112.055,195.465l1.86-.189L115.46,192l-1.872.265Z" transform="translate(-37.138 -63.634)" fill="#f2b134"/>
        <path id="Trazado_209205" data-name="Trazado 209205" d="M112.279,192.447h.007c.231-.033.224.373.017,1l-1.052,1.13Z" transform="translate(-36.871 -63.781)" fill="#bfcbfe"/>
        <path id="Trazado_209206" data-name="Trazado 209206" d="M112.3,193.947a8.046,8.046,0,0,1-.4.966,10.04,10.04,0,0,1-.628,1.119l-.027-.955Z" transform="translate(-36.871 -64.279)" fill="#5f7dfc"/>
        <path id="Trazado_209207" data-name="Trazado 209207" d="M111.208,193.615c.411-.657.823-1.125,1.057-1.165l-1.029,2.131Z" transform="translate(-36.857 -63.782)" fill="#9fb1fd"/>
        <path id="Trazado_209208" data-name="Trazado 209208" d="M110.731,194.192l.028.966-.991,1.064a7.925,7.925,0,0,1,.441-1.086,10.168,10.168,0,0,1,.521-.944" transform="translate(-36.38 -64.36)" fill="#7f97fd"/>
        <path id="Trazado_209209" data-name="Trazado 209209" d="M110.727,196.821c-.392.6-.771,1.011-.985,1.03h0l.959-1.987Z" transform="translate(-36.371 -64.914)" fill="#475ebd"/>
        <path id="Trazado_209210" data-name="Trazado 209210" d="M109.737,197.621c-.212.018-.209-.352-.033-.92l.991-1.064Z" transform="translate(-36.315 -64.839)" fill="#7f97fd"/>
        <path id="Trazado_209211" data-name="Trazado 209211" d="M118.759,191.731l1.37-.191.15-.325-1.371.2Z" transform="translate(-39.36 -63.373)" fill="#bfcbfe"/>
        <path id="Trazado_209212" data-name="Trazado 209212" d="M118.8,193.22l1.749-.221.16-.35-1.75.229Z" transform="translate(-39.372 -63.848)" fill="#bfcbfe"/>
        <path id="Trazado_209213" data-name="Trazado 209213" d="M117.627,194.434l1.956-.231.1-.209-1.956.236Z" transform="translate(-38.984 -64.294)" fill="#bfcbfe"/>
        <path id="Trazado_209214" data-name="Trazado 209214" d="M117.374,194.966l2.2-.25.1-.211-2.2.255Z" transform="translate(-38.901 -64.464)" fill="#bfcbfe"/>
        <path id="Trazado_209215" data-name="Trazado 209215" d="M117.12,195.513l2.2-.24.1-.211-2.2.245Z" transform="translate(-38.816 -64.648)" fill="#bfcbfe"/>
        <path id="Trazado_209216" data-name="Trazado 209216" d="M117.3,196.032l1.9-.2.1-.212-1.9.2Z" transform="translate(-38.877 -64.833)" fill="#bfcbfe"/>
        <path id="Trazado_209217" data-name="Trazado 209217" d="M116.611,196.626l1.952-.2.1-.213-1.952.2Z" transform="translate(-38.647 -65.031)" fill="#bfcbfe"/>
        <path id="Trazado_209218" data-name="Trazado 209218" d="M116.355,197.167l2.192-.211.1-.213-2.192.216Z" transform="translate(-38.563 -65.205)" fill="#bfcbfe"/>
        <path id="Trazado_209219" data-name="Trazado 209219" d="M116.1,197.722l2.19-.2.1-.214-2.191.206Z" transform="translate(-38.478 -65.392)" fill="#bfcbfe"/>
        <path id="Trazado_209220" data-name="Trazado 209220" d="M115.84,198.279l2.189-.191.1-.215-2.19.2Z" transform="translate(-38.392 -65.58)" fill="#bfcbfe"/>
        <path id="Trazado_209221" data-name="Trazado 209221" d="M115.581,198.837l2.188-.18.1-.216-2.188.186Z" transform="translate(-38.306 -65.768)" fill="#bfcbfe"/>
        <path id="Trazado_209222" data-name="Trazado 209222" d="M115.322,199.4l2.186-.17.1-.217-2.187.176Z" transform="translate(-38.22 -65.957)" fill="#bfcbfe"/>
        <path id="Trazado_209223" data-name="Trazado 209223" d="M115.949,199.916l1.592-.116.1-.217-1.593.12Z" transform="translate(-38.428 -66.146)" fill="#bfcbfe"/>
        <path id="Trazado_209224" data-name="Trazado 209224" d="M114.8,200.571l.8-.055.1-.214-.8.057Z" transform="translate(-38.048 -66.385)" fill="#bfcbfe"/>
        <path id="Trazado_209225" data-name="Trazado 209225" d="M114.631,201.134l.6-.038.1-.215-.6.04Z" transform="translate(-37.991 -66.577)" fill="#bfcbfe"/>
        <path id="Trazado_209226" data-name="Trazado 209226" d="M113.992,202.319l1.96-.1c.062,0,.188-.172.282-.377s.119-.367.057-.364l-1.963.118c-.059,0-.181.168-.274.366s-.122.359-.063.356" transform="translate(-37.769 -66.775)" fill="#f2b134"/>
        <path id="Trazado_209227" data-name="Trazado 209227" d="M110.29,204.815l.171,0,1.232-2.611-.172.01Z" transform="translate(-36.553 -67.014)" fill="#acbdfc"/>
        <path id="Trazado_209228" data-name="Trazado 209228" d="M109.978,205.168l.17,0,.9-1.912-.171.009Z" transform="translate(-36.449 -67.362)" fill="#acbdfc"/>
        <path id="Trazado_209229" data-name="Trazado 209229" d="M109.838,204.575l1.478-3.116-.17.009-1.476,3.11Z" transform="translate(-36.347 -66.768)" fill="#acbdfc"/>
        <path id="Trazado_209230" data-name="Trazado 209230" d="M109.36,205.032l.168,0,1.051-2.215-.169.009Z" transform="translate(-36.244 -67.217)" fill="#acbdfc"/>
        <path id="Trazado_209231" data-name="Trazado 209231" d="M109.054,204.344l.168,0,1.718-3.617-.168.012Z" transform="translate(-36.143 -66.524)" fill="#acbdfc"/>
        <path id="Trazado_209232" data-name="Trazado 209232" d="M108.749,204.746l.166,0,1.342-2.819-.168.01Z" transform="translate(-36.042 -66.922)" fill="#acbdfc"/>
        <path id="Trazado_209233" data-name="Trazado 209233" d="M108.446,204.289l.166,0,1.79-3.754-.167.012Z" transform="translate(-35.941 -66.461)" fill="#acbdfc"/>
        <path id="Trazado_209234" data-name="Trazado 209234" d="M108.144,203.9l.164,0,2.18-4.562-.166.014Z" transform="translate(-35.842 -66.063)" fill="#acbdfc"/>
        <path id="Trazado_209235" data-name="Trazado 209235" d="M107.845,204.206l.164,0,1.89-3.949-.165.012Z" transform="translate(-35.742 -66.369)" fill="#acbdfc"/>
        <path id="Trazado_209236" data-name="Trazado 209236" d="M105.214,204.671l.156,0,1.52-3.129-.157.01Z" transform="translate(-34.87 -66.795)" fill="#acbdfc"/>
        <path id="Trazado_209237" data-name="Trazado 209237" d="M105.5,205.155l.157,0,1.037-2.139-.158.009Z" transform="translate(-34.965 -67.283)" fill="#acbdfc"/>
        <path id="Trazado_209238" data-name="Trazado 209238" d="M105.786,204.967l.158,0,1.213-2.507-.158.009Z" transform="translate(-35.06 -67.099)" fill="#acbdfc"/>
        <path id="Trazado_209239" data-name="Trazado 209239" d="M106.074,205.416l.158,0,.768-1.588-.159.007Z" transform="translate(-35.155 -67.552)" fill="#acbdfc"/>
        <path id="Trazado_209240" data-name="Trazado 209240" d="M106.364,204.628l.159,0,1.527-3.163-.161.011Z" transform="translate(-35.252 -66.769)" fill="#acbdfc"/>
        <path id="Trazado_209241" data-name="Trazado 209241" d="M106.656,204.819l.16,0,1.332-2.766-.161.009Z" transform="translate(-35.348 -66.964)" fill="#acbdfc"/>
        <path id="Trazado_209242" data-name="Trazado 209242" d="M106.949,204.347l.161,0,1.782-3.7-.162.012Z" transform="translate(-35.445 -66.497)" fill="#acbdfc"/>
        <path id="Trazado_209243" data-name="Trazado 209243" d="M107.244,203.934l.162,0,2.173-4.524-.164.013Z" transform="translate(-35.543 -66.088)" fill="#acbdfc"/>
        <path id="Trazado_209244" data-name="Trazado 209244" d="M107.54,204.655l.163,0,1.466-3.057L109,201.6Z" transform="translate(-35.641 -66.813)" fill="#acbdfc"/>
        <path id="Trazado_209245" data-name="Trazado 209245" d="M116.665,199.326l7.875-17.5-1.633.338-7.841,17.168Z" transform="translate(-38.136 -60.262)" fill="#6fc6d2"/>
        <path id="Trazado_209246" data-name="Trazado 209246" d="M125.535,185.537l.7-.122.846-1.873-.7.137Z" transform="translate(-41.605 -60.83)" fill="#fdf3fd"/>
        <path id="Trazado_209247" data-name="Trazado 209247" d="M125.813,187.977l.2-.032.332-.737-.2.033Z" transform="translate(-41.697 -62.045)" fill="#fffeff"/>
        <path id="Trazado_209248" data-name="Trazado 209248" d="M124.131,188.177l1.092-.175.332-.735-1.092.185Z" transform="translate(-41.14 -62.064)" fill="#fffeff"/>
        <path id="Trazado_209249" data-name="Trazado 209249" d="M123.76,189.259l1.322-.2.074-.165-1.322.206Z" transform="translate(-41.017 -62.602)" fill="#fffeff"/>
        <path id="Trazado_209250" data-name="Trazado 209250" d="M123.335,190.2l1.321-.195.075-.166-1.321.2Z" transform="translate(-40.876 -62.915)" fill="#fffeff"/>
        <path id="Trazado_209251" data-name="Trazado 209251" d="M124.795,190.878c-.029.064-.035.114-.014.11s.062-.057.091-.121.035-.113.013-.11-.062.057-.09.121" transform="translate(-41.351 -63.221)" fill="#fffeff"/>
        <path id="Trazado_209252" data-name="Trazado 209252" d="M124.646,190.9c-.029.064-.035.113-.014.11s.062-.058.091-.121.035-.113.013-.11-.062.057-.09.121" transform="translate(-41.302 -63.228)" fill="#fffeff"/>
        <path id="Trazado_209253" data-name="Trazado 209253" d="M124.5,190.92c-.029.064-.035.113-.014.11s.062-.057.091-.121.035-.113.013-.11-.062.057-.09.121" transform="translate(-41.253 -63.235)" fill="#fffeff"/>
        <path id="Trazado_209254" data-name="Trazado 209254" d="M124.351,190.94c-.029.064-.035.113-.014.11s.062-.057.09-.121.035-.113.014-.11-.062.057-.09.12" transform="translate(-41.204 -63.242)" fill="#fffeff"/>
        <path id="Trazado_209255" data-name="Trazado 209255" d="M124.2,190.961c-.029.064-.035.113-.014.11s.062-.057.09-.12.035-.113.014-.11-.062.057-.09.12" transform="translate(-41.155 -63.249)" fill="#fffeff"/>
        <path id="Trazado_209256" data-name="Trazado 209256" d="M124.057,190.982c-.029.064-.035.112-.014.11s.061-.057.09-.12.035-.112.014-.11-.062.057-.09.12" transform="translate(-41.107 -63.256)" fill="#fffeff"/>
        <path id="Trazado_209257" data-name="Trazado 209257" d="M123.911,191c-.029.064-.035.112-.014.11s.061-.057.09-.12.035-.112.014-.11-.061.057-.09.12" transform="translate(-41.058 -63.263)" fill="#fffeff"/>
        <path id="Trazado_209258" data-name="Trazado 209258" d="M123.764,191.023c-.029.064-.035.112-.014.11s.061-.057.09-.12.035-.112.014-.11-.061.057-.09.12" transform="translate(-41.009 -63.27)" fill="#fffeff"/>
        <path id="Trazado_209259" data-name="Trazado 209259" d="M123.619,191.045c-.029.064-.035.112-.015.11s.062-.057.09-.12.035-.112.014-.109-.061.057-.09.12" transform="translate(-40.961 -63.277)" fill="#fffeff"/>
        <path id="Trazado_209260" data-name="Trazado 209260" d="M123.473,191.065c-.029.064-.035.112-.015.109s.061-.056.09-.12.035-.112.014-.109-.061.057-.09.12" transform="translate(-40.913 -63.284)" fill="#fffeff"/>
        <path id="Trazado_209261" data-name="Trazado 209261" d="M123.328,191.086c-.029.064-.035.112-.015.109s.061-.056.09-.12.035-.112.015-.109-.061.057-.09.12" transform="translate(-40.865 -63.291)" fill="#fffeff"/>
        <path id="Trazado_209262" data-name="Trazado 209262" d="M124.494,191.544c-.029.064-.035.114-.014.111s.062-.057.091-.122.035-.114.014-.11-.062.057-.091.121" transform="translate(-41.251 -63.442)" fill="#fffeff"/>
        <path id="Trazado_209263" data-name="Trazado 209263" d="M124.346,191.564c-.029.064-.035.114-.014.111s.062-.057.091-.122.035-.113.013-.11-.062.057-.09.121" transform="translate(-41.202 -63.449)" fill="#fffeff"/>
        <path id="Trazado_209264" data-name="Trazado 209264" d="M124.2,191.585c-.029.064-.035.114-.014.11s.062-.057.09-.121.035-.113.014-.11-.062.057-.09.121" transform="translate(-41.153 -63.456)" fill="#fffeff"/>
        <path id="Trazado_209265" data-name="Trazado 209265" d="M124.051,191.6c-.029.064-.035.114-.014.11s.062-.057.09-.121.035-.113.014-.11-.062.057-.09.121" transform="translate(-41.105 -63.462)" fill="#fffeff"/>
        <path id="Trazado_209266" data-name="Trazado 209266" d="M123.9,191.625c-.029.064-.035.113-.014.11s.062-.057.09-.121.035-.113.014-.11-.062.057-.09.121" transform="translate(-41.056 -63.469)" fill="#fffeff"/>
        <path id="Trazado_209267" data-name="Trazado 209267" d="M123.757,191.645c-.029.064-.035.113-.014.11s.061-.057.09-.12.035-.114.014-.11-.062.057-.09.12" transform="translate(-41.007 -63.476)" fill="#fffeff"/>
        <path id="Trazado_209268" data-name="Trazado 209268" d="M123.61,191.664c-.029.064-.035.113-.015.11s.062-.057.09-.12.035-.113.015-.11-.062.057-.09.12" transform="translate(-40.958 -63.482)" fill="#fffeff"/>
        <path id="Trazado_209269" data-name="Trazado 209269" d="M123.464,191.684c-.029.064-.036.113-.015.11s.062-.057.09-.12.035-.113.015-.11-.061.057-.09.12" transform="translate(-40.91 -63.489)" fill="#fffeff"/>
        <path id="Trazado_209270" data-name="Trazado 209270" d="M123.319,191.7c-.029.063-.035.113-.015.11s.062-.056.09-.12.035-.113.014-.11-.061.057-.09.12" transform="translate(-40.862 -63.495)" fill="#fffeff"/>
        <path id="Trazado_209271" data-name="Trazado 209271" d="M123.173,191.725c-.029.064-.035.113-.015.11s.061-.056.09-.12.035-.113.015-.11-.061.056-.09.12" transform="translate(-40.813 -63.502)" fill="#fffeff"/>
        <path id="Trazado_209272" data-name="Trazado 209272" d="M123.028,191.745c-.029.064-.035.112-.015.11s.061-.056.09-.12.035-.113.015-.11-.061.056-.09.12" transform="translate(-40.765 -63.509)" fill="#fffeff"/>
        <path id="Trazado_209273" data-name="Trazado 209273" d="M121.575,194.144l1.016-.116c.081-.009.237-.218.348-.465s.136-.439.055-.429l-1.017.126c-.078.01-.232.215-.343.458s-.138.435-.06.426" transform="translate(-40.278 -64.009)" fill="#fff"/>
        <path id="Trazado_209274" data-name="Trazado 209274" d="M359.1,54.641a13.957,13.957,0,0,0-5.462-2.084c-.168-.036-.319-.071-.479-.106V49.044a3.154,3.154,0,0,1,1.106.429,2.647,2.647,0,0,1,.61.558,2.021,2.021,0,0,0,1.93.775l.681-.12a1.818,1.818,0,0,0,1.061-3.051,5.774,5.774,0,0,0-1.085-.9,9.124,9.124,0,0,0-4.3-1.138V41.4a1.168,1.168,0,0,0-2.335,0v4.182a8.283,8.283,0,0,0-4.9,1.54,4.831,4.831,0,0,0-1.9,3.868,4.511,4.511,0,0,0,2.195,3.985,17.465,17.465,0,0,0,4.6,1.616v3.935a3.468,3.468,0,0,1-1.289-.557,3.072,3.072,0,0,1-.8-.875,2.007,2.007,0,0,0-1.994-.979l-.86.125a1.818,1.818,0,0,0-1.239,2.928,7.144,7.144,0,0,0,1.59,1.427A9.591,9.591,0,0,0,350.823,64v4.215a1.168,1.168,0,0,0,2.335,0V64.036a8.971,8.971,0,0,0,5.348-1.725,5.266,5.266,0,0,0,2.125-4.185,4.246,4.246,0,0,0-1.533-3.485m-10.035-3.4a1.027,1.027,0,0,1-.487-.85,1.1,1.1,0,0,1,.558-.951,4.084,4.084,0,0,1,1.689-.461v2.9a7.036,7.036,0,0,1-1.76-.64m6.011,8.769a4.105,4.105,0,0,1-1.916.617V57.133c.193.042.374.084.575.126a4,4,0,0,1,1.637.617,1.2,1.2,0,0,1,.348.884,1.468,1.468,0,0,1-.645,1.25" transform="translate(-114.019 -13.351)" fill="#31728d"/>
      </g>
    </g>
  </g>
</svg>
