<svg xmlns="http://www.w3.org/2000/svg" width="129.796" height="148.295" viewBox="0 0 129.796 148.295">
  <g id="informacion-personal" transform="translate(-31)">
    <path id="Trazado_209058" data-name="Trazado 209058" d="M296.362,403h-11.82L271,375.78l44.757,9.315v8.951Z" transform="translate(-168.389 -263.654)" fill="#a2abb8"/>
    <path id="Trazado_209059" data-name="Trazado 209059" d="M356,445.951h14.919a4.489,4.489,0,0,0,4.476-4.476V437H356Z" transform="translate(-228.026 -306.607)" fill="#c8d2dc"/>
    <path id="Trazado_209060" data-name="Trazado 209060" d="M245.152,46.7h16.411a4.489,4.489,0,0,1,4.476,4.476v98.555a4.489,4.489,0,0,1-4.476,4.476H185.476A4.489,4.489,0,0,1,181,149.731V117.8Z" transform="translate(-105.243 -32.766)" fill="#e9edf1"/>
    <path id="Trazado_209061" data-name="Trazado 209061" d="M185.476,46.7H243.66v82.791a4.489,4.489,0,0,1-4.476,4.476H227.249v20.24H218.3L181,51.176a4.489,4.489,0,0,1,4.476-4.476Z" transform="translate(-105.243 -32.766)" fill="#c8d2dc"/>
    <g id="Grupo_147523" data-name="Grupo 147523" transform="translate(113.801 33.568)">
      <path id="Trazado_209062" data-name="Trazado 209062" d="M342.068,341.976h-31.33a2.238,2.238,0,1,1,0-4.476h31.33a2.238,2.238,0,1,1,0,4.476Z" transform="translate(-308.5 -270.364)" fill="#a2abb8"/>
      <path id="Trazado_209063" data-name="Trazado 209063" d="M342.068,296.976h-31.33a2.238,2.238,0,1,1,0-4.476h31.33a2.238,2.238,0,1,1,0,4.476Z" transform="translate(-308.5 -238.791)" fill="#a2abb8"/>
      <path id="Trazado_209064" data-name="Trazado 209064" d="M342.068,251.976h-31.33a2.238,2.238,0,1,1,0-4.476h31.33a2.238,2.238,0,1,1,0,4.476Z" transform="translate(-308.5 -207.219)" fill="#a2abb8"/>
      <path id="Trazado_209065" data-name="Trazado 209065" d="M342.068,206.976h-31.33a2.238,2.238,0,0,1,0-4.476h31.33a2.238,2.238,0,0,1,0,4.476Z" transform="translate(-308.5 -175.646)" fill="#a2abb8"/>
      <path id="Trazado_209066" data-name="Trazado 209066" d="M342.068,161.976h-31.33a2.238,2.238,0,0,1,0-4.476h31.33a2.238,2.238,0,1,1,0,4.476Z" transform="translate(-308.5 -144.073)" fill="#a2abb8"/>
      <path id="Trazado_209067" data-name="Trazado 209067" d="M342.068,116.976h-31.33a2.238,2.238,0,0,1,0-4.476h31.33a2.238,2.238,0,0,1,0,4.476Z" transform="translate(-308.5 -112.5)" fill="#a2abb8"/>
    </g>
    <path id="Trazado_209068" data-name="Trazado 209068" d="M35.476,91.7A4.489,4.489,0,0,0,31,96.176V210.289a2.352,2.352,0,0,0,2.345,2.345h80.348a2.352,2.352,0,0,0,2.345-2.345v-3.622Z" transform="translate(0 -64.338)" fill="#ffd064"/>
    <path id="Trazado_209069" data-name="Trazado 209069" d="M62.411,91.7H46V204.536a2.137,2.137,0,0,0,2.13,2.13h78.432V159.82Z" transform="translate(-10.524 -64.338)" fill="#fff0af"/>
    <path id="Trazado_209070" data-name="Trazado 209070" d="M160.676,91.7H101v63.645a4.489,4.489,0,0,0,4.476,4.476h59.676V96.176A4.489,4.489,0,0,0,160.676,91.7Z" transform="translate(-49.113 -64.338)" fill="#ffd064"/>
    <path id="Trazado_209071" data-name="Trazado 209071" d="M192.611,89.514H125.476A4.489,4.489,0,0,1,121,85.039V4.476A4.489,4.489,0,0,1,125.476,0h67.136a4.489,4.489,0,0,1,4.476,4.476V85.039A4.489,4.489,0,0,1,192.611,89.514Z" transform="translate(-63.146)" fill="#dce7ef"/>
    <path id="Trazado_209072" data-name="Trazado 209072" d="M189.781,182.544c-2.72,1.98-16.658,1.98-19.378,0-4.746,6.4-19.4,2.914-19.4,18.321v7.3a.474.474,0,0,0,.474.474H208.71a.474.474,0,0,0,.474-.474v-7.3C209.184,185.458,194.527,188.94,189.781,182.544Z" transform="translate(-84.194 -128.076)" fill="#81a9c8"/>
    <path id="Trazado_209073" data-name="Trazado 209073" d="M235.406,170.749a8.1,8.1,0,0,1-1.466-5.016H217.494a8.1,8.1,0,0,1-1.466,5.016,16.47,16.47,0,0,0,19.378,0Z" transform="translate(-129.819 -116.281)" fill="#4980ac"/>
    <path id="Trazado_209074" data-name="Trazado 209074" d="M226.225,48.183a16.483,16.483,0,0,0-32.966,0V57.41a16.483,16.483,0,0,0,32.966,0Z" transform="translate(-113.844 -22.241)" fill="#81a9c8"/>
  </g>
</svg>
