<svg id="Grupo_147874" data-name="Grupo 147874" xmlns="http://www.w3.org/2000/svg" xmlns:xlink="http://www.w3.org/1999/xlink" width="124.041" height="132.789" viewBox="0 0 124.041 132.789">
  <defs>
    <clipPath id="clip-path">
      <rect id="Rectángulo_39102" data-name="Rectángulo 39102" width="124.041" height="132.789" fill="none"/>
    </clipPath>
  </defs>
  <g id="Grupo_147874-2" data-name="Grupo 147874" clip-path="url(#clip-path)">
    <path id="Trazado_211304" data-name="Trazado 211304" d="M105.875,114.625q-.531.531-1.071,1.043a61.947,61.947,0,1,1,1.071-1.043" fill="#a7ddda"/>
    <path id="Trazado_211305" data-name="Trazado 211305" d="M105.875,26.915l-50.6,50.6L47.1,85.685l-4.944,4.944L32.045,100.745l-13.88,13.88a62.02,62.02,0,0,1,87.71-87.71" fill="#039d95"/>
    <path id="Trazado_211306" data-name="Trazado 211306" d="M109.224,97.2H59.55V83.931A20.4,20.4,0,0,1,79.925,63.556h8.924a20.4,20.4,0,0,1,20.375,20.375Zm-46.7-2.973h43.729V83.931a17.423,17.423,0,0,0-17.4-17.4H79.925a17.422,17.422,0,0,0-17.4,17.4Z" fill="#2f373b"/>
    <path id="Trazado_211307" data-name="Trazado 211307" d="M99.7,120.037l-3.525,2.512s-6.629,3.9-9,4.983a80.485,80.485,0,0,1-11.36,3.772l-4.7.821a58.35,58.35,0,0,1-6.648.618l-.009-1.868a15.017,15.017,0,0,1,6.432-12.332c.062-.042.123-.085.187-.127a14.865,14.865,0,0,1,3.416-1.724c.352-.123.711-.236,1.073-.333.011,0,.022-.007.032-.009.233-.063.471-.121.711-.172a14.946,14.946,0,0,1,1.955-.288c.407-.034.816-.051,1.232-.051h9.791a15.062,15.062,0,0,1,3.187.339c.06.011.119.026.179.039.171.04.345.082.515.129l.013,0a14.955,14.955,0,0,1,4.669,2.167,5.646,5.646,0,0,1,1.858,1.522" fill="#2f373b"/>
    <path id="Trazado_211308" data-name="Trazado 211308" d="M93.215,116.179l-.038.17-2.942,9.728s-3.117,1.574-4.14,1.99c-1.343.546-5.324,1.86-5.324,1.86a14.161,14.161,0,0,1-1.969.647l-3.208-14.223-.036-.172Z" fill="#f2efea"/>
    <path id="Trazado_211309" data-name="Trazado 211309" d="M84.385,122l-6.769,3.762-2.059-9.578,4.206-2.477" fill="#d8d4ce"/>
    <path id="Trazado_211310" data-name="Trazado 211310" d="M84.385,122l6.769,3.762,2.059-9.578L89.007,113.7" fill="#d8d4ce"/>
    <path id="Trazado_211311" data-name="Trazado 211311" d="M89.751,110.048v6.583a5.364,5.364,0,0,1-10.729,0v-6.583Z" fill="#eaa27f"/>
    <path id="Trazado_211312" data-name="Trazado 211312" d="M89.751,116.215v.417a5.364,5.364,0,0,1-3.778,5.124,5.361,5.361,0,0,1-3.734-4.426c.358.022.719.033,1.081.033a18.507,18.507,0,0,0,6.431-1.148" fill="#f6ba97"/>
    <path id="Trazado_211313" data-name="Trazado 211313" d="M97.846,118.516,96.3,122.46l-6.07,3.617,2.93-9.73.05-.168Z" fill="#151a1c"/>
    <path id="Trazado_211314" data-name="Trazado 211314" d="M74.2,131.586,73.1,129.1h2.148l-4.366-10.561-.011-.028.2-.1,3.416-1.724,1.018-.514.051.168,0,.013,4.17,13.954s-2.193.621-2.924.789c-.653.15-2.611.484-2.611.484" fill="#151a1c"/>
    <path id="Trazado_211315" data-name="Trazado 211315" d="M69.671,99.259a4.986,4.986,0,1,1-4.19-4.925,4.99,4.99,0,0,1,4.19,4.925" fill="#f6ba97"/>
    <path id="Trazado_211316" data-name="Trazado 211316" d="M69.671,99.259a4.99,4.99,0,0,1-4.19,4.925,18.651,18.651,0,0,1,0-9.85,4.989,4.989,0,0,1,4.19,4.925" fill="#eaa27f"/>
    <path id="Trazado_211317" data-name="Trazado 211317" d="M64.683,97.475A1.783,1.783,0,1,1,62.9,99.258a1.783,1.783,0,0,1,1.783-1.783" fill="#eaa27f"/>
    <path id="Trazado_211318" data-name="Trazado 211318" d="M99.1,99.259a4.986,4.986,0,1,0,4.19-4.925,4.99,4.99,0,0,0-4.19,4.925" fill="#f6ba97"/>
    <path id="Trazado_211319" data-name="Trazado 211319" d="M99.1,99.259a4.99,4.99,0,0,0,4.19,4.925,18.651,18.651,0,0,0,0-9.85,4.989,4.989,0,0,0-4.19,4.925" fill="#eaa27f"/>
    <path id="Trazado_211320" data-name="Trazado 211320" d="M104.09,97.475a1.783,1.783,0,1,1-1.783,1.783,1.783,1.783,0,0,1,1.783-1.783" fill="#eaa27f"/>
    <path id="Trazado_211321" data-name="Trazado 211321" d="M102.948,96.607A18.55,18.55,0,1,1,87.366,78.285a18.563,18.563,0,0,1,15.582,18.322" fill="#eaa27f"/>
    <path id="Trazado_211322" data-name="Trazado 211322" d="M102.948,96.607a18.563,18.563,0,0,1-15.582,18.322,18.563,18.563,0,0,1,0-36.644,18.569,18.569,0,0,1,15.491,16.472c.06.608.091,1.227.091,1.85" fill="#f6ba97"/>
    <path id="Trazado_211323" data-name="Trazado 211323" d="M84.387,105.749a9.379,9.379,0,0,1-4.525-1.168.826.826,0,1,1,.795-1.447,7.709,7.709,0,0,0,7.459,0,.826.826,0,1,1,.8,1.447,9.391,9.391,0,0,1-4.525,1.168" fill="#eaa27f"/>
    <path id="Trazado_211324" data-name="Trazado 211324" d="M102.857,94.757l-4.219,1.306-.309-2.052-.249-1.658L96.9,84.479H82.822L78.3,82.385a18.525,18.525,0,0,1,9.021-4.15c7,1.126,10.178-4.105,12.264,2.522.163.523,1.864-2.441,1.981-1.9.156.7,1.224,15.172,1.3,15.9" fill="#ffb133"/>
    <path id="Trazado_211325" data-name="Trazado 211325" d="M102.049,68.263A11.465,11.465,0,0,1,85.835,84.477Z" fill="#ffd833"/>
    <path id="Trazado_211326" data-name="Trazado 211326" d="M85.835,84.477H71.763L70.02,96.062,65.8,94.756,66.367,83.4A11.251,11.251,0,0,1,77.646,72.713l20.323.077,2.686,4.836" fill="#ffd833"/>
    <path id="Trazado_211327" data-name="Trazado 211327" d="M85.473,72.743A11.25,11.25,0,0,0,75.05,83.4L75,84.478H71.762L70.02,96.063,65.8,94.756,66.367,83.4A11.251,11.251,0,0,1,77.646,72.714Z" fill="#ffb133"/>
    <path id="Trazado_211328" data-name="Trazado 211328" d="M78.328,93.421a2.106,2.106,0,1,1-2.106,2.106,2.106,2.106,0,0,1,2.106-2.106" fill="#2f373b"/>
    <path id="Trazado_211329" data-name="Trazado 211329" d="M90.445,93.421a2.106,2.106,0,1,1-2.106,2.106,2.106,2.106,0,0,1,2.106-2.106" fill="#2f373b"/>
    <path id="Trazado_211330" data-name="Trazado 211330" d="M79.1,94.253a.9.9,0,1,1-.9.9.9.9,0,0,1,.9-.9" fill="#fff"/>
    <path id="Trazado_211331" data-name="Trazado 211331" d="M91.323,94.253a.9.9,0,1,1-.9.9.9.9,0,0,1,.9-.9" fill="#fff"/>
    <path id="Trazado_211332" data-name="Trazado 211332" d="M86.492,100.828H82.281a.909.909,0,0,1,0-1.817h4.211a.909.909,0,0,1,0,1.817" fill="#eaa27f"/>
    <path id="Trazado_211333" data-name="Trazado 211333" d="M104.846,110.177H97.217v-1.982h7.629a1.523,1.523,0,0,0,1.522-1.522v-4.616h1.982v4.616a3.508,3.508,0,0,1-3.5,3.5" fill="#2f373b"/>
    <rect id="Rectángulo_39098" data-name="Rectángulo 39098" width="7.351" height="11.711" transform="translate(56.909 92.004)" fill="#e6e6e6"/>
    <rect id="Rectángulo_39099" data-name="Rectángulo 39099" width="7.351" height="4.294" transform="translate(56.909 99.421)" fill="#ccc"/>
    <path id="Trazado_211334" data-name="Trazado 211334" d="M65.838,91.695v12.329a1.577,1.577,0,1,1-3.155,0V91.695a1.578,1.578,0,0,1,3.155,0" fill="#0c85a5"/>
    <path id="Trazado_211335" data-name="Trazado 211335" d="M65.838,91.695v7.223a1.577,1.577,0,0,1-3.155,0V91.695a1.578,1.578,0,0,1,3.155,0" fill="#1da2dd"/>
    <rect id="Rectángulo_39100" data-name="Rectángulo 39100" width="7.351" height="11.711" transform="translate(104.579 92.004)" fill="#e6e6e6"/>
    <rect id="Rectángulo_39101" data-name="Rectángulo 39101" width="7.351" height="4.294" transform="translate(104.579 99.421)" fill="#ccc"/>
    <path id="Trazado_211336" data-name="Trazado 211336" d="M103,91.695v12.329a1.577,1.577,0,1,0,3.154,0V91.695a1.577,1.577,0,0,0-3.154,0" fill="#0c85a5"/>
    <path id="Trazado_211337" data-name="Trazado 211337" d="M103,91.695v7.223a1.577,1.577,0,1,0,3.154,0V91.695a1.577,1.577,0,0,0-3.154,0" fill="#1da2dd"/>
    <path id="Trazado_211338" data-name="Trazado 211338" d="M101.011,109.038v.3a2,2,0,0,1-.235.947,2.03,2.03,0,0,1-1.8,1.083H95.454a2.029,2.029,0,0,1-2.029-2.03v-.3a2.032,2.032,0,0,1,1.847-2.023c.06,0,.121-.008.182-.008H98.98a2.032,2.032,0,0,1,2.031,2.031" fill="#ccc"/>
    <path id="Trazado_211339" data-name="Trazado 211339" d="M101.011,109.038v.3a2,2,0,0,1-.235.947c-.059,0-.12.008-.181.008H97.067a2.031,2.031,0,0,1-2.029-2.03v-.3a2.015,2.015,0,0,1,.234-.947c.06,0,.121-.008.182-.008H98.98a2.032,2.032,0,0,1,2.031,2.031" fill="#e6e6e6"/>
    <path id="Trazado_211340" data-name="Trazado 211340" d="M48.244,10.647A10.638,10.638,0,1,1,41.221.633a10.652,10.652,0,0,1,7.023,10.014" fill="#dd104f"/>
    <path id="Trazado_211341" data-name="Trazado 211341" d="M48.212,9.814A24.79,24.79,0,0,0,34.63,7.633a10.671,10.671,0,0,1,6.591-7,10.655,10.655,0,0,1,6.991,9.181" fill="#f71c55"/>
    <path id="Trazado_211342" data-name="Trazado 211342" d="M56.167,76.634c-9.837,9.386-28.339,28.62-38,37.991a60.626,60.626,0,0,1-6.237-7.273l-.011-15.614A19.4,19.4,0,0,1,21.662,74.9a19.171,19.171,0,0,1,5.116-2.036,18.811,18.811,0,0,1,2.966-.473c.525-.044,1.052-.066,1.588-.066H43.974a19.44,19.44,0,0,1,4.346.487l.207.049A19.271,19.271,0,0,1,53.644,74.9a19.045,19.045,0,0,1,2.523,1.733" fill="#512375"/>
    <path id="Trazado_211343" data-name="Trazado 211343" d="M56.167,76.634A66.6,66.6,0,0,1,21.831,94.07V91.738A19.416,19.416,0,0,1,41.249,72.326h2.725a19.321,19.321,0,0,1,12.193,4.308" fill="#673389"/>
    <path id="Trazado_211344" data-name="Trazado 211344" d="M44.578,64.849v8.5a6.926,6.926,0,0,1-13.852,0v-8.5Z" fill="#eaa27f"/>
    <path id="Trazado_211345" data-name="Trazado 211345" d="M44.578,72.81v.538A6.925,6.925,0,0,1,39.7,79.964a6.923,6.923,0,0,1-4.821-5.714q.694.043,1.395.043a23.962,23.962,0,0,0,8.3-1.483" fill="#f6ba97"/>
    <path id="Trazado_211346" data-name="Trazado 211346" d="M18.34,50.918a6.433,6.433,0,1,1-5.409-6.359,6.441,6.441,0,0,1,5.409,6.359" fill="#f6ba97"/>
    <path id="Trazado_211347" data-name="Trazado 211347" d="M18.34,50.918a6.441,6.441,0,0,1-5.409,6.358,24.067,24.067,0,0,1,0-12.716,6.441,6.441,0,0,1,5.409,6.358" fill="#eaa27f"/>
    <path id="Trazado_211348" data-name="Trazado 211348" d="M11.9,48.616a2.3,2.3,0,1,1-2.3,2.3,2.3,2.3,0,0,1,2.3-2.3" fill="#eaa27f"/>
    <path id="Trazado_211349" data-name="Trazado 211349" d="M56.964,50.918a6.433,6.433,0,1,0,5.409-6.359,6.441,6.441,0,0,0-5.409,6.359" fill="#f6ba97"/>
    <path id="Trazado_211350" data-name="Trazado 211350" d="M56.964,50.918a6.441,6.441,0,0,0,5.409,6.358,24.067,24.067,0,0,0,0-12.716,6.441,6.441,0,0,0-5.409,6.358" fill="#eaa27f"/>
    <path id="Trazado_211351" data-name="Trazado 211351" d="M63.4,48.616a2.3,2.3,0,1,1-2.3,2.3,2.3,2.3,0,0,1,2.3-2.3" fill="#eaa27f"/>
    <path id="Trazado_211352" data-name="Trazado 211352" d="M61.617,38.37V47.5A23.965,23.965,0,0,1,41.5,71.15l-.117.019a23.616,23.616,0,0,1-3.729.29A23.964,23.964,0,0,1,13.688,47.5V38.37A23.951,23.951,0,0,1,37.652,14.4h0A23.948,23.948,0,0,1,61.617,38.37" fill="#eaa27f"/>
    <path id="Trazado_211353" data-name="Trazado 211353" d="M61.617,38.37V47.5A23.965,23.965,0,0,1,41.5,71.15l-.117.019A23.966,23.966,0,0,1,21.151,47.5V38.37A23.968,23.968,0,0,1,41.385,14.695,23.968,23.968,0,0,1,61.617,38.37" fill="#f6ba97"/>
    <path id="Trazado_211354" data-name="Trazado 211354" d="M50.978,50.8a2.985,2.985,0,1,1-2.985,2.985A2.984,2.984,0,0,1,50.978,50.8" fill="#eaa27f"/>
    <path id="Trazado_211355" data-name="Trazado 211355" d="M24.326,50.8a2.985,2.985,0,1,1-2.985,2.985A2.984,2.984,0,0,1,24.326,50.8" fill="#eaa27f"/>
    <path id="Trazado_211356" data-name="Trazado 211356" d="M50.522,45.472a3.98,3.98,0,1,0-7.96,0" fill="#eaa27f"/>
    <path id="Trazado_211357" data-name="Trazado 211357" d="M32.745,45.472a3.98,3.98,0,0,0-7.96,0" fill="#eaa27f"/>
    <path id="Trazado_211358" data-name="Trazado 211358" d="M28.765,44.448a2.718,2.718,0,1,1-2.719,2.719,2.719,2.719,0,0,1,2.719-2.719" fill="#2f373b"/>
    <path id="Trazado_211359" data-name="Trazado 211359" d="M46.541,44.448a2.718,2.718,0,1,1-2.719,2.719,2.719,2.719,0,0,1,2.719-2.719" fill="#2f373b"/>
    <path id="Trazado_211360" data-name="Trazado 211360" d="M40.371,54.011H34.934a1.173,1.173,0,1,1,0-2.345h5.437a1.173,1.173,0,1,1,0,2.345" fill="#eaa27f"/>
    <path id="Trazado_211361" data-name="Trazado 211361" d="M37.653,61.43a12.111,12.111,0,0,1-5.843-1.509,1.066,1.066,0,0,1,1.027-1.868,9.948,9.948,0,0,0,9.631,0,1.066,1.066,0,1,1,1.027,1.868,12.1,12.1,0,0,1-5.842,1.509" fill="#eaa27f"/>
    <path id="Trazado_211362" data-name="Trazado 211362" d="M29.764,45.521A1.166,1.166,0,1,1,28.6,46.687a1.166,1.166,0,0,1,1.165-1.166" fill="#fff"/>
    <path id="Trazado_211363" data-name="Trazado 211363" d="M62.372,35.367V44.56c-15.789-1.339-24.72-9.749-24.72-17.211,0,7.462-8.932,15.872-24.721,17.211V35.367a24.721,24.721,0,0,1,49.441,0" fill="#f71c55"/>
    <path id="Trazado_211364" data-name="Trazado 211364" d="M41.65,10.972a24.721,24.721,0,0,0-20.722,24.4v7.787a43.551,43.551,0,0,1-8,1.405V35.368a24.728,24.728,0,0,1,28.718-24.4" fill="#dd104f"/>
    <path id="Trazado_211365" data-name="Trazado 211365" d="M47.674,45.521a1.166,1.166,0,1,1-1.165,1.166,1.166,1.166,0,0,1,1.165-1.166" fill="#fff"/>
  </g>
</svg>
