<svg id="Grupo_147872" data-name="Grupo 147872" xmlns="http://www.w3.org/2000/svg" xmlns:xlink="http://www.w3.org/1999/xlink" width="124.041" height="124.04" viewBox="0 0 124.041 124.04">
  <defs>
    <clipPath id="clip-path">
      <rect id="Rectángulo_39097" data-name="Rectángulo 39097" width="124.041" height="124.04" transform="translate(0 0)" fill="none"/>
    </clipPath>
  </defs>
  <g id="Grupo_147873" data-name="Grupo 147873" clip-path="url(#clip-path)">
    <path id="Trazado_211242" data-name="Trazado 211242" d="M105.875,105.876q-.531.531-1.071,1.043a61.947,61.947,0,1,1,1.071-1.043" fill="#039d95"/>
    <path id="Trazado_211243" data-name="Trazado 211243" d="M105.875,18.166l-50.6,50.6L47.1,76.936,42.161,81.88,32.045,92l-13.88,13.88a62.02,62.02,0,0,1,87.71-87.71" fill="#a7ddda"/>
    <path id="Trazado_211244" data-name="Trazado 211244" d="M65.371,40.155H6.075V24.322A24.349,24.349,0,0,1,30.4,0H41.049A24.35,24.35,0,0,1,65.371,24.322ZM9.623,36.607h52.2V24.322A20.8,20.8,0,0,0,41.049,3.549H30.4A20.8,20.8,0,0,0,9.623,24.322Z" fill="#2f373b"/>
    <path id="Trazado_211245" data-name="Trazado 211245" d="M55.272,68.77,33.322,90.72l-3.871,3.871L18.166,105.876A62.293,62.293,0,0,1,11.928,98.6V80.359a17.926,17.926,0,0,1,7.678-14.72c.074-.051.147-.1.223-.152a17.762,17.762,0,0,1,4.078-2.058c.421-.147.848-.281,1.281-.4.013,0,.026-.007.038-.01q.418-.114.848-.2a17.592,17.592,0,0,1,2.334-.344c.486-.041.975-.061,1.471-.061H41.567a17.913,17.913,0,0,1,3.8.405c.071.013.142.03.213.046.205.048.413.1.615.154a.022.022,0,0,1,.015,0,17.981,17.981,0,0,1,9.058,5.751" fill="#2f373b"/>
    <path id="Trazado_211246" data-name="Trazado 211246" d="M46.26,62.816l-.046.2L42.162,81.88,32.046,92c-.2-.015-.4-.03-.6-.048l-6.22-28.927-.043-.2Z" fill="#f2efea"/>
    <path id="Trazado_211247" data-name="Trazado 211247" d="M35.72,69.759,27.64,74.25,25.182,62.816l5.02-2.957" fill="#d8d4ce"/>
    <path id="Trazado_211248" data-name="Trazado 211248" d="M35.72,69.759,43.8,74.25l2.458-11.434-5.02-2.957" fill="#d8d4ce"/>
    <path id="Trazado_211249" data-name="Trazado 211249" d="M42.125,55.5v7.858a6.4,6.4,0,0,1-12.807,0V55.5Z" fill="#eaa27f"/>
    <path id="Trazado_211250" data-name="Trazado 211250" d="M42.125,62.859v.5a6.4,6.4,0,0,1-4.51,6.116,6.4,6.4,0,0,1-4.457-5.282q.642.039,1.29.039a22.122,22.122,0,0,0,7.677-1.371" fill="#f6ba97"/>
    <path id="Trazado_211251" data-name="Trazado 211251" d="M51.789,65.606,47.105,76.937l-7.076,7.075,6.17-21,.06-.2Z" fill="#151a1c"/>
    <path id="Trazado_211252" data-name="Trazado 211252" d="M33.321,90.72,29.45,94.591l-7.2-16.346h2.565L19.606,65.638l-.013-.033.235-.119,4.079-2.058,1.215-.612.06.2,0,.015Z" fill="#151a1c"/>
    <path id="Trazado_211253" data-name="Trazado 211253" d="M18.156,42.618a5.949,5.949,0,1,1-5-5.879,5.956,5.956,0,0,1,5,5.879" fill="#f6ba97"/>
    <path id="Trazado_211254" data-name="Trazado 211254" d="M18.156,42.618a5.956,5.956,0,0,1-5,5.879,22.27,22.27,0,0,1,0-11.758,5.956,5.956,0,0,1,5,5.879" fill="#eaa27f"/>
    <path id="Trazado_211255" data-name="Trazado 211255" d="M12.2,40.49a2.129,2.129,0,1,1-2.128,2.128A2.128,2.128,0,0,1,12.2,40.49" fill="#eaa27f"/>
    <path id="Trazado_211256" data-name="Trazado 211256" d="M53.287,42.618a5.949,5.949,0,1,0,5-5.879,5.956,5.956,0,0,0-5,5.879" fill="#f6ba97"/>
    <path id="Trazado_211257" data-name="Trazado 211257" d="M53.287,42.618a5.956,5.956,0,0,0,5,5.879,22.27,22.27,0,0,0,0-11.758,5.956,5.956,0,0,0-5,5.879" fill="#eaa27f"/>
    <path id="Trazado_211258" data-name="Trazado 211258" d="M59.242,40.49a2.129,2.129,0,1,1-2.128,2.128,2.128,2.128,0,0,1,2.128-2.128" fill="#eaa27f"/>
    <path id="Trazado_211259" data-name="Trazado 211259" d="M57.879,39.453a22.158,22.158,0,0,1-18.6,21.87,21.916,21.916,0,0,1-3.556.287,22.157,22.157,0,0,1,0-44.314,21.8,21.8,0,0,1,3.556.287,22.158,22.158,0,0,1,18.6,21.87" fill="#eaa27f"/>
    <path id="Trazado_211260" data-name="Trazado 211260" d="M57.879,39.453a22.158,22.158,0,0,1-18.6,21.87,22.158,22.158,0,0,1,0-43.74A22.163,22.163,0,0,1,57.77,37.244c.072.727.109,1.465.109,2.209" fill="#f6ba97"/>
    <path id="Trazado_211261" data-name="Trazado 211261" d="M35.722,50.366a11.2,11.2,0,0,1-5.4-1.4.986.986,0,1,1,.95-1.727,9.194,9.194,0,0,0,8.9,0,.985.985,0,0,1,.949,1.727,11.193,11.193,0,0,1-5.4,1.4" fill="#eaa27f"/>
    <path id="Trazado_211262" data-name="Trazado 211262" d="M57.77,37.244,52.733,38.8l-.368-2.45-.3-1.979-1.413-9.4h-16.8l-5.4-2.5A22.112,22.112,0,0,1,39.22,17.522c8.353,1.344,12.149-4.9,14.639,3.01.195.625,2.226-2.914,2.366-2.267.185.833,1.46,18.111,1.545,18.979" fill="#ffb133"/>
    <path id="Trazado_211263" data-name="Trazado 211263" d="M56.806,5.619A13.686,13.686,0,0,1,37.451,24.974Z" fill="#ffd833"/>
    <path id="Trazado_211264" data-name="Trazado 211264" d="M37.451,24.974h-16.8L18.573,38.8l-5.036-1.559.675-13.551A13.429,13.429,0,0,1,27.676,10.932l24.259.091L55.142,16.8" fill="#ffd833"/>
    <path id="Trazado_211265" data-name="Trazado 211265" d="M37.018,10.967A13.429,13.429,0,0,0,24.576,23.694l-.064,1.281h-3.86L18.571,38.8l-5.036-1.56.677-13.55A13.429,13.429,0,0,1,27.674,10.932Z" fill="#ffb133"/>
    <path id="Trazado_211266" data-name="Trazado 211266" d="M28.49,35.65a2.513,2.513,0,1,1-2.513,2.513A2.513,2.513,0,0,1,28.49,35.65" fill="#2f373b"/>
    <path id="Trazado_211267" data-name="Trazado 211267" d="M42.954,35.65a2.513,2.513,0,1,1-2.513,2.513,2.513,2.513,0,0,1,2.513-2.513" fill="#2f373b"/>
    <path id="Trazado_211268" data-name="Trazado 211268" d="M29.414,36.643a1.077,1.077,0,1,1-1.077,1.077,1.077,1.077,0,0,1,1.077-1.077" fill="#fff"/>
    <path id="Trazado_211269" data-name="Trazado 211269" d="M44,36.643a1.077,1.077,0,1,1-1.077,1.077A1.077,1.077,0,0,1,44,36.643" fill="#fff"/>
    <path id="Trazado_211270" data-name="Trazado 211270" d="M38.235,44.492H33.208a1.084,1.084,0,0,1,0-2.168h5.027a1.084,1.084,0,0,1,0,2.168" fill="#eaa27f"/>
    <path id="Trazado_211271" data-name="Trazado 211271" d="M60.144,55.652H51.038V53.286h9.106a1.819,1.819,0,0,0,1.817-1.816V45.96h2.365v5.51a4.187,4.187,0,0,1-4.182,4.182" fill="#2f373b"/>
    <rect id="Rectángulo_39093" data-name="Rectángulo 39093" width="8.775" height="13.98" transform="translate(2.922 33.959)" fill="#e6e6e6"/>
    <rect id="Rectángulo_39094" data-name="Rectángulo 39094" width="8.775" height="5.126" transform="translate(2.922 42.813)" fill="#ccc"/>
    <path id="Trazado_211272" data-name="Trazado 211272" d="M13.58,33.59V48.308a1.883,1.883,0,0,1-3.765,0V33.59a1.883,1.883,0,0,1,3.765,0" fill="#0c85a5"/>
    <path id="Trazado_211273" data-name="Trazado 211273" d="M13.58,33.59v8.622a1.883,1.883,0,1,1-3.765,0V33.59a1.883,1.883,0,0,1,3.765,0" fill="#1da2dd"/>
    <rect id="Rectángulo_39095" data-name="Rectángulo 39095" width="8.775" height="13.98" transform="translate(59.826 33.959)" fill="#e6e6e6"/>
    <rect id="Rectángulo_39096" data-name="Rectángulo 39096" width="8.775" height="5.126" transform="translate(59.826 42.813)" fill="#ccc"/>
    <path id="Trazado_211274" data-name="Trazado 211274" d="M57.943,33.59V48.308a1.882,1.882,0,0,0,3.765,0V33.59a1.882,1.882,0,0,0-3.765,0" fill="#0c85a5"/>
    <path id="Trazado_211275" data-name="Trazado 211275" d="M57.943,33.59v8.622a1.882,1.882,0,1,0,3.765,0V33.59a1.882,1.882,0,0,0-3.765,0" fill="#1da2dd"/>
    <path id="Trazado_211276" data-name="Trazado 211276" d="M55.566,54.292v.355a2.4,2.4,0,0,1-.28,1.129,2.423,2.423,0,0,1-2.145,1.293H48.933a2.422,2.422,0,0,1-2.423-2.422v-.355a2.426,2.426,0,0,1,2.206-2.415c.071-.006.144-.01.217-.01h4.209a2.425,2.425,0,0,1,2.424,2.425" fill="#ccc"/>
    <path id="Trazado_211277" data-name="Trazado 211277" d="M55.566,54.292v.355a2.4,2.4,0,0,1-.28,1.129c-.071.006-.144.01-.217.01h-4.21a2.424,2.424,0,0,1-2.423-2.422v-.357a2.394,2.394,0,0,1,.28-1.13c.071,0,.144-.009.217-.009h4.209a2.424,2.424,0,0,1,2.424,2.424" fill="#e6e6e6"/>
    <path id="Trazado_211278" data-name="Trazado 211278" d="M97.467,45.806a9.852,9.852,0,1,1-6.505-9.275,9.864,9.864,0,0,1,6.505,9.275" fill="#dd104f"/>
    <path id="Trazado_211279" data-name="Trazado 211279" d="M97.437,45.033a22.974,22.974,0,0,0-12.579-2.02,9.883,9.883,0,0,1,6.1-6.483,9.869,9.869,0,0,1,6.475,8.5" fill="#f71c55"/>
    <path id="Trazado_211280" data-name="Trazado 211280" d="M104.805,106.919a61.861,61.861,0,0,1-40.982,17.1v-3.106a17.971,17.971,0,0,1,9.025-15.594,17.769,17.769,0,0,1,4.739-1.886,17.584,17.584,0,0,1,2.746-.438c.487-.04.975-.061,1.471-.061H93.512a18.018,18.018,0,0,1,4.025.451l.193.046a17.848,17.848,0,0,1,4.738,1.888,17.586,17.586,0,0,1,2.337,1.6" fill="#5c7891"/>
    <path id="Trazado_211281" data-name="Trazado 211281" d="M104.805,106.919A61.68,61.68,0,0,1,73,123.067v-2.159a17.982,17.982,0,0,1,17.983-17.979h2.524a17.9,17.9,0,0,1,11.293,3.99" fill="#99c8f2"/>
    <path id="Trazado_211282" data-name="Trazado 211282" d="M94.072,96v7.872a6.415,6.415,0,0,1-12.829,0V96Z" fill="#eaa27f"/>
    <path id="Trazado_211283" data-name="Trazado 211283" d="M94.072,103.378v.5A6.413,6.413,0,0,1,89.553,110a6.41,6.41,0,0,1-4.464-5.292q.644.039,1.292.039a22.148,22.148,0,0,0,7.691-1.373" fill="#f6ba97"/>
    <path id="Trazado_211284" data-name="Trazado 211284" d="M69.771,83.1a5.965,5.965,0,1,1-5.01-5.889,5.966,5.966,0,0,1,5.01,5.889" fill="#f6ba97"/>
    <path id="Trazado_211285" data-name="Trazado 211285" d="M69.771,83.1a5.966,5.966,0,0,1-5.01,5.889,22.317,22.317,0,0,1,0-11.778,5.965,5.965,0,0,1,5.01,5.889" fill="#eaa27f"/>
    <path id="Trazado_211286" data-name="Trazado 211286" d="M63.806,80.97A2.132,2.132,0,1,1,61.674,83.1a2.133,2.133,0,0,1,2.132-2.132" fill="#eaa27f"/>
    <path id="Trazado_211287" data-name="Trazado 211287" d="M105.543,83.1a5.965,5.965,0,1,0,5.01-5.889,5.966,5.966,0,0,0-5.01,5.889" fill="#f6ba97"/>
    <path id="Trazado_211288" data-name="Trazado 211288" d="M105.543,83.1a5.966,5.966,0,0,0,5.01,5.889,22.317,22.317,0,0,0,0-11.778,5.965,5.965,0,0,0-5.01,5.889" fill="#eaa27f"/>
    <path id="Trazado_211289" data-name="Trazado 211289" d="M111.508,80.97a2.132,2.132,0,1,1-2.132,2.132,2.133,2.133,0,0,1,2.132-2.132" fill="#eaa27f"/>
    <path id="Trazado_211290" data-name="Trazado 211290" d="M109.852,71.481v8.452A22.194,22.194,0,0,1,91.219,101.84l-.109.018a21.946,21.946,0,0,1-3.454.268A22.193,22.193,0,0,1,65.463,79.933V71.481a22.183,22.183,0,0,1,22.193-22.2h0a22.182,22.182,0,0,1,22.193,22.2" fill="#eaa27f"/>
    <path id="Trazado_211291" data-name="Trazado 211291" d="M109.852,71.481v8.452A22.194,22.194,0,0,1,91.219,101.84l-.109.018A22.2,22.2,0,0,1,72.374,79.933V71.481a22.2,22.2,0,0,1,18.74-21.927,22.2,22.2,0,0,1,18.738,21.927" fill="#f6ba97"/>
    <path id="Trazado_211292" data-name="Trazado 211292" d="M100,83a2.764,2.764,0,1,1-2.765,2.765A2.765,2.765,0,0,1,100,83" fill="#eaa27f"/>
    <path id="Trazado_211293" data-name="Trazado 211293" d="M75.315,83A2.764,2.764,0,1,1,72.55,85.76,2.765,2.765,0,0,1,75.315,83" fill="#eaa27f"/>
    <path id="Trazado_211294" data-name="Trazado 211294" d="M99.576,78.058a3.686,3.686,0,0,0-7.372,0" fill="#eaa27f"/>
    <path id="Trazado_211295" data-name="Trazado 211295" d="M83.112,78.058a3.686,3.686,0,0,0-7.372,0" fill="#eaa27f"/>
    <path id="Trazado_211296" data-name="Trazado 211296" d="M79.426,77.109a2.518,2.518,0,1,1-2.518,2.518,2.518,2.518,0,0,1,2.518-2.518" fill="#2f373b"/>
    <path id="Trazado_211297" data-name="Trazado 211297" d="M95.89,77.109a2.518,2.518,0,1,1-2.518,2.518,2.518,2.518,0,0,1,2.518-2.518" fill="#2f373b"/>
    <path id="Trazado_211298" data-name="Trazado 211298" d="M90.175,85.967H85.139a1.086,1.086,0,0,1,0-2.172h5.036a1.086,1.086,0,0,1,0,2.172" fill="#eaa27f"/>
    <path id="Trazado_211299" data-name="Trazado 211299" d="M87.658,92.838a11.219,11.219,0,0,1-5.411-1.4A.988.988,0,0,1,83.2,89.71a9.212,9.212,0,0,0,8.92,0,.988.988,0,1,1,.951,1.731,11.222,11.222,0,0,1-5.411,1.4" fill="#eaa27f"/>
    <path id="Trazado_211300" data-name="Trazado 211300" d="M80.351,78.1a1.079,1.079,0,1,1-1.079,1.079A1.079,1.079,0,0,1,80.351,78.1" fill="#fff"/>
    <path id="Trazado_211301" data-name="Trazado 211301" d="M110.551,68.7v8.514c-14.623-1.24-22.9-9.029-22.9-15.94,0,6.911-8.272,14.7-22.894,15.94V68.7a22.895,22.895,0,1,1,45.789,0" fill="#f71c55"/>
    <path id="Trazado_211302" data-name="Trazado 211302" d="M91.359,46.106A22.9,22.9,0,0,0,72.167,68.7v7.212a40.354,40.354,0,0,1-7.4,1.3V68.7a22.9,22.9,0,0,1,26.6-22.594" fill="#dd104f"/>
    <path id="Trazado_211303" data-name="Trazado 211303" d="M96.939,78.1a1.079,1.079,0,1,1-1.079,1.079A1.079,1.079,0,0,1,96.939,78.1" fill="#fff"/>
  </g>
</svg>
