<svg id="desarrollo-de-aplicaciones" xmlns="http://www.w3.org/2000/svg" width="105" height="105" viewBox="0 0 105 105">
  <path id="Trazado_210710" data-name="Trazado 210710" d="M60.656,58.281v3.281H18V58.281A3.291,3.291,0,0,1,21.281,55H57.375A3.291,3.291,0,0,1,60.656,58.281Z" transform="translate(11.531 35.234)" fill="#dedede"/>
  <path id="Trazado_210711" data-name="Trazado 210711" d="M54.453,51l1.641,6.563H20L21.641,51Z" transform="translate(12.813 32.672)" fill="#969696"/>
  <path id="Trazado_210712" data-name="Trazado 210712" d="M7.563,56.125A6.563,6.563,0,0,1,1,49.563V43H102.719v6.563a6.563,6.563,0,0,1-6.562,6.563Z" transform="translate(0.641 27.547)" fill="#b5b5b5"/>
  <path id="Trazado_210713" data-name="Trazado 210713" d="M102.719,7.563V69.906H1V7.563A6.563,6.563,0,0,1,7.563,1H96.156A6.563,6.563,0,0,1,102.719,7.563Z" transform="translate(0.641 0.641)" fill="#f2f2f2"/>
  <path id="Trazado_210714" data-name="Trazado 210714" d="M30.046,52.641H54.863L54.453,51H21.641L20,57.563h3.7a6.562,6.562,0,0,1,6.349-4.922Z" transform="translate(12.813 32.672)" fill="gray"/>
  <path id="Trazado_210715" data-name="Trazado 210715" d="M23.224,55H21.281A3.291,3.291,0,0,0,18,58.281v3.281H60.656V58.281H27.844A4.905,4.905,0,0,1,23.224,55Z" transform="translate(11.531 35.234)" fill="#b5b5b5"/>
  <path id="Trazado_210716" data-name="Trazado 210716" d="M99.438,43v6.563a3.28,3.28,0,0,1-3.281,3.281H7.563a3.28,3.28,0,0,1-3.281-3.281V43H1v6.563a6.563,6.563,0,0,0,6.563,6.563H96.156a6.563,6.563,0,0,0,6.563-6.562V43Z" transform="translate(0.641 27.547)" fill="#a3a3a3"/>
  <path id="Trazado_210717" data-name="Trazado 210717" d="M96.156,1H7.563A6.563,6.563,0,0,0,1,7.563V69.906H4.281V7.563A3.28,3.28,0,0,1,7.563,4.281H96.156a3.28,3.28,0,0,1,3.281,3.281V69.906h3.281V7.563A6.563,6.563,0,0,0,96.156,1Z" transform="translate(0.641 0.641)" fill="#dedede"/>
  <path id="Trazado_210718" data-name="Trazado 210718" d="M92.313,3H7C7,35.648,46.624,62.063,95.594,62.063V6.281A3.28,3.28,0,0,0,92.313,3Z" transform="translate(4.484 1.922)" fill="#fff"/>
  <path id="Trazado_210719" data-name="Trazado 210719" d="M31,57H76.938v3.281a6.563,6.563,0,0,1-6.562,6.563H37.563A6.563,6.563,0,0,1,31,60.281Z" transform="translate(19.859 36.516)" fill="#5acafa"/>
  <path id="Trazado_210720" data-name="Trazado 210720" d="M76.938,21.563V23.2H65.453s0,4.922-3.281,4.922H45.766c-3.281,0-3.281-4.922-3.281-4.922H31V21.563A6.563,6.563,0,0,1,37.563,15H70.375A6.563,6.563,0,0,1,76.938,21.563Z" transform="translate(19.859 9.609)" fill="#5acafa"/>
  <path id="Trazado_210721" data-name="Trazado 210721" d="M76.938,20V80.7H31V20H42.484s0,4.922,3.281,4.922H62.172c3.281,0,3.281-4.922,3.281-4.922Z" transform="translate(19.859 12.813)" fill="#dedede"/>
  <path id="Trazado_210722" data-name="Trazado 210722" d="M41.281,24.922H57.688c3.281,0,3.281-4.922,3.281-4.922H38S38,24.922,41.281,24.922Z" transform="translate(24.344 12.813)" fill="#5acafa"/>
  <path id="Trazado_210723" data-name="Trazado 210723" d="M70.375,63.563H37.563A6.563,6.563,0,0,1,31,57v3.281a6.563,6.563,0,0,0,6.563,6.563H70.375a6.563,6.563,0,0,0,6.563-6.562V57A6.563,6.563,0,0,1,70.375,63.563Z" transform="translate(19.859 36.516)" fill="#1c99eb"/>
  <path id="Trazado_210724" data-name="Trazado 210724" d="M62.891,20s0,4.922-3.281,4.922H43.2c-3.281,0-3.281-4.922-3.281-4.922H35c0,27.2,17.61,49.219,39.375,49.219V20Z" transform="translate(22.422 12.813)" fill="#f2f2f2"/>
  <path id="Trazado_210725" data-name="Trazado 210725" d="M37.563,18.281H70.375A6.544,6.544,0,0,1,76.706,23.2h.231V21.563A6.563,6.563,0,0,0,70.375,15H37.563A6.563,6.563,0,0,0,31,21.563V23.2h.231A6.544,6.544,0,0,1,37.563,18.281Z" transform="translate(19.859 9.609)" fill="#1c99eb"/>
  <ellipse id="Elipse_4768" data-name="Elipse 4768" cx="16.5" cy="16" rx="16.5" ry="16" transform="translate(57 48)" fill="#0af"/>
  <path id="Trazado_210726" data-name="Trazado 210726" d="M38,44.484l8.2,8.2L60.969,37.922,56.047,33,46.2,42.844l-3.281-3.281Z" transform="translate(24.344 21.141)" fill="#f2f2f2"/>
  <path id="Trazado_210727" data-name="Trazado 210727" d="M41.094,26.328V19.766h-3.66a14.68,14.68,0,0,0-1.9-4.569l2.591-2.591-4.64-4.64L30.9,10.557a14.681,14.681,0,0,0-4.569-1.9V5H19.766V8.66a14.68,14.68,0,0,0-4.569,1.9L12.606,7.966l-4.64,4.64L10.557,15.2a14.68,14.68,0,0,0-1.9,4.569H5v6.563H8.66a14.68,14.68,0,0,0,1.9,4.569L7.966,33.488l4.64,4.64L15.2,35.537a14.68,14.68,0,0,0,4.569,1.9v3.66h6.563v-3.66a14.68,14.68,0,0,0,4.569-1.9l2.591,2.591,4.64-4.64L35.537,30.9a14.68,14.68,0,0,0,1.9-4.569Z" transform="translate(3.203 3.203)" fill="#939393"/>
  <circle id="Elipse_4769" data-name="Elipse 4769" cx="6.5" cy="6.5" r="6.5" transform="translate(20 20)" fill="#fff"/>
  <ellipse id="Elipse_4770" data-name="Elipse 4770" cx="6.5" cy="7" rx="6.5" ry="7" transform="translate(38 57)" fill="none"/>
  <path id="Trazado_210728" data-name="Trazado 210728" d="M27.484,46.047a6.563,6.563,0,0,1,13.125,0V32.841a14.572,14.572,0,0,0-3.281-1.181V28H30.766v3.66a14.68,14.68,0,0,0-4.569,1.9l-2.591-2.591-4.64,4.64L21.557,38.2a14.68,14.68,0,0,0-1.9,4.569H16v6.563h3.66a14.571,14.571,0,0,0,1.181,3.281H34.047a6.563,6.563,0,0,1-6.562-6.562Z" transform="translate(10.25 17.938)" fill="#8e8d92"/>
  <path id="Trazado_210729" data-name="Trazado 210729" d="M27,45.563h6.563V39A6.563,6.563,0,0,1,27,45.563Z" transform="translate(17.297 24.984)" fill="#8e8d92"/>
  <path id="Trazado_210730" data-name="Trazado 210730" d="M52,49.585,48.12,53.461l-8.2-8.2,2.625-2.617a16.1,16.1,0,0,1-2.486-10.849A16.4,16.4,0,1,0,67.684,45.6a16.271,16.271,0,0,1-15.679,3.985Z" transform="translate(22.427 20.367)" fill="#007aff"/>
  <path id="Trazado_210731" data-name="Trazado 210731" d="M46.2,49.225l3.877-3.877a16.417,16.417,0,0,1-9.455-6.943L38,41.022Z" transform="translate(24.344 24.603)" fill="#dedede"/>
  <path id="Trazado_210732" data-name="Trazado 210732" d="M27,56h6.563v1.641H27Z" transform="translate(17.297 35.875)" fill="#b5b5b5"/>
  <g id="Grupo_147846" data-name="Grupo 147846" transform="translate(44.297 72.173)">
    <path id="Trazado_210733" data-name="Trazado 210733" d="M27,52h6.563v4.922H27Z" transform="translate(-27 -38.86)" fill="#706f73"/>
    <path id="Trazado_210734" data-name="Trazado 210734" d="M27,52h2.025a6.662,6.662,0,0,1,5.093,3.281H27Z" transform="translate(-27 -38.86)" fill="#706f73"/>
    <path id="Trazado_210735" data-name="Trazado 210735" d="M27,43.991h6.563v8.218H27Z" transform="translate(-27 -43.991)" fill="#706f73"/>
  </g>
  <path id="Trazado_210736" data-name="Trazado 210736" d="M27,50h6.563v3.281H27Z" transform="translate(17.297 32.031)" fill="#454547"/>
  <path id="Trazado_210737" data-name="Trazado 210737" d="M27,43.03v1.641h4.922l1.718-1.718" transform="translate(17.297 27.517)" fill="#666569"/>
  <path id="Trazado_210738" data-name="Trazado 210738" d="M27,54h6.563v3.281H27Z" transform="translate(17.297 34.594)" fill="#454547"/>
  <path id="Trazado_210739" data-name="Trazado 210739" d="M33.065,15H38.01l-7.27,7.271-1.545,1.545v-5Z" transform="translate(18.703 9.609)" fill="#e8e6e6"/>
  <path id="Trazado_210740" data-name="Trazado 210740" d="M27,57h6.563v3.281H27Z" transform="translate(17.297 36.516)" fill="gray"/>
  <path id="Trazado_210741" data-name="Trazado 210741" d="M27,49h6.563v1.659H27Z" transform="translate(17.297 31.391)" fill="#7c7b7b"/>
  <path id="Trazado_210742" data-name="Trazado 210742" d="M30.281,41.127a13.044,13.044,0,0,1,3.281,1.422v-23.6A9.072,9.072,0,0,1,34.471,15h-.909C29.938,15,27,18.537,27,22.9V36.722h3.281Z" transform="translate(17.297 9.609)" fill="#e8e6e6"/>
  <path id="Trazado_210743" data-name="Trazado 210743" d="M33.563,41.563A6.563,6.563,0,0,0,27,35V48.125A6.563,6.563,0,0,0,33.563,41.563Z" transform="translate(17.297 22.422)" fill="#cfcfcf"/>
  <path id="Trazado_210744" data-name="Trazado 210744" d="M30.281,31.66V28H27V39.484a6.563,6.563,0,0,1,6.563,6.563V32.841A14.572,14.572,0,0,0,30.281,31.66Z" transform="translate(17.297 17.938)" fill="#706f73"/>
  <path id="Trazado_210745" data-name="Trazado 210745" d="M33.563,39A6.563,6.563,0,0,1,27,45.563h6.563Z" transform="translate(17.297 24.984)" fill="#666569"/>
  <path id="Trazado_210746" data-name="Trazado 210746" d="M3.281,8.2A4.922,4.922,0,0,1,8.2,3.281h3.281V0H8.2A8.212,8.212,0,0,0,0,8.2V77.109a8.212,8.212,0,0,0,8.2,8.2H32.351L31.48,88.8a4.921,4.921,0,0,0-3.59,4.715V96.8a1.641,1.641,0,0,0,1.641,1.641H44.3V95.156H31.172V93.516a1.641,1.641,0,0,1,1.641-1.641H44.3V88.594H34.914l.82-3.281H44.3V82.031H8.2a4.922,4.922,0,0,1-4.922-4.922V72.188H44.3V68.906H3.281Z"/>
  <path id="Trazado_210747" data-name="Trazado 210747" d="M9,0h3.283V3.281H9Z" transform="translate(5.766)"/>
  <path id="Trazado_210748" data-name="Trazado 210748" d="M88.469,0H13V3.281H88.469A4.922,4.922,0,0,1,93.391,8.2V77.109a4.921,4.921,0,0,1-3.281,4.62V31.172a8.212,8.212,0,0,0-8.2-8.2H49.094a8.212,8.212,0,0,0-8.2,8.2V96.8a8.212,8.212,0,0,0,8.2,8.2H81.906a8.212,8.212,0,0,0,8.2-8.2V85.148a8.218,8.218,0,0,0,6.563-8.039V8.2A8.212,8.212,0,0,0,88.469,0ZM49.094,26.25H81.906a4.922,4.922,0,0,1,4.922,4.922H76.984a1.641,1.641,0,0,0-1.641,1.641c0,.033-.092,3.281-1.641,3.281H57.3c-1.549,0-1.641-3.253-1.641-3.281a1.641,1.641,0,0,0-1.641-1.641H44.172A4.922,4.922,0,0,1,49.094,26.25Zm37.734,8.2V91.875H44.172V34.453h8.356c.407,2.244,1.695,4.922,4.769,4.922H73.7c3.075,0,4.362-2.678,4.769-4.922Zm-4.922,67.266H49.094A4.922,4.922,0,0,1,44.172,96.8V95.156H86.828V96.8A4.922,4.922,0,0,1,81.906,101.719Z" transform="translate(8.328)"/>
  <path id="Trazado_210749" data-name="Trazado 210749" d="M4,46H7.281v3.281H4Z" transform="translate(2.563 29.469)"/>
  <path id="Trazado_210750" data-name="Trazado 210750" d="M8,46h9.844v3.281H8Z" transform="translate(5.125 29.469)"/>
  <path id="Trazado_210751" data-name="Trazado 210751" d="M41,18H54.125v3.281H41Z" transform="translate(26.266 11.531)"/>
  <path id="Trazado_210752" data-name="Trazado 210752" d="M41,59H54.125v3.281H41Z" transform="translate(26.266 37.797)"/>
  <path id="Trazado_210753" data-name="Trazado 210753" d="M7.445,14.406l1.7,1.7a16.388,16.388,0,0,0-1.1,2.656H5.641A1.641,1.641,0,0,0,4,20.406v6.563a1.641,1.641,0,0,0,1.641,1.641H8.046a16.4,16.4,0,0,0,1.1,2.656l-1.7,1.7a1.642,1.642,0,0,0,0,2.32l4.641,4.641a1.642,1.642,0,0,0,2.32,0l1.7-1.7a16.388,16.388,0,0,0,2.656,1.1v2.405a1.641,1.641,0,0,0,1.641,1.641h6.563a1.641,1.641,0,0,0,1.641-1.641V39.329a16.4,16.4,0,0,0,2.656-1.1l1.7,1.7a1.642,1.642,0,0,0,2.32,0l4.641-4.641a1.642,1.642,0,0,0,0-2.32l-1.7-1.7a16.388,16.388,0,0,0,1.1-2.656h2.405a1.641,1.641,0,0,0,1.641-1.641V20.406a1.641,1.641,0,0,0-1.641-1.641H39.329a16.4,16.4,0,0,0-1.1-2.656l1.7-1.7a1.642,1.642,0,0,0,0-2.32L35.288,7.445a1.642,1.642,0,0,0-2.32,0l-1.7,1.7a16.4,16.4,0,0,0-2.656-1.1V5.641A1.641,1.641,0,0,0,26.969,4H20.406a1.641,1.641,0,0,0-1.641,1.641V8.046a16.4,16.4,0,0,0-2.656,1.1l-1.7-1.7a1.642,1.642,0,0,0-2.32,0L7.445,12.087a1.642,1.642,0,0,0,0,2.32Zm3.445,6.364a12.977,12.977,0,0,1,1.685-4.057,1.641,1.641,0,0,0-.228-2.036l-1.431-1.431,2.33-2.32,1.431,1.431a1.641,1.641,0,0,0,2.036.228A12.977,12.977,0,0,1,20.77,10.9a1.643,1.643,0,0,0,1.276-1.6V7.281h3.281V9.3A1.643,1.643,0,0,0,26.6,10.9a12.976,12.976,0,0,1,4.057,1.685,1.641,1.641,0,0,0,2.036-.228l1.431-1.431,2.32,2.32-1.431,1.431a1.641,1.641,0,0,0-.228,2.036,12.977,12.977,0,0,1,1.685,4.057,1.643,1.643,0,0,0,1.6,1.276h2.018v3.281H38.076a1.643,1.643,0,0,0-1.6,1.276,12.977,12.977,0,0,1-1.685,4.057,1.641,1.641,0,0,0,.228,2.036l1.431,1.431-2.32,2.32L32.7,35.018a1.641,1.641,0,0,0-2.036-.228A12.977,12.977,0,0,1,26.6,36.475a1.643,1.643,0,0,0-1.276,1.6v2.018H22.047V38.076a1.643,1.643,0,0,0-1.276-1.6,12.977,12.977,0,0,1-4.057-1.685,1.641,1.641,0,0,0-2.036.228l-1.431,1.431-2.32-2.32L12.357,32.7a1.641,1.641,0,0,0,.228-2.036A12.977,12.977,0,0,1,10.9,26.6a1.643,1.643,0,0,0-1.6-1.276H7.281V22.047H9.3a1.643,1.643,0,0,0,1.6-1.276Z" transform="translate(2.563 2.562)"/>
  <path id="Trazado_210754" data-name="Trazado 210754" d="M19.2,27.406A8.2,8.2,0,1,0,11,19.2,8.2,8.2,0,0,0,19.2,27.406Zm0-13.125A4.922,4.922,0,1,1,14.281,19.2,4.922,4.922,0,0,1,19.2,14.281Z" transform="translate(7.047 7.047)"/>
  <path id="Trazado_210755" data-name="Trazado 210755" d="M29.766,28.641v2.405a16.4,16.4,0,0,0-2.656,1.1l-1.7-1.7a1.642,1.642,0,0,0-2.32,0l-4.641,4.641a1.642,1.642,0,0,0,0,2.32l1.7,1.7a16.388,16.388,0,0,0-1.1,2.656H16.641A1.641,1.641,0,0,0,15,43.406v6.563h3.281V45.047H20.3a1.643,1.643,0,0,0,1.6-1.276,12.976,12.976,0,0,1,1.685-4.057,1.641,1.641,0,0,0-.228-2.036l-1.431-1.431,2.32-2.32,1.431,1.431a1.641,1.641,0,0,0,2.036.228A12.977,12.977,0,0,1,31.77,33.9a1.643,1.643,0,0,0,1.276-1.6V30.281h1.641V27H31.406a1.641,1.641,0,0,0-1.641,1.641Z" transform="translate(9.609 17.297)"/>
  <path id="Trazado_210756" data-name="Trazado 210756" d="M30.2,37.281V34A8.212,8.212,0,0,0,22,42.2h3.281A4.922,4.922,0,0,1,30.2,37.281Z" transform="translate(14.094 21.781)"/>
  <path id="Trazado_210757" data-name="Trazado 210757" d="M34,46.047A18.047,18.047,0,1,0,52.047,28,18.047,18.047,0,0,0,34,46.047Zm32.813,0A14.766,14.766,0,1,1,52.047,31.281,14.765,14.765,0,0,1,66.813,46.047Z" transform="translate(21.781 17.938)"/>
  <path id="Trazado_210758" data-name="Trazado 210758" d="M44.722,39.043a1.642,1.642,0,0,0-2.32,0L37.48,43.965a1.642,1.642,0,0,0,0,2.32l8.2,8.2a1.642,1.642,0,0,0,2.32,0L62.769,39.722a1.642,1.642,0,0,0,0-2.32L57.847,32.48a1.642,1.642,0,0,0-2.32,0l-8.684,8.684ZM56.687,35.96l2.6,2.6L46.843,51.008,40.96,45.125l2.6-2.6,2.121,2.121a1.642,1.642,0,0,0,2.32,0Z" transform="translate(23.703 20.5)"/>
  <path id="Trazado_210759" data-name="Trazado 210759" d="M57,4h3.281V7.281H57Z" transform="translate(36.516 2.563)"/>
  <path id="Trazado_210760" data-name="Trazado 210760" d="M42,4H63.328V7.281H42Z" transform="translate(26.906 2.563)"/>
</svg>
